<?xml version="1.0" encoding="utf-8" standalone="no"?>
<!DOCTYPE svg PUBLIC "-//W3C//DTD SVG 1.1//EN"
  "http://www.w3.org/Graphics/SVG/1.1/DTD/svg11.dtd">
<svg xmlns:xlink="http://www.w3.org/1999/xlink" width="449.427656pt" height="333.997656pt" viewBox="0 0 449.427656 333.997656" xmlns="http://www.w3.org/2000/svg" version="1.1">
 <metadata>
  <rdf:RDF xmlns:dc="http://purl.org/dc/elements/1.1/" xmlns:cc="http://creativecommons.org/ns#" xmlns:rdf="http://www.w3.org/1999/02/22-rdf-syntax-ns#">
   <cc:Work>
    <dc:type rdf:resource="http://purl.org/dc/dcmitype/StillImage"/>
    <dc:date>2023-10-03T10:11:05.329811</dc:date>
    <dc:format>image/svg+xml</dc:format>
    <dc:creator>
     <cc:Agent>
      <dc:title>Matplotlib v3.8.0, https://matplotlib.org/</dc:title>
     </cc:Agent>
    </dc:creator>
   </cc:Work>
  </rdf:RDF>
 </metadata>
 <defs>
  <style type="text/css">*{stroke-linejoin: round; stroke-linecap: butt}</style>
 </defs>
 <g id="figure_1">
  <g id="patch_1">
   <path d="M 0 333.997656 
L 449.427656 333.997656 
L 449.427656 0 
L 0 0 
z
" style="fill: #ffffff"/>
  </g>
  <g id="axes_1">
   <g id="patch_2">
    <path d="M 47.507656 287.590625 
L 442.227656 287.590625 
L 442.227656 34.426875 
L 47.507656 34.426875 
z
" style="fill: #ffffff"/>
   </g>
   <g id="matplotlib.axis_1">
    <g id="xtick_1">
     <g id="line2d_1">
      <defs>
       <path id="m1f804c7cb8" d="M 0 0 
L 0 -6 
" style="stroke: #000000; stroke-width: 1.25"/>
      </defs>
      <g>
       <use xlink:href="#m1f804c7cb8" x="65.44951" y="287.590625" style="fill: #ffffff; stroke: #000000; stroke-width: 1.25"/>
      </g>
     </g>
     <g id="line2d_2">
      <defs>
       <path id="m737a9575d0" d="M 0 0 
L 0 6 
" style="stroke: #000000; stroke-width: 1.25"/>
      </defs>
      <g>
       <use xlink:href="#m737a9575d0" x="65.44951" y="34.426875" style="fill: #ffffff; stroke: #000000; stroke-width: 1.25"/>
      </g>
     </g>
     <g id="text_1">
      <!-- 0 -->
      <g transform="translate(62.44951 299.423125) scale(0.12 -0.12)">
       <defs>
        <path id="TimesNewRomanPSMT-30" d="M 231 2094 
Q 231 2819 450 3342 
Q 669 3866 1031 4122 
Q 1313 4325 1613 4325 
Q 2100 4325 2488 3828 
Q 2972 3213 2972 2159 
Q 2972 1422 2759 906 
Q 2547 391 2217 158 
Q 1888 -75 1581 -75 
Q 975 -75 572 641 
Q 231 1244 231 2094 
z
M 844 2016 
Q 844 1141 1059 588 
Q 1238 122 1591 122 
Q 1759 122 1940 273 
Q 2122 425 2216 781 
Q 2359 1319 2359 2297 
Q 2359 3022 2209 3506 
Q 2097 3866 1919 4016 
Q 1791 4119 1609 4119 
Q 1397 4119 1231 3928 
Q 1006 3669 925 3112 
Q 844 2556 844 2016 
z
" transform="scale(0.015625)"/>
       </defs>
       <use xlink:href="#TimesNewRomanPSMT-30"/>
      </g>
     </g>
    </g>
    <g id="xtick_2">
     <g id="line2d_3">
      <g>
       <use xlink:href="#m1f804c7cb8" x="123.008279" y="287.590625" style="fill: #ffffff; stroke: #000000; stroke-width: 1.25"/>
      </g>
     </g>
     <g id="line2d_4">
      <g>
       <use xlink:href="#m737a9575d0" x="123.008279" y="34.426875" style="fill: #ffffff; stroke: #000000; stroke-width: 1.25"/>
      </g>
     </g>
     <g id="text_2">
      <!-- 50 -->
      <g transform="translate(117.008279 299.423125) scale(0.12 -0.12)">
       <defs>
        <path id="TimesNewRomanPSMT-35" d="M 2778 4238 
L 2534 3706 
L 1259 3706 
L 981 3138 
Q 1809 3016 2294 2522 
Q 2709 2097 2709 1522 
Q 2709 1188 2573 903 
Q 2438 619 2231 419 
Q 2025 219 1772 97 
Q 1413 -75 1034 -75 
Q 653 -75 479 54 
Q 306 184 306 341 
Q 306 428 378 495 
Q 450 563 559 563 
Q 641 563 702 538 
Q 763 513 909 409 
Q 1144 247 1384 247 
Q 1750 247 2026 523 
Q 2303 800 2303 1197 
Q 2303 1581 2056 1914 
Q 1809 2247 1375 2428 
Q 1034 2569 447 2591 
L 1259 4238 
L 2778 4238 
z
" transform="scale(0.015625)"/>
       </defs>
       <use xlink:href="#TimesNewRomanPSMT-35"/>
       <use xlink:href="#TimesNewRomanPSMT-30" x="50"/>
      </g>
     </g>
    </g>
    <g id="xtick_3">
     <g id="line2d_5">
      <g>
       <use xlink:href="#m1f804c7cb8" x="180.567047" y="287.590625" style="fill: #ffffff; stroke: #000000; stroke-width: 1.25"/>
      </g>
     </g>
     <g id="line2d_6">
      <g>
       <use xlink:href="#m737a9575d0" x="180.567047" y="34.426875" style="fill: #ffffff; stroke: #000000; stroke-width: 1.25"/>
      </g>
     </g>
     <g id="text_3">
      <!-- 100 -->
      <g transform="translate(171.567047 299.423125) scale(0.12 -0.12)">
       <defs>
        <path id="TimesNewRomanPSMT-31" d="M 750 3822 
L 1781 4325 
L 1884 4325 
L 1884 747 
Q 1884 391 1914 303 
Q 1944 216 2037 169 
Q 2131 122 2419 116 
L 2419 0 
L 825 0 
L 825 116 
Q 1125 122 1212 167 
Q 1300 213 1334 289 
Q 1369 366 1369 747 
L 1369 3034 
Q 1369 3497 1338 3628 
Q 1316 3728 1258 3775 
Q 1200 3822 1119 3822 
Q 1003 3822 797 3725 
L 750 3822 
z
" transform="scale(0.015625)"/>
       </defs>
       <use xlink:href="#TimesNewRomanPSMT-31"/>
       <use xlink:href="#TimesNewRomanPSMT-30" x="50"/>
       <use xlink:href="#TimesNewRomanPSMT-30" x="100"/>
      </g>
     </g>
    </g>
    <g id="xtick_4">
     <g id="line2d_7">
      <g>
       <use xlink:href="#m1f804c7cb8" x="238.125816" y="287.590625" style="fill: #ffffff; stroke: #000000; stroke-width: 1.25"/>
      </g>
     </g>
     <g id="line2d_8">
      <g>
       <use xlink:href="#m737a9575d0" x="238.125816" y="34.426875" style="fill: #ffffff; stroke: #000000; stroke-width: 1.25"/>
      </g>
     </g>
     <g id="text_4">
      <!-- 150 -->
      <g transform="translate(229.125816 299.423125) scale(0.12 -0.12)">
       <use xlink:href="#TimesNewRomanPSMT-31"/>
       <use xlink:href="#TimesNewRomanPSMT-35" x="50"/>
       <use xlink:href="#TimesNewRomanPSMT-30" x="100"/>
      </g>
     </g>
    </g>
    <g id="xtick_5">
     <g id="line2d_9">
      <g>
       <use xlink:href="#m1f804c7cb8" x="295.684584" y="287.590625" style="fill: #ffffff; stroke: #000000; stroke-width: 1.25"/>
      </g>
     </g>
     <g id="line2d_10">
      <g>
       <use xlink:href="#m737a9575d0" x="295.684584" y="34.426875" style="fill: #ffffff; stroke: #000000; stroke-width: 1.25"/>
      </g>
     </g>
     <g id="text_5">
      <!-- 200 -->
      <g transform="translate(286.684584 299.423125) scale(0.12 -0.12)">
       <defs>
        <path id="TimesNewRomanPSMT-32" d="M 2934 816 
L 2638 0 
L 138 0 
L 138 116 
Q 1241 1122 1691 1759 
Q 2141 2397 2141 2925 
Q 2141 3328 1894 3587 
Q 1647 3847 1303 3847 
Q 991 3847 742 3664 
Q 494 3481 375 3128 
L 259 3128 
Q 338 3706 661 4015 
Q 984 4325 1469 4325 
Q 1984 4325 2329 3994 
Q 2675 3663 2675 3213 
Q 2675 2891 2525 2569 
Q 2294 2063 1775 1497 
Q 997 647 803 472 
L 1909 472 
Q 2247 472 2383 497 
Q 2519 522 2628 598 
Q 2738 675 2819 816 
L 2934 816 
z
" transform="scale(0.015625)"/>
       </defs>
       <use xlink:href="#TimesNewRomanPSMT-32"/>
       <use xlink:href="#TimesNewRomanPSMT-30" x="50"/>
       <use xlink:href="#TimesNewRomanPSMT-30" x="100"/>
      </g>
     </g>
    </g>
    <g id="xtick_6">
     <g id="line2d_11">
      <g>
       <use xlink:href="#m1f804c7cb8" x="353.243353" y="287.590625" style="fill: #ffffff; stroke: #000000; stroke-width: 1.25"/>
      </g>
     </g>
     <g id="line2d_12">
      <g>
       <use xlink:href="#m737a9575d0" x="353.243353" y="34.426875" style="fill: #ffffff; stroke: #000000; stroke-width: 1.25"/>
      </g>
     </g>
     <g id="text_6">
      <!-- 250 -->
      <g transform="translate(344.243353 299.423125) scale(0.12 -0.12)">
       <use xlink:href="#TimesNewRomanPSMT-32"/>
       <use xlink:href="#TimesNewRomanPSMT-35" x="50"/>
       <use xlink:href="#TimesNewRomanPSMT-30" x="100"/>
      </g>
     </g>
    </g>
    <g id="xtick_7">
     <g id="line2d_13">
      <g>
       <use xlink:href="#m1f804c7cb8" x="410.802121" y="287.590625" style="fill: #ffffff; stroke: #000000; stroke-width: 1.25"/>
      </g>
     </g>
     <g id="line2d_14">
      <g>
       <use xlink:href="#m737a9575d0" x="410.802121" y="34.426875" style="fill: #ffffff; stroke: #000000; stroke-width: 1.25"/>
      </g>
     </g>
     <g id="text_7">
      <!-- 300 -->
      <g transform="translate(401.802121 299.423125) scale(0.12 -0.12)">
       <defs>
        <path id="TimesNewRomanPSMT-33" d="M 325 3431 
Q 506 3859 782 4092 
Q 1059 4325 1472 4325 
Q 1981 4325 2253 3994 
Q 2459 3747 2459 3466 
Q 2459 3003 1878 2509 
Q 2269 2356 2469 2072 
Q 2669 1788 2669 1403 
Q 2669 853 2319 450 
Q 1863 -75 997 -75 
Q 569 -75 414 31 
Q 259 138 259 259 
Q 259 350 332 419 
Q 406 488 509 488 
Q 588 488 669 463 
Q 722 447 909 348 
Q 1097 250 1169 231 
Q 1284 197 1416 197 
Q 1734 197 1970 444 
Q 2206 691 2206 1028 
Q 2206 1275 2097 1509 
Q 2016 1684 1919 1775 
Q 1784 1900 1550 2001 
Q 1316 2103 1072 2103 
L 972 2103 
L 972 2197 
Q 1219 2228 1467 2375 
Q 1716 2522 1828 2728 
Q 1941 2934 1941 3181 
Q 1941 3503 1739 3701 
Q 1538 3900 1238 3900 
Q 753 3900 428 3381 
L 325 3431 
z
" transform="scale(0.015625)"/>
       </defs>
       <use xlink:href="#TimesNewRomanPSMT-33"/>
       <use xlink:href="#TimesNewRomanPSMT-30" x="50"/>
       <use xlink:href="#TimesNewRomanPSMT-30" x="100"/>
      </g>
     </g>
    </g>
    <g id="xtick_8">
     <g id="line2d_15">
      <defs>
       <path id="m9c6ded95b2" d="M 0 0 
L 0 -3 
" style="stroke: #000000; stroke-width: 0.75"/>
      </defs>
      <g>
       <use xlink:href="#m9c6ded95b2" x="53.937756" y="287.590625" style="fill: #ffffff; stroke: #000000; stroke-width: 0.75"/>
      </g>
     </g>
     <g id="line2d_16">
      <defs>
       <path id="m4f613af90b" d="M 0 0 
L 0 3 
" style="stroke: #000000; stroke-width: 0.75"/>
      </defs>
      <g>
       <use xlink:href="#m4f613af90b" x="53.937756" y="34.426875" style="fill: #ffffff; stroke: #000000; stroke-width: 0.75"/>
      </g>
     </g>
    </g>
    <g id="xtick_9">
     <g id="line2d_17">
      <g>
       <use xlink:href="#m9c6ded95b2" x="76.961264" y="287.590625" style="fill: #ffffff; stroke: #000000; stroke-width: 0.75"/>
      </g>
     </g>
     <g id="line2d_18">
      <g>
       <use xlink:href="#m4f613af90b" x="76.961264" y="34.426875" style="fill: #ffffff; stroke: #000000; stroke-width: 0.75"/>
      </g>
     </g>
    </g>
    <g id="xtick_10">
     <g id="line2d_19">
      <g>
       <use xlink:href="#m9c6ded95b2" x="88.473018" y="287.590625" style="fill: #ffffff; stroke: #000000; stroke-width: 0.75"/>
      </g>
     </g>
     <g id="line2d_20">
      <g>
       <use xlink:href="#m4f613af90b" x="88.473018" y="34.426875" style="fill: #ffffff; stroke: #000000; stroke-width: 0.75"/>
      </g>
     </g>
    </g>
    <g id="xtick_11">
     <g id="line2d_21">
      <g>
       <use xlink:href="#m9c6ded95b2" x="99.984771" y="287.590625" style="fill: #ffffff; stroke: #000000; stroke-width: 0.75"/>
      </g>
     </g>
     <g id="line2d_22">
      <g>
       <use xlink:href="#m4f613af90b" x="99.984771" y="34.426875" style="fill: #ffffff; stroke: #000000; stroke-width: 0.75"/>
      </g>
     </g>
    </g>
    <g id="xtick_12">
     <g id="line2d_23">
      <g>
       <use xlink:href="#m9c6ded95b2" x="111.496525" y="287.590625" style="fill: #ffffff; stroke: #000000; stroke-width: 0.75"/>
      </g>
     </g>
     <g id="line2d_24">
      <g>
       <use xlink:href="#m4f613af90b" x="111.496525" y="34.426875" style="fill: #ffffff; stroke: #000000; stroke-width: 0.75"/>
      </g>
     </g>
    </g>
    <g id="xtick_13">
     <g id="line2d_25">
      <g>
       <use xlink:href="#m9c6ded95b2" x="134.520032" y="287.590625" style="fill: #ffffff; stroke: #000000; stroke-width: 0.75"/>
      </g>
     </g>
     <g id="line2d_26">
      <g>
       <use xlink:href="#m4f613af90b" x="134.520032" y="34.426875" style="fill: #ffffff; stroke: #000000; stroke-width: 0.75"/>
      </g>
     </g>
    </g>
    <g id="xtick_14">
     <g id="line2d_27">
      <g>
       <use xlink:href="#m9c6ded95b2" x="146.031786" y="287.590625" style="fill: #ffffff; stroke: #000000; stroke-width: 0.75"/>
      </g>
     </g>
     <g id="line2d_28">
      <g>
       <use xlink:href="#m4f613af90b" x="146.031786" y="34.426875" style="fill: #ffffff; stroke: #000000; stroke-width: 0.75"/>
      </g>
     </g>
    </g>
    <g id="xtick_15">
     <g id="line2d_29">
      <g>
       <use xlink:href="#m9c6ded95b2" x="157.54354" y="287.590625" style="fill: #ffffff; stroke: #000000; stroke-width: 0.75"/>
      </g>
     </g>
     <g id="line2d_30">
      <g>
       <use xlink:href="#m4f613af90b" x="157.54354" y="34.426875" style="fill: #ffffff; stroke: #000000; stroke-width: 0.75"/>
      </g>
     </g>
    </g>
    <g id="xtick_16">
     <g id="line2d_31">
      <g>
       <use xlink:href="#m9c6ded95b2" x="169.055293" y="287.590625" style="fill: #ffffff; stroke: #000000; stroke-width: 0.75"/>
      </g>
     </g>
     <g id="line2d_32">
      <g>
       <use xlink:href="#m4f613af90b" x="169.055293" y="34.426875" style="fill: #ffffff; stroke: #000000; stroke-width: 0.75"/>
      </g>
     </g>
    </g>
    <g id="xtick_17">
     <g id="line2d_33">
      <g>
       <use xlink:href="#m9c6ded95b2" x="192.078801" y="287.590625" style="fill: #ffffff; stroke: #000000; stroke-width: 0.75"/>
      </g>
     </g>
     <g id="line2d_34">
      <g>
       <use xlink:href="#m4f613af90b" x="192.078801" y="34.426875" style="fill: #ffffff; stroke: #000000; stroke-width: 0.75"/>
      </g>
     </g>
    </g>
    <g id="xtick_18">
     <g id="line2d_35">
      <g>
       <use xlink:href="#m9c6ded95b2" x="203.590554" y="287.590625" style="fill: #ffffff; stroke: #000000; stroke-width: 0.75"/>
      </g>
     </g>
     <g id="line2d_36">
      <g>
       <use xlink:href="#m4f613af90b" x="203.590554" y="34.426875" style="fill: #ffffff; stroke: #000000; stroke-width: 0.75"/>
      </g>
     </g>
    </g>
    <g id="xtick_19">
     <g id="line2d_37">
      <g>
       <use xlink:href="#m9c6ded95b2" x="215.102308" y="287.590625" style="fill: #ffffff; stroke: #000000; stroke-width: 0.75"/>
      </g>
     </g>
     <g id="line2d_38">
      <g>
       <use xlink:href="#m4f613af90b" x="215.102308" y="34.426875" style="fill: #ffffff; stroke: #000000; stroke-width: 0.75"/>
      </g>
     </g>
    </g>
    <g id="xtick_20">
     <g id="line2d_39">
      <g>
       <use xlink:href="#m9c6ded95b2" x="226.614062" y="287.590625" style="fill: #ffffff; stroke: #000000; stroke-width: 0.75"/>
      </g>
     </g>
     <g id="line2d_40">
      <g>
       <use xlink:href="#m4f613af90b" x="226.614062" y="34.426875" style="fill: #ffffff; stroke: #000000; stroke-width: 0.75"/>
      </g>
     </g>
    </g>
    <g id="xtick_21">
     <g id="line2d_41">
      <g>
       <use xlink:href="#m9c6ded95b2" x="249.637569" y="287.590625" style="fill: #ffffff; stroke: #000000; stroke-width: 0.75"/>
      </g>
     </g>
     <g id="line2d_42">
      <g>
       <use xlink:href="#m4f613af90b" x="249.637569" y="34.426875" style="fill: #ffffff; stroke: #000000; stroke-width: 0.75"/>
      </g>
     </g>
    </g>
    <g id="xtick_22">
     <g id="line2d_43">
      <g>
       <use xlink:href="#m9c6ded95b2" x="261.149323" y="287.590625" style="fill: #ffffff; stroke: #000000; stroke-width: 0.75"/>
      </g>
     </g>
     <g id="line2d_44">
      <g>
       <use xlink:href="#m4f613af90b" x="261.149323" y="34.426875" style="fill: #ffffff; stroke: #000000; stroke-width: 0.75"/>
      </g>
     </g>
    </g>
    <g id="xtick_23">
     <g id="line2d_45">
      <g>
       <use xlink:href="#m9c6ded95b2" x="272.661077" y="287.590625" style="fill: #ffffff; stroke: #000000; stroke-width: 0.75"/>
      </g>
     </g>
     <g id="line2d_46">
      <g>
       <use xlink:href="#m4f613af90b" x="272.661077" y="34.426875" style="fill: #ffffff; stroke: #000000; stroke-width: 0.75"/>
      </g>
     </g>
    </g>
    <g id="xtick_24">
     <g id="line2d_47">
      <g>
       <use xlink:href="#m9c6ded95b2" x="284.17283" y="287.590625" style="fill: #ffffff; stroke: #000000; stroke-width: 0.75"/>
      </g>
     </g>
     <g id="line2d_48">
      <g>
       <use xlink:href="#m4f613af90b" x="284.17283" y="34.426875" style="fill: #ffffff; stroke: #000000; stroke-width: 0.75"/>
      </g>
     </g>
    </g>
    <g id="xtick_25">
     <g id="line2d_49">
      <g>
       <use xlink:href="#m9c6ded95b2" x="307.196338" y="287.590625" style="fill: #ffffff; stroke: #000000; stroke-width: 0.75"/>
      </g>
     </g>
     <g id="line2d_50">
      <g>
       <use xlink:href="#m4f613af90b" x="307.196338" y="34.426875" style="fill: #ffffff; stroke: #000000; stroke-width: 0.75"/>
      </g>
     </g>
    </g>
    <g id="xtick_26">
     <g id="line2d_51">
      <g>
       <use xlink:href="#m9c6ded95b2" x="318.708091" y="287.590625" style="fill: #ffffff; stroke: #000000; stroke-width: 0.75"/>
      </g>
     </g>
     <g id="line2d_52">
      <g>
       <use xlink:href="#m4f613af90b" x="318.708091" y="34.426875" style="fill: #ffffff; stroke: #000000; stroke-width: 0.75"/>
      </g>
     </g>
    </g>
    <g id="xtick_27">
     <g id="line2d_53">
      <g>
       <use xlink:href="#m9c6ded95b2" x="330.219845" y="287.590625" style="fill: #ffffff; stroke: #000000; stroke-width: 0.75"/>
      </g>
     </g>
     <g id="line2d_54">
      <g>
       <use xlink:href="#m4f613af90b" x="330.219845" y="34.426875" style="fill: #ffffff; stroke: #000000; stroke-width: 0.75"/>
      </g>
     </g>
    </g>
    <g id="xtick_28">
     <g id="line2d_55">
      <g>
       <use xlink:href="#m9c6ded95b2" x="341.731599" y="287.590625" style="fill: #ffffff; stroke: #000000; stroke-width: 0.75"/>
      </g>
     </g>
     <g id="line2d_56">
      <g>
       <use xlink:href="#m4f613af90b" x="341.731599" y="34.426875" style="fill: #ffffff; stroke: #000000; stroke-width: 0.75"/>
      </g>
     </g>
    </g>
    <g id="xtick_29">
     <g id="line2d_57">
      <g>
       <use xlink:href="#m9c6ded95b2" x="364.755106" y="287.590625" style="fill: #ffffff; stroke: #000000; stroke-width: 0.75"/>
      </g>
     </g>
     <g id="line2d_58">
      <g>
       <use xlink:href="#m4f613af90b" x="364.755106" y="34.426875" style="fill: #ffffff; stroke: #000000; stroke-width: 0.75"/>
      </g>
     </g>
    </g>
    <g id="xtick_30">
     <g id="line2d_59">
      <g>
       <use xlink:href="#m9c6ded95b2" x="376.26686" y="287.590625" style="fill: #ffffff; stroke: #000000; stroke-width: 0.75"/>
      </g>
     </g>
     <g id="line2d_60">
      <g>
       <use xlink:href="#m4f613af90b" x="376.26686" y="34.426875" style="fill: #ffffff; stroke: #000000; stroke-width: 0.75"/>
      </g>
     </g>
    </g>
    <g id="xtick_31">
     <g id="line2d_61">
      <g>
       <use xlink:href="#m9c6ded95b2" x="387.778614" y="287.590625" style="fill: #ffffff; stroke: #000000; stroke-width: 0.75"/>
      </g>
     </g>
     <g id="line2d_62">
      <g>
       <use xlink:href="#m4f613af90b" x="387.778614" y="34.426875" style="fill: #ffffff; stroke: #000000; stroke-width: 0.75"/>
      </g>
     </g>
    </g>
    <g id="xtick_32">
     <g id="line2d_63">
      <g>
       <use xlink:href="#m9c6ded95b2" x="399.290367" y="287.590625" style="fill: #ffffff; stroke: #000000; stroke-width: 0.75"/>
      </g>
     </g>
     <g id="line2d_64">
      <g>
       <use xlink:href="#m4f613af90b" x="399.290367" y="34.426875" style="fill: #ffffff; stroke: #000000; stroke-width: 0.75"/>
      </g>
     </g>
    </g>
    <g id="xtick_33">
     <g id="line2d_65">
      <g>
       <use xlink:href="#m9c6ded95b2" x="422.313875" y="287.590625" style="fill: #ffffff; stroke: #000000; stroke-width: 0.75"/>
      </g>
     </g>
     <g id="line2d_66">
      <g>
       <use xlink:href="#m4f613af90b" x="422.313875" y="34.426875" style="fill: #ffffff; stroke: #000000; stroke-width: 0.75"/>
      </g>
     </g>
    </g>
    <g id="xtick_34">
     <g id="line2d_67">
      <g>
       <use xlink:href="#m9c6ded95b2" x="433.825628" y="287.590625" style="fill: #ffffff; stroke: #000000; stroke-width: 0.75"/>
      </g>
     </g>
     <g id="line2d_68">
      <g>
       <use xlink:href="#m4f613af90b" x="433.825628" y="34.426875" style="fill: #ffffff; stroke: #000000; stroke-width: 0.75"/>
      </g>
     </g>
    </g>
    <g id="text_8">
     <!-- Axial position (mm) -->
     <g transform="translate(191.789062 324.016875) scale(0.13 -0.13)">
      <defs>
       <path id="TimesNewRomanPSMT-41" d="M 2928 1419 
L 1288 1419 
L 1000 750 
Q 894 503 894 381 
Q 894 284 986 211 
Q 1078 138 1384 116 
L 1384 0 
L 50 0 
L 50 116 
Q 316 163 394 238 
Q 553 388 747 847 
L 2238 4334 
L 2347 4334 
L 3822 809 
Q 4000 384 4145 257 
Q 4291 131 4550 116 
L 4550 0 
L 2878 0 
L 2878 116 
Q 3131 128 3220 200 
Q 3309 272 3309 375 
Q 3309 513 3184 809 
L 2928 1419 
z
M 2841 1650 
L 2122 3363 
L 1384 1650 
L 2841 1650 
z
" transform="scale(0.015625)"/>
       <path id="TimesNewRomanPSMT-78" d="M 84 2863 
L 1431 2863 
L 1431 2747 
Q 1303 2747 1251 2703 
Q 1200 2659 1200 2588 
Q 1200 2513 1309 2356 
Q 1344 2306 1413 2200 
L 1616 1875 
L 1850 2200 
Q 2075 2509 2075 2591 
Q 2075 2656 2022 2701 
Q 1969 2747 1850 2747 
L 1850 2863 
L 2819 2863 
L 2819 2747 
Q 2666 2738 2553 2663 
Q 2400 2556 2134 2200 
L 1744 1678 
L 2456 653 
Q 2719 275 2831 198 
Q 2944 122 3122 113 
L 3122 0 
L 1772 0 
L 1772 113 
Q 1913 113 1991 175 
Q 2050 219 2050 291 
Q 2050 363 1850 653 
L 1431 1266 
L 972 653 
Q 759 369 759 316 
Q 759 241 829 180 
Q 900 119 1041 113 
L 1041 0 
L 106 0 
L 106 113 
Q 219 128 303 191 
Q 422 281 703 653 
L 1303 1450 
L 759 2238 
Q 528 2575 401 2661 
Q 275 2747 84 2747 
L 84 2863 
z
" transform="scale(0.015625)"/>
       <path id="TimesNewRomanPSMT-69" d="M 928 4444 
Q 1059 4444 1151 4351 
Q 1244 4259 1244 4128 
Q 1244 3997 1151 3903 
Q 1059 3809 928 3809 
Q 797 3809 703 3903 
Q 609 3997 609 4128 
Q 609 4259 701 4351 
Q 794 4444 928 4444 
z
M 1188 2947 
L 1188 647 
Q 1188 378 1227 289 
Q 1266 200 1342 156 
Q 1419 113 1622 113 
L 1622 0 
L 231 0 
L 231 113 
Q 441 113 512 153 
Q 584 194 626 287 
Q 669 381 669 647 
L 669 1750 
Q 669 2216 641 2353 
Q 619 2453 572 2492 
Q 525 2531 444 2531 
Q 356 2531 231 2484 
L 188 2597 
L 1050 2947 
L 1188 2947 
z
" transform="scale(0.015625)"/>
       <path id="TimesNewRomanPSMT-61" d="M 1822 413 
Q 1381 72 1269 19 
Q 1100 -59 909 -59 
Q 613 -59 420 144 
Q 228 347 228 678 
Q 228 888 322 1041 
Q 450 1253 767 1440 
Q 1084 1628 1822 1897 
L 1822 2009 
Q 1822 2438 1686 2597 
Q 1550 2756 1291 2756 
Q 1094 2756 978 2650 
Q 859 2544 859 2406 
L 866 2225 
Q 866 2081 792 2003 
Q 719 1925 600 1925 
Q 484 1925 411 2006 
Q 338 2088 338 2228 
Q 338 2497 613 2722 
Q 888 2947 1384 2947 
Q 1766 2947 2009 2819 
Q 2194 2722 2281 2516 
Q 2338 2381 2338 1966 
L 2338 994 
Q 2338 584 2353 492 
Q 2369 400 2405 369 
Q 2441 338 2488 338 
Q 2538 338 2575 359 
Q 2641 400 2828 588 
L 2828 413 
Q 2478 -56 2159 -56 
Q 2006 -56 1915 50 
Q 1825 156 1822 413 
z
M 1822 616 
L 1822 1706 
Q 1350 1519 1213 1441 
Q 966 1303 859 1153 
Q 753 1003 753 825 
Q 753 600 887 451 
Q 1022 303 1197 303 
Q 1434 303 1822 616 
z
" transform="scale(0.015625)"/>
       <path id="TimesNewRomanPSMT-6c" d="M 1184 4444 
L 1184 647 
Q 1184 378 1223 290 
Q 1263 203 1344 158 
Q 1425 113 1647 113 
L 1647 0 
L 244 0 
L 244 113 
Q 441 113 512 153 
Q 584 194 625 287 
Q 666 381 666 647 
L 666 3247 
Q 666 3731 644 3842 
Q 622 3953 573 3993 
Q 525 4034 450 4034 
Q 369 4034 244 3984 
L 191 4094 
L 1044 4444 
L 1184 4444 
z
" transform="scale(0.015625)"/>
       <path id="TimesNewRomanPSMT-20" transform="scale(0.015625)"/>
       <path id="TimesNewRomanPSMT-70" d="M -6 2578 
L 875 2934 
L 994 2934 
L 994 2266 
Q 1216 2644 1439 2795 
Q 1663 2947 1909 2947 
Q 2341 2947 2628 2609 
Q 2981 2197 2981 1534 
Q 2981 794 2556 309 
Q 2206 -88 1675 -88 
Q 1444 -88 1275 -22 
Q 1150 25 994 166 
L 994 -706 
Q 994 -1000 1030 -1079 
Q 1066 -1159 1155 -1206 
Q 1244 -1253 1478 -1253 
L 1478 -1369 
L -22 -1369 
L -22 -1253 
L 56 -1253 
Q 228 -1256 350 -1188 
Q 409 -1153 442 -1076 
Q 475 -1000 475 -688 
L 475 2019 
Q 475 2297 450 2372 
Q 425 2447 370 2484 
Q 316 2522 222 2522 
Q 147 2522 31 2478 
L -6 2578 
z
M 994 2081 
L 994 1013 
Q 994 666 1022 556 
Q 1066 375 1236 237 
Q 1406 100 1666 100 
Q 1978 100 2172 344 
Q 2425 663 2425 1241 
Q 2425 1897 2138 2250 
Q 1938 2494 1663 2494 
Q 1513 2494 1366 2419 
Q 1253 2363 994 2081 
z
" transform="scale(0.015625)"/>
       <path id="TimesNewRomanPSMT-6f" d="M 1600 2947 
Q 2250 2947 2644 2453 
Q 2978 2031 2978 1484 
Q 2978 1100 2793 706 
Q 2609 313 2286 112 
Q 1963 -88 1566 -88 
Q 919 -88 538 428 
Q 216 863 216 1403 
Q 216 1797 411 2186 
Q 606 2575 925 2761 
Q 1244 2947 1600 2947 
z
M 1503 2744 
Q 1338 2744 1170 2645 
Q 1003 2547 900 2300 
Q 797 2053 797 1666 
Q 797 1041 1045 587 
Q 1294 134 1700 134 
Q 2003 134 2200 384 
Q 2397 634 2397 1244 
Q 2397 2006 2069 2444 
Q 1847 2744 1503 2744 
z
" transform="scale(0.015625)"/>
       <path id="TimesNewRomanPSMT-73" d="M 2050 2947 
L 2050 1972 
L 1947 1972 
Q 1828 2431 1642 2597 
Q 1456 2763 1169 2763 
Q 950 2763 815 2647 
Q 681 2531 681 2391 
Q 681 2216 781 2091 
Q 878 1963 1175 1819 
L 1631 1597 
Q 2266 1288 2266 781 
Q 2266 391 1970 151 
Q 1675 -88 1309 -88 
Q 1047 -88 709 6 
Q 606 38 541 38 
Q 469 38 428 -44 
L 325 -44 
L 325 978 
L 428 978 
Q 516 541 762 319 
Q 1009 97 1316 97 
Q 1531 97 1667 223 
Q 1803 350 1803 528 
Q 1803 744 1651 891 
Q 1500 1038 1047 1263 
Q 594 1488 453 1669 
Q 313 1847 313 2119 
Q 313 2472 555 2709 
Q 797 2947 1181 2947 
Q 1350 2947 1591 2875 
Q 1750 2828 1803 2828 
Q 1853 2828 1881 2850 
Q 1909 2872 1947 2947 
L 2050 2947 
z
" transform="scale(0.015625)"/>
       <path id="TimesNewRomanPSMT-74" d="M 1031 3803 
L 1031 2863 
L 1700 2863 
L 1700 2644 
L 1031 2644 
L 1031 788 
Q 1031 509 1111 412 
Q 1191 316 1316 316 
Q 1419 316 1516 380 
Q 1613 444 1666 569 
L 1788 569 
Q 1678 263 1478 108 
Q 1278 -47 1066 -47 
Q 922 -47 784 33 
Q 647 113 581 261 
Q 516 409 516 719 
L 516 2644 
L 63 2644 
L 63 2747 
Q 234 2816 414 2980 
Q 594 3144 734 3369 
Q 806 3488 934 3803 
L 1031 3803 
z
" transform="scale(0.015625)"/>
       <path id="TimesNewRomanPSMT-6e" d="M 1034 2341 
Q 1538 2947 1994 2947 
Q 2228 2947 2397 2830 
Q 2566 2713 2666 2444 
Q 2734 2256 2734 1869 
L 2734 647 
Q 2734 375 2778 278 
Q 2813 200 2889 156 
Q 2966 113 3172 113 
L 3172 0 
L 1756 0 
L 1756 113 
L 1816 113 
Q 2016 113 2095 173 
Q 2175 234 2206 353 
Q 2219 400 2219 647 
L 2219 1819 
Q 2219 2209 2117 2386 
Q 2016 2563 1775 2563 
Q 1403 2563 1034 2156 
L 1034 647 
Q 1034 356 1069 288 
Q 1113 197 1189 155 
Q 1266 113 1500 113 
L 1500 0 
L 84 0 
L 84 113 
L 147 113 
Q 366 113 442 223 
Q 519 334 519 647 
L 519 1709 
Q 519 2225 495 2337 
Q 472 2450 423 2490 
Q 375 2531 294 2531 
Q 206 2531 84 2484 
L 38 2597 
L 900 2947 
L 1034 2947 
L 1034 2341 
z
" transform="scale(0.015625)"/>
       <path id="TimesNewRomanPSMT-28" d="M 1988 -1253 
L 1988 -1369 
Q 1516 -1131 1200 -813 
Q 750 -359 506 256 
Q 263 872 263 1534 
Q 263 2503 741 3301 
Q 1219 4100 1988 4444 
L 1988 4313 
Q 1603 4100 1356 3731 
Q 1109 3363 987 2797 
Q 866 2231 866 1616 
Q 866 947 969 400 
Q 1050 -31 1165 -292 
Q 1281 -553 1476 -793 
Q 1672 -1034 1988 -1253 
z
" transform="scale(0.015625)"/>
       <path id="TimesNewRomanPSMT-6d" d="M 1050 2338 
Q 1363 2650 1419 2697 
Q 1559 2816 1721 2881 
Q 1884 2947 2044 2947 
Q 2313 2947 2506 2790 
Q 2700 2634 2766 2338 
Q 3088 2713 3309 2830 
Q 3531 2947 3766 2947 
Q 3994 2947 4170 2830 
Q 4347 2713 4450 2447 
Q 4519 2266 4519 1878 
L 4519 647 
Q 4519 378 4559 278 
Q 4591 209 4675 161 
Q 4759 113 4950 113 
L 4950 0 
L 3538 0 
L 3538 113 
L 3597 113 
Q 3781 113 3884 184 
Q 3956 234 3988 344 
Q 4000 397 4000 647 
L 4000 1878 
Q 4000 2228 3916 2372 
Q 3794 2572 3525 2572 
Q 3359 2572 3192 2489 
Q 3025 2406 2788 2181 
L 2781 2147 
L 2788 2013 
L 2788 647 
Q 2788 353 2820 281 
Q 2853 209 2943 161 
Q 3034 113 3253 113 
L 3253 0 
L 1806 0 
L 1806 113 
Q 2044 113 2133 169 
Q 2222 225 2256 338 
Q 2272 391 2272 647 
L 2272 1878 
Q 2272 2228 2169 2381 
Q 2031 2581 1784 2581 
Q 1616 2581 1450 2491 
Q 1191 2353 1050 2181 
L 1050 647 
Q 1050 366 1089 281 
Q 1128 197 1204 155 
Q 1281 113 1516 113 
L 1516 0 
L 100 0 
L 100 113 
Q 297 113 375 155 
Q 453 197 493 289 
Q 534 381 534 647 
L 534 1741 
Q 534 2213 506 2350 
Q 484 2453 437 2492 
Q 391 2531 309 2531 
Q 222 2531 100 2484 
L 53 2597 
L 916 2947 
L 1050 2947 
L 1050 2338 
z
" transform="scale(0.015625)"/>
       <path id="TimesNewRomanPSMT-29" d="M 144 4313 
L 144 4444 
Q 619 4209 934 3891 
Q 1381 3434 1625 2820 
Q 1869 2206 1869 1541 
Q 1869 572 1392 -226 
Q 916 -1025 144 -1369 
L 144 -1253 
Q 528 -1038 776 -670 
Q 1025 -303 1145 264 
Q 1266 831 1266 1447 
Q 1266 2113 1163 2663 
Q 1084 3094 967 3353 
Q 850 3613 656 3853 
Q 463 4094 144 4313 
z
" transform="scale(0.015625)"/>
      </defs>
      <use xlink:href="#TimesNewRomanPSMT-41"/>
      <use xlink:href="#TimesNewRomanPSMT-78" x="72.216797"/>
      <use xlink:href="#TimesNewRomanPSMT-69" x="122.216797"/>
      <use xlink:href="#TimesNewRomanPSMT-61" x="150"/>
      <use xlink:href="#TimesNewRomanPSMT-6c" x="194.384766"/>
      <use xlink:href="#TimesNewRomanPSMT-20" x="222.167969"/>
      <use xlink:href="#TimesNewRomanPSMT-70" x="247.167969"/>
      <use xlink:href="#TimesNewRomanPSMT-6f" x="297.167969"/>
      <use xlink:href="#TimesNewRomanPSMT-73" x="347.167969"/>
      <use xlink:href="#TimesNewRomanPSMT-69" x="386.083984"/>
      <use xlink:href="#TimesNewRomanPSMT-74" x="413.867188"/>
      <use xlink:href="#TimesNewRomanPSMT-69" x="441.650391"/>
      <use xlink:href="#TimesNewRomanPSMT-6f" x="469.433594"/>
      <use xlink:href="#TimesNewRomanPSMT-6e" x="519.433594"/>
      <use xlink:href="#TimesNewRomanPSMT-20" x="569.433594"/>
      <use xlink:href="#TimesNewRomanPSMT-28" x="594.433594"/>
      <use xlink:href="#TimesNewRomanPSMT-6d" x="627.734375"/>
      <use xlink:href="#TimesNewRomanPSMT-6d" x="705.517578"/>
      <use xlink:href="#TimesNewRomanPSMT-29" x="783.300781"/>
     </g>
    </g>
   </g>
   <g id="matplotlib.axis_2">
    <g id="ytick_1">
     <g id="line2d_69">
      <defs>
       <path id="mc270c9aec7" d="M 0 0 
L 6 0 
" style="stroke: #000000; stroke-width: 1.25"/>
      </defs>
      <g>
       <use xlink:href="#mc270c9aec7" x="47.507656" y="281.980764" style="fill: #ffffff; stroke: #000000; stroke-width: 1.25"/>
      </g>
     </g>
     <g id="line2d_70">
      <defs>
       <path id="m04eaf363c0" d="M 0 0 
L -6 0 
" style="stroke: #000000; stroke-width: 1.25"/>
      </defs>
      <g>
       <use xlink:href="#m04eaf363c0" x="442.227656" y="281.980764" style="fill: #ffffff; stroke: #000000; stroke-width: 1.25"/>
      </g>
     </g>
     <g id="text_9">
      <!-- 30 -->
      <g transform="translate(32.007656 286.147014) scale(0.12 -0.12)">
       <use xlink:href="#TimesNewRomanPSMT-33"/>
       <use xlink:href="#TimesNewRomanPSMT-30" x="50"/>
      </g>
     </g>
    </g>
    <g id="ytick_2">
     <g id="line2d_71">
      <g>
       <use xlink:href="#mc270c9aec7" x="47.507656" y="244.40458" style="fill: #ffffff; stroke: #000000; stroke-width: 1.25"/>
      </g>
     </g>
     <g id="line2d_72">
      <g>
       <use xlink:href="#m04eaf363c0" x="442.227656" y="244.40458" style="fill: #ffffff; stroke: #000000; stroke-width: 1.25"/>
      </g>
     </g>
     <g id="text_10">
      <!-- 40 -->
      <g transform="translate(32.007656 248.57083) scale(0.12 -0.12)">
       <defs>
        <path id="TimesNewRomanPSMT-34" d="M 2978 1563 
L 2978 1119 
L 2409 1119 
L 2409 0 
L 1894 0 
L 1894 1119 
L 100 1119 
L 100 1519 
L 2066 4325 
L 2409 4325 
L 2409 1563 
L 2978 1563 
z
M 1894 1563 
L 1894 3666 
L 406 1563 
L 1894 1563 
z
" transform="scale(0.015625)"/>
       </defs>
       <use xlink:href="#TimesNewRomanPSMT-34"/>
       <use xlink:href="#TimesNewRomanPSMT-30" x="50"/>
      </g>
     </g>
    </g>
    <g id="ytick_3">
     <g id="line2d_73">
      <g>
       <use xlink:href="#mc270c9aec7" x="47.507656" y="206.828397" style="fill: #ffffff; stroke: #000000; stroke-width: 1.25"/>
      </g>
     </g>
     <g id="line2d_74">
      <g>
       <use xlink:href="#m04eaf363c0" x="442.227656" y="206.828397" style="fill: #ffffff; stroke: #000000; stroke-width: 1.25"/>
      </g>
     </g>
     <g id="text_11">
      <!-- 50 -->
      <g transform="translate(32.007656 210.994647) scale(0.12 -0.12)">
       <use xlink:href="#TimesNewRomanPSMT-35"/>
       <use xlink:href="#TimesNewRomanPSMT-30" x="50"/>
      </g>
     </g>
    </g>
    <g id="ytick_4">
     <g id="line2d_75">
      <g>
       <use xlink:href="#mc270c9aec7" x="47.507656" y="169.252213" style="fill: #ffffff; stroke: #000000; stroke-width: 1.25"/>
      </g>
     </g>
     <g id="line2d_76">
      <g>
       <use xlink:href="#m04eaf363c0" x="442.227656" y="169.252213" style="fill: #ffffff; stroke: #000000; stroke-width: 1.25"/>
      </g>
     </g>
     <g id="text_12">
      <!-- 60 -->
      <g transform="translate(32.007656 173.418463) scale(0.12 -0.12)">
       <defs>
        <path id="TimesNewRomanPSMT-36" d="M 2869 4325 
L 2869 4209 
Q 2456 4169 2195 4045 
Q 1934 3922 1679 3669 
Q 1425 3416 1258 3105 
Q 1091 2794 978 2366 
Q 1428 2675 1881 2675 
Q 2316 2675 2634 2325 
Q 2953 1975 2953 1425 
Q 2953 894 2631 456 
Q 2244 -75 1606 -75 
Q 1172 -75 869 213 
Q 275 772 275 1663 
Q 275 2231 503 2743 
Q 731 3256 1154 3653 
Q 1578 4050 1965 4187 
Q 2353 4325 2688 4325 
L 2869 4325 
z
M 925 2138 
Q 869 1716 869 1456 
Q 869 1156 980 804 
Q 1091 453 1309 247 
Q 1469 100 1697 100 
Q 1969 100 2183 356 
Q 2397 613 2397 1088 
Q 2397 1622 2184 2012 
Q 1972 2403 1581 2403 
Q 1463 2403 1327 2353 
Q 1191 2303 925 2138 
z
" transform="scale(0.015625)"/>
       </defs>
       <use xlink:href="#TimesNewRomanPSMT-36"/>
       <use xlink:href="#TimesNewRomanPSMT-30" x="50"/>
      </g>
     </g>
    </g>
    <g id="ytick_5">
     <g id="line2d_77">
      <g>
       <use xlink:href="#mc270c9aec7" x="47.507656" y="131.67603" style="fill: #ffffff; stroke: #000000; stroke-width: 1.25"/>
      </g>
     </g>
     <g id="line2d_78">
      <g>
       <use xlink:href="#m04eaf363c0" x="442.227656" y="131.67603" style="fill: #ffffff; stroke: #000000; stroke-width: 1.25"/>
      </g>
     </g>
     <g id="text_13">
      <!-- 70 -->
      <g transform="translate(32.007656 135.84228) scale(0.12 -0.12)">
       <defs>
        <path id="TimesNewRomanPSMT-37" d="M 644 4238 
L 2916 4238 
L 2916 4119 
L 1503 -88 
L 1153 -88 
L 2419 3728 
L 1253 3728 
Q 900 3728 750 3644 
Q 488 3500 328 3200 
L 238 3234 
L 644 4238 
z
" transform="scale(0.015625)"/>
       </defs>
       <use xlink:href="#TimesNewRomanPSMT-37"/>
       <use xlink:href="#TimesNewRomanPSMT-30" x="50"/>
      </g>
     </g>
    </g>
    <g id="ytick_6">
     <g id="line2d_79">
      <g>
       <use xlink:href="#mc270c9aec7" x="47.507656" y="94.099846" style="fill: #ffffff; stroke: #000000; stroke-width: 1.25"/>
      </g>
     </g>
     <g id="line2d_80">
      <g>
       <use xlink:href="#m04eaf363c0" x="442.227656" y="94.099846" style="fill: #ffffff; stroke: #000000; stroke-width: 1.25"/>
      </g>
     </g>
     <g id="text_14">
      <!-- 80 -->
      <g transform="translate(32.007656 98.266096) scale(0.12 -0.12)">
       <defs>
        <path id="TimesNewRomanPSMT-38" d="M 1228 2134 
Q 725 2547 579 2797 
Q 434 3047 434 3316 
Q 434 3728 753 4026 
Q 1072 4325 1600 4325 
Q 2113 4325 2425 4047 
Q 2738 3769 2738 3413 
Q 2738 3175 2569 2928 
Q 2400 2681 1866 2347 
Q 2416 1922 2594 1678 
Q 2831 1359 2831 1006 
Q 2831 559 2490 242 
Q 2150 -75 1597 -75 
Q 994 -75 656 303 
Q 388 606 388 966 
Q 388 1247 577 1523 
Q 766 1800 1228 2134 
z
M 1719 2469 
Q 2094 2806 2194 3001 
Q 2294 3197 2294 3444 
Q 2294 3772 2109 3958 
Q 1925 4144 1606 4144 
Q 1288 4144 1088 3959 
Q 888 3775 888 3528 
Q 888 3366 970 3203 
Q 1053 3041 1206 2894 
L 1719 2469 
z
M 1375 2016 
Q 1116 1797 991 1539 
Q 866 1281 866 981 
Q 866 578 1086 336 
Q 1306 94 1647 94 
Q 1984 94 2187 284 
Q 2391 475 2391 747 
Q 2391 972 2272 1150 
Q 2050 1481 1375 2016 
z
" transform="scale(0.015625)"/>
       </defs>
       <use xlink:href="#TimesNewRomanPSMT-38"/>
       <use xlink:href="#TimesNewRomanPSMT-30" x="50"/>
      </g>
     </g>
    </g>
    <g id="ytick_7">
     <g id="line2d_81">
      <g>
       <use xlink:href="#mc270c9aec7" x="47.507656" y="56.523662" style="fill: #ffffff; stroke: #000000; stroke-width: 1.25"/>
      </g>
     </g>
     <g id="line2d_82">
      <g>
       <use xlink:href="#m04eaf363c0" x="442.227656" y="56.523662" style="fill: #ffffff; stroke: #000000; stroke-width: 1.25"/>
      </g>
     </g>
     <g id="text_15">
      <!-- 90 -->
      <g transform="translate(32.007656 60.689912) scale(0.12 -0.12)">
       <defs>
        <path id="TimesNewRomanPSMT-39" d="M 338 -88 
L 338 28 
Q 744 34 1094 217 
Q 1444 400 1770 856 
Q 2097 1313 2225 1859 
Q 1734 1544 1338 1544 
Q 891 1544 572 1889 
Q 253 2234 253 2806 
Q 253 3363 572 3797 
Q 956 4325 1575 4325 
Q 2097 4325 2469 3894 
Q 2925 3359 2925 2575 
Q 2925 1869 2578 1258 
Q 2231 647 1613 244 
Q 1109 -88 516 -88 
L 338 -88 
z
M 2275 2091 
Q 2331 2497 2331 2741 
Q 2331 3044 2228 3395 
Q 2125 3747 1936 3934 
Q 1747 4122 1506 4122 
Q 1228 4122 1018 3872 
Q 809 3622 809 3128 
Q 809 2469 1088 2097 
Q 1291 1828 1588 1828 
Q 1731 1828 1928 1897 
Q 2125 1966 2275 2091 
z
" transform="scale(0.015625)"/>
       </defs>
       <use xlink:href="#TimesNewRomanPSMT-39"/>
       <use xlink:href="#TimesNewRomanPSMT-30" x="50"/>
      </g>
     </g>
    </g>
    <g id="ytick_8">
     <g id="line2d_83">
      <defs>
       <path id="mc0ada6cf29" d="M 0 0 
L 3 0 
" style="stroke: #000000; stroke-width: 0.75"/>
      </defs>
      <g>
       <use xlink:href="#mc0ada6cf29" x="47.507656" y="274.465527" style="fill: #ffffff; stroke: #000000; stroke-width: 0.75"/>
      </g>
     </g>
     <g id="line2d_84">
      <defs>
       <path id="md2929a0b4a" d="M 0 0 
L -3 0 
" style="stroke: #000000; stroke-width: 0.75"/>
      </defs>
      <g>
       <use xlink:href="#md2929a0b4a" x="442.227656" y="274.465527" style="fill: #ffffff; stroke: #000000; stroke-width: 0.75"/>
      </g>
     </g>
    </g>
    <g id="ytick_9">
     <g id="line2d_85">
      <g>
       <use xlink:href="#mc0ada6cf29" x="47.507656" y="266.95029" style="fill: #ffffff; stroke: #000000; stroke-width: 0.75"/>
      </g>
     </g>
     <g id="line2d_86">
      <g>
       <use xlink:href="#md2929a0b4a" x="442.227656" y="266.95029" style="fill: #ffffff; stroke: #000000; stroke-width: 0.75"/>
      </g>
     </g>
    </g>
    <g id="ytick_10">
     <g id="line2d_87">
      <g>
       <use xlink:href="#mc0ada6cf29" x="47.507656" y="259.435054" style="fill: #ffffff; stroke: #000000; stroke-width: 0.75"/>
      </g>
     </g>
     <g id="line2d_88">
      <g>
       <use xlink:href="#md2929a0b4a" x="442.227656" y="259.435054" style="fill: #ffffff; stroke: #000000; stroke-width: 0.75"/>
      </g>
     </g>
    </g>
    <g id="ytick_11">
     <g id="line2d_89">
      <g>
       <use xlink:href="#mc0ada6cf29" x="47.507656" y="251.919817" style="fill: #ffffff; stroke: #000000; stroke-width: 0.75"/>
      </g>
     </g>
     <g id="line2d_90">
      <g>
       <use xlink:href="#md2929a0b4a" x="442.227656" y="251.919817" style="fill: #ffffff; stroke: #000000; stroke-width: 0.75"/>
      </g>
     </g>
    </g>
    <g id="ytick_12">
     <g id="line2d_91">
      <g>
       <use xlink:href="#mc0ada6cf29" x="47.507656" y="236.889344" style="fill: #ffffff; stroke: #000000; stroke-width: 0.75"/>
      </g>
     </g>
     <g id="line2d_92">
      <g>
       <use xlink:href="#md2929a0b4a" x="442.227656" y="236.889344" style="fill: #ffffff; stroke: #000000; stroke-width: 0.75"/>
      </g>
     </g>
    </g>
    <g id="ytick_13">
     <g id="line2d_93">
      <g>
       <use xlink:href="#mc0ada6cf29" x="47.507656" y="229.374107" style="fill: #ffffff; stroke: #000000; stroke-width: 0.75"/>
      </g>
     </g>
     <g id="line2d_94">
      <g>
       <use xlink:href="#md2929a0b4a" x="442.227656" y="229.374107" style="fill: #ffffff; stroke: #000000; stroke-width: 0.75"/>
      </g>
     </g>
    </g>
    <g id="ytick_14">
     <g id="line2d_95">
      <g>
       <use xlink:href="#mc0ada6cf29" x="47.507656" y="221.85887" style="fill: #ffffff; stroke: #000000; stroke-width: 0.75"/>
      </g>
     </g>
     <g id="line2d_96">
      <g>
       <use xlink:href="#md2929a0b4a" x="442.227656" y="221.85887" style="fill: #ffffff; stroke: #000000; stroke-width: 0.75"/>
      </g>
     </g>
    </g>
    <g id="ytick_15">
     <g id="line2d_97">
      <g>
       <use xlink:href="#mc0ada6cf29" x="47.507656" y="214.343633" style="fill: #ffffff; stroke: #000000; stroke-width: 0.75"/>
      </g>
     </g>
     <g id="line2d_98">
      <g>
       <use xlink:href="#md2929a0b4a" x="442.227656" y="214.343633" style="fill: #ffffff; stroke: #000000; stroke-width: 0.75"/>
      </g>
     </g>
    </g>
    <g id="ytick_16">
     <g id="line2d_99">
      <g>
       <use xlink:href="#mc0ada6cf29" x="47.507656" y="199.31316" style="fill: #ffffff; stroke: #000000; stroke-width: 0.75"/>
      </g>
     </g>
     <g id="line2d_100">
      <g>
       <use xlink:href="#md2929a0b4a" x="442.227656" y="199.31316" style="fill: #ffffff; stroke: #000000; stroke-width: 0.75"/>
      </g>
     </g>
    </g>
    <g id="ytick_17">
     <g id="line2d_101">
      <g>
       <use xlink:href="#mc0ada6cf29" x="47.507656" y="191.797923" style="fill: #ffffff; stroke: #000000; stroke-width: 0.75"/>
      </g>
     </g>
     <g id="line2d_102">
      <g>
       <use xlink:href="#md2929a0b4a" x="442.227656" y="191.797923" style="fill: #ffffff; stroke: #000000; stroke-width: 0.75"/>
      </g>
     </g>
    </g>
    <g id="ytick_18">
     <g id="line2d_103">
      <g>
       <use xlink:href="#mc0ada6cf29" x="47.507656" y="184.282687" style="fill: #ffffff; stroke: #000000; stroke-width: 0.75"/>
      </g>
     </g>
     <g id="line2d_104">
      <g>
       <use xlink:href="#md2929a0b4a" x="442.227656" y="184.282687" style="fill: #ffffff; stroke: #000000; stroke-width: 0.75"/>
      </g>
     </g>
    </g>
    <g id="ytick_19">
     <g id="line2d_105">
      <g>
       <use xlink:href="#mc0ada6cf29" x="47.507656" y="176.76745" style="fill: #ffffff; stroke: #000000; stroke-width: 0.75"/>
      </g>
     </g>
     <g id="line2d_106">
      <g>
       <use xlink:href="#md2929a0b4a" x="442.227656" y="176.76745" style="fill: #ffffff; stroke: #000000; stroke-width: 0.75"/>
      </g>
     </g>
    </g>
    <g id="ytick_20">
     <g id="line2d_107">
      <g>
       <use xlink:href="#mc0ada6cf29" x="47.507656" y="161.736976" style="fill: #ffffff; stroke: #000000; stroke-width: 0.75"/>
      </g>
     </g>
     <g id="line2d_108">
      <g>
       <use xlink:href="#md2929a0b4a" x="442.227656" y="161.736976" style="fill: #ffffff; stroke: #000000; stroke-width: 0.75"/>
      </g>
     </g>
    </g>
    <g id="ytick_21">
     <g id="line2d_109">
      <g>
       <use xlink:href="#mc0ada6cf29" x="47.507656" y="154.22174" style="fill: #ffffff; stroke: #000000; stroke-width: 0.75"/>
      </g>
     </g>
     <g id="line2d_110">
      <g>
       <use xlink:href="#md2929a0b4a" x="442.227656" y="154.22174" style="fill: #ffffff; stroke: #000000; stroke-width: 0.75"/>
      </g>
     </g>
    </g>
    <g id="ytick_22">
     <g id="line2d_111">
      <g>
       <use xlink:href="#mc0ada6cf29" x="47.507656" y="146.706503" style="fill: #ffffff; stroke: #000000; stroke-width: 0.75"/>
      </g>
     </g>
     <g id="line2d_112">
      <g>
       <use xlink:href="#md2929a0b4a" x="442.227656" y="146.706503" style="fill: #ffffff; stroke: #000000; stroke-width: 0.75"/>
      </g>
     </g>
    </g>
    <g id="ytick_23">
     <g id="line2d_113">
      <g>
       <use xlink:href="#mc0ada6cf29" x="47.507656" y="139.191266" style="fill: #ffffff; stroke: #000000; stroke-width: 0.75"/>
      </g>
     </g>
     <g id="line2d_114">
      <g>
       <use xlink:href="#md2929a0b4a" x="442.227656" y="139.191266" style="fill: #ffffff; stroke: #000000; stroke-width: 0.75"/>
      </g>
     </g>
    </g>
    <g id="ytick_24">
     <g id="line2d_115">
      <g>
       <use xlink:href="#mc0ada6cf29" x="47.507656" y="124.160793" style="fill: #ffffff; stroke: #000000; stroke-width: 0.75"/>
      </g>
     </g>
     <g id="line2d_116">
      <g>
       <use xlink:href="#md2929a0b4a" x="442.227656" y="124.160793" style="fill: #ffffff; stroke: #000000; stroke-width: 0.75"/>
      </g>
     </g>
    </g>
    <g id="ytick_25">
     <g id="line2d_117">
      <g>
       <use xlink:href="#mc0ada6cf29" x="47.507656" y="116.645556" style="fill: #ffffff; stroke: #000000; stroke-width: 0.75"/>
      </g>
     </g>
     <g id="line2d_118">
      <g>
       <use xlink:href="#md2929a0b4a" x="442.227656" y="116.645556" style="fill: #ffffff; stroke: #000000; stroke-width: 0.75"/>
      </g>
     </g>
    </g>
    <g id="ytick_26">
     <g id="line2d_119">
      <g>
       <use xlink:href="#mc0ada6cf29" x="47.507656" y="109.130319" style="fill: #ffffff; stroke: #000000; stroke-width: 0.75"/>
      </g>
     </g>
     <g id="line2d_120">
      <g>
       <use xlink:href="#md2929a0b4a" x="442.227656" y="109.130319" style="fill: #ffffff; stroke: #000000; stroke-width: 0.75"/>
      </g>
     </g>
    </g>
    <g id="ytick_27">
     <g id="line2d_121">
      <g>
       <use xlink:href="#mc0ada6cf29" x="47.507656" y="101.615083" style="fill: #ffffff; stroke: #000000; stroke-width: 0.75"/>
      </g>
     </g>
     <g id="line2d_122">
      <g>
       <use xlink:href="#md2929a0b4a" x="442.227656" y="101.615083" style="fill: #ffffff; stroke: #000000; stroke-width: 0.75"/>
      </g>
     </g>
    </g>
    <g id="ytick_28">
     <g id="line2d_123">
      <g>
       <use xlink:href="#mc0ada6cf29" x="47.507656" y="86.584609" style="fill: #ffffff; stroke: #000000; stroke-width: 0.75"/>
      </g>
     </g>
     <g id="line2d_124">
      <g>
       <use xlink:href="#md2929a0b4a" x="442.227656" y="86.584609" style="fill: #ffffff; stroke: #000000; stroke-width: 0.75"/>
      </g>
     </g>
    </g>
    <g id="ytick_29">
     <g id="line2d_125">
      <g>
       <use xlink:href="#mc0ada6cf29" x="47.507656" y="79.069373" style="fill: #ffffff; stroke: #000000; stroke-width: 0.75"/>
      </g>
     </g>
     <g id="line2d_126">
      <g>
       <use xlink:href="#md2929a0b4a" x="442.227656" y="79.069373" style="fill: #ffffff; stroke: #000000; stroke-width: 0.75"/>
      </g>
     </g>
    </g>
    <g id="ytick_30">
     <g id="line2d_127">
      <g>
       <use xlink:href="#mc0ada6cf29" x="47.507656" y="71.554136" style="fill: #ffffff; stroke: #000000; stroke-width: 0.75"/>
      </g>
     </g>
     <g id="line2d_128">
      <g>
       <use xlink:href="#md2929a0b4a" x="442.227656" y="71.554136" style="fill: #ffffff; stroke: #000000; stroke-width: 0.75"/>
      </g>
     </g>
    </g>
    <g id="ytick_31">
     <g id="line2d_129">
      <g>
       <use xlink:href="#mc0ada6cf29" x="47.507656" y="64.038899" style="fill: #ffffff; stroke: #000000; stroke-width: 0.75"/>
      </g>
     </g>
     <g id="line2d_130">
      <g>
       <use xlink:href="#md2929a0b4a" x="442.227656" y="64.038899" style="fill: #ffffff; stroke: #000000; stroke-width: 0.75"/>
      </g>
     </g>
    </g>
    <g id="ytick_32">
     <g id="line2d_131">
      <g>
       <use xlink:href="#mc0ada6cf29" x="47.507656" y="49.008426" style="fill: #ffffff; stroke: #000000; stroke-width: 0.75"/>
      </g>
     </g>
     <g id="line2d_132">
      <g>
       <use xlink:href="#md2929a0b4a" x="442.227656" y="49.008426" style="fill: #ffffff; stroke: #000000; stroke-width: 0.75"/>
      </g>
     </g>
    </g>
    <g id="ytick_33">
     <g id="line2d_133">
      <g>
       <use xlink:href="#mc0ada6cf29" x="47.507656" y="41.493189" style="fill: #ffffff; stroke: #000000; stroke-width: 0.75"/>
      </g>
     </g>
     <g id="line2d_134">
      <g>
       <use xlink:href="#md2929a0b4a" x="442.227656" y="41.493189" style="fill: #ffffff; stroke: #000000; stroke-width: 0.75"/>
      </g>
     </g>
    </g>
    <g id="text_16">
     <!-- Void fraction (%) -->
     <g transform="translate(16.226875 206.375703) rotate(-90) scale(0.13 -0.13)">
      <defs>
       <path id="TimesNewRomanPSMT-56" d="M 4544 4238 
L 4544 4122 
Q 4319 4081 4203 3978 
Q 4038 3825 3909 3509 
L 2431 -97 
L 2316 -97 
L 728 3556 
Q 606 3838 556 3900 
Q 478 3997 364 4051 
Q 250 4106 56 4122 
L 56 4238 
L 1788 4238 
L 1788 4122 
Q 1494 4094 1406 4022 
Q 1319 3950 1319 3838 
Q 1319 3681 1463 3350 
L 2541 866 
L 3541 3319 
Q 3688 3681 3688 3822 
Q 3688 3913 3597 3995 
Q 3506 4078 3291 4113 
Q 3275 4116 3238 4122 
L 3238 4238 
L 4544 4238 
z
" transform="scale(0.015625)"/>
       <path id="TimesNewRomanPSMT-64" d="M 2222 322 
Q 2013 103 1813 7 
Q 1613 -88 1381 -88 
Q 913 -88 563 304 
Q 213 697 213 1313 
Q 213 1928 600 2439 
Q 988 2950 1597 2950 
Q 1975 2950 2222 2709 
L 2222 3238 
Q 2222 3728 2198 3840 
Q 2175 3953 2125 3993 
Q 2075 4034 2000 4034 
Q 1919 4034 1784 3984 
L 1744 4094 
L 2597 4444 
L 2738 4444 
L 2738 1134 
Q 2738 631 2761 520 
Q 2784 409 2836 365 
Q 2888 322 2956 322 
Q 3041 322 3181 375 
L 3216 266 
L 2366 -88 
L 2222 -88 
L 2222 322 
z
M 2222 541 
L 2222 2016 
Q 2203 2228 2109 2403 
Q 2016 2578 1861 2667 
Q 1706 2756 1559 2756 
Q 1284 2756 1069 2509 
Q 784 2184 784 1559 
Q 784 928 1059 592 
Q 1334 256 1672 256 
Q 1956 256 2222 541 
z
" transform="scale(0.015625)"/>
       <path id="TimesNewRomanPSMT-66" d="M 1319 2638 
L 1319 756 
Q 1319 356 1406 250 
Q 1522 113 1716 113 
L 1975 113 
L 1975 0 
L 266 0 
L 266 113 
L 394 113 
Q 519 113 622 175 
Q 725 238 764 344 
Q 803 450 803 756 
L 803 2638 
L 247 2638 
L 247 2863 
L 803 2863 
L 803 3050 
Q 803 3478 940 3775 
Q 1078 4072 1361 4255 
Q 1644 4438 1997 4438 
Q 2325 4438 2600 4225 
Q 2781 4084 2781 3909 
Q 2781 3816 2700 3733 
Q 2619 3650 2525 3650 
Q 2453 3650 2373 3701 
Q 2294 3753 2178 3923 
Q 2063 4094 1966 4153 
Q 1869 4213 1750 4213 
Q 1606 4213 1506 4136 
Q 1406 4059 1362 3898 
Q 1319 3738 1319 3069 
L 1319 2863 
L 2056 2863 
L 2056 2638 
L 1319 2638 
z
" transform="scale(0.015625)"/>
       <path id="TimesNewRomanPSMT-72" d="M 1038 2947 
L 1038 2303 
Q 1397 2947 1775 2947 
Q 1947 2947 2059 2842 
Q 2172 2738 2172 2600 
Q 2172 2478 2090 2393 
Q 2009 2309 1897 2309 
Q 1788 2309 1652 2417 
Q 1516 2525 1450 2525 
Q 1394 2525 1328 2463 
Q 1188 2334 1038 2041 
L 1038 669 
Q 1038 431 1097 309 
Q 1138 225 1241 169 
Q 1344 113 1538 113 
L 1538 0 
L 72 0 
L 72 113 
Q 291 113 397 181 
Q 475 231 506 341 
Q 522 394 522 644 
L 522 1753 
Q 522 2253 501 2348 
Q 481 2444 426 2487 
Q 372 2531 291 2531 
Q 194 2531 72 2484 
L 41 2597 
L 906 2947 
L 1038 2947 
z
" transform="scale(0.015625)"/>
       <path id="TimesNewRomanPSMT-63" d="M 2631 1088 
Q 2516 522 2178 217 
Q 1841 -88 1431 -88 
Q 944 -88 581 321 
Q 219 731 219 1428 
Q 219 2103 620 2525 
Q 1022 2947 1584 2947 
Q 2006 2947 2278 2723 
Q 2550 2500 2550 2259 
Q 2550 2141 2473 2067 
Q 2397 1994 2259 1994 
Q 2075 1994 1981 2113 
Q 1928 2178 1911 2362 
Q 1894 2547 1784 2644 
Q 1675 2738 1481 2738 
Q 1169 2738 978 2506 
Q 725 2200 725 1697 
Q 725 1184 976 792 
Q 1228 400 1656 400 
Q 1963 400 2206 609 
Q 2378 753 2541 1131 
L 2631 1088 
z
" transform="scale(0.015625)"/>
       <path id="TimesNewRomanPSMT-25" d="M 4350 4334 
L 1263 -175 
L 984 -175 
L 4072 4334 
L 4350 4334 
z
M 1138 4334 
Q 1559 4334 1792 3984 
Q 2025 3634 2025 3181 
Q 2025 2638 1762 2341 
Q 1500 2044 1131 2044 
Q 884 2044 678 2180 
Q 472 2316 348 2584 
Q 225 2853 225 3181 
Q 225 3509 350 3786 
Q 475 4063 692 4198 
Q 909 4334 1138 4334 
z
M 1128 4159 
Q 969 4159 845 3971 
Q 722 3784 722 3184 
Q 722 2750 791 2522 
Q 844 2350 956 2256 
Q 1022 2200 1119 2200 
Q 1269 2200 1375 2363 
Q 1531 2603 1531 3166 
Q 1531 3759 1378 4000 
Q 1278 4159 1128 4159 
z
M 4206 2103 
Q 4428 2103 4648 1962 
Q 4869 1822 4989 1553 
Q 5109 1284 5109 963 
Q 5109 409 4843 117 
Q 4578 -175 4216 -175 
Q 3988 -175 3773 -34 
Q 3559 106 3436 367 
Q 3313 628 3313 963 
Q 3313 1291 3436 1562 
Q 3559 1834 3773 1968 
Q 3988 2103 4206 2103 
z
M 4209 1938 
Q 4059 1938 3950 1769 
Q 3809 1550 3809 941 
Q 3809 381 3953 159 
Q 4059 0 4209 0 
Q 4353 0 4466 172 
Q 4616 400 4616 956 
Q 4616 1544 4466 1778 
Q 4363 1938 4209 1938 
z
" transform="scale(0.015625)"/>
      </defs>
      <use xlink:href="#TimesNewRomanPSMT-56"/>
      <use xlink:href="#TimesNewRomanPSMT-6f" x="59.341797"/>
      <use xlink:href="#TimesNewRomanPSMT-69" x="109.341797"/>
      <use xlink:href="#TimesNewRomanPSMT-64" x="137.125"/>
      <use xlink:href="#TimesNewRomanPSMT-20" x="187.125"/>
      <use xlink:href="#TimesNewRomanPSMT-66" x="212.125"/>
      <use xlink:href="#TimesNewRomanPSMT-72" x="245.425781"/>
      <use xlink:href="#TimesNewRomanPSMT-61" x="278.726562"/>
      <use xlink:href="#TimesNewRomanPSMT-63" x="323.111328"/>
      <use xlink:href="#TimesNewRomanPSMT-74" x="367.496094"/>
      <use xlink:href="#TimesNewRomanPSMT-69" x="395.279297"/>
      <use xlink:href="#TimesNewRomanPSMT-6f" x="423.0625"/>
      <use xlink:href="#TimesNewRomanPSMT-6e" x="473.0625"/>
      <use xlink:href="#TimesNewRomanPSMT-20" x="523.0625"/>
      <use xlink:href="#TimesNewRomanPSMT-28" x="548.0625"/>
      <use xlink:href="#TimesNewRomanPSMT-25" x="581.363281"/>
      <use xlink:href="#TimesNewRomanPSMT-29" x="664.664062"/>
     </g>
    </g>
   </g>
   <g id="line2d_135">
    <path d="M 65.449474 276.083182 
L 85.574013 275.942271 
L 114.323351 275.666838 
L 129.847987 275.307985 
L 140.197744 274.860077 
L 147.672556 274.332507 
L 153.422447 273.724525 
L 158.022429 273.038384 
L 162.047283 272.218096 
L 165.497241 271.277564 
L 168.372186 270.255492 
L 170.672119 269.222898 
L 172.972052 267.930277 
L 174.696974 266.730094 
L 176.42201 265.256732 
L 177.571919 264.061809 
L 178.721943 262.600847 
L 179.29684 261.722692 
L 180.48209 259.482775 
L 181.091983 258.893205 
L 184.151807 254.421639 
L 184.764233 253.64757 
L 184.764233 253.64757 
L 185.992537 251.713899 
L 186.606113 250.903757 
L 187.835568 249.061397 
L 188.450296 248.410577 
L 190.29563 245.668267 
L 190.911509 245.08734 
L 192.757994 242.705385 
L 193.373873 242.206749 
L 194.605631 240.722866 
L 196.453267 239.251382 
L 197.069146 238.703146 
L 198.917934 237.949743 
L 201.3826 236.610904 
L 203.231388 236.035237 
L 205.079024 235.300623 
L 211.857145 232.267473 
L 217.402357 227.4596 
L 221.098781 223.912784 
L 221.71466 223.167273 
L 223.563447 219.470528 
L 224.795205 216.544095 
L 226.026962 212.947302 
L 226.643992 210.743835 
L 227.259871 208.083441 
L 227.87575 204.824083 
L 228.491629 199.559284 
L 229.189241 194.703314 
L 229.886853 193.267528 
L 231.97969 190.027709 
L 232.677303 189.222452 
L 233.374915 188.07713 
L 234.770139 184.527308 
L 237.560588 176.139552 
L 240.349886 165.128979 
L 241.046347 162.988263 
L 241.74396 162.074411 
L 242.200976 161.686249 
L 244.488362 157.000874 
L 254.553088 136.516594 
L 257.298641 131.428778 
L 259.586027 127.641099 
L 261.873412 124.30734 
L 264.160798 121.365125 
L 267.821535 117.119768 
L 277.428094 106.484956 
L 281.545848 102.25989 
L 285.206586 98.816033 
L 288.866172 95.685561 
L 292.525759 92.844426 
L 297.101681 89.609116 
L 303.048653 85.716975 
L 309.910809 81.46523 
L 316.315949 77.756837 
L 321.805904 74.84581 
L 327.29586 72.198567 
L 333.243983 69.600926 
L 339.649123 67.054764 
L 347.426463 64.210998 
L 356.118989 61.259765 
L 364.811514 58.53474 
L 373.045871 56.187356 
L 381.28138 54.072192 
L 389.973905 52.062994 
L 400.496799 49.87343 
L 412.391894 47.633889 
L 422.45662 45.934318 
L 422.913637 45.983167 
L 423.371805 46.415669 
L 423.828821 48.03633 
L 424.285838 54.395723 
L 424.285838 54.395723 
" clip-path="url(#pef531f0a21)" style="fill: none; stroke: #0072bd; stroke-width: 1.25; stroke-linecap: square"/>
   </g>
   <g id="patch_3">
    <path d="M 47.507656 287.590625 
L 47.507656 34.426875 
" style="fill: none; stroke: #000000; stroke-width: 1.25; stroke-linejoin: miter; stroke-linecap: square"/>
   </g>
   <g id="patch_4">
    <path d="M 442.227656 287.590625 
L 442.227656 34.426875 
" style="fill: none; stroke: #000000; stroke-width: 1.25; stroke-linejoin: miter; stroke-linecap: square"/>
   </g>
   <g id="patch_5">
    <path d="M 47.507656 287.590625 
L 442.227656 287.590625 
" style="fill: none; stroke: #000000; stroke-width: 1.25; stroke-linejoin: miter; stroke-linecap: square"/>
   </g>
   <g id="patch_6">
    <path d="M 47.507656 34.426875 
L 442.227656 34.426875 
" style="fill: none; stroke: #000000; stroke-width: 1.25; stroke-linejoin: miter; stroke-linecap: square"/>
   </g>
   <g id="text_17">
    <!-- Void fraction distribution -->
    <g transform="translate(179.270469 16.226875) scale(0.13 -0.13)">
     <defs>
      <path id="TimesNewRomanPSMT-62" d="M 984 2369 
Q 1400 2947 1881 2947 
Q 2322 2947 2650 2570 
Q 2978 2194 2978 1541 
Q 2978 778 2472 313 
Q 2038 -88 1503 -88 
Q 1253 -88 995 3 
Q 738 94 469 275 
L 469 3241 
Q 469 3728 445 3840 
Q 422 3953 372 3993 
Q 322 4034 247 4034 
Q 159 4034 28 3984 
L -16 4094 
L 844 4444 
L 984 4444 
L 984 2369 
z
M 984 2169 
L 984 456 
Q 1144 300 1314 220 
Q 1484 141 1663 141 
Q 1947 141 2192 453 
Q 2438 766 2438 1363 
Q 2438 1913 2192 2208 
Q 1947 2503 1634 2503 
Q 1469 2503 1303 2419 
Q 1178 2356 984 2169 
z
" transform="scale(0.015625)"/>
      <path id="TimesNewRomanPSMT-75" d="M 2709 2863 
L 2709 1128 
Q 2709 631 2732 520 
Q 2756 409 2807 365 
Q 2859 322 2928 322 
Q 3025 322 3147 375 
L 3191 266 
L 2334 -88 
L 2194 -88 
L 2194 519 
Q 1825 119 1631 15 
Q 1438 -88 1222 -88 
Q 981 -88 804 51 
Q 628 191 559 409 
Q 491 628 491 1028 
L 491 2306 
Q 491 2509 447 2587 
Q 403 2666 317 2708 
Q 231 2750 6 2747 
L 6 2863 
L 1009 2863 
L 1009 947 
Q 1009 547 1148 422 
Q 1288 297 1484 297 
Q 1619 297 1789 381 
Q 1959 466 2194 703 
L 2194 2325 
Q 2194 2569 2105 2655 
Q 2016 2741 1734 2747 
L 1734 2863 
L 2709 2863 
z
" transform="scale(0.015625)"/>
     </defs>
     <use xlink:href="#TimesNewRomanPSMT-56"/>
     <use xlink:href="#TimesNewRomanPSMT-6f" x="59.341797"/>
     <use xlink:href="#TimesNewRomanPSMT-69" x="109.341797"/>
     <use xlink:href="#TimesNewRomanPSMT-64" x="137.125"/>
     <use xlink:href="#TimesNewRomanPSMT-20" x="187.125"/>
     <use xlink:href="#TimesNewRomanPSMT-66" x="212.125"/>
     <use xlink:href="#TimesNewRomanPSMT-72" x="245.425781"/>
     <use xlink:href="#TimesNewRomanPSMT-61" x="278.726562"/>
     <use xlink:href="#TimesNewRomanPSMT-63" x="323.111328"/>
     <use xlink:href="#TimesNewRomanPSMT-74" x="367.496094"/>
     <use xlink:href="#TimesNewRomanPSMT-69" x="395.279297"/>
     <use xlink:href="#TimesNewRomanPSMT-6f" x="423.0625"/>
     <use xlink:href="#TimesNewRomanPSMT-6e" x="473.0625"/>
     <use xlink:href="#TimesNewRomanPSMT-20" x="523.0625"/>
     <use xlink:href="#TimesNewRomanPSMT-64" x="548.0625"/>
     <use xlink:href="#TimesNewRomanPSMT-69" x="598.0625"/>
     <use xlink:href="#TimesNewRomanPSMT-73" x="625.845703"/>
     <use xlink:href="#TimesNewRomanPSMT-74" x="664.761719"/>
     <use xlink:href="#TimesNewRomanPSMT-72" x="692.544922"/>
     <use xlink:href="#TimesNewRomanPSMT-69" x="725.845703"/>
     <use xlink:href="#TimesNewRomanPSMT-62" x="753.628906"/>
     <use xlink:href="#TimesNewRomanPSMT-75" x="803.628906"/>
     <use xlink:href="#TimesNewRomanPSMT-74" x="853.628906"/>
     <use xlink:href="#TimesNewRomanPSMT-69" x="881.412109"/>
     <use xlink:href="#TimesNewRomanPSMT-6f" x="909.195312"/>
     <use xlink:href="#TimesNewRomanPSMT-6e" x="959.195312"/>
    </g>
   </g>
  </g>
 </g>
 <defs>
  <clipPath id="pef531f0a21">
   <rect x="47.507656" y="34.426875" width="394.72" height="253.16375"/>
  </clipPath>
 </defs>
</svg>
