<?xml version="1.0" encoding="utf-8" standalone="no"?>
<!DOCTYPE svg PUBLIC "-//W3C//DTD SVG 1.1//EN"
  "http://www.w3.org/Graphics/SVG/1.1/DTD/svg11.dtd">
<svg xmlns:xlink="http://www.w3.org/1999/xlink" width="489.6pt" height="288pt" viewBox="0 0 489.6 288" xmlns="http://www.w3.org/2000/svg" version="1.1">
 <metadata>
  <rdf:RDF xmlns:dc="http://purl.org/dc/elements/1.1/" xmlns:cc="http://creativecommons.org/ns#" xmlns:rdf="http://www.w3.org/1999/02/22-rdf-syntax-ns#">
   <cc:Work>
    <dc:type rdf:resource="http://purl.org/dc/dcmitype/StillImage"/>
    <dc:date>2024-04-09T04:03:43.449964</dc:date>
    <dc:format>image/svg+xml</dc:format>
    <dc:creator>
     <cc:Agent>
      <dc:title>Matplotlib v3.8.0, https://matplotlib.org/</dc:title>
     </cc:Agent>
    </dc:creator>
   </cc:Work>
  </rdf:RDF>
 </metadata>
 <defs>
  <style type="text/css">*{stroke-linejoin: round; stroke-linecap: butt}</style>
 </defs>
 <g id="figure_1">
  <g id="patch_1">
   <path d="M 0 288 
L 489.6 288 
L 489.6 0 
L 0 0 
z
" style="fill: #ffffff"/>
  </g>
  <g id="axes_1">
   <g id="patch_2">
    <path d="M 61.53 238.71 
L 466.205 238.71 
L 466.205 13 
L 61.53 13 
z
" style="fill: #ffffff"/>
   </g>
   <g id="matplotlib.axis_1">
    <g id="xtick_1">
     <g id="line2d_1">
      <path d="M 61.53 238.71 
L 61.53 13 
" clip-path="url(#p65383d6a23)" style="fill: none; stroke: #000000; stroke-opacity: 0.5; stroke-width: 0.5; stroke-linecap: square"/>
     </g>
     <g id="line2d_2">
      <defs>
       <path id="m5be3c5e3e3" d="M 0 0 
L 0 -6 
" style="stroke: #000000; stroke-width: 1.25"/>
      </defs>
      <g>
       <use xlink:href="#m5be3c5e3e3" x="61.53" y="238.71" style="fill: #ffffff; stroke: #000000; stroke-width: 1.25"/>
      </g>
     </g>
     <g id="line2d_3">
      <defs>
       <path id="mc48dbb6d90" d="M 0 0 
L 0 6 
" style="stroke: #000000; stroke-width: 1.25"/>
      </defs>
      <g>
       <use xlink:href="#mc48dbb6d90" x="61.53" y="13" style="fill: #ffffff; stroke: #000000; stroke-width: 1.25"/>
      </g>
     </g>
     <g id="text_1">
      <!-- 0.95 -->
      <g transform="translate(51.03 250.5425) scale(0.12 -0.12)">
       <defs>
        <path id="TimesNewRomanPSMT-30" d="M 231 2094 
Q 231 2819 450 3342 
Q 669 3866 1031 4122 
Q 1313 4325 1613 4325 
Q 2100 4325 2488 3828 
Q 2972 3213 2972 2159 
Q 2972 1422 2759 906 
Q 2547 391 2217 158 
Q 1888 -75 1581 -75 
Q 975 -75 572 641 
Q 231 1244 231 2094 
z
M 844 2016 
Q 844 1141 1059 588 
Q 1238 122 1591 122 
Q 1759 122 1940 273 
Q 2122 425 2216 781 
Q 2359 1319 2359 2297 
Q 2359 3022 2209 3506 
Q 2097 3866 1919 4016 
Q 1791 4119 1609 4119 
Q 1397 4119 1231 3928 
Q 1006 3669 925 3112 
Q 844 2556 844 2016 
z
" transform="scale(0.015625)"/>
        <path id="TimesNewRomanPSMT-2e" d="M 800 606 
Q 947 606 1047 504 
Q 1147 403 1147 259 
Q 1147 116 1045 14 
Q 944 -88 800 -88 
Q 656 -88 554 14 
Q 453 116 453 259 
Q 453 406 554 506 
Q 656 606 800 606 
z
" transform="scale(0.015625)"/>
        <path id="TimesNewRomanPSMT-39" d="M 338 -88 
L 338 28 
Q 744 34 1094 217 
Q 1444 400 1770 856 
Q 2097 1313 2225 1859 
Q 1734 1544 1338 1544 
Q 891 1544 572 1889 
Q 253 2234 253 2806 
Q 253 3363 572 3797 
Q 956 4325 1575 4325 
Q 2097 4325 2469 3894 
Q 2925 3359 2925 2575 
Q 2925 1869 2578 1258 
Q 2231 647 1613 244 
Q 1109 -88 516 -88 
L 338 -88 
z
M 2275 2091 
Q 2331 2497 2331 2741 
Q 2331 3044 2228 3395 
Q 2125 3747 1936 3934 
Q 1747 4122 1506 4122 
Q 1228 4122 1018 3872 
Q 809 3622 809 3128 
Q 809 2469 1088 2097 
Q 1291 1828 1588 1828 
Q 1731 1828 1928 1897 
Q 2125 1966 2275 2091 
z
" transform="scale(0.015625)"/>
        <path id="TimesNewRomanPSMT-35" d="M 2778 4238 
L 2534 3706 
L 1259 3706 
L 981 3138 
Q 1809 3016 2294 2522 
Q 2709 2097 2709 1522 
Q 2709 1188 2573 903 
Q 2438 619 2231 419 
Q 2025 219 1772 97 
Q 1413 -75 1034 -75 
Q 653 -75 479 54 
Q 306 184 306 341 
Q 306 428 378 495 
Q 450 563 559 563 
Q 641 563 702 538 
Q 763 513 909 409 
Q 1144 247 1384 247 
Q 1750 247 2026 523 
Q 2303 800 2303 1197 
Q 2303 1581 2056 1914 
Q 1809 2247 1375 2428 
Q 1034 2569 447 2591 
L 1259 4238 
L 2778 4238 
z
" transform="scale(0.015625)"/>
       </defs>
       <use xlink:href="#TimesNewRomanPSMT-30"/>
       <use xlink:href="#TimesNewRomanPSMT-2e" x="50"/>
       <use xlink:href="#TimesNewRomanPSMT-39" x="75"/>
       <use xlink:href="#TimesNewRomanPSMT-35" x="125"/>
      </g>
     </g>
    </g>
    <g id="xtick_2">
     <g id="line2d_4">
      <path d="M 142.465 238.71 
L 142.465 13 
" clip-path="url(#p65383d6a23)" style="fill: none; stroke: #000000; stroke-opacity: 0.5; stroke-width: 0.5; stroke-linecap: square"/>
     </g>
     <g id="line2d_5">
      <g>
       <use xlink:href="#m5be3c5e3e3" x="142.465" y="238.71" style="fill: #ffffff; stroke: #000000; stroke-width: 1.25"/>
      </g>
     </g>
     <g id="line2d_6">
      <g>
       <use xlink:href="#mc48dbb6d90" x="142.465" y="13" style="fill: #ffffff; stroke: #000000; stroke-width: 1.25"/>
      </g>
     </g>
     <g id="text_2">
      <!-- 1.00 -->
      <g transform="translate(131.965 250.5425) scale(0.12 -0.12)">
       <defs>
        <path id="TimesNewRomanPSMT-31" d="M 750 3822 
L 1781 4325 
L 1884 4325 
L 1884 747 
Q 1884 391 1914 303 
Q 1944 216 2037 169 
Q 2131 122 2419 116 
L 2419 0 
L 825 0 
L 825 116 
Q 1125 122 1212 167 
Q 1300 213 1334 289 
Q 1369 366 1369 747 
L 1369 3034 
Q 1369 3497 1338 3628 
Q 1316 3728 1258 3775 
Q 1200 3822 1119 3822 
Q 1003 3822 797 3725 
L 750 3822 
z
" transform="scale(0.015625)"/>
       </defs>
       <use xlink:href="#TimesNewRomanPSMT-31"/>
       <use xlink:href="#TimesNewRomanPSMT-2e" x="50"/>
       <use xlink:href="#TimesNewRomanPSMT-30" x="75"/>
       <use xlink:href="#TimesNewRomanPSMT-30" x="125"/>
      </g>
     </g>
    </g>
    <g id="xtick_3">
     <g id="line2d_7">
      <path d="M 223.4 238.71 
L 223.4 13 
" clip-path="url(#p65383d6a23)" style="fill: none; stroke: #000000; stroke-opacity: 0.5; stroke-width: 0.5; stroke-linecap: square"/>
     </g>
     <g id="line2d_8">
      <g>
       <use xlink:href="#m5be3c5e3e3" x="223.4" y="238.71" style="fill: #ffffff; stroke: #000000; stroke-width: 1.25"/>
      </g>
     </g>
     <g id="line2d_9">
      <g>
       <use xlink:href="#mc48dbb6d90" x="223.4" y="13" style="fill: #ffffff; stroke: #000000; stroke-width: 1.25"/>
      </g>
     </g>
     <g id="text_3">
      <!-- 1.05 -->
      <g transform="translate(212.9 250.5425) scale(0.12 -0.12)">
       <use xlink:href="#TimesNewRomanPSMT-31"/>
       <use xlink:href="#TimesNewRomanPSMT-2e" x="50"/>
       <use xlink:href="#TimesNewRomanPSMT-30" x="75"/>
       <use xlink:href="#TimesNewRomanPSMT-35" x="125"/>
      </g>
     </g>
    </g>
    <g id="xtick_4">
     <g id="line2d_10">
      <path d="M 304.335 238.71 
L 304.335 13 
" clip-path="url(#p65383d6a23)" style="fill: none; stroke: #000000; stroke-opacity: 0.5; stroke-width: 0.5; stroke-linecap: square"/>
     </g>
     <g id="line2d_11">
      <g>
       <use xlink:href="#m5be3c5e3e3" x="304.335" y="238.71" style="fill: #ffffff; stroke: #000000; stroke-width: 1.25"/>
      </g>
     </g>
     <g id="line2d_12">
      <g>
       <use xlink:href="#mc48dbb6d90" x="304.335" y="13" style="fill: #ffffff; stroke: #000000; stroke-width: 1.25"/>
      </g>
     </g>
     <g id="text_4">
      <!-- 1.10 -->
      <g transform="translate(293.835 250.5425) scale(0.12 -0.12)">
       <use xlink:href="#TimesNewRomanPSMT-31"/>
       <use xlink:href="#TimesNewRomanPSMT-2e" x="50"/>
       <use xlink:href="#TimesNewRomanPSMT-31" x="75"/>
       <use xlink:href="#TimesNewRomanPSMT-30" x="125"/>
      </g>
     </g>
    </g>
    <g id="xtick_5">
     <g id="line2d_13">
      <path d="M 385.27 238.71 
L 385.27 13 
" clip-path="url(#p65383d6a23)" style="fill: none; stroke: #000000; stroke-opacity: 0.5; stroke-width: 0.5; stroke-linecap: square"/>
     </g>
     <g id="line2d_14">
      <g>
       <use xlink:href="#m5be3c5e3e3" x="385.27" y="238.71" style="fill: #ffffff; stroke: #000000; stroke-width: 1.25"/>
      </g>
     </g>
     <g id="line2d_15">
      <g>
       <use xlink:href="#mc48dbb6d90" x="385.27" y="13" style="fill: #ffffff; stroke: #000000; stroke-width: 1.25"/>
      </g>
     </g>
     <g id="text_5">
      <!-- 1.15 -->
      <g transform="translate(374.77 250.5425) scale(0.12 -0.12)">
       <use xlink:href="#TimesNewRomanPSMT-31"/>
       <use xlink:href="#TimesNewRomanPSMT-2e" x="50"/>
       <use xlink:href="#TimesNewRomanPSMT-31" x="75"/>
       <use xlink:href="#TimesNewRomanPSMT-35" x="125"/>
      </g>
     </g>
    </g>
    <g id="xtick_6">
     <g id="line2d_16">
      <path d="M 466.205 238.71 
L 466.205 13 
" clip-path="url(#p65383d6a23)" style="fill: none; stroke: #000000; stroke-opacity: 0.5; stroke-width: 0.5; stroke-linecap: square"/>
     </g>
     <g id="line2d_17">
      <g>
       <use xlink:href="#m5be3c5e3e3" x="466.205" y="238.71" style="fill: #ffffff; stroke: #000000; stroke-width: 1.25"/>
      </g>
     </g>
     <g id="line2d_18">
      <g>
       <use xlink:href="#mc48dbb6d90" x="466.205" y="13" style="fill: #ffffff; stroke: #000000; stroke-width: 1.25"/>
      </g>
     </g>
     <g id="text_6">
      <!-- 1.20 -->
      <g transform="translate(455.705 250.5425) scale(0.12 -0.12)">
       <defs>
        <path id="TimesNewRomanPSMT-32" d="M 2934 816 
L 2638 0 
L 138 0 
L 138 116 
Q 1241 1122 1691 1759 
Q 2141 2397 2141 2925 
Q 2141 3328 1894 3587 
Q 1647 3847 1303 3847 
Q 991 3847 742 3664 
Q 494 3481 375 3128 
L 259 3128 
Q 338 3706 661 4015 
Q 984 4325 1469 4325 
Q 1984 4325 2329 3994 
Q 2675 3663 2675 3213 
Q 2675 2891 2525 2569 
Q 2294 2063 1775 1497 
Q 997 647 803 472 
L 1909 472 
Q 2247 472 2383 497 
Q 2519 522 2628 598 
Q 2738 675 2819 816 
L 2934 816 
z
" transform="scale(0.015625)"/>
       </defs>
       <use xlink:href="#TimesNewRomanPSMT-31"/>
       <use xlink:href="#TimesNewRomanPSMT-2e" x="50"/>
       <use xlink:href="#TimesNewRomanPSMT-32" x="75"/>
       <use xlink:href="#TimesNewRomanPSMT-30" x="125"/>
      </g>
     </g>
    </g>
    <g id="text_7">
     <!-- Entropy [kJ/kg/K] -->
     <g transform="translate(216.388047 271.88625) scale(0.13 -0.13)">
      <defs>
       <path id="TimesNewRomanPSMT-45" d="M 1338 4006 
L 1338 2331 
L 2269 2331 
Q 2631 2331 2753 2441 
Q 2916 2584 2934 2947 
L 3050 2947 
L 3050 1472 
L 2934 1472 
Q 2891 1781 2847 1869 
Q 2791 1978 2662 2040 
Q 2534 2103 2269 2103 
L 1338 2103 
L 1338 706 
Q 1338 425 1363 364 
Q 1388 303 1450 267 
Q 1513 231 1688 231 
L 2406 231 
Q 2766 231 2928 281 
Q 3091 331 3241 478 
Q 3434 672 3638 1063 
L 3763 1063 
L 3397 0 
L 131 0 
L 131 116 
L 281 116 
Q 431 116 566 188 
Q 666 238 702 338 
Q 738 438 738 747 
L 738 3500 
Q 738 3903 656 3997 
Q 544 4122 281 4122 
L 131 4122 
L 131 4238 
L 3397 4238 
L 3444 3309 
L 3322 3309 
Q 3256 3644 3176 3769 
Q 3097 3894 2941 3959 
Q 2816 4006 2500 4006 
L 1338 4006 
z
" transform="scale(0.015625)"/>
       <path id="TimesNewRomanPSMT-6e" d="M 1034 2341 
Q 1538 2947 1994 2947 
Q 2228 2947 2397 2830 
Q 2566 2713 2666 2444 
Q 2734 2256 2734 1869 
L 2734 647 
Q 2734 375 2778 278 
Q 2813 200 2889 156 
Q 2966 113 3172 113 
L 3172 0 
L 1756 0 
L 1756 113 
L 1816 113 
Q 2016 113 2095 173 
Q 2175 234 2206 353 
Q 2219 400 2219 647 
L 2219 1819 
Q 2219 2209 2117 2386 
Q 2016 2563 1775 2563 
Q 1403 2563 1034 2156 
L 1034 647 
Q 1034 356 1069 288 
Q 1113 197 1189 155 
Q 1266 113 1500 113 
L 1500 0 
L 84 0 
L 84 113 
L 147 113 
Q 366 113 442 223 
Q 519 334 519 647 
L 519 1709 
Q 519 2225 495 2337 
Q 472 2450 423 2490 
Q 375 2531 294 2531 
Q 206 2531 84 2484 
L 38 2597 
L 900 2947 
L 1034 2947 
L 1034 2341 
z
" transform="scale(0.015625)"/>
       <path id="TimesNewRomanPSMT-74" d="M 1031 3803 
L 1031 2863 
L 1700 2863 
L 1700 2644 
L 1031 2644 
L 1031 788 
Q 1031 509 1111 412 
Q 1191 316 1316 316 
Q 1419 316 1516 380 
Q 1613 444 1666 569 
L 1788 569 
Q 1678 263 1478 108 
Q 1278 -47 1066 -47 
Q 922 -47 784 33 
Q 647 113 581 261 
Q 516 409 516 719 
L 516 2644 
L 63 2644 
L 63 2747 
Q 234 2816 414 2980 
Q 594 3144 734 3369 
Q 806 3488 934 3803 
L 1031 3803 
z
" transform="scale(0.015625)"/>
       <path id="TimesNewRomanPSMT-72" d="M 1038 2947 
L 1038 2303 
Q 1397 2947 1775 2947 
Q 1947 2947 2059 2842 
Q 2172 2738 2172 2600 
Q 2172 2478 2090 2393 
Q 2009 2309 1897 2309 
Q 1788 2309 1652 2417 
Q 1516 2525 1450 2525 
Q 1394 2525 1328 2463 
Q 1188 2334 1038 2041 
L 1038 669 
Q 1038 431 1097 309 
Q 1138 225 1241 169 
Q 1344 113 1538 113 
L 1538 0 
L 72 0 
L 72 113 
Q 291 113 397 181 
Q 475 231 506 341 
Q 522 394 522 644 
L 522 1753 
Q 522 2253 501 2348 
Q 481 2444 426 2487 
Q 372 2531 291 2531 
Q 194 2531 72 2484 
L 41 2597 
L 906 2947 
L 1038 2947 
z
" transform="scale(0.015625)"/>
       <path id="TimesNewRomanPSMT-6f" d="M 1600 2947 
Q 2250 2947 2644 2453 
Q 2978 2031 2978 1484 
Q 2978 1100 2793 706 
Q 2609 313 2286 112 
Q 1963 -88 1566 -88 
Q 919 -88 538 428 
Q 216 863 216 1403 
Q 216 1797 411 2186 
Q 606 2575 925 2761 
Q 1244 2947 1600 2947 
z
M 1503 2744 
Q 1338 2744 1170 2645 
Q 1003 2547 900 2300 
Q 797 2053 797 1666 
Q 797 1041 1045 587 
Q 1294 134 1700 134 
Q 2003 134 2200 384 
Q 2397 634 2397 1244 
Q 2397 2006 2069 2444 
Q 1847 2744 1503 2744 
z
" transform="scale(0.015625)"/>
       <path id="TimesNewRomanPSMT-70" d="M -6 2578 
L 875 2934 
L 994 2934 
L 994 2266 
Q 1216 2644 1439 2795 
Q 1663 2947 1909 2947 
Q 2341 2947 2628 2609 
Q 2981 2197 2981 1534 
Q 2981 794 2556 309 
Q 2206 -88 1675 -88 
Q 1444 -88 1275 -22 
Q 1150 25 994 166 
L 994 -706 
Q 994 -1000 1030 -1079 
Q 1066 -1159 1155 -1206 
Q 1244 -1253 1478 -1253 
L 1478 -1369 
L -22 -1369 
L -22 -1253 
L 56 -1253 
Q 228 -1256 350 -1188 
Q 409 -1153 442 -1076 
Q 475 -1000 475 -688 
L 475 2019 
Q 475 2297 450 2372 
Q 425 2447 370 2484 
Q 316 2522 222 2522 
Q 147 2522 31 2478 
L -6 2578 
z
M 994 2081 
L 994 1013 
Q 994 666 1022 556 
Q 1066 375 1236 237 
Q 1406 100 1666 100 
Q 1978 100 2172 344 
Q 2425 663 2425 1241 
Q 2425 1897 2138 2250 
Q 1938 2494 1663 2494 
Q 1513 2494 1366 2419 
Q 1253 2363 994 2081 
z
" transform="scale(0.015625)"/>
       <path id="TimesNewRomanPSMT-79" d="M 38 2863 
L 1372 2863 
L 1372 2747 
L 1306 2747 
Q 1166 2747 1095 2686 
Q 1025 2625 1025 2534 
Q 1025 2413 1128 2197 
L 1825 753 
L 2466 2334 
Q 2519 2463 2519 2588 
Q 2519 2644 2497 2672 
Q 2472 2706 2419 2726 
Q 2366 2747 2231 2747 
L 2231 2863 
L 3163 2863 
L 3163 2747 
Q 3047 2734 2984 2696 
Q 2922 2659 2847 2556 
Q 2819 2513 2741 2316 
L 1575 -541 
Q 1406 -956 1132 -1168 
Q 859 -1381 606 -1381 
Q 422 -1381 303 -1275 
Q 184 -1169 184 -1031 
Q 184 -900 270 -820 
Q 356 -741 506 -741 
Q 609 -741 788 -809 
Q 913 -856 944 -856 
Q 1038 -856 1148 -759 
Q 1259 -663 1372 -384 
L 1575 113 
L 547 2272 
Q 500 2369 397 2513 
Q 319 2622 269 2659 
Q 197 2709 38 2747 
L 38 2863 
z
" transform="scale(0.015625)"/>
       <path id="TimesNewRomanPSMT-20" transform="scale(0.015625)"/>
       <path id="TimesNewRomanPSMT-5b" d="M 1900 -1269 
L 525 -1269 
L 525 4334 
L 1900 4334 
L 1900 4088 
L 994 4088 
L 994 -1025 
L 1900 -1025 
L 1900 -1269 
z
" transform="scale(0.015625)"/>
       <path id="TimesNewRomanPSMT-6b" d="M 1047 4444 
L 1047 1597 
L 1775 2259 
Q 2006 2472 2044 2528 
Q 2069 2566 2069 2603 
Q 2069 2666 2017 2711 
Q 1966 2756 1847 2763 
L 1847 2863 
L 3091 2863 
L 3091 2763 
Q 2834 2756 2664 2684 
Q 2494 2613 2291 2428 
L 1556 1750 
L 2291 822 
Q 2597 438 2703 334 
Q 2853 188 2966 144 
Q 3044 113 3238 113 
L 3238 0 
L 1847 0 
L 1847 113 
Q 1966 116 2008 148 
Q 2050 181 2050 241 
Q 2050 313 1925 472 
L 1047 1594 
L 1047 644 
Q 1047 366 1086 278 
Q 1125 191 1197 153 
Q 1269 116 1509 113 
L 1509 0 
L 53 0 
L 53 113 
Q 272 113 381 166 
Q 447 200 481 272 
Q 528 375 528 628 
L 528 3234 
Q 528 3731 506 3842 
Q 484 3953 434 3995 
Q 384 4038 303 4038 
Q 238 4038 106 3984 
L 53 4094 
L 903 4444 
L 1047 4444 
z
" transform="scale(0.015625)"/>
       <path id="TimesNewRomanPSMT-4a" d="M 638 4122 
L 638 4238 
L 2453 4238 
L 2453 4122 
L 2300 4122 
Q 2041 4122 1922 3969 
Q 1847 3869 1847 3488 
L 1847 1416 
Q 1847 938 1742 641 
Q 1638 344 1381 123 
Q 1125 -97 763 -97 
Q 469 -97 300 48 
Q 131 194 131 381 
Q 131 534 209 613 
Q 313 709 450 709 
Q 550 709 629 643 
Q 709 578 831 294 
Q 903 125 1016 125 
Q 1100 125 1173 228 
Q 1247 331 1247 594 
L 1247 3488 
Q 1247 3809 1206 3913 
Q 1175 3991 1075 4047 
Q 941 4122 791 4122 
L 638 4122 
z
" transform="scale(0.015625)"/>
       <path id="TimesNewRomanPSMT-2f" d="M 1794 4444 
L 259 -88 
L 9 -88 
L 1544 4444 
L 1794 4444 
z
" transform="scale(0.015625)"/>
       <path id="TimesNewRomanPSMT-67" d="M 966 1044 
Q 703 1172 562 1401 
Q 422 1631 422 1909 
Q 422 2334 742 2640 
Q 1063 2947 1563 2947 
Q 1972 2947 2272 2747 
L 2878 2747 
Q 3013 2747 3034 2739 
Q 3056 2731 3066 2713 
Q 3084 2684 3084 2613 
Q 3084 2531 3069 2500 
Q 3059 2484 3036 2475 
Q 3013 2466 2878 2466 
L 2506 2466 
Q 2681 2241 2681 1891 
Q 2681 1491 2375 1206 
Q 2069 922 1553 922 
Q 1341 922 1119 984 
Q 981 866 932 777 
Q 884 688 884 625 
Q 884 572 936 522 
Q 988 472 1138 450 
Q 1225 438 1575 428 
Q 2219 413 2409 384 
Q 2700 344 2873 169 
Q 3047 -6 3047 -263 
Q 3047 -616 2716 -925 
Q 2228 -1381 1444 -1381 
Q 841 -1381 425 -1109 
Q 191 -953 191 -784 
Q 191 -709 225 -634 
Q 278 -519 444 -313 
Q 466 -284 763 25 
Q 600 122 533 198 
Q 466 275 466 372 
Q 466 481 555 628 
Q 644 775 966 1044 
z
M 1509 2797 
Q 1278 2797 1122 2612 
Q 966 2428 966 2047 
Q 966 1553 1178 1281 
Q 1341 1075 1591 1075 
Q 1828 1075 1981 1253 
Q 2134 1431 2134 1813 
Q 2134 2309 1919 2591 
Q 1759 2797 1509 2797 
z
M 934 0 
Q 788 -159 713 -296 
Q 638 -434 638 -550 
Q 638 -700 819 -813 
Q 1131 -1006 1722 -1006 
Q 2284 -1006 2551 -807 
Q 2819 -609 2819 -384 
Q 2819 -222 2659 -153 
Q 2497 -84 2016 -72 
Q 1313 -53 934 0 
z
" transform="scale(0.015625)"/>
       <path id="TimesNewRomanPSMT-4b" d="M 1913 2350 
L 3475 797 
Q 3859 413 4131 273 
Q 4403 134 4675 116 
L 4675 0 
L 2659 0 
L 2659 116 
Q 2841 116 2920 177 
Q 3000 238 3000 313 
Q 3000 388 2970 447 
Q 2941 506 2775 669 
L 1313 2116 
L 1313 750 
Q 1313 428 1353 325 
Q 1384 247 1484 191 
Q 1619 116 1769 116 
L 1913 116 
L 1913 0 
L 106 0 
L 106 116 
L 256 116 
Q 519 116 638 269 
Q 713 369 713 750 
L 713 3488 
Q 713 3809 672 3916 
Q 641 3991 544 4047 
Q 406 4122 256 4122 
L 106 4122 
L 106 4238 
L 1913 4238 
L 1913 4122 
L 1769 4122 
Q 1622 4122 1484 4050 
Q 1388 4000 1350 3900 
Q 1313 3800 1313 3488 
L 1313 2191 
Q 1375 2250 1741 2588 
Q 2669 3438 2863 3722 
Q 2947 3847 2947 3941 
Q 2947 4013 2881 4067 
Q 2816 4122 2659 4122 
L 2563 4122 
L 2563 4238 
L 4119 4238 
L 4119 4122 
Q 3981 4119 3868 4084 
Q 3756 4050 3593 3951 
Q 3431 3853 3194 3634 
Q 3125 3572 2559 2994 
L 1913 2350 
z
" transform="scale(0.015625)"/>
       <path id="TimesNewRomanPSMT-5d" d="M 234 4334 
L 1609 4334 
L 1609 -1272 
L 234 -1272 
L 234 -1025 
L 1141 -1025 
L 1141 4088 
L 234 4088 
L 234 4334 
z
" transform="scale(0.015625)"/>
      </defs>
      <use xlink:href="#TimesNewRomanPSMT-45"/>
      <use xlink:href="#TimesNewRomanPSMT-6e" x="61.083984"/>
      <use xlink:href="#TimesNewRomanPSMT-74" x="111.083984"/>
      <use xlink:href="#TimesNewRomanPSMT-72" x="138.867188"/>
      <use xlink:href="#TimesNewRomanPSMT-6f" x="172.167969"/>
      <use xlink:href="#TimesNewRomanPSMT-70" x="222.167969"/>
      <use xlink:href="#TimesNewRomanPSMT-79" x="272.167969"/>
      <use xlink:href="#TimesNewRomanPSMT-20" x="322.167969"/>
      <use xlink:href="#TimesNewRomanPSMT-5b" x="347.167969"/>
      <use xlink:href="#TimesNewRomanPSMT-6b" x="380.46875"/>
      <use xlink:href="#TimesNewRomanPSMT-4a" x="430.46875"/>
      <use xlink:href="#TimesNewRomanPSMT-2f" x="469.384766"/>
      <use xlink:href="#TimesNewRomanPSMT-6b" x="497.167969"/>
      <use xlink:href="#TimesNewRomanPSMT-67" x="547.167969"/>
      <use xlink:href="#TimesNewRomanPSMT-2f" x="597.167969"/>
      <use xlink:href="#TimesNewRomanPSMT-4b" x="624.951172"/>
      <use xlink:href="#TimesNewRomanPSMT-5d" x="697.167969"/>
     </g>
    </g>
   </g>
   <g id="matplotlib.axis_2">
    <g id="ytick_1">
     <g id="line2d_19">
      <path d="M 61.53 238.71 
L 466.205 238.71 
" clip-path="url(#p65383d6a23)" style="fill: none; stroke: #000000; stroke-opacity: 0.5; stroke-width: 0.5; stroke-linecap: square"/>
     </g>
     <g id="line2d_20">
      <defs>
       <path id="m3044d4196e" d="M 0 0 
L 6 0 
" style="stroke: #000000; stroke-width: 1.25"/>
      </defs>
      <g>
       <use xlink:href="#m3044d4196e" x="61.53" y="238.71" style="fill: #ffffff; stroke: #000000; stroke-width: 1.25"/>
      </g>
     </g>
     <g id="line2d_21">
      <defs>
       <path id="m15afc8b1d1" d="M 0 0 
L -6 0 
" style="stroke: #000000; stroke-width: 1.25"/>
      </defs>
      <g>
       <use xlink:href="#m15afc8b1d1" x="466.205" y="238.71" style="fill: #ffffff; stroke: #000000; stroke-width: 1.25"/>
      </g>
     </g>
     <g id="text_8">
      <!-- 0.90 -->
      <g transform="translate(37.03 242.87625) scale(0.12 -0.12)">
       <use xlink:href="#TimesNewRomanPSMT-30"/>
       <use xlink:href="#TimesNewRomanPSMT-2e" x="50"/>
       <use xlink:href="#TimesNewRomanPSMT-39" x="75"/>
       <use xlink:href="#TimesNewRomanPSMT-30" x="125"/>
      </g>
     </g>
    </g>
    <g id="ytick_2">
     <g id="line2d_22">
      <path d="M 61.53 208.615333 
L 466.205 208.615333 
" clip-path="url(#p65383d6a23)" style="fill: none; stroke: #000000; stroke-opacity: 0.5; stroke-width: 0.5; stroke-linecap: square"/>
     </g>
     <g id="line2d_23">
      <g>
       <use xlink:href="#m3044d4196e" x="61.53" y="208.615333" style="fill: #ffffff; stroke: #000000; stroke-width: 1.25"/>
      </g>
     </g>
     <g id="line2d_24">
      <g>
       <use xlink:href="#m15afc8b1d1" x="466.205" y="208.615333" style="fill: #ffffff; stroke: #000000; stroke-width: 1.25"/>
      </g>
     </g>
     <g id="text_9">
      <!-- 0.92 -->
      <g transform="translate(37.03 212.781583) scale(0.12 -0.12)">
       <use xlink:href="#TimesNewRomanPSMT-30"/>
       <use xlink:href="#TimesNewRomanPSMT-2e" x="50"/>
       <use xlink:href="#TimesNewRomanPSMT-39" x="75"/>
       <use xlink:href="#TimesNewRomanPSMT-32" x="125"/>
      </g>
     </g>
    </g>
    <g id="ytick_3">
     <g id="line2d_25">
      <path d="M 61.53 178.520667 
L 466.205 178.520667 
" clip-path="url(#p65383d6a23)" style="fill: none; stroke: #000000; stroke-opacity: 0.5; stroke-width: 0.5; stroke-linecap: square"/>
     </g>
     <g id="line2d_26">
      <g>
       <use xlink:href="#m3044d4196e" x="61.53" y="178.520667" style="fill: #ffffff; stroke: #000000; stroke-width: 1.25"/>
      </g>
     </g>
     <g id="line2d_27">
      <g>
       <use xlink:href="#m15afc8b1d1" x="466.205" y="178.520667" style="fill: #ffffff; stroke: #000000; stroke-width: 1.25"/>
      </g>
     </g>
     <g id="text_10">
      <!-- 0.94 -->
      <g transform="translate(37.03 182.686917) scale(0.12 -0.12)">
       <defs>
        <path id="TimesNewRomanPSMT-34" d="M 2978 1563 
L 2978 1119 
L 2409 1119 
L 2409 0 
L 1894 0 
L 1894 1119 
L 100 1119 
L 100 1519 
L 2066 4325 
L 2409 4325 
L 2409 1563 
L 2978 1563 
z
M 1894 1563 
L 1894 3666 
L 406 1563 
L 1894 1563 
z
" transform="scale(0.015625)"/>
       </defs>
       <use xlink:href="#TimesNewRomanPSMT-30"/>
       <use xlink:href="#TimesNewRomanPSMT-2e" x="50"/>
       <use xlink:href="#TimesNewRomanPSMT-39" x="75"/>
       <use xlink:href="#TimesNewRomanPSMT-34" x="125"/>
      </g>
     </g>
    </g>
    <g id="ytick_4">
     <g id="line2d_28">
      <path d="M 61.53 148.426 
L 466.205 148.426 
" clip-path="url(#p65383d6a23)" style="fill: none; stroke: #000000; stroke-opacity: 0.5; stroke-width: 0.5; stroke-linecap: square"/>
     </g>
     <g id="line2d_29">
      <g>
       <use xlink:href="#m3044d4196e" x="61.53" y="148.426" style="fill: #ffffff; stroke: #000000; stroke-width: 1.25"/>
      </g>
     </g>
     <g id="line2d_30">
      <g>
       <use xlink:href="#m15afc8b1d1" x="466.205" y="148.426" style="fill: #ffffff; stroke: #000000; stroke-width: 1.25"/>
      </g>
     </g>
     <g id="text_11">
      <!-- 0.96 -->
      <g transform="translate(37.03 152.59225) scale(0.12 -0.12)">
       <defs>
        <path id="TimesNewRomanPSMT-36" d="M 2869 4325 
L 2869 4209 
Q 2456 4169 2195 4045 
Q 1934 3922 1679 3669 
Q 1425 3416 1258 3105 
Q 1091 2794 978 2366 
Q 1428 2675 1881 2675 
Q 2316 2675 2634 2325 
Q 2953 1975 2953 1425 
Q 2953 894 2631 456 
Q 2244 -75 1606 -75 
Q 1172 -75 869 213 
Q 275 772 275 1663 
Q 275 2231 503 2743 
Q 731 3256 1154 3653 
Q 1578 4050 1965 4187 
Q 2353 4325 2688 4325 
L 2869 4325 
z
M 925 2138 
Q 869 1716 869 1456 
Q 869 1156 980 804 
Q 1091 453 1309 247 
Q 1469 100 1697 100 
Q 1969 100 2183 356 
Q 2397 613 2397 1088 
Q 2397 1622 2184 2012 
Q 1972 2403 1581 2403 
Q 1463 2403 1327 2353 
Q 1191 2303 925 2138 
z
" transform="scale(0.015625)"/>
       </defs>
       <use xlink:href="#TimesNewRomanPSMT-30"/>
       <use xlink:href="#TimesNewRomanPSMT-2e" x="50"/>
       <use xlink:href="#TimesNewRomanPSMT-39" x="75"/>
       <use xlink:href="#TimesNewRomanPSMT-36" x="125"/>
      </g>
     </g>
    </g>
    <g id="ytick_5">
     <g id="line2d_31">
      <path d="M 61.53 118.331333 
L 466.205 118.331333 
" clip-path="url(#p65383d6a23)" style="fill: none; stroke: #000000; stroke-opacity: 0.5; stroke-width: 0.5; stroke-linecap: square"/>
     </g>
     <g id="line2d_32">
      <g>
       <use xlink:href="#m3044d4196e" x="61.53" y="118.331333" style="fill: #ffffff; stroke: #000000; stroke-width: 1.25"/>
      </g>
     </g>
     <g id="line2d_33">
      <g>
       <use xlink:href="#m15afc8b1d1" x="466.205" y="118.331333" style="fill: #ffffff; stroke: #000000; stroke-width: 1.25"/>
      </g>
     </g>
     <g id="text_12">
      <!-- 0.98 -->
      <g transform="translate(37.03 122.497583) scale(0.12 -0.12)">
       <defs>
        <path id="TimesNewRomanPSMT-38" d="M 1228 2134 
Q 725 2547 579 2797 
Q 434 3047 434 3316 
Q 434 3728 753 4026 
Q 1072 4325 1600 4325 
Q 2113 4325 2425 4047 
Q 2738 3769 2738 3413 
Q 2738 3175 2569 2928 
Q 2400 2681 1866 2347 
Q 2416 1922 2594 1678 
Q 2831 1359 2831 1006 
Q 2831 559 2490 242 
Q 2150 -75 1597 -75 
Q 994 -75 656 303 
Q 388 606 388 966 
Q 388 1247 577 1523 
Q 766 1800 1228 2134 
z
M 1719 2469 
Q 2094 2806 2194 3001 
Q 2294 3197 2294 3444 
Q 2294 3772 2109 3958 
Q 1925 4144 1606 4144 
Q 1288 4144 1088 3959 
Q 888 3775 888 3528 
Q 888 3366 970 3203 
Q 1053 3041 1206 2894 
L 1719 2469 
z
M 1375 2016 
Q 1116 1797 991 1539 
Q 866 1281 866 981 
Q 866 578 1086 336 
Q 1306 94 1647 94 
Q 1984 94 2187 284 
Q 2391 475 2391 747 
Q 2391 972 2272 1150 
Q 2050 1481 1375 2016 
z
" transform="scale(0.015625)"/>
       </defs>
       <use xlink:href="#TimesNewRomanPSMT-30"/>
       <use xlink:href="#TimesNewRomanPSMT-2e" x="50"/>
       <use xlink:href="#TimesNewRomanPSMT-39" x="75"/>
       <use xlink:href="#TimesNewRomanPSMT-38" x="125"/>
      </g>
     </g>
    </g>
    <g id="ytick_6">
     <g id="line2d_34">
      <path d="M 61.53 88.236667 
L 466.205 88.236667 
" clip-path="url(#p65383d6a23)" style="fill: none; stroke: #000000; stroke-opacity: 0.5; stroke-width: 0.5; stroke-linecap: square"/>
     </g>
     <g id="line2d_35">
      <g>
       <use xlink:href="#m3044d4196e" x="61.53" y="88.236667" style="fill: #ffffff; stroke: #000000; stroke-width: 1.25"/>
      </g>
     </g>
     <g id="line2d_36">
      <g>
       <use xlink:href="#m15afc8b1d1" x="466.205" y="88.236667" style="fill: #ffffff; stroke: #000000; stroke-width: 1.25"/>
      </g>
     </g>
     <g id="text_13">
      <!-- 1.00 -->
      <g transform="translate(37.03 92.402917) scale(0.12 -0.12)">
       <use xlink:href="#TimesNewRomanPSMT-31"/>
       <use xlink:href="#TimesNewRomanPSMT-2e" x="50"/>
       <use xlink:href="#TimesNewRomanPSMT-30" x="75"/>
       <use xlink:href="#TimesNewRomanPSMT-30" x="125"/>
      </g>
     </g>
    </g>
    <g id="ytick_7">
     <g id="line2d_37">
      <path d="M 61.53 58.142 
L 466.205 58.142 
" clip-path="url(#p65383d6a23)" style="fill: none; stroke: #000000; stroke-opacity: 0.5; stroke-width: 0.5; stroke-linecap: square"/>
     </g>
     <g id="line2d_38">
      <g>
       <use xlink:href="#m3044d4196e" x="61.53" y="58.142" style="fill: #ffffff; stroke: #000000; stroke-width: 1.25"/>
      </g>
     </g>
     <g id="line2d_39">
      <g>
       <use xlink:href="#m15afc8b1d1" x="466.205" y="58.142" style="fill: #ffffff; stroke: #000000; stroke-width: 1.25"/>
      </g>
     </g>
     <g id="text_14">
      <!-- 1.02 -->
      <g transform="translate(37.03 62.30825) scale(0.12 -0.12)">
       <use xlink:href="#TimesNewRomanPSMT-31"/>
       <use xlink:href="#TimesNewRomanPSMT-2e" x="50"/>
       <use xlink:href="#TimesNewRomanPSMT-30" x="75"/>
       <use xlink:href="#TimesNewRomanPSMT-32" x="125"/>
      </g>
     </g>
    </g>
    <g id="ytick_8">
     <g id="line2d_40">
      <path d="M 61.53 28.047333 
L 466.205 28.047333 
" clip-path="url(#p65383d6a23)" style="fill: none; stroke: #000000; stroke-opacity: 0.5; stroke-width: 0.5; stroke-linecap: square"/>
     </g>
     <g id="line2d_41">
      <g>
       <use xlink:href="#m3044d4196e" x="61.53" y="28.047333" style="fill: #ffffff; stroke: #000000; stroke-width: 1.25"/>
      </g>
     </g>
     <g id="line2d_42">
      <g>
       <use xlink:href="#m15afc8b1d1" x="466.205" y="28.047333" style="fill: #ffffff; stroke: #000000; stroke-width: 1.25"/>
      </g>
     </g>
     <g id="text_15">
      <!-- 1.04 -->
      <g transform="translate(37.03 32.213583) scale(0.12 -0.12)">
       <use xlink:href="#TimesNewRomanPSMT-31"/>
       <use xlink:href="#TimesNewRomanPSMT-2e" x="50"/>
       <use xlink:href="#TimesNewRomanPSMT-30" x="75"/>
       <use xlink:href="#TimesNewRomanPSMT-34" x="125"/>
      </g>
     </g>
    </g>
    <g id="text_16">
     <!-- Temperature [$^\circ$C] -->
     <g transform="translate(24.42 172.655) rotate(-90) scale(0.13 -0.13)">
      <defs>
       <path id="TimesNewRomanPSMT-54" d="M 3703 4238 
L 3750 3244 
L 3631 3244 
Q 3597 3506 3538 3619 
Q 3441 3800 3280 3886 
Q 3119 3972 2856 3972 
L 2259 3972 
L 2259 734 
Q 2259 344 2344 247 
Q 2463 116 2709 116 
L 2856 116 
L 2856 0 
L 1059 0 
L 1059 116 
L 1209 116 
Q 1478 116 1591 278 
Q 1659 378 1659 734 
L 1659 3972 
L 1150 3972 
Q 853 3972 728 3928 
Q 566 3869 450 3700 
Q 334 3531 313 3244 
L 194 3244 
L 244 4238 
L 3703 4238 
z
" transform="scale(0.015625)"/>
       <path id="TimesNewRomanPSMT-65" d="M 681 1784 
Q 678 1147 991 784 
Q 1303 422 1725 422 
Q 2006 422 2214 576 
Q 2422 731 2563 1106 
L 2659 1044 
Q 2594 616 2278 264 
Q 1963 -88 1488 -88 
Q 972 -88 605 314 
Q 238 716 238 1394 
Q 238 2128 614 2539 
Q 991 2950 1559 2950 
Q 2041 2950 2350 2633 
Q 2659 2316 2659 1784 
L 681 1784 
z
M 681 1966 
L 2006 1966 
Q 1991 2241 1941 2353 
Q 1863 2528 1708 2628 
Q 1553 2728 1384 2728 
Q 1125 2728 920 2526 
Q 716 2325 681 1966 
z
" transform="scale(0.015625)"/>
       <path id="TimesNewRomanPSMT-6d" d="M 1050 2338 
Q 1363 2650 1419 2697 
Q 1559 2816 1721 2881 
Q 1884 2947 2044 2947 
Q 2313 2947 2506 2790 
Q 2700 2634 2766 2338 
Q 3088 2713 3309 2830 
Q 3531 2947 3766 2947 
Q 3994 2947 4170 2830 
Q 4347 2713 4450 2447 
Q 4519 2266 4519 1878 
L 4519 647 
Q 4519 378 4559 278 
Q 4591 209 4675 161 
Q 4759 113 4950 113 
L 4950 0 
L 3538 0 
L 3538 113 
L 3597 113 
Q 3781 113 3884 184 
Q 3956 234 3988 344 
Q 4000 397 4000 647 
L 4000 1878 
Q 4000 2228 3916 2372 
Q 3794 2572 3525 2572 
Q 3359 2572 3192 2489 
Q 3025 2406 2788 2181 
L 2781 2147 
L 2788 2013 
L 2788 647 
Q 2788 353 2820 281 
Q 2853 209 2943 161 
Q 3034 113 3253 113 
L 3253 0 
L 1806 0 
L 1806 113 
Q 2044 113 2133 169 
Q 2222 225 2256 338 
Q 2272 391 2272 647 
L 2272 1878 
Q 2272 2228 2169 2381 
Q 2031 2581 1784 2581 
Q 1616 2581 1450 2491 
Q 1191 2353 1050 2181 
L 1050 647 
Q 1050 366 1089 281 
Q 1128 197 1204 155 
Q 1281 113 1516 113 
L 1516 0 
L 100 0 
L 100 113 
Q 297 113 375 155 
Q 453 197 493 289 
Q 534 381 534 647 
L 534 1741 
Q 534 2213 506 2350 
Q 484 2453 437 2492 
Q 391 2531 309 2531 
Q 222 2531 100 2484 
L 53 2597 
L 916 2947 
L 1050 2947 
L 1050 2338 
z
" transform="scale(0.015625)"/>
       <path id="TimesNewRomanPSMT-61" d="M 1822 413 
Q 1381 72 1269 19 
Q 1100 -59 909 -59 
Q 613 -59 420 144 
Q 228 347 228 678 
Q 228 888 322 1041 
Q 450 1253 767 1440 
Q 1084 1628 1822 1897 
L 1822 2009 
Q 1822 2438 1686 2597 
Q 1550 2756 1291 2756 
Q 1094 2756 978 2650 
Q 859 2544 859 2406 
L 866 2225 
Q 866 2081 792 2003 
Q 719 1925 600 1925 
Q 484 1925 411 2006 
Q 338 2088 338 2228 
Q 338 2497 613 2722 
Q 888 2947 1384 2947 
Q 1766 2947 2009 2819 
Q 2194 2722 2281 2516 
Q 2338 2381 2338 1966 
L 2338 994 
Q 2338 584 2353 492 
Q 2369 400 2405 369 
Q 2441 338 2488 338 
Q 2538 338 2575 359 
Q 2641 400 2828 588 
L 2828 413 
Q 2478 -56 2159 -56 
Q 2006 -56 1915 50 
Q 1825 156 1822 413 
z
M 1822 616 
L 1822 1706 
Q 1350 1519 1213 1441 
Q 966 1303 859 1153 
Q 753 1003 753 825 
Q 753 600 887 451 
Q 1022 303 1197 303 
Q 1434 303 1822 616 
z
" transform="scale(0.015625)"/>
       <path id="TimesNewRomanPSMT-75" d="M 2709 2863 
L 2709 1128 
Q 2709 631 2732 520 
Q 2756 409 2807 365 
Q 2859 322 2928 322 
Q 3025 322 3147 375 
L 3191 266 
L 2334 -88 
L 2194 -88 
L 2194 519 
Q 1825 119 1631 15 
Q 1438 -88 1222 -88 
Q 981 -88 804 51 
Q 628 191 559 409 
Q 491 628 491 1028 
L 491 2306 
Q 491 2509 447 2587 
Q 403 2666 317 2708 
Q 231 2750 6 2747 
L 6 2863 
L 1009 2863 
L 1009 947 
Q 1009 547 1148 422 
Q 1288 297 1484 297 
Q 1619 297 1789 381 
Q 1959 466 2194 703 
L 2194 2325 
Q 2194 2569 2105 2655 
Q 2016 2741 1734 2747 
L 1734 2863 
L 2709 2863 
z
" transform="scale(0.015625)"/>
       <path id="STIXGeneral-Regular-2218" d="M 1734 2224 
Q 1984 1971 1984 1612 
Q 1984 1254 1731 1001 
Q 1478 749 1120 749 
Q 755 749 505 1001 
Q 256 1254 256 1626 
Q 256 1984 509 2230 
Q 762 2477 1133 2477 
Q 1485 2477 1734 2224 
z
M 1434 1299 
Q 1562 1427 1562 1612 
Q 1562 1798 1434 1926 
Q 1306 2054 1133 2054 
Q 934 2054 806 1929 
Q 678 1805 678 1626 
Q 678 1427 803 1299 
Q 928 1171 1120 1171 
Q 1306 1171 1434 1299 
z
" transform="scale(0.015625)"/>
       <path id="TimesNewRomanPSMT-43" d="M 3853 4334 
L 3950 2894 
L 3853 2894 
Q 3659 3541 3300 3825 
Q 2941 4109 2438 4109 
Q 2016 4109 1675 3895 
Q 1334 3681 1139 3212 
Q 944 2744 944 2047 
Q 944 1472 1128 1050 
Q 1313 628 1683 403 
Q 2053 178 2528 178 
Q 2941 178 3256 354 
Q 3572 531 3950 1056 
L 4047 994 
Q 3728 428 3303 165 
Q 2878 -97 2294 -97 
Q 1241 -97 663 684 
Q 231 1266 231 2053 
Q 231 2688 515 3219 
Q 800 3750 1298 4042 
Q 1797 4334 2388 4334 
Q 2847 4334 3294 4109 
Q 3425 4041 3481 4041 
Q 3566 4041 3628 4100 
Q 3709 4184 3744 4334 
L 3853 4334 
z
" transform="scale(0.015625)"/>
      </defs>
      <use xlink:href="#TimesNewRomanPSMT-54" transform="translate(0 0.28125)"/>
      <use xlink:href="#TimesNewRomanPSMT-65" transform="translate(61.083984 0.28125)"/>
      <use xlink:href="#TimesNewRomanPSMT-6d" transform="translate(105.46875 0.28125)"/>
      <use xlink:href="#TimesNewRomanPSMT-70" transform="translate(183.251953 0.28125)"/>
      <use xlink:href="#TimesNewRomanPSMT-65" transform="translate(233.251953 0.28125)"/>
      <use xlink:href="#TimesNewRomanPSMT-72" transform="translate(277.636719 0.28125)"/>
      <use xlink:href="#TimesNewRomanPSMT-61" transform="translate(310.9375 0.28125)"/>
      <use xlink:href="#TimesNewRomanPSMT-74" transform="translate(355.322266 0.28125)"/>
      <use xlink:href="#TimesNewRomanPSMT-75" transform="translate(383.105469 0.28125)"/>
      <use xlink:href="#TimesNewRomanPSMT-72" transform="translate(433.105469 0.28125)"/>
      <use xlink:href="#TimesNewRomanPSMT-65" transform="translate(466.40625 0.28125)"/>
      <use xlink:href="#TimesNewRomanPSMT-20" transform="translate(510.791016 0.28125)"/>
      <use xlink:href="#TimesNewRomanPSMT-5b" transform="translate(535.791016 0.28125)"/>
      <use xlink:href="#STIXGeneral-Regular-2218" transform="translate(580.743076 35.55625) scale(0.7)"/>
      <use xlink:href="#TimesNewRomanPSMT-43" transform="translate(619.760437 0.28125)"/>
      <use xlink:href="#TimesNewRomanPSMT-5d" transform="translate(686.459656 0.28125)"/>
     </g>
    </g>
   </g>
   <g id="line2d_43">
    <path d="M -1 100.250239 
L 10.005478 98.026114 
L 21.079329 96.024189 
L 31.023434 94.431655 
L 42.089566 92.890834 
L 53.665294 91.538869 
L 65.197944 90.449383 
L 76.224376 89.636925 
L 88.395009 88.983066 
L 100.860156 88.553168 
L 108.965545 88.38714 
L 142.465 88.236667 
L 142.465 88.236667 
L 187.182439 88.535574 
L 203.200859 88.941573 
L 218.894444 89.559084 
L 232.994277 90.326377 
L 247.544473 91.355298 
L 259.377342 92.387761 
L 272.550775 93.762033 
L 284.150989 95.182429 
L 296.787195 96.967963 
L 307.003725 98.602348 
L 317.906829 100.542669 
L 329.549791 102.846192 
L 341.991141 105.580905 
L 355.294309 108.82752 
L 364.675225 111.322936 
L 374.490428 114.120773 
L 384.761992 117.257681 
L 395.513068 120.774753 
L 406.768182 124.71806 
L 418.553679 129.139259 
L 432.291329 134.676812 
L 442.819658 139.204669 
L 453.760661 144.173986 
L 465.135859 149.627806 
L 476.969396 155.613366 
L 486.16161 160.482493 
L 490.6 162.904824 
L 490.6 162.904824 
" clip-path="url(#p65383d6a23)" style="fill: none; stroke: #000000; stroke-width: 1.25; stroke-linecap: square"/>
   </g>
   <g id="line2d_44">
    <defs>
     <path id="m578c1f119c" d="M 0 2.25 
C 0.596707 2.25 1.169055 2.012926 1.59099 1.59099 
C 2.012926 1.169055 2.25 0.596707 2.25 0 
C 2.25 -0.596707 2.012926 -1.169055 1.59099 -1.59099 
C 1.169055 -2.012926 0.596707 -2.25 0 -2.25 
C -0.596707 -2.25 -1.169055 -2.012926 -1.59099 -1.59099 
C -2.012926 -1.169055 -2.25 -0.596707 -2.25 0 
C -2.25 0.596707 -2.012926 1.169055 -1.59099 1.59099 
C -1.169055 2.012926 -0.596707 2.25 0 2.25 
z
" style="stroke: #000000; stroke-width: 1.25"/>
    </defs>
    <g clip-path="url(#p65383d6a23)">
     <use xlink:href="#m578c1f119c" x="142.465" y="88.236667" style="fill: #ffffff; stroke: #000000; stroke-width: 1.25"/>
    </g>
   </g>
   <g id="QuadContourSet_1">
    <path d="M 115.83726 88.38714 
L 105.790424 88.69619 
L 97.102221 89.159957 
L 88.197322 89.850143 
L 80.031235 90.689007 
L 72.024995 91.712796 
L 64.685661 92.831905 
L 56.369401 94.311301 
L 46.900212 96.266976 
L 38.906375 98.136807 
L 30.016524 100.442023 
L 20.087968 103.284 
L 8.953277 106.787723 
L -1 110.191102 
L -1 110.191102 
" clip-path="url(#p65383d6a23)" style="fill: none; stroke-dasharray: 0.75,1.2375; stroke-dashoffset: 0; stroke: #000000; stroke-width: 0.75"/>
    <path d="M 122.708975 88.38714 
L 115.651772 88.69619 
L 109.586483 89.159957 
L 103.366267 89.850143 
L 97.643766 90.689007 
L 92.009483 91.712796 
L 85.415391 93.16399 
L 79.304261 94.750298 
L 72.289514 96.847304 
L 66.318786 98.852263 
L 59.626367 101.32407 
L 52.089384 104.371429 
L 43.563156 108.128356 
L 37.245481 111.107275 
L 30.351219 114.532309 
L 22.808992 118.470265 
L 14.534602 122.997958 
L 5.429489 128.203705 
L -1 132.012372 
L -1 132.012372 
" clip-path="url(#p65383d6a23)" style="fill: none; stroke-dasharray: 0.75,1.2375; stroke-dashoffset: 0; stroke: #000000; stroke-width: 0.75"/>
    <path d="M 129.58069 88.38714 
L 125.51312 88.69619 
L 122.070745 89.159957 
L 118.535213 89.850143 
L 115.256297 90.689007 
L 111.993971 91.712796 
L 108.126496 93.16399 
L 104.490399 94.750298 
L 100.25173 96.847304 
L 95.259956 99.619423 
L 90.906387 102.26986 
L 85.91985 105.537443 
L 80.180633 109.565873 
L 73.542217 114.532309 
L 65.817899 120.655164 
L 56.766507 128.203705 
L 46.08502 137.509899 
L 33.407783 148.983011 
L 23.634737 158.080201 
L 12.626486 168.539759 
L -1 181.739052 
L -1 181.739052 
" clip-path="url(#p65383d6a23)" style="fill: none; stroke-dasharray: 0.75,1.2375; stroke-dashoffset: 0; stroke: #000000; stroke-width: 0.75"/>
    <path d="M 136.452406 88.38714 
L 135.447496 88.66522 
L 134.555007 89.159957 
L 133.579063 89.966744 
L 132.36015 91.260027 
L 130.571037 93.520074 
L 127.789724 97.469571 
L 123.22921 104.371429 
L 115.531511 116.432622 
L 92.086495 153.372981 
L 70.250872 187.238072 
L 49.423231 219.110698 
L 25.215161 255.667874 
L 2.88491 289 
L 2.88491 289 
" clip-path="url(#p65383d6a23)" style="fill: none; stroke-dasharray: 0.75,1.2375; stroke-dashoffset: 0; stroke: #000000; stroke-width: 0.75"/>
    <path d="M 143.324121 88.38714 
L 145.555237 88.765007 
L 147.464235 89.298226 
L 149.127492 89.966744 
L 150.767976 90.866231 
L 152.272839 91.964006 
L 153.548707 93.16399 
L 154.862675 94.750298 
L 155.8506 96.266976 
L 156.81575 98.136807 
L 157.728552 100.442023 
L 158.552049 103.284 
L 159.240693 106.787723 
L 159.597158 109.565873 
L 159.847162 112.760071 
L 159.964246 116.432622 
L 159.915439 120.655164 
L 159.660274 125.51006 
L 159.150583 131.092012 
L 158.331018 137.509899 
L 157.13966 144.888911 
L 155.507634 153.372981 
L 153.356857 163.127599 
L 150.596178 174.34304 
L 147.117588 187.238072 
L 142.794512 202.064225 
L 137.482484 219.110698 
L 130.473374 240.325465 
L 123.920638 259.282218 
L 116.300371 280.601792 
L 113.239647 289 
L 113.239647 289 
" clip-path="url(#p65383d6a23)" style="fill: none; stroke-dasharray: 0.75,1.2375; stroke-dashoffset: 0; stroke: #000000; stroke-width: 0.75"/>
    <path d="M 150.195836 88.38714 
L 155.485893 88.729399 
L 160.037209 89.226681 
L 164.675922 89.966744 
L 168.828891 90.866231 
L 172.772619 91.964006 
L 176.259813 93.16399 
L 180.048814 94.750298 
L 183.088197 96.266976 
L 186.293094 98.136807 
L 189.656559 100.442023 
L 191.981934 102.26986 
L 194.369036 104.371429 
L 196.812546 106.787723 
L 199.30542 109.565873 
L 201.838013 112.760071 
L 204.396982 116.432622 
L 206.964208 120.655164 
L 209.516156 125.51006 
L 212.023929 131.092012 
L 214.454017 137.509899 
L 215.628428 141.070739 
L 216.769201 144.888911 
L 217.87114 148.983011 
L 218.928773 153.372981 
L 219.936276 158.080201 
L 220.887396 163.127599 
L 221.775372 168.539759 
L 222.592879 174.34304 
L 223.33201 180.565709 
L 223.984305 187.238072 
L 224.540825 194.392629 
L 224.992269 202.064225 
L 225.329111 210.290227 
L 225.541738 219.110698 
L 225.620596 228.568601 
L 225.404928 246.962632 
L 224.968209 261.118544 
L 224.280708 276.536947 
L 223.594385 289 
L 223.594385 289 
" clip-path="url(#p65383d6a23)" style="fill: none; stroke-dasharray: 0.75,1.2375; stroke-dashoffset: 0; stroke: #000000; stroke-width: 0.75"/>
    <path d="M 157.067551 88.38714 
L 165.578733 88.729399 
L 172.825434 89.226681 
L 180.224351 89.966744 
L 186.889806 90.866231 
L 193.272399 91.964006 
L 198.970918 93.16399 
L 205.234952 94.750298 
L 210.325794 96.266976 
L 215.770437 98.136807 
L 221.584566 100.442023 
L 225.673783 102.26986 
L 229.938949 104.371429 
L 234.3844 106.787723 
L 239.013682 109.565873 
L 243.828865 112.760071 
L 248.829717 116.432622 
L 254.012978 120.655164 
L 259.372038 125.51006 
L 264.897275 131.092012 
L 267.718608 134.189048 
L 270.577016 137.509899 
L 273.470918 141.070739 
L 276.398742 144.888911 
L 279.358926 148.983011 
L 282.349912 153.372981 
L 285.370122 158.080201 
L 288.417935 163.127599 
L 291.491667 168.539759 
L 294.58958 174.34304 
L 297.709923 180.565709 
L 300.851021 187.238072 
L 304.011411 194.392629 
L 307.190026 202.064225 
L 310.386415 210.290227 
L 313.600991 219.110698 
L 316.835321 228.568601 
L 322.099686 245.276668 
L 325.642209 257.465397 
L 329.23305 270.600161 
L 332.888812 284.754385 
L 333.949122 289 
L 333.949122 289 
" clip-path="url(#p65383d6a23)" style="fill: none; stroke-dasharray: 0.75,1.2375; stroke-dashoffset: 0; stroke: #000000; stroke-width: 0.75"/>
    <path d="M 163.939266 88.38714 
L 175.671573 88.729399 
L 185.613659 89.226681 
L 195.772781 89.966744 
L 204.950721 90.866231 
L 213.77218 91.964006 
L 221.682023 93.16399 
L 230.42109 94.750298 
L 237.563391 96.266976 
L 245.247781 98.136807 
L 253.512573 100.442023 
L 259.365631 102.26986 
L 265.508863 104.371429 
L 271.956254 106.787723 
L 278.721944 109.565873 
L 285.819716 112.760071 
L 293.262453 116.432622 
L 301.061747 120.655164 
L 309.22792 125.51006 
L 313.451599 128.203705 
L 317.770622 131.092012 
L 322.186286 134.189048 
L 326.700015 137.509899 
L 331.313408 141.070739 
L 336.028283 144.888911 
L 340.846711 148.983011 
L 345.77105 153.372981 
L 350.803968 158.080201 
L 355.948474 163.127599 
L 361.207962 168.539759 
L 366.586281 174.34304 
L 372.087836 180.565709 
L 377.717737 187.238072 
L 383.481997 194.392629 
L 389.387783 202.064225 
L 395.443719 210.290227 
L 401.660244 219.110698 
L 408.050046 228.568601 
L 418.756854 245.276668 
L 426.183988 257.465397 
L 433.897483 270.600161 
L 441.937883 284.754385 
L 444.30386 289 
L 444.30386 289 
" clip-path="url(#p65383d6a23)" style="fill: none; stroke-dasharray: 0.75,1.2375; stroke-dashoffset: 0; stroke: #000000; stroke-width: 0.75"/>
    <path d="M 170.810982 88.38714 
L 184.681209 88.69619 
L 198.401883 89.226681 
L 211.321211 89.966744 
L 223.011636 90.866231 
L 234.27196 91.964006 
L 244.393129 93.16399 
L 255.607228 94.750298 
L 264.800988 96.266976 
L 274.725125 98.136807 
L 285.44058 100.442023 
L 293.05748 102.26986 
L 301.078776 104.371429 
L 309.528108 106.787723 
L 318.430206 109.565873 
L 327.810567 112.760071 
L 337.695188 116.432622 
L 348.110517 120.655164 
L 359.083803 125.51006 
L 364.788617 128.203705 
L 370.643968 131.092012 
L 376.653963 134.189048 
L 382.823014 137.509899 
L 389.155898 141.070739 
L 395.657824 144.888911 
L 402.334497 148.983011 
L 409.192189 153.372981 
L 416.237814 158.080201 
L 423.479013 163.127599 
L 430.924257 168.539759 
L 438.582982 174.34304 
L 446.465749 180.565709 
L 454.584453 187.238072 
L 462.952584 194.392629 
L 471.585541 202.064225 
L 480.501023 210.290227 
L 490.6 219.983142 
L 490.6 219.983142 
" clip-path="url(#p65383d6a23)" style="fill: none; stroke-dasharray: 0.75,1.2375; stroke-dashoffset: 0; stroke: #000000; stroke-width: 0.75"/>
    <path clip-path="url(#p65383d6a23)" style="fill: none; stroke-dasharray: 0.75,1.2375; stroke-dashoffset: 0; stroke: #000000; stroke-width: 0.75"/>
   </g>
   <g id="line2d_45">
    <path d="M 222.472508 76.649112 
L 222.457419 81.549921 
L 222.441061 86.472129 
L 222.426497 89.237352 
" clip-path="url(#p65383d6a23)" style="fill: none; stroke: #edb120; stroke-width: 0.75; stroke-linecap: square"/>
    <defs>
     <path id="m413cc84743" d="M 0 -1.25 
L -1.25 1.25 
L 1.25 1.25 
z
" style="stroke: #edb120; stroke-width: 0.75; stroke-linejoin: miter"/>
    </defs>
    <g clip-path="url(#p65383d6a23)">
     <use xlink:href="#m413cc84743" x="222.472508" y="76.649112" style="fill: #ffffff; stroke: #edb120; stroke-width: 0.75; stroke-linejoin: miter"/>
     <use xlink:href="#m413cc84743" x="222.457419" y="81.549921" style="fill: #ffffff; stroke: #edb120; stroke-width: 0.75; stroke-linejoin: miter"/>
     <use xlink:href="#m413cc84743" x="222.441061" y="86.472129" style="fill: #ffffff; stroke: #edb120; stroke-width: 0.75; stroke-linejoin: miter"/>
     <use xlink:href="#m413cc84743" x="222.426497" y="89.237352" style="fill: #ffffff; stroke: #edb120; stroke-width: 0.75; stroke-linejoin: miter"/>
    </g>
   </g>
   <g id="line2d_46">
    <path d="M 223.4 79.885785 
L 223.4 84.833479 
L 223.4 89.781174 
L 223.4 92.255021 
" clip-path="url(#p65383d6a23)" style="fill: none; stroke: #0072bd; stroke-width: 0.75; stroke-linecap: square"/>
    <defs>
     <path id="m7d5bbb6926" d="M 0 1.25 
C 0.331504 1.25 0.649475 1.118292 0.883883 0.883883 
C 1.118292 0.649475 1.25 0.331504 1.25 0 
C 1.25 -0.331504 1.118292 -0.649475 0.883883 -0.883883 
C 0.649475 -1.118292 0.331504 -1.25 0 -1.25 
C -0.331504 -1.25 -0.649475 -1.118292 -0.883883 -0.883883 
C -1.118292 -0.649475 -1.25 -0.331504 -1.25 0 
C -1.25 0.331504 -1.118292 0.649475 -0.883883 0.883883 
C -0.649475 1.118292 -0.331504 1.25 0 1.25 
z
" style="stroke: #0072bd; stroke-width: 0.75"/>
    </defs>
    <g clip-path="url(#p65383d6a23)">
     <use xlink:href="#m7d5bbb6926" x="223.4" y="79.885785" style="fill: #ffffff; stroke: #0072bd; stroke-width: 0.75"/>
     <use xlink:href="#m7d5bbb6926" x="223.4" y="84.833479" style="fill: #ffffff; stroke: #0072bd; stroke-width: 0.75"/>
     <use xlink:href="#m7d5bbb6926" x="223.4" y="89.781174" style="fill: #ffffff; stroke: #0072bd; stroke-width: 0.75"/>
     <use xlink:href="#m7d5bbb6926" x="223.4" y="92.255021" style="fill: #ffffff; stroke: #0072bd; stroke-width: 0.75"/>
    </g>
   </g>
   <g id="line2d_47">
    <path d="M 223.569963 85.719477 
L 223.569963 90.52442 
L 223.569963 94.852875 
L 223.569963 97.299734 
" clip-path="url(#p65383d6a23)" style="fill: none; stroke: #d95319; stroke-width: 0.75; stroke-linecap: square"/>
    <defs>
     <path id="m0b06628e5b" d="M 0 1.25 
C 0.331504 1.25 0.649475 1.118292 0.883883 0.883883 
C 1.118292 0.649475 1.25 0.331504 1.25 0 
C 1.25 -0.331504 1.118292 -0.649475 0.883883 -0.883883 
C 0.649475 -1.118292 0.331504 -1.25 0 -1.25 
C -0.331504 -1.25 -0.649475 -1.118292 -0.883883 -0.883883 
C -1.118292 -0.649475 -1.25 -0.331504 -1.25 0 
C -1.25 0.331504 -1.118292 0.649475 -0.883883 0.883883 
C -0.649475 1.118292 -0.331504 1.25 0 1.25 
z
" style="stroke: #d95319; stroke-width: 0.75"/>
    </defs>
    <g clip-path="url(#p65383d6a23)">
     <use xlink:href="#m0b06628e5b" x="223.569963" y="85.719477" style="fill: #ffffff; stroke: #d95319; stroke-width: 0.75"/>
     <use xlink:href="#m0b06628e5b" x="223.569963" y="90.52442" style="fill: #ffffff; stroke: #d95319; stroke-width: 0.75"/>
     <use xlink:href="#m0b06628e5b" x="223.569963" y="94.852875" style="fill: #ffffff; stroke: #d95319; stroke-width: 0.75"/>
     <use xlink:href="#m0b06628e5b" x="223.569963" y="97.299734" style="fill: #ffffff; stroke: #d95319; stroke-width: 0.75"/>
    </g>
   </g>
   <g id="line2d_48">
    <path d="M 303.179191 84.402289 
L 303.161752 89.293885 
L 303.143715 94.188964 
L 303.127611 97.408983 
" clip-path="url(#p65383d6a23)" style="fill: none; stroke: #edb120; stroke-width: 0.75; stroke-linecap: square"/>
    <g clip-path="url(#p65383d6a23)">
     <use xlink:href="#m413cc84743" x="303.179191" y="84.402289" style="fill: #ffffff; stroke: #edb120; stroke-width: 0.75; stroke-linejoin: miter"/>
     <use xlink:href="#m413cc84743" x="303.161752" y="89.293885" style="fill: #ffffff; stroke: #edb120; stroke-width: 0.75; stroke-linejoin: miter"/>
     <use xlink:href="#m413cc84743" x="303.143715" y="94.188964" style="fill: #ffffff; stroke: #edb120; stroke-width: 0.75; stroke-linejoin: miter"/>
     <use xlink:href="#m413cc84743" x="303.127611" y="97.408983" style="fill: #ffffff; stroke: #edb120; stroke-width: 0.75; stroke-linejoin: miter"/>
    </g>
   </g>
   <g id="line2d_49">
    <path d="M 304.335 88.263145 
L 304.335 93.210839 
L 304.335 98.158533 
L 304.335 100.632381 
" clip-path="url(#p65383d6a23)" style="fill: none; stroke: #0072bd; stroke-width: 0.75; stroke-linecap: square"/>
    <g clip-path="url(#p65383d6a23)">
     <use xlink:href="#m7d5bbb6926" x="304.335" y="88.263145" style="fill: #ffffff; stroke: #0072bd; stroke-width: 0.75"/>
     <use xlink:href="#m7d5bbb6926" x="304.335" y="93.210839" style="fill: #ffffff; stroke: #0072bd; stroke-width: 0.75"/>
     <use xlink:href="#m7d5bbb6926" x="304.335" y="98.158533" style="fill: #ffffff; stroke: #0072bd; stroke-width: 0.75"/>
     <use xlink:href="#m7d5bbb6926" x="304.335" y="100.632381" style="fill: #ffffff; stroke: #0072bd; stroke-width: 0.75"/>
    </g>
   </g>
   <g id="line2d_50">
    <path d="M 304.513057 93.960517 
L 304.513057 98.720811 
L 304.513057 102.451813 
L 304.513057 104.904872 
" clip-path="url(#p65383d6a23)" style="fill: none; stroke: #d95319; stroke-width: 0.75; stroke-linecap: square"/>
    <g clip-path="url(#p65383d6a23)">
     <use xlink:href="#m0b06628e5b" x="304.513057" y="93.960517" style="fill: #ffffff; stroke: #d95319; stroke-width: 0.75"/>
     <use xlink:href="#m0b06628e5b" x="304.513057" y="98.720811" style="fill: #ffffff; stroke: #d95319; stroke-width: 0.75"/>
     <use xlink:href="#m0b06628e5b" x="304.513057" y="102.451813" style="fill: #ffffff; stroke: #d95319; stroke-width: 0.75"/>
     <use xlink:href="#m0b06628e5b" x="304.513057" y="104.904872" style="fill: #ffffff; stroke: #d95319; stroke-width: 0.75"/>
    </g>
   </g>
   <g id="line2d_51">
    <path d="M 383.774301 102.936183 
L 383.752644 107.82017 
L 383.730483 112.7044 
L 383.710372 116.353916 
" clip-path="url(#p65383d6a23)" style="fill: none; stroke: #edb120; stroke-width: 0.75; stroke-linecap: square"/>
    <g clip-path="url(#p65383d6a23)">
     <use xlink:href="#m413cc84743" x="383.774301" y="102.936183" style="fill: #ffffff; stroke: #edb120; stroke-width: 0.75; stroke-linejoin: miter"/>
     <use xlink:href="#m413cc84743" x="383.752644" y="107.82017" style="fill: #ffffff; stroke: #edb120; stroke-width: 0.75; stroke-linejoin: miter"/>
     <use xlink:href="#m413cc84743" x="383.730483" y="112.7044" style="fill: #ffffff; stroke: #edb120; stroke-width: 0.75; stroke-linejoin: miter"/>
     <use xlink:href="#m413cc84743" x="383.710372" y="116.353916" style="fill: #ffffff; stroke: #edb120; stroke-width: 0.75; stroke-linejoin: miter"/>
    </g>
   </g>
   <g id="line2d_52">
    <path d="M 385.27 107.523062 
L 385.27 112.470756 
L 385.27 117.418451 
L 385.27 119.892298 
" clip-path="url(#p65383d6a23)" style="fill: none; stroke: #0072bd; stroke-width: 0.75; stroke-linecap: square"/>
    <g clip-path="url(#p65383d6a23)">
     <use xlink:href="#m7d5bbb6926" x="385.27" y="107.523062" style="fill: #ffffff; stroke: #0072bd; stroke-width: 0.75"/>
     <use xlink:href="#m7d5bbb6926" x="385.27" y="112.470756" style="fill: #ffffff; stroke: #0072bd; stroke-width: 0.75"/>
     <use xlink:href="#m7d5bbb6926" x="385.27" y="117.418451" style="fill: #ffffff; stroke: #0072bd; stroke-width: 0.75"/>
     <use xlink:href="#m7d5bbb6926" x="385.27" y="119.892298" style="fill: #ffffff; stroke: #0072bd; stroke-width: 0.75"/>
    </g>
   </g>
   <g id="line2d_53">
    <path d="M 385.45615 112.998468 
L 385.45615 117.771706 
L 385.45615 121.068857 
L 385.45615 123.52725 
" clip-path="url(#p65383d6a23)" style="fill: none; stroke: #d95319; stroke-width: 0.75; stroke-linecap: square"/>
    <g clip-path="url(#p65383d6a23)">
     <use xlink:href="#m0b06628e5b" x="385.45615" y="112.998468" style="fill: #ffffff; stroke: #d95319; stroke-width: 0.75"/>
     <use xlink:href="#m0b06628e5b" x="385.45615" y="117.771706" style="fill: #ffffff; stroke: #d95319; stroke-width: 0.75"/>
     <use xlink:href="#m0b06628e5b" x="385.45615" y="121.068857" style="fill: #ffffff; stroke: #d95319; stroke-width: 0.75"/>
     <use xlink:href="#m0b06628e5b" x="385.45615" y="123.52725" style="fill: #ffffff; stroke: #d95319; stroke-width: 0.75"/>
    </g>
   </g>
   <g id="patch_3">
    <path d="M 61.53 238.71 
L 61.53 13 
" style="fill: none; stroke: #000000; stroke-width: 1.25; stroke-linejoin: miter; stroke-linecap: square"/>
   </g>
   <g id="patch_4">
    <path d="M 466.205 238.71 
L 466.205 13 
" style="fill: none; stroke: #000000; stroke-width: 1.25; stroke-linejoin: miter; stroke-linecap: square"/>
   </g>
   <g id="patch_5">
    <path d="M 61.53 238.71 
L 466.205 238.71 
" style="fill: none; stroke: #000000; stroke-width: 1.25; stroke-linejoin: miter; stroke-linecap: square"/>
   </g>
   <g id="patch_6">
    <path d="M 61.53 13 
L 466.205 13 
" style="fill: none; stroke: #000000; stroke-width: 1.25; stroke-linejoin: miter; stroke-linecap: square"/>
   </g>
   <g id="legend_1">
    <g id="patch_7">
     <path d="M 73.53 141.251562 
L 149.63 141.251562 
Q 151.63 141.251562 151.63 139.251562 
L 151.63 25 
Q 151.63 23 149.63 23 
L 73.53 23 
Q 71.53 23 71.53 25 
L 71.53 139.251562 
Q 71.53 141.251562 73.53 141.251562 
z
" style="fill: #ffffff; stroke: #000000; stroke-linejoin: miter"/>
    </g>
    <g id="line2d_54">
     <path d="M 77.53 32.5 
L 83.78 32.5 
L 90.03 32.5 
" style="fill: none; stroke: #edb120; stroke-width: 0.75; stroke-linecap: square"/>
     <g>
      <use xlink:href="#m413cc84743" x="83.78" y="32.5" style="fill: #ffffff; stroke: #edb120; stroke-width: 0.75; stroke-linejoin: miter"/>
     </g>
    </g>
    <g id="text_17">
     <!-- $s/s_\mathrm{crit}=1.05$ -->
     <g transform="translate(98.03 36) scale(0.1 -0.1)">
      <defs>
       <path id="STIXGeneral-Italic-73" d="M 2342 2829 
L 2214 1933 
L 2112 1933 
Q 2022 2675 1542 2675 
Q 1370 2675 1267 2579 
Q 1165 2483 1165 2310 
Q 1165 2067 1510 1658 
Q 1946 1152 1946 787 
Q 1946 397 1686 163 
Q 1427 -70 1024 -70 
Q 838 -70 672 -6 
Q 538 51 390 51 
Q 262 51 205 -83 
L 102 -83 
L 230 934 
L 333 934 
Q 461 64 973 64 
Q 1203 64 1331 192 
Q 1459 320 1459 557 
Q 1459 845 1101 1293 
Q 698 1798 698 2131 
Q 698 2451 909 2636 
Q 1120 2822 1472 2822 
Q 1600 2822 1830 2758 
Q 1971 2714 2061 2714 
Q 2189 2714 2253 2829 
L 2342 2829 
z
" transform="scale(0.015625)"/>
       <path id="STIXGeneral-Regular-2f" d="M 1837 4326 
L 378 -90 
L -58 -90 
L 1408 4326 
L 1837 4326 
z
" transform="scale(0.015625)"/>
       <path id="STIXGeneral-Regular-63" d="M 2547 998 
L 2637 941 
Q 2362 403 2112 205 
Q 1786 -64 1376 -64 
Q 845 -64 502 336 
Q 160 736 160 1357 
Q 160 2170 698 2618 
Q 1094 2944 1562 2944 
Q 1965 2944 2256 2749 
Q 2547 2554 2547 2285 
Q 2547 2176 2457 2096 
Q 2368 2016 2246 2016 
Q 2022 2016 1939 2310 
L 1901 2451 
Q 1850 2630 1773 2694 
Q 1696 2758 1523 2758 
Q 1133 2758 893 2451 
Q 653 2144 653 1645 
Q 653 1094 928 745 
Q 1203 397 1645 397 
Q 1920 397 2118 528 
Q 2317 659 2547 998 
z
" transform="scale(0.015625)"/>
       <path id="STIXGeneral-Regular-72" d="M 1024 2931 
L 1024 2342 
Q 1267 2688 1430 2816 
Q 1594 2944 1792 2944 
Q 1958 2944 2051 2854 
Q 2144 2765 2144 2605 
Q 2144 2470 2077 2393 
Q 2010 2317 1894 2317 
Q 1773 2317 1638 2445 
Q 1536 2541 1472 2541 
Q 1338 2541 1181 2355 
Q 1024 2170 1024 2016 
L 1024 576 
Q 1024 301 1133 205 
Q 1242 109 1568 96 
L 1568 0 
L 32 0 
L 32 96 
Q 339 154 412 224 
Q 486 294 486 538 
L 486 2138 
Q 486 2349 438 2435 
Q 390 2522 269 2522 
Q 166 2522 45 2496 
L 45 2598 
Q 448 2726 992 2944 
L 1024 2931 
z
" transform="scale(0.015625)"/>
       <path id="STIXGeneral-Regular-69" d="M 1152 4045 
Q 1152 3904 1056 3811 
Q 960 3718 819 3718 
Q 685 3718 592 3811 
Q 499 3904 499 4045 
Q 499 4179 595 4275 
Q 691 4371 826 4371 
Q 966 4371 1059 4275 
Q 1152 4179 1152 4045 
z
M 1619 0 
L 102 0 
L 102 96 
Q 435 115 521 211 
Q 608 307 608 666 
L 608 2118 
Q 608 2342 563 2432 
Q 518 2522 397 2522 
Q 243 2522 128 2490 
L 128 2592 
L 1120 2944 
L 1146 2918 
L 1146 672 
Q 1146 314 1226 218 
Q 1306 122 1619 96 
L 1619 0 
z
" transform="scale(0.015625)"/>
       <path id="STIXGeneral-Regular-74" d="M 1702 493 
L 1786 422 
Q 1478 -64 1011 -64 
Q 448 -64 448 749 
L 448 2675 
L 109 2675 
Q 83 2694 83 2720 
Q 83 2771 192 2842 
Q 435 2982 813 3526 
Q 826 3546 874 3606 
Q 922 3667 941 3706 
Q 986 3706 986 3622 
L 986 2880 
L 1632 2880 
L 1632 2675 
L 986 2675 
L 986 845 
Q 986 538 1062 403 
Q 1139 269 1318 269 
Q 1510 269 1702 493 
z
" transform="scale(0.015625)"/>
       <path id="STIXGeneral-Regular-3d" d="M 4077 2048 
L 307 2048 
L 307 2470 
L 4077 2470 
L 4077 2048 
z
M 4077 768 
L 307 768 
L 307 1190 
L 4077 1190 
L 4077 768 
z
" transform="scale(0.015625)"/>
       <path id="STIXGeneral-Regular-31" d="M 2522 0 
L 755 0 
L 755 96 
Q 1107 115 1235 227 
Q 1363 339 1363 608 
L 1363 3482 
Q 1363 3795 1171 3795 
Q 1082 3795 883 3718 
L 710 3654 
L 710 3744 
L 1856 4326 
L 1914 4307 
L 1914 486 
Q 1914 275 2042 185 
Q 2170 96 2522 96 
L 2522 0 
z
" transform="scale(0.015625)"/>
       <path id="STIXGeneral-Regular-2e" d="M 1158 275 
Q 1158 134 1052 32 
Q 947 -70 800 -70 
Q 653 -70 550 32 
Q 448 134 448 281 
Q 448 429 553 534 
Q 659 640 806 640 
Q 947 640 1052 531 
Q 1158 422 1158 275 
z
" transform="scale(0.015625)"/>
       <path id="STIXGeneral-Regular-30" d="M 3046 2112 
Q 3046 1683 2963 1302 
Q 2880 922 2717 602 
Q 2554 282 2266 96 
Q 1978 -90 1600 -90 
Q 1210 -90 915 108 
Q 621 307 461 640 
Q 301 973 227 1350 
Q 154 1728 154 2150 
Q 154 2746 301 3222 
Q 448 3699 790 4012 
Q 1133 4326 1626 4326 
Q 2253 4326 2649 3712 
Q 3046 3098 3046 2112 
z
M 2432 2080 
Q 2432 3091 2217 3625 
Q 2003 4160 1587 4160 
Q 1190 4160 979 3622 
Q 768 3085 768 2106 
Q 768 1120 979 598 
Q 1190 77 1600 77 
Q 2003 77 2217 598 
Q 2432 1120 2432 2080 
z
" transform="scale(0.015625)"/>
       <path id="STIXGeneral-Regular-35" d="M 2803 4358 
L 2573 3814 
Q 2534 3731 2400 3731 
L 1158 3731 
L 902 3187 
Q 1606 3053 1920 2896 
Q 2234 2739 2502 2368 
Q 2726 2061 2726 1555 
Q 2726 1094 2576 780 
Q 2426 467 2099 224 
Q 1664 -90 1011 -90 
Q 646 -90 422 19 
Q 198 128 198 307 
Q 198 550 486 550 
Q 717 550 960 352 
Q 1210 147 1414 147 
Q 1747 147 2012 480 
Q 2278 813 2278 1229 
Q 2278 1843 1850 2189 
Q 1293 2637 486 2637 
Q 410 2637 410 2688 
L 416 2720 
L 1114 4237 
L 2438 4237 
Q 2547 4237 2608 4269 
Q 2669 4301 2746 4403 
L 2803 4358 
z
" transform="scale(0.015625)"/>
      </defs>
      <use xlink:href="#STIXGeneral-Italic-73" transform="translate(0 0.203125)"/>
      <use xlink:href="#STIXGeneral-Regular-2f" transform="translate(38.899994 0.203125)"/>
      <use xlink:href="#STIXGeneral-Italic-73" transform="translate(66.699982 0.203125)"/>
      <use xlink:href="#STIXGeneral-Regular-63" transform="translate(105.599976 -13.025) scale(0.7)"/>
      <use xlink:href="#STIXGeneral-Regular-72" transform="translate(136.679971 -13.025) scale(0.7)"/>
      <use xlink:href="#STIXGeneral-Regular-69" transform="translate(159.989963 -13.025) scale(0.7)"/>
      <use xlink:href="#STIXGeneral-Regular-74" transform="translate(179.449954 -13.025) scale(0.7)"/>
      <use xlink:href="#STIXGeneral-Regular-3d" transform="translate(217.759317 0.203125)"/>
      <use xlink:href="#STIXGeneral-Regular-31" transform="translate(300.699298 0.203125)"/>
      <use xlink:href="#STIXGeneral-Regular-2e" transform="translate(350.699283 0.203125)"/>
      <use xlink:href="#STIXGeneral-Regular-30" transform="translate(375.699268 0.203125)"/>
      <use xlink:href="#STIXGeneral-Regular-35" transform="translate(425.699252 0.203125)"/>
     </g>
    </g>
    <g id="line2d_55">
     <path d="M 77.53 44.639062 
L 83.78 44.639062 
L 90.03 44.639062 
" style="fill: none; stroke: #0072bd; stroke-width: 0.75; stroke-linecap: square"/>
     <g>
      <use xlink:href="#m7d5bbb6926" x="83.78" y="44.639062" style="fill: #ffffff; stroke: #0072bd; stroke-width: 0.75"/>
     </g>
    </g>
    <g id="text_18">
     <!-- $s/s_\mathrm{crit}=1.05$ -->
     <g transform="translate(98.03 48.139062) scale(0.1 -0.1)">
      <use xlink:href="#STIXGeneral-Italic-73" transform="translate(0 0.203125)"/>
      <use xlink:href="#STIXGeneral-Regular-2f" transform="translate(38.899994 0.203125)"/>
      <use xlink:href="#STIXGeneral-Italic-73" transform="translate(66.699982 0.203125)"/>
      <use xlink:href="#STIXGeneral-Regular-63" transform="translate(105.599976 -13.025) scale(0.7)"/>
      <use xlink:href="#STIXGeneral-Regular-72" transform="translate(136.679971 -13.025) scale(0.7)"/>
      <use xlink:href="#STIXGeneral-Regular-69" transform="translate(159.989963 -13.025) scale(0.7)"/>
      <use xlink:href="#STIXGeneral-Regular-74" transform="translate(179.449954 -13.025) scale(0.7)"/>
      <use xlink:href="#STIXGeneral-Regular-3d" transform="translate(217.759317 0.203125)"/>
      <use xlink:href="#STIXGeneral-Regular-31" transform="translate(300.699298 0.203125)"/>
      <use xlink:href="#STIXGeneral-Regular-2e" transform="translate(350.699283 0.203125)"/>
      <use xlink:href="#STIXGeneral-Regular-30" transform="translate(375.699268 0.203125)"/>
      <use xlink:href="#STIXGeneral-Regular-35" transform="translate(425.699252 0.203125)"/>
     </g>
    </g>
    <g id="line2d_56">
     <path d="M 77.53 56.778125 
L 83.78 56.778125 
L 90.03 56.778125 
" style="fill: none; stroke: #d95319; stroke-width: 0.75; stroke-linecap: square"/>
     <g>
      <use xlink:href="#m0b06628e5b" x="83.78" y="56.778125" style="fill: #ffffff; stroke: #d95319; stroke-width: 0.75"/>
     </g>
    </g>
    <g id="text_19">
     <!-- $s/s_\mathrm{crit}=1.05$ -->
     <g transform="translate(98.03 60.278125) scale(0.1 -0.1)">
      <use xlink:href="#STIXGeneral-Italic-73" transform="translate(0 0.203125)"/>
      <use xlink:href="#STIXGeneral-Regular-2f" transform="translate(38.899994 0.203125)"/>
      <use xlink:href="#STIXGeneral-Italic-73" transform="translate(66.699982 0.203125)"/>
      <use xlink:href="#STIXGeneral-Regular-63" transform="translate(105.599976 -13.025) scale(0.7)"/>
      <use xlink:href="#STIXGeneral-Regular-72" transform="translate(136.679971 -13.025) scale(0.7)"/>
      <use xlink:href="#STIXGeneral-Regular-69" transform="translate(159.989963 -13.025) scale(0.7)"/>
      <use xlink:href="#STIXGeneral-Regular-74" transform="translate(179.449954 -13.025) scale(0.7)"/>
      <use xlink:href="#STIXGeneral-Regular-3d" transform="translate(217.759317 0.203125)"/>
      <use xlink:href="#STIXGeneral-Regular-31" transform="translate(300.699298 0.203125)"/>
      <use xlink:href="#STIXGeneral-Regular-2e" transform="translate(350.699283 0.203125)"/>
      <use xlink:href="#STIXGeneral-Regular-30" transform="translate(375.699268 0.203125)"/>
      <use xlink:href="#STIXGeneral-Regular-35" transform="translate(425.699252 0.203125)"/>
     </g>
    </g>
    <g id="line2d_57">
     <path d="M 77.53 68.917188 
L 83.78 68.917188 
L 90.03 68.917188 
" style="fill: none; stroke: #edb120; stroke-width: 0.75; stroke-linecap: square"/>
     <g>
      <use xlink:href="#m413cc84743" x="83.78" y="68.917188" style="fill: #ffffff; stroke: #edb120; stroke-width: 0.75; stroke-linejoin: miter"/>
     </g>
    </g>
    <g id="text_20">
     <!-- $s/s_\mathrm{crit}=1.10$ -->
     <g transform="translate(98.03 72.417188) scale(0.1 -0.1)">
      <use xlink:href="#STIXGeneral-Italic-73" transform="translate(0 0.40625)"/>
      <use xlink:href="#STIXGeneral-Regular-2f" transform="translate(38.899994 0.40625)"/>
      <use xlink:href="#STIXGeneral-Italic-73" transform="translate(66.699982 0.40625)"/>
      <use xlink:href="#STIXGeneral-Regular-63" transform="translate(105.599976 -12.821875) scale(0.7)"/>
      <use xlink:href="#STIXGeneral-Regular-72" transform="translate(136.679971 -12.821875) scale(0.7)"/>
      <use xlink:href="#STIXGeneral-Regular-69" transform="translate(159.989963 -12.821875) scale(0.7)"/>
      <use xlink:href="#STIXGeneral-Regular-74" transform="translate(179.449954 -12.821875) scale(0.7)"/>
      <use xlink:href="#STIXGeneral-Regular-3d" transform="translate(217.759317 0.40625)"/>
      <use xlink:href="#STIXGeneral-Regular-31" transform="translate(300.699298 0.40625)"/>
      <use xlink:href="#STIXGeneral-Regular-2e" transform="translate(350.699283 0.40625)"/>
      <use xlink:href="#STIXGeneral-Regular-31" transform="translate(375.699268 0.40625)"/>
      <use xlink:href="#STIXGeneral-Regular-30" transform="translate(425.699252 0.40625)"/>
     </g>
    </g>
    <g id="line2d_58">
     <path d="M 77.53 81.05625 
L 83.78 81.05625 
L 90.03 81.05625 
" style="fill: none; stroke: #0072bd; stroke-width: 0.75; stroke-linecap: square"/>
     <g>
      <use xlink:href="#m7d5bbb6926" x="83.78" y="81.05625" style="fill: #ffffff; stroke: #0072bd; stroke-width: 0.75"/>
     </g>
    </g>
    <g id="text_21">
     <!-- $s/s_\mathrm{crit}=1.10$ -->
     <g transform="translate(98.03 84.55625) scale(0.1 -0.1)">
      <use xlink:href="#STIXGeneral-Italic-73" transform="translate(0 0.40625)"/>
      <use xlink:href="#STIXGeneral-Regular-2f" transform="translate(38.899994 0.40625)"/>
      <use xlink:href="#STIXGeneral-Italic-73" transform="translate(66.699982 0.40625)"/>
      <use xlink:href="#STIXGeneral-Regular-63" transform="translate(105.599976 -12.821875) scale(0.7)"/>
      <use xlink:href="#STIXGeneral-Regular-72" transform="translate(136.679971 -12.821875) scale(0.7)"/>
      <use xlink:href="#STIXGeneral-Regular-69" transform="translate(159.989963 -12.821875) scale(0.7)"/>
      <use xlink:href="#STIXGeneral-Regular-74" transform="translate(179.449954 -12.821875) scale(0.7)"/>
      <use xlink:href="#STIXGeneral-Regular-3d" transform="translate(217.759317 0.40625)"/>
      <use xlink:href="#STIXGeneral-Regular-31" transform="translate(300.699298 0.40625)"/>
      <use xlink:href="#STIXGeneral-Regular-2e" transform="translate(350.699283 0.40625)"/>
      <use xlink:href="#STIXGeneral-Regular-31" transform="translate(375.699268 0.40625)"/>
      <use xlink:href="#STIXGeneral-Regular-30" transform="translate(425.699252 0.40625)"/>
     </g>
    </g>
    <g id="line2d_59">
     <path d="M 77.53 93.195312 
L 83.78 93.195312 
L 90.03 93.195312 
" style="fill: none; stroke: #d95319; stroke-width: 0.75; stroke-linecap: square"/>
     <g>
      <use xlink:href="#m0b06628e5b" x="83.78" y="93.195312" style="fill: #ffffff; stroke: #d95319; stroke-width: 0.75"/>
     </g>
    </g>
    <g id="text_22">
     <!-- $s/s_\mathrm{crit}=1.10$ -->
     <g transform="translate(98.03 96.695312) scale(0.1 -0.1)">
      <use xlink:href="#STIXGeneral-Italic-73" transform="translate(0 0.40625)"/>
      <use xlink:href="#STIXGeneral-Regular-2f" transform="translate(38.899994 0.40625)"/>
      <use xlink:href="#STIXGeneral-Italic-73" transform="translate(66.699982 0.40625)"/>
      <use xlink:href="#STIXGeneral-Regular-63" transform="translate(105.599976 -12.821875) scale(0.7)"/>
      <use xlink:href="#STIXGeneral-Regular-72" transform="translate(136.679971 -12.821875) scale(0.7)"/>
      <use xlink:href="#STIXGeneral-Regular-69" transform="translate(159.989963 -12.821875) scale(0.7)"/>
      <use xlink:href="#STIXGeneral-Regular-74" transform="translate(179.449954 -12.821875) scale(0.7)"/>
      <use xlink:href="#STIXGeneral-Regular-3d" transform="translate(217.759317 0.40625)"/>
      <use xlink:href="#STIXGeneral-Regular-31" transform="translate(300.699298 0.40625)"/>
      <use xlink:href="#STIXGeneral-Regular-2e" transform="translate(350.699283 0.40625)"/>
      <use xlink:href="#STIXGeneral-Regular-31" transform="translate(375.699268 0.40625)"/>
      <use xlink:href="#STIXGeneral-Regular-30" transform="translate(425.699252 0.40625)"/>
     </g>
    </g>
    <g id="line2d_60">
     <path d="M 77.53 105.334375 
L 83.78 105.334375 
L 90.03 105.334375 
" style="fill: none; stroke: #edb120; stroke-width: 0.75; stroke-linecap: square"/>
     <g>
      <use xlink:href="#m413cc84743" x="83.78" y="105.334375" style="fill: #ffffff; stroke: #edb120; stroke-width: 0.75; stroke-linejoin: miter"/>
     </g>
    </g>
    <g id="text_23">
     <!-- $s/s_\mathrm{crit}=1.15$ -->
     <g transform="translate(98.03 108.834375) scale(0.1 -0.1)">
      <use xlink:href="#STIXGeneral-Italic-73" transform="translate(0 0.203125)"/>
      <use xlink:href="#STIXGeneral-Regular-2f" transform="translate(38.899994 0.203125)"/>
      <use xlink:href="#STIXGeneral-Italic-73" transform="translate(66.699982 0.203125)"/>
      <use xlink:href="#STIXGeneral-Regular-63" transform="translate(105.599976 -13.025) scale(0.7)"/>
      <use xlink:href="#STIXGeneral-Regular-72" transform="translate(136.679971 -13.025) scale(0.7)"/>
      <use xlink:href="#STIXGeneral-Regular-69" transform="translate(159.989963 -13.025) scale(0.7)"/>
      <use xlink:href="#STIXGeneral-Regular-74" transform="translate(179.449954 -13.025) scale(0.7)"/>
      <use xlink:href="#STIXGeneral-Regular-3d" transform="translate(217.759317 0.203125)"/>
      <use xlink:href="#STIXGeneral-Regular-31" transform="translate(300.699298 0.203125)"/>
      <use xlink:href="#STIXGeneral-Regular-2e" transform="translate(350.699283 0.203125)"/>
      <use xlink:href="#STIXGeneral-Regular-31" transform="translate(375.699268 0.203125)"/>
      <use xlink:href="#STIXGeneral-Regular-35" transform="translate(425.699252 0.203125)"/>
     </g>
    </g>
    <g id="line2d_61">
     <path d="M 77.53 117.473437 
L 83.78 117.473437 
L 90.03 117.473437 
" style="fill: none; stroke: #0072bd; stroke-width: 0.75; stroke-linecap: square"/>
     <g>
      <use xlink:href="#m7d5bbb6926" x="83.78" y="117.473437" style="fill: #ffffff; stroke: #0072bd; stroke-width: 0.75"/>
     </g>
    </g>
    <g id="text_24">
     <!-- $s/s_\mathrm{crit}=1.15$ -->
     <g transform="translate(98.03 120.973437) scale(0.1 -0.1)">
      <use xlink:href="#STIXGeneral-Italic-73" transform="translate(0 0.203125)"/>
      <use xlink:href="#STIXGeneral-Regular-2f" transform="translate(38.899994 0.203125)"/>
      <use xlink:href="#STIXGeneral-Italic-73" transform="translate(66.699982 0.203125)"/>
      <use xlink:href="#STIXGeneral-Regular-63" transform="translate(105.599976 -13.025) scale(0.7)"/>
      <use xlink:href="#STIXGeneral-Regular-72" transform="translate(136.679971 -13.025) scale(0.7)"/>
      <use xlink:href="#STIXGeneral-Regular-69" transform="translate(159.989963 -13.025) scale(0.7)"/>
      <use xlink:href="#STIXGeneral-Regular-74" transform="translate(179.449954 -13.025) scale(0.7)"/>
      <use xlink:href="#STIXGeneral-Regular-3d" transform="translate(217.759317 0.203125)"/>
      <use xlink:href="#STIXGeneral-Regular-31" transform="translate(300.699298 0.203125)"/>
      <use xlink:href="#STIXGeneral-Regular-2e" transform="translate(350.699283 0.203125)"/>
      <use xlink:href="#STIXGeneral-Regular-31" transform="translate(375.699268 0.203125)"/>
      <use xlink:href="#STIXGeneral-Regular-35" transform="translate(425.699252 0.203125)"/>
     </g>
    </g>
    <g id="line2d_62">
     <path d="M 77.53 129.6125 
L 83.78 129.6125 
L 90.03 129.6125 
" style="fill: none; stroke: #d95319; stroke-width: 0.75; stroke-linecap: square"/>
     <g>
      <use xlink:href="#m0b06628e5b" x="83.78" y="129.6125" style="fill: #ffffff; stroke: #d95319; stroke-width: 0.75"/>
     </g>
    </g>
    <g id="text_25">
     <!-- $s/s_\mathrm{crit}=1.15$ -->
     <g transform="translate(98.03 133.1125) scale(0.1 -0.1)">
      <use xlink:href="#STIXGeneral-Italic-73" transform="translate(0 0.203125)"/>
      <use xlink:href="#STIXGeneral-Regular-2f" transform="translate(38.899994 0.203125)"/>
      <use xlink:href="#STIXGeneral-Italic-73" transform="translate(66.699982 0.203125)"/>
      <use xlink:href="#STIXGeneral-Regular-63" transform="translate(105.599976 -13.025) scale(0.7)"/>
      <use xlink:href="#STIXGeneral-Regular-72" transform="translate(136.679971 -13.025) scale(0.7)"/>
      <use xlink:href="#STIXGeneral-Regular-69" transform="translate(159.989963 -13.025) scale(0.7)"/>
      <use xlink:href="#STIXGeneral-Regular-74" transform="translate(179.449954 -13.025) scale(0.7)"/>
      <use xlink:href="#STIXGeneral-Regular-3d" transform="translate(217.759317 0.203125)"/>
      <use xlink:href="#STIXGeneral-Regular-31" transform="translate(300.699298 0.203125)"/>
      <use xlink:href="#STIXGeneral-Regular-2e" transform="translate(350.699283 0.203125)"/>
      <use xlink:href="#STIXGeneral-Regular-31" transform="translate(375.699268 0.203125)"/>
      <use xlink:href="#STIXGeneral-Regular-35" transform="translate(425.699252 0.203125)"/>
     </g>
    </g>
   </g>
  </g>
 </g>
 <defs>
  <clipPath id="p65383d6a23">
   <rect x="61.53" y="13" width="404.675" height="225.71"/>
  </clipPath>
 </defs>
</svg>
