<?xml version="1.0" encoding="utf-8" standalone="no"?>
<!DOCTYPE svg PUBLIC "-//W3C//DTD SVG 1.1//EN"
  "http://www.w3.org/Graphics/SVG/1.1/DTD/svg11.dtd">
<svg xmlns:xlink="http://www.w3.org/1999/xlink" width="432pt" height="360pt" viewBox="0 0 432 360" xmlns="http://www.w3.org/2000/svg" version="1.1">
 <metadata>
  <rdf:RDF xmlns:dc="http://purl.org/dc/elements/1.1/" xmlns:cc="http://creativecommons.org/ns#" xmlns:rdf="http://www.w3.org/1999/02/22-rdf-syntax-ns#">
   <cc:Work>
    <dc:type rdf:resource="http://purl.org/dc/dcmitype/StillImage"/>
    <dc:date>2024-07-22T09:15:04.893673</dc:date>
    <dc:format>image/svg+xml</dc:format>
    <dc:creator>
     <cc:Agent>
      <dc:title>Matplotlib v3.8.4, https://matplotlib.org/</dc:title>
     </cc:Agent>
    </dc:creator>
   </cc:Work>
  </rdf:RDF>
 </metadata>
 <defs>
  <style type="text/css">*{stroke-linejoin: round; stroke-linecap: butt}</style>
 </defs>
 <g id="figure_1">
  <g id="patch_1">
   <path d="M 0 360 
L 432 360 
L 432 0 
L 0 0 
z
" style="fill: #ffffff"/>
  </g>
  <g id="axes_1">
   <g id="patch_2">
    <path d="M 61.62 310.71 
L 414.302235 310.71 
L 414.302235 13 
L 61.62 13 
z
" style="fill: #ffffff"/>
   </g>
   <g id="matplotlib.axis_1">
    <g id="xtick_1">
     <g id="line2d_1">
      <path d="M 66.643832 310.71 
L 66.643832 13 
" clip-path="url(#p3bbff2db3b)" style="fill: none; stroke: #000000; stroke-opacity: 0.5; stroke-width: 0.5; stroke-linecap: square"/>
     </g>
     <g id="line2d_2">
      <defs>
       <path id="ma77656af07" d="M 0 0 
L 0 -6 
" style="stroke: #000000; stroke-width: 1.25"/>
      </defs>
      <g>
       <use xlink:href="#ma77656af07" x="66.643832" y="310.71" style="fill: #ffffff; stroke: #000000; stroke-width: 1.25"/>
      </g>
     </g>
     <g id="line2d_3">
      <defs>
       <path id="md063e67ae9" d="M 0 0 
L 0 6 
" style="stroke: #000000; stroke-width: 1.25"/>
      </defs>
      <g>
       <use xlink:href="#md063e67ae9" x="66.643832" y="13" style="fill: #ffffff; stroke: #000000; stroke-width: 1.25"/>
      </g>
     </g>
     <g id="text_1">
      <!-- 100000 -->
      <g transform="translate(48.643832 322.5425) scale(0.12 -0.12)">
       <defs>
        <path id="TimesNewRomanPSMT-31" d="M 750 3822 
L 1781 4325 
L 1884 4325 
L 1884 747 
Q 1884 391 1914 303 
Q 1944 216 2037 169 
Q 2131 122 2419 116 
L 2419 0 
L 825 0 
L 825 116 
Q 1125 122 1212 167 
Q 1300 213 1334 289 
Q 1369 366 1369 747 
L 1369 3034 
Q 1369 3497 1338 3628 
Q 1316 3728 1258 3775 
Q 1200 3822 1119 3822 
Q 1003 3822 797 3725 
L 750 3822 
z
" transform="scale(0.015625)"/>
        <path id="TimesNewRomanPSMT-30" d="M 231 2094 
Q 231 2819 450 3342 
Q 669 3866 1031 4122 
Q 1313 4325 1613 4325 
Q 2100 4325 2488 3828 
Q 2972 3213 2972 2159 
Q 2972 1422 2759 906 
Q 2547 391 2217 158 
Q 1888 -75 1581 -75 
Q 975 -75 572 641 
Q 231 1244 231 2094 
z
M 844 2016 
Q 844 1141 1059 588 
Q 1238 122 1591 122 
Q 1759 122 1940 273 
Q 2122 425 2216 781 
Q 2359 1319 2359 2297 
Q 2359 3022 2209 3506 
Q 2097 3866 1919 4016 
Q 1791 4119 1609 4119 
Q 1397 4119 1231 3928 
Q 1006 3669 925 3112 
Q 844 2556 844 2016 
z
" transform="scale(0.015625)"/>
       </defs>
       <use xlink:href="#TimesNewRomanPSMT-31"/>
       <use xlink:href="#TimesNewRomanPSMT-30" x="50"/>
       <use xlink:href="#TimesNewRomanPSMT-30" x="100"/>
       <use xlink:href="#TimesNewRomanPSMT-30" x="150"/>
       <use xlink:href="#TimesNewRomanPSMT-30" x="200"/>
       <use xlink:href="#TimesNewRomanPSMT-30" x="250"/>
      </g>
     </g>
    </g>
    <g id="xtick_2">
     <g id="line2d_4">
      <path d="M 122.235643 310.71 
L 122.235643 13 
" clip-path="url(#p3bbff2db3b)" style="fill: none; stroke: #000000; stroke-opacity: 0.5; stroke-width: 0.5; stroke-linecap: square"/>
     </g>
     <g id="line2d_5">
      <g>
       <use xlink:href="#ma77656af07" x="122.235643" y="310.71" style="fill: #ffffff; stroke: #000000; stroke-width: 1.25"/>
      </g>
     </g>
     <g id="line2d_6">
      <g>
       <use xlink:href="#md063e67ae9" x="122.235643" y="13" style="fill: #ffffff; stroke: #000000; stroke-width: 1.25"/>
      </g>
     </g>
     <g id="text_2">
      <!-- 200000 -->
      <g transform="translate(104.235643 322.5425) scale(0.12 -0.12)">
       <defs>
        <path id="TimesNewRomanPSMT-32" d="M 2934 816 
L 2638 0 
L 138 0 
L 138 116 
Q 1241 1122 1691 1759 
Q 2141 2397 2141 2925 
Q 2141 3328 1894 3587 
Q 1647 3847 1303 3847 
Q 991 3847 742 3664 
Q 494 3481 375 3128 
L 259 3128 
Q 338 3706 661 4015 
Q 984 4325 1469 4325 
Q 1984 4325 2329 3994 
Q 2675 3663 2675 3213 
Q 2675 2891 2525 2569 
Q 2294 2063 1775 1497 
Q 997 647 803 472 
L 1909 472 
Q 2247 472 2383 497 
Q 2519 522 2628 598 
Q 2738 675 2819 816 
L 2934 816 
z
" transform="scale(0.015625)"/>
       </defs>
       <use xlink:href="#TimesNewRomanPSMT-32"/>
       <use xlink:href="#TimesNewRomanPSMT-30" x="50"/>
       <use xlink:href="#TimesNewRomanPSMT-30" x="100"/>
       <use xlink:href="#TimesNewRomanPSMT-30" x="150"/>
       <use xlink:href="#TimesNewRomanPSMT-30" x="200"/>
       <use xlink:href="#TimesNewRomanPSMT-30" x="250"/>
      </g>
     </g>
    </g>
    <g id="xtick_3">
     <g id="line2d_7">
      <path d="M 177.827454 310.71 
L 177.827454 13 
" clip-path="url(#p3bbff2db3b)" style="fill: none; stroke: #000000; stroke-opacity: 0.5; stroke-width: 0.5; stroke-linecap: square"/>
     </g>
     <g id="line2d_8">
      <g>
       <use xlink:href="#ma77656af07" x="177.827454" y="310.71" style="fill: #ffffff; stroke: #000000; stroke-width: 1.25"/>
      </g>
     </g>
     <g id="line2d_9">
      <g>
       <use xlink:href="#md063e67ae9" x="177.827454" y="13" style="fill: #ffffff; stroke: #000000; stroke-width: 1.25"/>
      </g>
     </g>
     <g id="text_3">
      <!-- 300000 -->
      <g transform="translate(159.827454 322.5425) scale(0.12 -0.12)">
       <defs>
        <path id="TimesNewRomanPSMT-33" d="M 325 3431 
Q 506 3859 782 4092 
Q 1059 4325 1472 4325 
Q 1981 4325 2253 3994 
Q 2459 3747 2459 3466 
Q 2459 3003 1878 2509 
Q 2269 2356 2469 2072 
Q 2669 1788 2669 1403 
Q 2669 853 2319 450 
Q 1863 -75 997 -75 
Q 569 -75 414 31 
Q 259 138 259 259 
Q 259 350 332 419 
Q 406 488 509 488 
Q 588 488 669 463 
Q 722 447 909 348 
Q 1097 250 1169 231 
Q 1284 197 1416 197 
Q 1734 197 1970 444 
Q 2206 691 2206 1028 
Q 2206 1275 2097 1509 
Q 2016 1684 1919 1775 
Q 1784 1900 1550 2001 
Q 1316 2103 1072 2103 
L 972 2103 
L 972 2197 
Q 1219 2228 1467 2375 
Q 1716 2522 1828 2728 
Q 1941 2934 1941 3181 
Q 1941 3503 1739 3701 
Q 1538 3900 1238 3900 
Q 753 3900 428 3381 
L 325 3431 
z
" transform="scale(0.015625)"/>
       </defs>
       <use xlink:href="#TimesNewRomanPSMT-33"/>
       <use xlink:href="#TimesNewRomanPSMT-30" x="50"/>
       <use xlink:href="#TimesNewRomanPSMT-30" x="100"/>
       <use xlink:href="#TimesNewRomanPSMT-30" x="150"/>
       <use xlink:href="#TimesNewRomanPSMT-30" x="200"/>
       <use xlink:href="#TimesNewRomanPSMT-30" x="250"/>
      </g>
     </g>
    </g>
    <g id="xtick_4">
     <g id="line2d_10">
      <path d="M 233.419265 310.71 
L 233.419265 13 
" clip-path="url(#p3bbff2db3b)" style="fill: none; stroke: #000000; stroke-opacity: 0.5; stroke-width: 0.5; stroke-linecap: square"/>
     </g>
     <g id="line2d_11">
      <g>
       <use xlink:href="#ma77656af07" x="233.419265" y="310.71" style="fill: #ffffff; stroke: #000000; stroke-width: 1.25"/>
      </g>
     </g>
     <g id="line2d_12">
      <g>
       <use xlink:href="#md063e67ae9" x="233.419265" y="13" style="fill: #ffffff; stroke: #000000; stroke-width: 1.25"/>
      </g>
     </g>
     <g id="text_4">
      <!-- 400000 -->
      <g transform="translate(215.419265 322.5425) scale(0.12 -0.12)">
       <defs>
        <path id="TimesNewRomanPSMT-34" d="M 2978 1563 
L 2978 1119 
L 2409 1119 
L 2409 0 
L 1894 0 
L 1894 1119 
L 100 1119 
L 100 1519 
L 2066 4325 
L 2409 4325 
L 2409 1563 
L 2978 1563 
z
M 1894 1563 
L 1894 3666 
L 406 1563 
L 1894 1563 
z
" transform="scale(0.015625)"/>
       </defs>
       <use xlink:href="#TimesNewRomanPSMT-34"/>
       <use xlink:href="#TimesNewRomanPSMT-30" x="50"/>
       <use xlink:href="#TimesNewRomanPSMT-30" x="100"/>
       <use xlink:href="#TimesNewRomanPSMT-30" x="150"/>
       <use xlink:href="#TimesNewRomanPSMT-30" x="200"/>
       <use xlink:href="#TimesNewRomanPSMT-30" x="250"/>
      </g>
     </g>
    </g>
    <g id="xtick_5">
     <g id="line2d_13">
      <path d="M 289.011076 310.71 
L 289.011076 13 
" clip-path="url(#p3bbff2db3b)" style="fill: none; stroke: #000000; stroke-opacity: 0.5; stroke-width: 0.5; stroke-linecap: square"/>
     </g>
     <g id="line2d_14">
      <g>
       <use xlink:href="#ma77656af07" x="289.011076" y="310.71" style="fill: #ffffff; stroke: #000000; stroke-width: 1.25"/>
      </g>
     </g>
     <g id="line2d_15">
      <g>
       <use xlink:href="#md063e67ae9" x="289.011076" y="13" style="fill: #ffffff; stroke: #000000; stroke-width: 1.25"/>
      </g>
     </g>
     <g id="text_5">
      <!-- 500000 -->
      <g transform="translate(271.011076 322.5425) scale(0.12 -0.12)">
       <defs>
        <path id="TimesNewRomanPSMT-35" d="M 2778 4238 
L 2534 3706 
L 1259 3706 
L 981 3138 
Q 1809 3016 2294 2522 
Q 2709 2097 2709 1522 
Q 2709 1188 2573 903 
Q 2438 619 2231 419 
Q 2025 219 1772 97 
Q 1413 -75 1034 -75 
Q 653 -75 479 54 
Q 306 184 306 341 
Q 306 428 378 495 
Q 450 563 559 563 
Q 641 563 702 538 
Q 763 513 909 409 
Q 1144 247 1384 247 
Q 1750 247 2026 523 
Q 2303 800 2303 1197 
Q 2303 1581 2056 1914 
Q 1809 2247 1375 2428 
Q 1034 2569 447 2591 
L 1259 4238 
L 2778 4238 
z
" transform="scale(0.015625)"/>
       </defs>
       <use xlink:href="#TimesNewRomanPSMT-35"/>
       <use xlink:href="#TimesNewRomanPSMT-30" x="50"/>
       <use xlink:href="#TimesNewRomanPSMT-30" x="100"/>
       <use xlink:href="#TimesNewRomanPSMT-30" x="150"/>
       <use xlink:href="#TimesNewRomanPSMT-30" x="200"/>
       <use xlink:href="#TimesNewRomanPSMT-30" x="250"/>
      </g>
     </g>
    </g>
    <g id="xtick_6">
     <g id="line2d_16">
      <path d="M 344.602887 310.71 
L 344.602887 13 
" clip-path="url(#p3bbff2db3b)" style="fill: none; stroke: #000000; stroke-opacity: 0.5; stroke-width: 0.5; stroke-linecap: square"/>
     </g>
     <g id="line2d_17">
      <g>
       <use xlink:href="#ma77656af07" x="344.602887" y="310.71" style="fill: #ffffff; stroke: #000000; stroke-width: 1.25"/>
      </g>
     </g>
     <g id="line2d_18">
      <g>
       <use xlink:href="#md063e67ae9" x="344.602887" y="13" style="fill: #ffffff; stroke: #000000; stroke-width: 1.25"/>
      </g>
     </g>
     <g id="text_6">
      <!-- 600000 -->
      <g transform="translate(326.602887 322.5425) scale(0.12 -0.12)">
       <defs>
        <path id="TimesNewRomanPSMT-36" d="M 2869 4325 
L 2869 4209 
Q 2456 4169 2195 4045 
Q 1934 3922 1679 3669 
Q 1425 3416 1258 3105 
Q 1091 2794 978 2366 
Q 1428 2675 1881 2675 
Q 2316 2675 2634 2325 
Q 2953 1975 2953 1425 
Q 2953 894 2631 456 
Q 2244 -75 1606 -75 
Q 1172 -75 869 213 
Q 275 772 275 1663 
Q 275 2231 503 2743 
Q 731 3256 1154 3653 
Q 1578 4050 1965 4187 
Q 2353 4325 2688 4325 
L 2869 4325 
z
M 925 2138 
Q 869 1716 869 1456 
Q 869 1156 980 804 
Q 1091 453 1309 247 
Q 1469 100 1697 100 
Q 1969 100 2183 356 
Q 2397 613 2397 1088 
Q 2397 1622 2184 2012 
Q 1972 2403 1581 2403 
Q 1463 2403 1327 2353 
Q 1191 2303 925 2138 
z
" transform="scale(0.015625)"/>
       </defs>
       <use xlink:href="#TimesNewRomanPSMT-36"/>
       <use xlink:href="#TimesNewRomanPSMT-30" x="50"/>
       <use xlink:href="#TimesNewRomanPSMT-30" x="100"/>
       <use xlink:href="#TimesNewRomanPSMT-30" x="150"/>
       <use xlink:href="#TimesNewRomanPSMT-30" x="200"/>
       <use xlink:href="#TimesNewRomanPSMT-30" x="250"/>
      </g>
     </g>
    </g>
    <g id="xtick_7">
     <g id="line2d_19">
      <path d="M 400.194698 310.71 
L 400.194698 13 
" clip-path="url(#p3bbff2db3b)" style="fill: none; stroke: #000000; stroke-opacity: 0.5; stroke-width: 0.5; stroke-linecap: square"/>
     </g>
     <g id="line2d_20">
      <g>
       <use xlink:href="#ma77656af07" x="400.194698" y="310.71" style="fill: #ffffff; stroke: #000000; stroke-width: 1.25"/>
      </g>
     </g>
     <g id="line2d_21">
      <g>
       <use xlink:href="#md063e67ae9" x="400.194698" y="13" style="fill: #ffffff; stroke: #000000; stroke-width: 1.25"/>
      </g>
     </g>
     <g id="text_7">
      <!-- 700000 -->
      <g transform="translate(382.194698 322.5425) scale(0.12 -0.12)">
       <defs>
        <path id="TimesNewRomanPSMT-37" d="M 644 4238 
L 2916 4238 
L 2916 4119 
L 1503 -88 
L 1153 -88 
L 2419 3728 
L 1253 3728 
Q 900 3728 750 3644 
Q 488 3500 328 3200 
L 238 3234 
L 644 4238 
z
" transform="scale(0.015625)"/>
       </defs>
       <use xlink:href="#TimesNewRomanPSMT-37"/>
       <use xlink:href="#TimesNewRomanPSMT-30" x="50"/>
       <use xlink:href="#TimesNewRomanPSMT-30" x="100"/>
       <use xlink:href="#TimesNewRomanPSMT-30" x="150"/>
       <use xlink:href="#TimesNewRomanPSMT-30" x="200"/>
       <use xlink:href="#TimesNewRomanPSMT-30" x="250"/>
      </g>
     </g>
    </g>
    <g id="xtick_8">
     <g id="line2d_22">
      <defs>
       <path id="md7ddb0ae14" d="M 0 0 
L 0 -3 
" style="stroke: #000000; stroke-width: 0.75"/>
      </defs>
      <g>
       <use xlink:href="#md7ddb0ae14" x="77.762194" y="310.71" style="fill: #ffffff; stroke: #000000; stroke-width: 0.75"/>
      </g>
     </g>
     <g id="line2d_23">
      <defs>
       <path id="m386be23b05" d="M 0 0 
L 0 3 
" style="stroke: #000000; stroke-width: 0.75"/>
      </defs>
      <g>
       <use xlink:href="#m386be23b05" x="77.762194" y="13" style="fill: #ffffff; stroke: #000000; stroke-width: 0.75"/>
      </g>
     </g>
    </g>
    <g id="xtick_9">
     <g id="line2d_24">
      <g>
       <use xlink:href="#md7ddb0ae14" x="88.880557" y="310.71" style="fill: #ffffff; stroke: #000000; stroke-width: 0.75"/>
      </g>
     </g>
     <g id="line2d_25">
      <g>
       <use xlink:href="#m386be23b05" x="88.880557" y="13" style="fill: #ffffff; stroke: #000000; stroke-width: 0.75"/>
      </g>
     </g>
    </g>
    <g id="xtick_10">
     <g id="line2d_26">
      <g>
       <use xlink:href="#md7ddb0ae14" x="99.998919" y="310.71" style="fill: #ffffff; stroke: #000000; stroke-width: 0.75"/>
      </g>
     </g>
     <g id="line2d_27">
      <g>
       <use xlink:href="#m386be23b05" x="99.998919" y="13" style="fill: #ffffff; stroke: #000000; stroke-width: 0.75"/>
      </g>
     </g>
    </g>
    <g id="xtick_11">
     <g id="line2d_28">
      <g>
       <use xlink:href="#md7ddb0ae14" x="111.117281" y="310.71" style="fill: #ffffff; stroke: #000000; stroke-width: 0.75"/>
      </g>
     </g>
     <g id="line2d_29">
      <g>
       <use xlink:href="#m386be23b05" x="111.117281" y="13" style="fill: #ffffff; stroke: #000000; stroke-width: 0.75"/>
      </g>
     </g>
    </g>
    <g id="xtick_12">
     <g id="line2d_30">
      <g>
       <use xlink:href="#md7ddb0ae14" x="133.354005" y="310.71" style="fill: #ffffff; stroke: #000000; stroke-width: 0.75"/>
      </g>
     </g>
     <g id="line2d_31">
      <g>
       <use xlink:href="#m386be23b05" x="133.354005" y="13" style="fill: #ffffff; stroke: #000000; stroke-width: 0.75"/>
      </g>
     </g>
    </g>
    <g id="xtick_13">
     <g id="line2d_32">
      <g>
       <use xlink:href="#md7ddb0ae14" x="144.472367" y="310.71" style="fill: #ffffff; stroke: #000000; stroke-width: 0.75"/>
      </g>
     </g>
     <g id="line2d_33">
      <g>
       <use xlink:href="#m386be23b05" x="144.472367" y="13" style="fill: #ffffff; stroke: #000000; stroke-width: 0.75"/>
      </g>
     </g>
    </g>
    <g id="xtick_14">
     <g id="line2d_34">
      <g>
       <use xlink:href="#md7ddb0ae14" x="155.59073" y="310.71" style="fill: #ffffff; stroke: #000000; stroke-width: 0.75"/>
      </g>
     </g>
     <g id="line2d_35">
      <g>
       <use xlink:href="#m386be23b05" x="155.59073" y="13" style="fill: #ffffff; stroke: #000000; stroke-width: 0.75"/>
      </g>
     </g>
    </g>
    <g id="xtick_15">
     <g id="line2d_36">
      <g>
       <use xlink:href="#md7ddb0ae14" x="166.709092" y="310.71" style="fill: #ffffff; stroke: #000000; stroke-width: 0.75"/>
      </g>
     </g>
     <g id="line2d_37">
      <g>
       <use xlink:href="#m386be23b05" x="166.709092" y="13" style="fill: #ffffff; stroke: #000000; stroke-width: 0.75"/>
      </g>
     </g>
    </g>
    <g id="xtick_16">
     <g id="line2d_38">
      <g>
       <use xlink:href="#md7ddb0ae14" x="188.945816" y="310.71" style="fill: #ffffff; stroke: #000000; stroke-width: 0.75"/>
      </g>
     </g>
     <g id="line2d_39">
      <g>
       <use xlink:href="#m386be23b05" x="188.945816" y="13" style="fill: #ffffff; stroke: #000000; stroke-width: 0.75"/>
      </g>
     </g>
    </g>
    <g id="xtick_17">
     <g id="line2d_40">
      <g>
       <use xlink:href="#md7ddb0ae14" x="200.064178" y="310.71" style="fill: #ffffff; stroke: #000000; stroke-width: 0.75"/>
      </g>
     </g>
     <g id="line2d_41">
      <g>
       <use xlink:href="#m386be23b05" x="200.064178" y="13" style="fill: #ffffff; stroke: #000000; stroke-width: 0.75"/>
      </g>
     </g>
    </g>
    <g id="xtick_18">
     <g id="line2d_42">
      <g>
       <use xlink:href="#md7ddb0ae14" x="211.182541" y="310.71" style="fill: #ffffff; stroke: #000000; stroke-width: 0.75"/>
      </g>
     </g>
     <g id="line2d_43">
      <g>
       <use xlink:href="#m386be23b05" x="211.182541" y="13" style="fill: #ffffff; stroke: #000000; stroke-width: 0.75"/>
      </g>
     </g>
    </g>
    <g id="xtick_19">
     <g id="line2d_44">
      <g>
       <use xlink:href="#md7ddb0ae14" x="222.300903" y="310.71" style="fill: #ffffff; stroke: #000000; stroke-width: 0.75"/>
      </g>
     </g>
     <g id="line2d_45">
      <g>
       <use xlink:href="#m386be23b05" x="222.300903" y="13" style="fill: #ffffff; stroke: #000000; stroke-width: 0.75"/>
      </g>
     </g>
    </g>
    <g id="xtick_20">
     <g id="line2d_46">
      <g>
       <use xlink:href="#md7ddb0ae14" x="244.537627" y="310.71" style="fill: #ffffff; stroke: #000000; stroke-width: 0.75"/>
      </g>
     </g>
     <g id="line2d_47">
      <g>
       <use xlink:href="#m386be23b05" x="244.537627" y="13" style="fill: #ffffff; stroke: #000000; stroke-width: 0.75"/>
      </g>
     </g>
    </g>
    <g id="xtick_21">
     <g id="line2d_48">
      <g>
       <use xlink:href="#md7ddb0ae14" x="255.655989" y="310.71" style="fill: #ffffff; stroke: #000000; stroke-width: 0.75"/>
      </g>
     </g>
     <g id="line2d_49">
      <g>
       <use xlink:href="#m386be23b05" x="255.655989" y="13" style="fill: #ffffff; stroke: #000000; stroke-width: 0.75"/>
      </g>
     </g>
    </g>
    <g id="xtick_22">
     <g id="line2d_50">
      <g>
       <use xlink:href="#md7ddb0ae14" x="266.774352" y="310.71" style="fill: #ffffff; stroke: #000000; stroke-width: 0.75"/>
      </g>
     </g>
     <g id="line2d_51">
      <g>
       <use xlink:href="#m386be23b05" x="266.774352" y="13" style="fill: #ffffff; stroke: #000000; stroke-width: 0.75"/>
      </g>
     </g>
    </g>
    <g id="xtick_23">
     <g id="line2d_52">
      <g>
       <use xlink:href="#md7ddb0ae14" x="277.892714" y="310.71" style="fill: #ffffff; stroke: #000000; stroke-width: 0.75"/>
      </g>
     </g>
     <g id="line2d_53">
      <g>
       <use xlink:href="#m386be23b05" x="277.892714" y="13" style="fill: #ffffff; stroke: #000000; stroke-width: 0.75"/>
      </g>
     </g>
    </g>
    <g id="xtick_24">
     <g id="line2d_54">
      <g>
       <use xlink:href="#md7ddb0ae14" x="300.129438" y="310.71" style="fill: #ffffff; stroke: #000000; stroke-width: 0.75"/>
      </g>
     </g>
     <g id="line2d_55">
      <g>
       <use xlink:href="#m386be23b05" x="300.129438" y="13" style="fill: #ffffff; stroke: #000000; stroke-width: 0.75"/>
      </g>
     </g>
    </g>
    <g id="xtick_25">
     <g id="line2d_56">
      <g>
       <use xlink:href="#md7ddb0ae14" x="311.2478" y="310.71" style="fill: #ffffff; stroke: #000000; stroke-width: 0.75"/>
      </g>
     </g>
     <g id="line2d_57">
      <g>
       <use xlink:href="#m386be23b05" x="311.2478" y="13" style="fill: #ffffff; stroke: #000000; stroke-width: 0.75"/>
      </g>
     </g>
    </g>
    <g id="xtick_26">
     <g id="line2d_58">
      <g>
       <use xlink:href="#md7ddb0ae14" x="322.366163" y="310.71" style="fill: #ffffff; stroke: #000000; stroke-width: 0.75"/>
      </g>
     </g>
     <g id="line2d_59">
      <g>
       <use xlink:href="#m386be23b05" x="322.366163" y="13" style="fill: #ffffff; stroke: #000000; stroke-width: 0.75"/>
      </g>
     </g>
    </g>
    <g id="xtick_27">
     <g id="line2d_60">
      <g>
       <use xlink:href="#md7ddb0ae14" x="333.484525" y="310.71" style="fill: #ffffff; stroke: #000000; stroke-width: 0.75"/>
      </g>
     </g>
     <g id="line2d_61">
      <g>
       <use xlink:href="#m386be23b05" x="333.484525" y="13" style="fill: #ffffff; stroke: #000000; stroke-width: 0.75"/>
      </g>
     </g>
    </g>
    <g id="xtick_28">
     <g id="line2d_62">
      <g>
       <use xlink:href="#md7ddb0ae14" x="355.721249" y="310.71" style="fill: #ffffff; stroke: #000000; stroke-width: 0.75"/>
      </g>
     </g>
     <g id="line2d_63">
      <g>
       <use xlink:href="#m386be23b05" x="355.721249" y="13" style="fill: #ffffff; stroke: #000000; stroke-width: 0.75"/>
      </g>
     </g>
    </g>
    <g id="xtick_29">
     <g id="line2d_64">
      <g>
       <use xlink:href="#md7ddb0ae14" x="366.839611" y="310.71" style="fill: #ffffff; stroke: #000000; stroke-width: 0.75"/>
      </g>
     </g>
     <g id="line2d_65">
      <g>
       <use xlink:href="#m386be23b05" x="366.839611" y="13" style="fill: #ffffff; stroke: #000000; stroke-width: 0.75"/>
      </g>
     </g>
    </g>
    <g id="xtick_30">
     <g id="line2d_66">
      <g>
       <use xlink:href="#md7ddb0ae14" x="377.957974" y="310.71" style="fill: #ffffff; stroke: #000000; stroke-width: 0.75"/>
      </g>
     </g>
     <g id="line2d_67">
      <g>
       <use xlink:href="#m386be23b05" x="377.957974" y="13" style="fill: #ffffff; stroke: #000000; stroke-width: 0.75"/>
      </g>
     </g>
    </g>
    <g id="xtick_31">
     <g id="line2d_68">
      <g>
       <use xlink:href="#md7ddb0ae14" x="389.076336" y="310.71" style="fill: #ffffff; stroke: #000000; stroke-width: 0.75"/>
      </g>
     </g>
     <g id="line2d_69">
      <g>
       <use xlink:href="#m386be23b05" x="389.076336" y="13" style="fill: #ffffff; stroke: #000000; stroke-width: 0.75"/>
      </g>
     </g>
    </g>
    <g id="xtick_32">
     <g id="line2d_70">
      <g>
       <use xlink:href="#md7ddb0ae14" x="411.31306" y="310.71" style="fill: #ffffff; stroke: #000000; stroke-width: 0.75"/>
      </g>
     </g>
     <g id="line2d_71">
      <g>
       <use xlink:href="#m386be23b05" x="411.31306" y="13" style="fill: #ffffff; stroke: #000000; stroke-width: 0.75"/>
      </g>
     </g>
    </g>
    <g id="text_8">
     <!-- Pressure (Pa) -->
     <g transform="translate(203.483696 343.88625) scale(0.13 -0.13)">
      <defs>
       <path id="TimesNewRomanPSMT-50" d="M 1313 1984 
L 1313 750 
Q 1313 350 1400 253 
Q 1519 116 1759 116 
L 1922 116 
L 1922 0 
L 106 0 
L 106 116 
L 266 116 
Q 534 116 650 291 
Q 713 388 713 750 
L 713 3488 
Q 713 3888 628 3984 
Q 506 4122 266 4122 
L 106 4122 
L 106 4238 
L 1659 4238 
Q 2228 4238 2556 4120 
Q 2884 4003 3109 3725 
Q 3334 3447 3334 3066 
Q 3334 2547 2992 2222 
Q 2650 1897 2025 1897 
Q 1872 1897 1694 1919 
Q 1516 1941 1313 1984 
z
M 1313 2163 
Q 1478 2131 1606 2115 
Q 1734 2100 1825 2100 
Q 2150 2100 2386 2351 
Q 2622 2603 2622 3003 
Q 2622 3278 2509 3514 
Q 2397 3750 2190 3867 
Q 1984 3984 1722 3984 
Q 1563 3984 1313 3925 
L 1313 2163 
z
" transform="scale(0.015625)"/>
       <path id="TimesNewRomanPSMT-72" d="M 1038 2947 
L 1038 2303 
Q 1397 2947 1775 2947 
Q 1947 2947 2059 2842 
Q 2172 2738 2172 2600 
Q 2172 2478 2090 2393 
Q 2009 2309 1897 2309 
Q 1788 2309 1652 2417 
Q 1516 2525 1450 2525 
Q 1394 2525 1328 2463 
Q 1188 2334 1038 2041 
L 1038 669 
Q 1038 431 1097 309 
Q 1138 225 1241 169 
Q 1344 113 1538 113 
L 1538 0 
L 72 0 
L 72 113 
Q 291 113 397 181 
Q 475 231 506 341 
Q 522 394 522 644 
L 522 1753 
Q 522 2253 501 2348 
Q 481 2444 426 2487 
Q 372 2531 291 2531 
Q 194 2531 72 2484 
L 41 2597 
L 906 2947 
L 1038 2947 
z
" transform="scale(0.015625)"/>
       <path id="TimesNewRomanPSMT-65" d="M 681 1784 
Q 678 1147 991 784 
Q 1303 422 1725 422 
Q 2006 422 2214 576 
Q 2422 731 2563 1106 
L 2659 1044 
Q 2594 616 2278 264 
Q 1963 -88 1488 -88 
Q 972 -88 605 314 
Q 238 716 238 1394 
Q 238 2128 614 2539 
Q 991 2950 1559 2950 
Q 2041 2950 2350 2633 
Q 2659 2316 2659 1784 
L 681 1784 
z
M 681 1966 
L 2006 1966 
Q 1991 2241 1941 2353 
Q 1863 2528 1708 2628 
Q 1553 2728 1384 2728 
Q 1125 2728 920 2526 
Q 716 2325 681 1966 
z
" transform="scale(0.015625)"/>
       <path id="TimesNewRomanPSMT-73" d="M 2050 2947 
L 2050 1972 
L 1947 1972 
Q 1828 2431 1642 2597 
Q 1456 2763 1169 2763 
Q 950 2763 815 2647 
Q 681 2531 681 2391 
Q 681 2216 781 2091 
Q 878 1963 1175 1819 
L 1631 1597 
Q 2266 1288 2266 781 
Q 2266 391 1970 151 
Q 1675 -88 1309 -88 
Q 1047 -88 709 6 
Q 606 38 541 38 
Q 469 38 428 -44 
L 325 -44 
L 325 978 
L 428 978 
Q 516 541 762 319 
Q 1009 97 1316 97 
Q 1531 97 1667 223 
Q 1803 350 1803 528 
Q 1803 744 1651 891 
Q 1500 1038 1047 1263 
Q 594 1488 453 1669 
Q 313 1847 313 2119 
Q 313 2472 555 2709 
Q 797 2947 1181 2947 
Q 1350 2947 1591 2875 
Q 1750 2828 1803 2828 
Q 1853 2828 1881 2850 
Q 1909 2872 1947 2947 
L 2050 2947 
z
" transform="scale(0.015625)"/>
       <path id="TimesNewRomanPSMT-75" d="M 2709 2863 
L 2709 1128 
Q 2709 631 2732 520 
Q 2756 409 2807 365 
Q 2859 322 2928 322 
Q 3025 322 3147 375 
L 3191 266 
L 2334 -88 
L 2194 -88 
L 2194 519 
Q 1825 119 1631 15 
Q 1438 -88 1222 -88 
Q 981 -88 804 51 
Q 628 191 559 409 
Q 491 628 491 1028 
L 491 2306 
Q 491 2509 447 2587 
Q 403 2666 317 2708 
Q 231 2750 6 2747 
L 6 2863 
L 1009 2863 
L 1009 947 
Q 1009 547 1148 422 
Q 1288 297 1484 297 
Q 1619 297 1789 381 
Q 1959 466 2194 703 
L 2194 2325 
Q 2194 2569 2105 2655 
Q 2016 2741 1734 2747 
L 1734 2863 
L 2709 2863 
z
" transform="scale(0.015625)"/>
       <path id="TimesNewRomanPSMT-20" transform="scale(0.015625)"/>
       <path id="TimesNewRomanPSMT-28" d="M 1988 -1253 
L 1988 -1369 
Q 1516 -1131 1200 -813 
Q 750 -359 506 256 
Q 263 872 263 1534 
Q 263 2503 741 3301 
Q 1219 4100 1988 4444 
L 1988 4313 
Q 1603 4100 1356 3731 
Q 1109 3363 987 2797 
Q 866 2231 866 1616 
Q 866 947 969 400 
Q 1050 -31 1165 -292 
Q 1281 -553 1476 -793 
Q 1672 -1034 1988 -1253 
z
" transform="scale(0.015625)"/>
       <path id="TimesNewRomanPSMT-61" d="M 1822 413 
Q 1381 72 1269 19 
Q 1100 -59 909 -59 
Q 613 -59 420 144 
Q 228 347 228 678 
Q 228 888 322 1041 
Q 450 1253 767 1440 
Q 1084 1628 1822 1897 
L 1822 2009 
Q 1822 2438 1686 2597 
Q 1550 2756 1291 2756 
Q 1094 2756 978 2650 
Q 859 2544 859 2406 
L 866 2225 
Q 866 2081 792 2003 
Q 719 1925 600 1925 
Q 484 1925 411 2006 
Q 338 2088 338 2228 
Q 338 2497 613 2722 
Q 888 2947 1384 2947 
Q 1766 2947 2009 2819 
Q 2194 2722 2281 2516 
Q 2338 2381 2338 1966 
L 2338 994 
Q 2338 584 2353 492 
Q 2369 400 2405 369 
Q 2441 338 2488 338 
Q 2538 338 2575 359 
Q 2641 400 2828 588 
L 2828 413 
Q 2478 -56 2159 -56 
Q 2006 -56 1915 50 
Q 1825 156 1822 413 
z
M 1822 616 
L 1822 1706 
Q 1350 1519 1213 1441 
Q 966 1303 859 1153 
Q 753 1003 753 825 
Q 753 600 887 451 
Q 1022 303 1197 303 
Q 1434 303 1822 616 
z
" transform="scale(0.015625)"/>
       <path id="TimesNewRomanPSMT-29" d="M 144 4313 
L 144 4444 
Q 619 4209 934 3891 
Q 1381 3434 1625 2820 
Q 1869 2206 1869 1541 
Q 1869 572 1392 -226 
Q 916 -1025 144 -1369 
L 144 -1253 
Q 528 -1038 776 -670 
Q 1025 -303 1145 264 
Q 1266 831 1266 1447 
Q 1266 2113 1163 2663 
Q 1084 3094 967 3353 
Q 850 3613 656 3853 
Q 463 4094 144 4313 
z
" transform="scale(0.015625)"/>
      </defs>
      <use xlink:href="#TimesNewRomanPSMT-50"/>
      <use xlink:href="#TimesNewRomanPSMT-72" x="55.615234"/>
      <use xlink:href="#TimesNewRomanPSMT-65" x="88.916016"/>
      <use xlink:href="#TimesNewRomanPSMT-73" x="133.300781"/>
      <use xlink:href="#TimesNewRomanPSMT-73" x="172.216797"/>
      <use xlink:href="#TimesNewRomanPSMT-75" x="211.132812"/>
      <use xlink:href="#TimesNewRomanPSMT-72" x="261.132812"/>
      <use xlink:href="#TimesNewRomanPSMT-65" x="294.433594"/>
      <use xlink:href="#TimesNewRomanPSMT-20" x="338.818359"/>
      <use xlink:href="#TimesNewRomanPSMT-28" x="363.818359"/>
      <use xlink:href="#TimesNewRomanPSMT-50" x="397.119141"/>
      <use xlink:href="#TimesNewRomanPSMT-61" x="452.734375"/>
      <use xlink:href="#TimesNewRomanPSMT-29" x="497.119141"/>
     </g>
    </g>
   </g>
   <g id="matplotlib.axis_2">
    <g id="ytick_1">
     <g id="line2d_72">
      <path d="M 61.62 272.832718 
L 414.302235 272.832718 
" clip-path="url(#p3bbff2db3b)" style="fill: none; stroke: #000000; stroke-opacity: 0.5; stroke-width: 0.5; stroke-linecap: square"/>
     </g>
     <g id="line2d_73">
      <defs>
       <path id="m43221a8b05" d="M 0 0 
L 6 0 
" style="stroke: #000000; stroke-width: 1.25"/>
      </defs>
      <g>
       <use xlink:href="#m43221a8b05" x="61.62" y="272.832718" style="fill: #ffffff; stroke: #000000; stroke-width: 1.25"/>
      </g>
     </g>
     <g id="line2d_74">
      <defs>
       <path id="m7cee419c78" d="M 0 0 
L -6 0 
" style="stroke: #000000; stroke-width: 1.25"/>
      </defs>
      <g>
       <use xlink:href="#m7cee419c78" x="414.302235" y="272.832718" style="fill: #ffffff; stroke: #000000; stroke-width: 1.25"/>
      </g>
     </g>
     <g id="text_9">
      <!-- 100 -->
      <g transform="translate(40.12 276.998968) scale(0.12 -0.12)">
       <use xlink:href="#TimesNewRomanPSMT-31"/>
       <use xlink:href="#TimesNewRomanPSMT-30" x="50"/>
       <use xlink:href="#TimesNewRomanPSMT-30" x="100"/>
      </g>
     </g>
    </g>
    <g id="ytick_2">
     <g id="line2d_75">
      <path d="M 61.62 233.902878 
L 414.302235 233.902878 
" clip-path="url(#p3bbff2db3b)" style="fill: none; stroke: #000000; stroke-opacity: 0.5; stroke-width: 0.5; stroke-linecap: square"/>
     </g>
     <g id="line2d_76">
      <g>
       <use xlink:href="#m43221a8b05" x="61.62" y="233.902878" style="fill: #ffffff; stroke: #000000; stroke-width: 1.25"/>
      </g>
     </g>
     <g id="line2d_77">
      <g>
       <use xlink:href="#m7cee419c78" x="414.302235" y="233.902878" style="fill: #ffffff; stroke: #000000; stroke-width: 1.25"/>
      </g>
     </g>
     <g id="text_10">
      <!-- 200 -->
      <g transform="translate(40.12 238.069128) scale(0.12 -0.12)">
       <use xlink:href="#TimesNewRomanPSMT-32"/>
       <use xlink:href="#TimesNewRomanPSMT-30" x="50"/>
       <use xlink:href="#TimesNewRomanPSMT-30" x="100"/>
      </g>
     </g>
    </g>
    <g id="ytick_3">
     <g id="line2d_78">
      <path d="M 61.62 194.973038 
L 414.302235 194.973038 
" clip-path="url(#p3bbff2db3b)" style="fill: none; stroke: #000000; stroke-opacity: 0.5; stroke-width: 0.5; stroke-linecap: square"/>
     </g>
     <g id="line2d_79">
      <g>
       <use xlink:href="#m43221a8b05" x="61.62" y="194.973038" style="fill: #ffffff; stroke: #000000; stroke-width: 1.25"/>
      </g>
     </g>
     <g id="line2d_80">
      <g>
       <use xlink:href="#m7cee419c78" x="414.302235" y="194.973038" style="fill: #ffffff; stroke: #000000; stroke-width: 1.25"/>
      </g>
     </g>
     <g id="text_11">
      <!-- 300 -->
      <g transform="translate(40.12 199.139288) scale(0.12 -0.12)">
       <use xlink:href="#TimesNewRomanPSMT-33"/>
       <use xlink:href="#TimesNewRomanPSMT-30" x="50"/>
       <use xlink:href="#TimesNewRomanPSMT-30" x="100"/>
      </g>
     </g>
    </g>
    <g id="ytick_4">
     <g id="line2d_81">
      <path d="M 61.62 156.043198 
L 414.302235 156.043198 
" clip-path="url(#p3bbff2db3b)" style="fill: none; stroke: #000000; stroke-opacity: 0.5; stroke-width: 0.5; stroke-linecap: square"/>
     </g>
     <g id="line2d_82">
      <g>
       <use xlink:href="#m43221a8b05" x="61.62" y="156.043198" style="fill: #ffffff; stroke: #000000; stroke-width: 1.25"/>
      </g>
     </g>
     <g id="line2d_83">
      <g>
       <use xlink:href="#m7cee419c78" x="414.302235" y="156.043198" style="fill: #ffffff; stroke: #000000; stroke-width: 1.25"/>
      </g>
     </g>
     <g id="text_12">
      <!-- 400 -->
      <g transform="translate(40.12 160.209448) scale(0.12 -0.12)">
       <use xlink:href="#TimesNewRomanPSMT-34"/>
       <use xlink:href="#TimesNewRomanPSMT-30" x="50"/>
       <use xlink:href="#TimesNewRomanPSMT-30" x="100"/>
      </g>
     </g>
    </g>
    <g id="ytick_5">
     <g id="line2d_84">
      <path d="M 61.62 117.113358 
L 414.302235 117.113358 
" clip-path="url(#p3bbff2db3b)" style="fill: none; stroke: #000000; stroke-opacity: 0.5; stroke-width: 0.5; stroke-linecap: square"/>
     </g>
     <g id="line2d_85">
      <g>
       <use xlink:href="#m43221a8b05" x="61.62" y="117.113358" style="fill: #ffffff; stroke: #000000; stroke-width: 1.25"/>
      </g>
     </g>
     <g id="line2d_86">
      <g>
       <use xlink:href="#m7cee419c78" x="414.302235" y="117.113358" style="fill: #ffffff; stroke: #000000; stroke-width: 1.25"/>
      </g>
     </g>
     <g id="text_13">
      <!-- 500 -->
      <g transform="translate(40.12 121.279608) scale(0.12 -0.12)">
       <use xlink:href="#TimesNewRomanPSMT-35"/>
       <use xlink:href="#TimesNewRomanPSMT-30" x="50"/>
       <use xlink:href="#TimesNewRomanPSMT-30" x="100"/>
      </g>
     </g>
    </g>
    <g id="ytick_6">
     <g id="line2d_87">
      <path d="M 61.62 78.183518 
L 414.302235 78.183518 
" clip-path="url(#p3bbff2db3b)" style="fill: none; stroke: #000000; stroke-opacity: 0.5; stroke-width: 0.5; stroke-linecap: square"/>
     </g>
     <g id="line2d_88">
      <g>
       <use xlink:href="#m43221a8b05" x="61.62" y="78.183518" style="fill: #ffffff; stroke: #000000; stroke-width: 1.25"/>
      </g>
     </g>
     <g id="line2d_89">
      <g>
       <use xlink:href="#m7cee419c78" x="414.302235" y="78.183518" style="fill: #ffffff; stroke: #000000; stroke-width: 1.25"/>
      </g>
     </g>
     <g id="text_14">
      <!-- 600 -->
      <g transform="translate(40.12 82.349768) scale(0.12 -0.12)">
       <use xlink:href="#TimesNewRomanPSMT-36"/>
       <use xlink:href="#TimesNewRomanPSMT-30" x="50"/>
       <use xlink:href="#TimesNewRomanPSMT-30" x="100"/>
      </g>
     </g>
    </g>
    <g id="ytick_7">
     <g id="line2d_90">
      <path d="M 61.62 39.253678 
L 414.302235 39.253678 
" clip-path="url(#p3bbff2db3b)" style="fill: none; stroke: #000000; stroke-opacity: 0.5; stroke-width: 0.5; stroke-linecap: square"/>
     </g>
     <g id="line2d_91">
      <g>
       <use xlink:href="#m43221a8b05" x="61.62" y="39.253678" style="fill: #ffffff; stroke: #000000; stroke-width: 1.25"/>
      </g>
     </g>
     <g id="line2d_92">
      <g>
       <use xlink:href="#m7cee419c78" x="414.302235" y="39.253678" style="fill: #ffffff; stroke: #000000; stroke-width: 1.25"/>
      </g>
     </g>
     <g id="text_15">
      <!-- 700 -->
      <g transform="translate(40.12 43.419928) scale(0.12 -0.12)">
       <use xlink:href="#TimesNewRomanPSMT-37"/>
       <use xlink:href="#TimesNewRomanPSMT-30" x="50"/>
       <use xlink:href="#TimesNewRomanPSMT-30" x="100"/>
      </g>
     </g>
    </g>
    <g id="ytick_8">
     <g id="line2d_93">
      <defs>
       <path id="m426a9149c2" d="M 0 0 
L 3 0 
" style="stroke: #000000; stroke-width: 0.75"/>
      </defs>
      <g>
       <use xlink:href="#m426a9149c2" x="61.62" y="303.97659" style="fill: #ffffff; stroke: #000000; stroke-width: 0.75"/>
      </g>
     </g>
     <g id="line2d_94">
      <defs>
       <path id="m21fca21197" d="M 0 0 
L -3 0 
" style="stroke: #000000; stroke-width: 0.75"/>
      </defs>
      <g>
       <use xlink:href="#m21fca21197" x="414.302235" y="303.97659" style="fill: #ffffff; stroke: #000000; stroke-width: 0.75"/>
      </g>
     </g>
    </g>
    <g id="ytick_9">
     <g id="line2d_95">
      <g>
       <use xlink:href="#m426a9149c2" x="61.62" y="296.190622" style="fill: #ffffff; stroke: #000000; stroke-width: 0.75"/>
      </g>
     </g>
     <g id="line2d_96">
      <g>
       <use xlink:href="#m21fca21197" x="414.302235" y="296.190622" style="fill: #ffffff; stroke: #000000; stroke-width: 0.75"/>
      </g>
     </g>
    </g>
    <g id="ytick_10">
     <g id="line2d_97">
      <g>
       <use xlink:href="#m426a9149c2" x="61.62" y="288.404654" style="fill: #ffffff; stroke: #000000; stroke-width: 0.75"/>
      </g>
     </g>
     <g id="line2d_98">
      <g>
       <use xlink:href="#m21fca21197" x="414.302235" y="288.404654" style="fill: #ffffff; stroke: #000000; stroke-width: 0.75"/>
      </g>
     </g>
    </g>
    <g id="ytick_11">
     <g id="line2d_99">
      <g>
       <use xlink:href="#m426a9149c2" x="61.62" y="280.618686" style="fill: #ffffff; stroke: #000000; stroke-width: 0.75"/>
      </g>
     </g>
     <g id="line2d_100">
      <g>
       <use xlink:href="#m21fca21197" x="414.302235" y="280.618686" style="fill: #ffffff; stroke: #000000; stroke-width: 0.75"/>
      </g>
     </g>
    </g>
    <g id="ytick_12">
     <g id="line2d_101">
      <g>
       <use xlink:href="#m426a9149c2" x="61.62" y="265.04675" style="fill: #ffffff; stroke: #000000; stroke-width: 0.75"/>
      </g>
     </g>
     <g id="line2d_102">
      <g>
       <use xlink:href="#m21fca21197" x="414.302235" y="265.04675" style="fill: #ffffff; stroke: #000000; stroke-width: 0.75"/>
      </g>
     </g>
    </g>
    <g id="ytick_13">
     <g id="line2d_103">
      <g>
       <use xlink:href="#m426a9149c2" x="61.62" y="257.260782" style="fill: #ffffff; stroke: #000000; stroke-width: 0.75"/>
      </g>
     </g>
     <g id="line2d_104">
      <g>
       <use xlink:href="#m21fca21197" x="414.302235" y="257.260782" style="fill: #ffffff; stroke: #000000; stroke-width: 0.75"/>
      </g>
     </g>
    </g>
    <g id="ytick_14">
     <g id="line2d_105">
      <g>
       <use xlink:href="#m426a9149c2" x="61.62" y="249.474814" style="fill: #ffffff; stroke: #000000; stroke-width: 0.75"/>
      </g>
     </g>
     <g id="line2d_106">
      <g>
       <use xlink:href="#m21fca21197" x="414.302235" y="249.474814" style="fill: #ffffff; stroke: #000000; stroke-width: 0.75"/>
      </g>
     </g>
    </g>
    <g id="ytick_15">
     <g id="line2d_107">
      <g>
       <use xlink:href="#m426a9149c2" x="61.62" y="241.688846" style="fill: #ffffff; stroke: #000000; stroke-width: 0.75"/>
      </g>
     </g>
     <g id="line2d_108">
      <g>
       <use xlink:href="#m21fca21197" x="414.302235" y="241.688846" style="fill: #ffffff; stroke: #000000; stroke-width: 0.75"/>
      </g>
     </g>
    </g>
    <g id="ytick_16">
     <g id="line2d_109">
      <g>
       <use xlink:href="#m426a9149c2" x="61.62" y="226.11691" style="fill: #ffffff; stroke: #000000; stroke-width: 0.75"/>
      </g>
     </g>
     <g id="line2d_110">
      <g>
       <use xlink:href="#m21fca21197" x="414.302235" y="226.11691" style="fill: #ffffff; stroke: #000000; stroke-width: 0.75"/>
      </g>
     </g>
    </g>
    <g id="ytick_17">
     <g id="line2d_111">
      <g>
       <use xlink:href="#m426a9149c2" x="61.62" y="218.330942" style="fill: #ffffff; stroke: #000000; stroke-width: 0.75"/>
      </g>
     </g>
     <g id="line2d_112">
      <g>
       <use xlink:href="#m21fca21197" x="414.302235" y="218.330942" style="fill: #ffffff; stroke: #000000; stroke-width: 0.75"/>
      </g>
     </g>
    </g>
    <g id="ytick_18">
     <g id="line2d_113">
      <g>
       <use xlink:href="#m426a9149c2" x="61.62" y="210.544974" style="fill: #ffffff; stroke: #000000; stroke-width: 0.75"/>
      </g>
     </g>
     <g id="line2d_114">
      <g>
       <use xlink:href="#m21fca21197" x="414.302235" y="210.544974" style="fill: #ffffff; stroke: #000000; stroke-width: 0.75"/>
      </g>
     </g>
    </g>
    <g id="ytick_19">
     <g id="line2d_115">
      <g>
       <use xlink:href="#m426a9149c2" x="61.62" y="202.759006" style="fill: #ffffff; stroke: #000000; stroke-width: 0.75"/>
      </g>
     </g>
     <g id="line2d_116">
      <g>
       <use xlink:href="#m21fca21197" x="414.302235" y="202.759006" style="fill: #ffffff; stroke: #000000; stroke-width: 0.75"/>
      </g>
     </g>
    </g>
    <g id="ytick_20">
     <g id="line2d_117">
      <g>
       <use xlink:href="#m426a9149c2" x="61.62" y="187.18707" style="fill: #ffffff; stroke: #000000; stroke-width: 0.75"/>
      </g>
     </g>
     <g id="line2d_118">
      <g>
       <use xlink:href="#m21fca21197" x="414.302235" y="187.18707" style="fill: #ffffff; stroke: #000000; stroke-width: 0.75"/>
      </g>
     </g>
    </g>
    <g id="ytick_21">
     <g id="line2d_119">
      <g>
       <use xlink:href="#m426a9149c2" x="61.62" y="179.401102" style="fill: #ffffff; stroke: #000000; stroke-width: 0.75"/>
      </g>
     </g>
     <g id="line2d_120">
      <g>
       <use xlink:href="#m21fca21197" x="414.302235" y="179.401102" style="fill: #ffffff; stroke: #000000; stroke-width: 0.75"/>
      </g>
     </g>
    </g>
    <g id="ytick_22">
     <g id="line2d_121">
      <g>
       <use xlink:href="#m426a9149c2" x="61.62" y="171.615134" style="fill: #ffffff; stroke: #000000; stroke-width: 0.75"/>
      </g>
     </g>
     <g id="line2d_122">
      <g>
       <use xlink:href="#m21fca21197" x="414.302235" y="171.615134" style="fill: #ffffff; stroke: #000000; stroke-width: 0.75"/>
      </g>
     </g>
    </g>
    <g id="ytick_23">
     <g id="line2d_123">
      <g>
       <use xlink:href="#m426a9149c2" x="61.62" y="163.829166" style="fill: #ffffff; stroke: #000000; stroke-width: 0.75"/>
      </g>
     </g>
     <g id="line2d_124">
      <g>
       <use xlink:href="#m21fca21197" x="414.302235" y="163.829166" style="fill: #ffffff; stroke: #000000; stroke-width: 0.75"/>
      </g>
     </g>
    </g>
    <g id="ytick_24">
     <g id="line2d_125">
      <g>
       <use xlink:href="#m426a9149c2" x="61.62" y="148.25723" style="fill: #ffffff; stroke: #000000; stroke-width: 0.75"/>
      </g>
     </g>
     <g id="line2d_126">
      <g>
       <use xlink:href="#m21fca21197" x="414.302235" y="148.25723" style="fill: #ffffff; stroke: #000000; stroke-width: 0.75"/>
      </g>
     </g>
    </g>
    <g id="ytick_25">
     <g id="line2d_127">
      <g>
       <use xlink:href="#m426a9149c2" x="61.62" y="140.471262" style="fill: #ffffff; stroke: #000000; stroke-width: 0.75"/>
      </g>
     </g>
     <g id="line2d_128">
      <g>
       <use xlink:href="#m21fca21197" x="414.302235" y="140.471262" style="fill: #ffffff; stroke: #000000; stroke-width: 0.75"/>
      </g>
     </g>
    </g>
    <g id="ytick_26">
     <g id="line2d_129">
      <g>
       <use xlink:href="#m426a9149c2" x="61.62" y="132.685294" style="fill: #ffffff; stroke: #000000; stroke-width: 0.75"/>
      </g>
     </g>
     <g id="line2d_130">
      <g>
       <use xlink:href="#m21fca21197" x="414.302235" y="132.685294" style="fill: #ffffff; stroke: #000000; stroke-width: 0.75"/>
      </g>
     </g>
    </g>
    <g id="ytick_27">
     <g id="line2d_131">
      <g>
       <use xlink:href="#m426a9149c2" x="61.62" y="124.899326" style="fill: #ffffff; stroke: #000000; stroke-width: 0.75"/>
      </g>
     </g>
     <g id="line2d_132">
      <g>
       <use xlink:href="#m21fca21197" x="414.302235" y="124.899326" style="fill: #ffffff; stroke: #000000; stroke-width: 0.75"/>
      </g>
     </g>
    </g>
    <g id="ytick_28">
     <g id="line2d_133">
      <g>
       <use xlink:href="#m426a9149c2" x="61.62" y="109.32739" style="fill: #ffffff; stroke: #000000; stroke-width: 0.75"/>
      </g>
     </g>
     <g id="line2d_134">
      <g>
       <use xlink:href="#m21fca21197" x="414.302235" y="109.32739" style="fill: #ffffff; stroke: #000000; stroke-width: 0.75"/>
      </g>
     </g>
    </g>
    <g id="ytick_29">
     <g id="line2d_135">
      <g>
       <use xlink:href="#m426a9149c2" x="61.62" y="101.541422" style="fill: #ffffff; stroke: #000000; stroke-width: 0.75"/>
      </g>
     </g>
     <g id="line2d_136">
      <g>
       <use xlink:href="#m21fca21197" x="414.302235" y="101.541422" style="fill: #ffffff; stroke: #000000; stroke-width: 0.75"/>
      </g>
     </g>
    </g>
    <g id="ytick_30">
     <g id="line2d_137">
      <g>
       <use xlink:href="#m426a9149c2" x="61.62" y="93.755454" style="fill: #ffffff; stroke: #000000; stroke-width: 0.75"/>
      </g>
     </g>
     <g id="line2d_138">
      <g>
       <use xlink:href="#m21fca21197" x="414.302235" y="93.755454" style="fill: #ffffff; stroke: #000000; stroke-width: 0.75"/>
      </g>
     </g>
    </g>
    <g id="ytick_31">
     <g id="line2d_139">
      <g>
       <use xlink:href="#m426a9149c2" x="61.62" y="85.969486" style="fill: #ffffff; stroke: #000000; stroke-width: 0.75"/>
      </g>
     </g>
     <g id="line2d_140">
      <g>
       <use xlink:href="#m21fca21197" x="414.302235" y="85.969486" style="fill: #ffffff; stroke: #000000; stroke-width: 0.75"/>
      </g>
     </g>
    </g>
    <g id="ytick_32">
     <g id="line2d_141">
      <g>
       <use xlink:href="#m426a9149c2" x="61.62" y="70.39755" style="fill: #ffffff; stroke: #000000; stroke-width: 0.75"/>
      </g>
     </g>
     <g id="line2d_142">
      <g>
       <use xlink:href="#m21fca21197" x="414.302235" y="70.39755" style="fill: #ffffff; stroke: #000000; stroke-width: 0.75"/>
      </g>
     </g>
    </g>
    <g id="ytick_33">
     <g id="line2d_143">
      <g>
       <use xlink:href="#m426a9149c2" x="61.62" y="62.611582" style="fill: #ffffff; stroke: #000000; stroke-width: 0.75"/>
      </g>
     </g>
     <g id="line2d_144">
      <g>
       <use xlink:href="#m21fca21197" x="414.302235" y="62.611582" style="fill: #ffffff; stroke: #000000; stroke-width: 0.75"/>
      </g>
     </g>
    </g>
    <g id="ytick_34">
     <g id="line2d_145">
      <g>
       <use xlink:href="#m426a9149c2" x="61.62" y="54.825614" style="fill: #ffffff; stroke: #000000; stroke-width: 0.75"/>
      </g>
     </g>
     <g id="line2d_146">
      <g>
       <use xlink:href="#m21fca21197" x="414.302235" y="54.825614" style="fill: #ffffff; stroke: #000000; stroke-width: 0.75"/>
      </g>
     </g>
    </g>
    <g id="ytick_35">
     <g id="line2d_147">
      <g>
       <use xlink:href="#m426a9149c2" x="61.62" y="47.039646" style="fill: #ffffff; stroke: #000000; stroke-width: 0.75"/>
      </g>
     </g>
     <g id="line2d_148">
      <g>
       <use xlink:href="#m21fca21197" x="414.302235" y="47.039646" style="fill: #ffffff; stroke: #000000; stroke-width: 0.75"/>
      </g>
     </g>
    </g>
    <g id="ytick_36">
     <g id="line2d_149">
      <g>
       <use xlink:href="#m426a9149c2" x="61.62" y="31.46771" style="fill: #ffffff; stroke: #000000; stroke-width: 0.75"/>
      </g>
     </g>
     <g id="line2d_150">
      <g>
       <use xlink:href="#m21fca21197" x="414.302235" y="31.46771" style="fill: #ffffff; stroke: #000000; stroke-width: 0.75"/>
      </g>
     </g>
    </g>
    <g id="ytick_37">
     <g id="line2d_151">
      <g>
       <use xlink:href="#m426a9149c2" x="61.62" y="23.681742" style="fill: #ffffff; stroke: #000000; stroke-width: 0.75"/>
      </g>
     </g>
     <g id="line2d_152">
      <g>
       <use xlink:href="#m21fca21197" x="414.302235" y="23.681742" style="fill: #ffffff; stroke: #000000; stroke-width: 0.75"/>
      </g>
     </g>
    </g>
    <g id="ytick_38">
     <g id="line2d_153">
      <g>
       <use xlink:href="#m426a9149c2" x="61.62" y="15.895774" style="fill: #ffffff; stroke: #000000; stroke-width: 0.75"/>
      </g>
     </g>
     <g id="line2d_154">
      <g>
       <use xlink:href="#m21fca21197" x="414.302235" y="15.895774" style="fill: #ffffff; stroke: #000000; stroke-width: 0.75"/>
      </g>
     </g>
    </g>
    <g id="text_16">
     <!-- Density (kg/m$^3$) -->
     <g transform="translate(27.51 204.105) rotate(-90) scale(0.13 -0.13)">
      <defs>
       <path id="TimesNewRomanPSMT-44" d="M 109 0 
L 109 116 
L 269 116 
Q 538 116 650 288 
Q 719 391 719 750 
L 719 3488 
Q 719 3884 631 3984 
Q 509 4122 269 4122 
L 109 4122 
L 109 4238 
L 1834 4238 
Q 2784 4238 3279 4022 
Q 3775 3806 4076 3303 
Q 4378 2800 4378 2141 
Q 4378 1256 3841 663 
Q 3238 0 2003 0 
L 109 0 
z
M 1319 306 
Q 1716 219 1984 219 
Q 2709 219 3187 728 
Q 3666 1238 3666 2109 
Q 3666 2988 3187 3494 
Q 2709 4000 1959 4000 
Q 1678 4000 1319 3909 
L 1319 306 
z
" transform="scale(0.015625)"/>
       <path id="TimesNewRomanPSMT-6e" d="M 1034 2341 
Q 1538 2947 1994 2947 
Q 2228 2947 2397 2830 
Q 2566 2713 2666 2444 
Q 2734 2256 2734 1869 
L 2734 647 
Q 2734 375 2778 278 
Q 2813 200 2889 156 
Q 2966 113 3172 113 
L 3172 0 
L 1756 0 
L 1756 113 
L 1816 113 
Q 2016 113 2095 173 
Q 2175 234 2206 353 
Q 2219 400 2219 647 
L 2219 1819 
Q 2219 2209 2117 2386 
Q 2016 2563 1775 2563 
Q 1403 2563 1034 2156 
L 1034 647 
Q 1034 356 1069 288 
Q 1113 197 1189 155 
Q 1266 113 1500 113 
L 1500 0 
L 84 0 
L 84 113 
L 147 113 
Q 366 113 442 223 
Q 519 334 519 647 
L 519 1709 
Q 519 2225 495 2337 
Q 472 2450 423 2490 
Q 375 2531 294 2531 
Q 206 2531 84 2484 
L 38 2597 
L 900 2947 
L 1034 2947 
L 1034 2341 
z
" transform="scale(0.015625)"/>
       <path id="TimesNewRomanPSMT-69" d="M 928 4444 
Q 1059 4444 1151 4351 
Q 1244 4259 1244 4128 
Q 1244 3997 1151 3903 
Q 1059 3809 928 3809 
Q 797 3809 703 3903 
Q 609 3997 609 4128 
Q 609 4259 701 4351 
Q 794 4444 928 4444 
z
M 1188 2947 
L 1188 647 
Q 1188 378 1227 289 
Q 1266 200 1342 156 
Q 1419 113 1622 113 
L 1622 0 
L 231 0 
L 231 113 
Q 441 113 512 153 
Q 584 194 626 287 
Q 669 381 669 647 
L 669 1750 
Q 669 2216 641 2353 
Q 619 2453 572 2492 
Q 525 2531 444 2531 
Q 356 2531 231 2484 
L 188 2597 
L 1050 2947 
L 1188 2947 
z
" transform="scale(0.015625)"/>
       <path id="TimesNewRomanPSMT-74" d="M 1031 3803 
L 1031 2863 
L 1700 2863 
L 1700 2644 
L 1031 2644 
L 1031 788 
Q 1031 509 1111 412 
Q 1191 316 1316 316 
Q 1419 316 1516 380 
Q 1613 444 1666 569 
L 1788 569 
Q 1678 263 1478 108 
Q 1278 -47 1066 -47 
Q 922 -47 784 33 
Q 647 113 581 261 
Q 516 409 516 719 
L 516 2644 
L 63 2644 
L 63 2747 
Q 234 2816 414 2980 
Q 594 3144 734 3369 
Q 806 3488 934 3803 
L 1031 3803 
z
" transform="scale(0.015625)"/>
       <path id="TimesNewRomanPSMT-79" d="M 38 2863 
L 1372 2863 
L 1372 2747 
L 1306 2747 
Q 1166 2747 1095 2686 
Q 1025 2625 1025 2534 
Q 1025 2413 1128 2197 
L 1825 753 
L 2466 2334 
Q 2519 2463 2519 2588 
Q 2519 2644 2497 2672 
Q 2472 2706 2419 2726 
Q 2366 2747 2231 2747 
L 2231 2863 
L 3163 2863 
L 3163 2747 
Q 3047 2734 2984 2696 
Q 2922 2659 2847 2556 
Q 2819 2513 2741 2316 
L 1575 -541 
Q 1406 -956 1132 -1168 
Q 859 -1381 606 -1381 
Q 422 -1381 303 -1275 
Q 184 -1169 184 -1031 
Q 184 -900 270 -820 
Q 356 -741 506 -741 
Q 609 -741 788 -809 
Q 913 -856 944 -856 
Q 1038 -856 1148 -759 
Q 1259 -663 1372 -384 
L 1575 113 
L 547 2272 
Q 500 2369 397 2513 
Q 319 2622 269 2659 
Q 197 2709 38 2747 
L 38 2863 
z
" transform="scale(0.015625)"/>
       <path id="TimesNewRomanPSMT-6b" d="M 1047 4444 
L 1047 1597 
L 1775 2259 
Q 2006 2472 2044 2528 
Q 2069 2566 2069 2603 
Q 2069 2666 2017 2711 
Q 1966 2756 1847 2763 
L 1847 2863 
L 3091 2863 
L 3091 2763 
Q 2834 2756 2664 2684 
Q 2494 2613 2291 2428 
L 1556 1750 
L 2291 822 
Q 2597 438 2703 334 
Q 2853 188 2966 144 
Q 3044 113 3238 113 
L 3238 0 
L 1847 0 
L 1847 113 
Q 1966 116 2008 148 
Q 2050 181 2050 241 
Q 2050 313 1925 472 
L 1047 1594 
L 1047 644 
Q 1047 366 1086 278 
Q 1125 191 1197 153 
Q 1269 116 1509 113 
L 1509 0 
L 53 0 
L 53 113 
Q 272 113 381 166 
Q 447 200 481 272 
Q 528 375 528 628 
L 528 3234 
Q 528 3731 506 3842 
Q 484 3953 434 3995 
Q 384 4038 303 4038 
Q 238 4038 106 3984 
L 53 4094 
L 903 4444 
L 1047 4444 
z
" transform="scale(0.015625)"/>
       <path id="TimesNewRomanPSMT-67" d="M 966 1044 
Q 703 1172 562 1401 
Q 422 1631 422 1909 
Q 422 2334 742 2640 
Q 1063 2947 1563 2947 
Q 1972 2947 2272 2747 
L 2878 2747 
Q 3013 2747 3034 2739 
Q 3056 2731 3066 2713 
Q 3084 2684 3084 2613 
Q 3084 2531 3069 2500 
Q 3059 2484 3036 2475 
Q 3013 2466 2878 2466 
L 2506 2466 
Q 2681 2241 2681 1891 
Q 2681 1491 2375 1206 
Q 2069 922 1553 922 
Q 1341 922 1119 984 
Q 981 866 932 777 
Q 884 688 884 625 
Q 884 572 936 522 
Q 988 472 1138 450 
Q 1225 438 1575 428 
Q 2219 413 2409 384 
Q 2700 344 2873 169 
Q 3047 -6 3047 -263 
Q 3047 -616 2716 -925 
Q 2228 -1381 1444 -1381 
Q 841 -1381 425 -1109 
Q 191 -953 191 -784 
Q 191 -709 225 -634 
Q 278 -519 444 -313 
Q 466 -284 763 25 
Q 600 122 533 198 
Q 466 275 466 372 
Q 466 481 555 628 
Q 644 775 966 1044 
z
M 1509 2797 
Q 1278 2797 1122 2612 
Q 966 2428 966 2047 
Q 966 1553 1178 1281 
Q 1341 1075 1591 1075 
Q 1828 1075 1981 1253 
Q 2134 1431 2134 1813 
Q 2134 2309 1919 2591 
Q 1759 2797 1509 2797 
z
M 934 0 
Q 788 -159 713 -296 
Q 638 -434 638 -550 
Q 638 -700 819 -813 
Q 1131 -1006 1722 -1006 
Q 2284 -1006 2551 -807 
Q 2819 -609 2819 -384 
Q 2819 -222 2659 -153 
Q 2497 -84 2016 -72 
Q 1313 -53 934 0 
z
" transform="scale(0.015625)"/>
       <path id="TimesNewRomanPSMT-2f" d="M 1794 4444 
L 259 -88 
L 9 -88 
L 1544 4444 
L 1794 4444 
z
" transform="scale(0.015625)"/>
       <path id="TimesNewRomanPSMT-6d" d="M 1050 2338 
Q 1363 2650 1419 2697 
Q 1559 2816 1721 2881 
Q 1884 2947 2044 2947 
Q 2313 2947 2506 2790 
Q 2700 2634 2766 2338 
Q 3088 2713 3309 2830 
Q 3531 2947 3766 2947 
Q 3994 2947 4170 2830 
Q 4347 2713 4450 2447 
Q 4519 2266 4519 1878 
L 4519 647 
Q 4519 378 4559 278 
Q 4591 209 4675 161 
Q 4759 113 4950 113 
L 4950 0 
L 3538 0 
L 3538 113 
L 3597 113 
Q 3781 113 3884 184 
Q 3956 234 3988 344 
Q 4000 397 4000 647 
L 4000 1878 
Q 4000 2228 3916 2372 
Q 3794 2572 3525 2572 
Q 3359 2572 3192 2489 
Q 3025 2406 2788 2181 
L 2781 2147 
L 2788 2013 
L 2788 647 
Q 2788 353 2820 281 
Q 2853 209 2943 161 
Q 3034 113 3253 113 
L 3253 0 
L 1806 0 
L 1806 113 
Q 2044 113 2133 169 
Q 2222 225 2256 338 
Q 2272 391 2272 647 
L 2272 1878 
Q 2272 2228 2169 2381 
Q 2031 2581 1784 2581 
Q 1616 2581 1450 2491 
Q 1191 2353 1050 2181 
L 1050 647 
Q 1050 366 1089 281 
Q 1128 197 1204 155 
Q 1281 113 1516 113 
L 1516 0 
L 100 0 
L 100 113 
Q 297 113 375 155 
Q 453 197 493 289 
Q 534 381 534 647 
L 534 1741 
Q 534 2213 506 2350 
Q 484 2453 437 2492 
Q 391 2531 309 2531 
Q 222 2531 100 2484 
L 53 2597 
L 916 2947 
L 1050 2947 
L 1050 2338 
z
" transform="scale(0.015625)"/>
       <path id="STIXGeneral-Regular-33" d="M 390 3264 
L 288 3290 
Q 435 3770 748 4048 
Q 1062 4326 1542 4326 
Q 1990 4326 2265 4083 
Q 2541 3840 2541 3450 
Q 2541 2925 1946 2566 
Q 2298 2413 2477 2227 
Q 2758 1914 2758 1402 
Q 2758 890 2464 506 
Q 2246 211 1840 60 
Q 1434 -90 979 -90 
Q 262 -90 262 275 
Q 262 378 339 442 
Q 416 506 525 506 
Q 685 506 915 339 
Q 1197 141 1466 141 
Q 1818 141 2058 425 
Q 2298 710 2298 1120 
Q 2298 1856 1632 2048 
Q 1434 2112 979 2112 
L 979 2202 
Q 1338 2323 1517 2432 
Q 2035 2726 2035 3290 
Q 2035 3610 1852 3776 
Q 1670 3942 1344 3942 
Q 768 3942 390 3264 
z
" transform="scale(0.015625)"/>
      </defs>
      <use xlink:href="#TimesNewRomanPSMT-44" transform="translate(0 0.409375)"/>
      <use xlink:href="#TimesNewRomanPSMT-65" transform="translate(72.216797 0.409375)"/>
      <use xlink:href="#TimesNewRomanPSMT-6e" transform="translate(116.601562 0.409375)"/>
      <use xlink:href="#TimesNewRomanPSMT-73" transform="translate(166.601562 0.409375)"/>
      <use xlink:href="#TimesNewRomanPSMT-69" transform="translate(205.517578 0.409375)"/>
      <use xlink:href="#TimesNewRomanPSMT-74" transform="translate(233.300781 0.409375)"/>
      <use xlink:href="#TimesNewRomanPSMT-79" transform="translate(261.083984 0.409375)"/>
      <use xlink:href="#TimesNewRomanPSMT-20" transform="translate(311.083984 0.409375)"/>
      <use xlink:href="#TimesNewRomanPSMT-28" transform="translate(336.083984 0.409375)"/>
      <use xlink:href="#TimesNewRomanPSMT-6b" transform="translate(369.384766 0.409375)"/>
      <use xlink:href="#TimesNewRomanPSMT-67" transform="translate(419.384766 0.409375)"/>
      <use xlink:href="#TimesNewRomanPSMT-2f" transform="translate(469.384766 0.409375)"/>
      <use xlink:href="#TimesNewRomanPSMT-6d" transform="translate(497.167969 0.409375)"/>
      <use xlink:href="#STIXGeneral-Regular-33" transform="translate(576.494453 35.684375) scale(0.7)"/>
      <use xlink:href="#TimesNewRomanPSMT-29" transform="translate(615.903817 0.409375)"/>
     </g>
    </g>
   </g>
   <g id="line2d_155">
    <path d="M 398.271221 26.532273 
L 398.232501 26.532338 
L 398.193781 26.532404 
L 355.67533 26.604482 
L 313.156879 26.676708 
L 270.638427 26.749082 
L 266.386582 26.756328 
L 262.134737 26.763575 
L 261.893023 26.763987 
L 261.651309 26.764399 
L 261.167881 26.765223 
L 260.684453 26.766047 
L 260.201025 26.766871 
L 259.234169 26.768519 
L 258.267313 26.770168 
L 258.022104 26.770586 
L 257.776894 26.771004 
L 257.286475 26.77184 
L 256.796057 28.852594 
L 256.305638 32.051876 
L 255.751434 35.598391 
L 255.197229 39.073891 
L 254.643025 42.480491 
L 254.088821 45.820209 
L 248.546779 75.931347 
L 243.004737 101.092376 
L 237.462696 122.424271 
L 231.920654 140.733209 
L 223.379008 164.359242 
L 214.837362 183.726308 
L 206.295715 199.877169 
L 197.754069 213.539557 
L 189.212423 225.236747 
L 179.515162 236.619004 
L 169.817901 246.381933 
L 160.12064 254.836697 
L 150.423379 262.219113 
L 140.726118 268.711108 
L 131.028857 274.455219 
L 123.449817 278.497845 
L 115.870777 282.197557 
L 108.291738 285.591981 
L 102.158567 288.137529 
L 96.025395 290.519057 
L 89.892224 292.749663 
L 84.920354 294.455184 
L 79.948483 296.074754 
L 77.651011 296.795533 
" clip-path="url(#p3bbff2db3b)" style="fill: none; stroke: #000000; stroke-width: 1.25; stroke-linecap: square"/>
   </g>
   <g id="line2d_156">
    <path d="M 398.271225 26.532273 
L 398.232501 26.532338 
L 398.193781 26.532404 
L 355.679674 26.604475 
L 313.165517 26.676693 
L 270.65136 26.74906 
L 266.399892 26.756305 
L 262.148476 26.763551 
L 260.44791 26.76645 
L 258.747344 26.769349 
L 255.346211 26.791569 
L 254.665985 26.834283 
L 253.985758 26.925675 
L 252.625305 27.355815 
L 251.264852 28.301026 
L 249.904399 29.983357 
L 248.238607 33.333175 
L 246.572814 38.350779 
L 244.907022 45.169598 
L 243.24123 53.769201 
L 240.577454 70.727081 
L 237.913679 90.291766 
L 235.249903 110.383137 
L 234.811211 113.58389 
L 234.372518 116.72722 
L 233.933826 119.803811 
L 233.495133 122.804808 
L 232.617748 128.547378 
L 231.740363 133.89644 
L 230.862978 138.806346 
L 229.985593 143.247208 
L 229.108208 147.207939 
L 227.103534 154.557964 
L 225.4557 159.244826 
L 223.807866 163.466674 
L 222.160033 167.527827 
L 220.512199 171.438828 
L 218.864365 175.207735 
L 215.568697 182.348685 
L 212.27303 189.004604 
L 208.977362 195.222444 
L 205.681695 201.043281 
L 198.282109 212.845406 
L 190.882524 223.157906 
L 183.482938 232.239527 
L 176.083353 240.292218 
L 168.683767 247.475882 
L 160.127804 254.865748 
L 151.571841 261.422962 
L 143.015877 267.273768 
L 134.459914 272.519848 
L 125.903951 277.243987 
L 117.347987 281.514229 
L 110.636101 284.583392 
L 103.924215 287.43126 
L 97.212329 290.078006 
L 91.777431 292.086007 
L 86.342534 293.982062 
L 80.907636 295.773662 
L 77.651011 296.799987 
" clip-path="url(#p3bbff2db3b)" style="fill: none; stroke: #fb694a; stroke-width: 1.25; stroke-linecap: square"/>
   </g>
   <g id="line2d_157">
    <path d="M 398.271224 26.532273 
L 398.232501 26.532338 
L 398.193781 26.532404 
L 228.13715 26.821576 
L 227.731968 26.822268 
L 227.326787 26.82296 
L 226.516423 26.824344 
L 225.70606 26.825727 
L 224.895697 26.829515 
L 224.555143 26.844112 
L 224.214589 26.880428 
L 223.533482 27.056567 
L 222.852374 27.430316 
L 222.171267 28.066875 
L 220.812529 30.343619 
L 219.45379 34.252574 
L 218.095052 40.030423 
L 216.736314 47.785176 
L 214.167164 67.695414 
L 211.598015 93.294242 
L 209.028865 122.164415 
L 206.459716 151.160182 
L 204.66637 169.716432 
L 202.873024 185.754605 
L 201.480283 196.007474 
L 200.087542 204.131532 
L 198.694801 210.129552 
L 197.30206 214.218533 
L 196.15905 216.470875 
L 195.016039 218.162128 
L 193.873029 219.73238 
L 192.730018 221.271647 
L 191.587008 222.780811 
L 189.300987 225.712195 
L 187.014966 228.532943 
L 184.728945 231.249003 
L 182.442924 233.865904 
L 175.981844 240.769338 
L 169.520765 247.022169 
L 163.059686 252.70871 
L 156.598606 257.899224 
L 150.137527 262.65272 
L 142.601719 267.710939 
L 135.065912 272.308914 
L 127.530104 276.502339 
L 119.994296 280.338096 
L 112.458489 283.85591 
L 104.922681 287.089639 
L 98.997652 289.451737 
L 93.072624 291.668542 
L 87.147595 293.751025 
L 82.34744 295.346414 
L 77.651011 296.83276 
" clip-path="url(#p3bbff2db3b)" style="fill: none; stroke: #f14432; stroke-width: 1.25; stroke-linecap: square"/>
   </g>
   <g id="line2d_158">
    <path d="M 398.271223 26.532273 
L 398.232501 26.532338 
L 398.193781 26.532404 
L 228.13715 26.821576 
L 219.138405 26.836944 
L 210.13966 26.852319 
L 201.165521 26.867658 
L 200.386758 26.868989 
L 199.607995 26.870321 
L 198.050469 26.872984 
L 196.492944 26.875648 
L 194.935418 26.887606 
L 194.62289 26.919052 
L 194.310362 26.985698 
L 193.685306 27.273398 
L 193.06025 27.84095 
L 192.435194 28.766876 
L 191.225825 31.815217 
L 190.016456 36.810702 
L 188.807087 43.964848 
L 187.597718 53.344432 
L 185.201805 78.117962 
L 182.805892 109.405482 
L 180.86207 137.403429 
L 178.918248 165.506574 
L 176.974425 191.56912 
L 175.578199 207.947543 
L 175.298954 210.926701 
L 175.019708 213.798216 
L 174.740463 216.558977 
L 174.461218 219.20624 
L 173.902727 224.151199 
L 173.344237 228.618973 
L 172.785746 232.602177 
L 172.227256 236.100546 
L 171.668765 239.121307 
L 170.281584 244.675174 
L 169.285439 247.160129 
L 168.289293 248.698765 
L 168.090064 248.92557 
L 167.890834 249.133659 
L 167.691605 249.326984 
L 167.492376 249.509709 
L 167.093918 249.860777 
L 166.69546 250.208381 
L 166.297001 250.554018 
L 165.898543 250.897702 
L 165.500085 251.23945 
L 161.515501 254.553763 
L 157.530918 257.690463 
L 153.546335 260.662692 
L 149.561752 263.482311 
L 145.577169 266.160056 
L 138.561546 270.559083 
L 131.545922 274.594757 
L 124.530299 278.30686 
L 117.514676 281.729438 
L 110.499052 284.891782 
L 103.483429 287.819217 
L 97.682558 290.078084 
L 91.881687 292.202375 
L 86.080817 294.201879 
L 81.356297 295.74428 
L 77.651011 296.902899 
" clip-path="url(#p3bbff2db3b)" style="fill: none; stroke: #d92523; stroke-width: 1.25; stroke-linecap: square"/>
   </g>
   <g id="line2d_159">
    <path d="M 398.271222 26.532273 
L 398.232501 26.532338 
L 398.193781 26.532404 
L 228.13715 26.821576 
L 190.515652 26.885872 
L 181.110232 26.901965 
L 171.704848 26.918065 
L 171.358301 26.918658 
L 171.011753 26.919252 
L 170.318658 26.920439 
L 169.625564 26.921625 
L 168.932469 26.922812 
L 167.54628 26.926266 
L 166.840668 27.01373 
L 166.295278 27.273022 
L 165.887083 27.637453 
L 165.478888 28.185503 
L 164.709444 29.821184 
L 163.940001 32.381845 
L 163.170557 35.993057 
L 162.018043 43.541453 
L 160.86553 53.750482 
L 159.713016 66.562914 
L 158.560503 81.760087 
L 157.068932 104.369069 
L 155.577362 129.302647 
L 154.085792 155.2755 
L 152.594221 180.886206 
L 151.102651 204.742855 
L 149.334577 229.057818 
L 149.05939 232.356422 
L 148.784203 235.511075 
L 148.509017 238.518363 
L 148.23383 241.375478 
L 147.958643 244.080223 
L 147.40827 249.02699 
L 146.857896 253.353975 
L 146.307523 257.067194 
L 145.757149 260.183539 
L 145.206776 262.73087 
L 144.656402 264.748105 
L 143.866514 266.819982 
L 143.076625 268.097677 
L 142.286737 268.830253 
L 141.496848 269.329091 
L 140.70696 269.808061 
L 139.917072 270.282434 
L 139.27957 270.661988 
L 138.642068 271.038621 
L 138.004566 271.412365 
L 137.367063 271.783249 
L 136.729561 272.151305 
L 136.092059 272.51656 
L 134.817055 273.238787 
L 133.542051 273.950157 
L 132.267047 274.650891 
L 130.992043 275.341204 
L 129.717039 276.021305 
L 123.802052 279.04858 
L 117.887065 281.87906 
L 111.972078 284.529368 
L 106.057091 287.014234 
L 100.142104 289.346748 
L 94.227117 291.53857 
L 88.31213 293.600114 
L 83.46178 295.19995 
L 78.61143 296.723108 
L 77.651011 297.01599 
" clip-path="url(#p3bbff2db3b)" style="fill: none; stroke: #bc141a; stroke-width: 1.25; stroke-linecap: square"/>
   </g>
   <g id="line2d_160">
    <path d="M 398.27122 26.532273 
L 398.232501 26.532338 
L 398.193781 26.532404 
L 228.13715 26.821576 
L 190.515652 26.885872 
L 152.894117 26.950287 
L 143.488697 26.966409 
L 143.335992 26.966671 
L 143.183287 26.966933 
L 142.877878 26.967457 
L 142.572469 26.96798 
L 142.26706 26.969011 
L 141.945479 26.985963 
L 141.623898 27.049947 
L 140.980737 27.435963 
L 140.337575 28.338332 
L 139.694414 29.93283 
L 138.689122 34.136552 
L 137.683831 40.745246 
L 136.67854 49.951016 
L 135.673248 61.773427 
L 134.131507 84.631342 
L 132.589765 112.17817 
L 131.048023 142.714625 
L 129.879001 166.588923 
L 128.70998 190.000366 
L 127.540959 211.979801 
L 126.371938 231.645971 
L 125.202916 248.286027 
L 124.347059 258.270956 
L 124.175888 260.034474 
L 124.004717 261.719539 
L 123.833545 263.32621 
L 123.662374 264.854714 
L 123.320031 267.678988 
L 122.977688 270.197561 
L 122.635346 272.418291 
L 122.293003 274.351602 
L 121.95066 276.010398 
L 121.141026 278.93413 
L 120.544999 280.308005 
L 119.948971 281.161528 
L 119.829766 281.28267 
L 119.710561 281.390326 
L 119.591355 281.485892 
L 119.47215 281.570815 
L 119.233739 281.714786 
L 118.995328 281.834894 
L 118.756917 281.944644 
L 118.518506 282.053272 
L 118.280095 282.161619 
L 117.633966 282.453843 
L 116.987838 282.744023 
L 116.341709 283.032176 
L 115.69558 283.31832 
L 111.771794 285.013921 
L 107.848008 286.640029 
L 103.924222 288.200271 
L 100.000436 289.698008 
L 96.076651 291.136363 
L 91.486809 292.747394 
L 86.896967 294.285423 
L 82.307126 295.754391 
L 77.717284 297.157924 
L 77.651011 297.177727 
" clip-path="url(#p3bbff2db3b)" style="fill: none; stroke: #980c13; stroke-width: 1.25; stroke-linecap: square"/>
   </g>
   <g id="patch_3">
    <path d="M 61.62 310.71 
L 61.62 13 
" style="fill: none; stroke: #000000; stroke-width: 1.25; stroke-linejoin: miter; stroke-linecap: square"/>
   </g>
   <g id="patch_4">
    <path d="M 414.302235 310.71 
L 414.302235 13 
" style="fill: none; stroke: #000000; stroke-width: 1.25; stroke-linejoin: miter; stroke-linecap: square"/>
   </g>
   <g id="patch_5">
    <path d="M 61.62 310.71 
L 414.302235 310.71 
" style="fill: none; stroke: #000000; stroke-width: 1.25; stroke-linejoin: miter; stroke-linecap: square"/>
   </g>
   <g id="patch_6">
    <path d="M 61.62 13 
L 414.302235 13 
" style="fill: none; stroke: #000000; stroke-width: 1.25; stroke-linejoin: miter; stroke-linecap: square"/>
   </g>
   <g id="legend_1">
    <g id="patch_7">
     <path d="M 260.632235 299.71 
L 401.102235 299.71 
Q 403.302235 299.71 403.302235 297.51 
L 403.302235 211.49 
Q 403.302235 209.29 401.102235 209.29 
L 260.632235 209.29 
Q 258.432235 209.29 258.432235 211.49 
L 258.432235 297.51 
Q 258.432235 299.71 260.632235 299.71 
z
" style="fill: #ffffff; stroke: #000000; stroke-linejoin: miter"/>
    </g>
    <g id="line2d_161">
     <path d="M 265.032235 219.74 
L 271.907235 219.74 
L 278.782235 219.74 
" style="fill: none; stroke: #000000; stroke-width: 1.25; stroke-linecap: square"/>
    </g>
    <g id="text_17">
     <!-- $q_\text{onset}=0.00$, equilibrium -->
     <g transform="translate(287.582235 223.59) scale(0.11 -0.11)">
      <defs>
       <path id="STIXGeneral-Italic-71" d="M 3098 2739 
L 2042 -966 
Q 2029 -1018 2029 -1037 
Q 2029 -1235 2394 -1235 
L 2490 -1235 
L 2490 -1338 
L 973 -1338 
L 973 -1235 
Q 1267 -1216 1382 -1139 
Q 1498 -1062 1555 -877 
L 2131 979 
Q 1754 378 1466 154 
Q 1178 -70 800 -70 
Q 499 -70 329 128 
Q 160 326 160 672 
Q 160 1165 445 1670 
Q 730 2176 1168 2499 
Q 1606 2822 2035 2822 
Q 2438 2822 2528 2426 
L 2630 2739 
L 3098 2739 
z
M 2432 2298 
Q 2432 2458 2323 2570 
Q 2214 2682 2054 2682 
Q 1792 2682 1459 2368 
Q 1133 2054 921 1606 
Q 710 1158 710 762 
Q 710 269 1050 269 
Q 1312 269 1574 499 
Q 1901 781 2166 1341 
Q 2432 1901 2432 2298 
z
" transform="scale(0.015625)"/>
       <path id="STIXGeneral-Regular-6f" d="M 3008 1478 
Q 3008 806 2608 371 
Q 2208 -64 1568 -64 
Q 979 -64 582 368 
Q 186 800 186 1459 
Q 186 2125 582 2534 
Q 979 2944 1626 2944 
Q 2221 2944 2614 2537 
Q 3008 2131 3008 1478 
z
M 2432 1306 
Q 2432 2035 2112 2445 
Q 1856 2765 1504 2765 
Q 1171 2765 966 2493 
Q 762 2221 762 1747 
Q 762 928 1101 435 
Q 1318 115 1677 115 
Q 2029 115 2230 432 
Q 2432 749 2432 1306 
z
" transform="scale(0.015625)"/>
       <path id="STIXGeneral-Regular-6e" d="M 3104 0 
L 1773 0 
L 1779 96 
Q 2016 115 2096 233 
Q 2176 352 2176 672 
L 2176 1946 
Q 2176 2592 1709 2592 
Q 1549 2592 1408 2515 
Q 1267 2438 1050 2227 
L 1050 461 
Q 1050 269 1136 192 
Q 1222 115 1466 96 
L 1466 0 
L 115 0 
L 115 96 
Q 358 115 435 214 
Q 512 314 512 602 
L 512 2157 
Q 512 2394 467 2483 
Q 422 2573 288 2573 
Q 160 2573 102 2547 
L 102 2656 
Q 550 2784 979 2944 
L 1030 2925 
L 1030 2426 
L 1037 2426 
Q 1491 2944 1958 2944 
Q 2323 2944 2518 2688 
Q 2714 2432 2714 1958 
L 2714 544 
Q 2714 288 2790 205 
Q 2867 122 3104 96 
L 3104 0 
z
" transform="scale(0.015625)"/>
       <path id="STIXGeneral-Regular-73" d="M 998 1926 
L 1664 1523 
Q 1984 1331 2105 1164 
Q 2227 998 2227 736 
Q 2227 416 1961 176 
Q 1696 -64 1331 -64 
Q 1030 -64 864 -6 
Q 691 51 570 51 
Q 461 51 416 -26 
L 333 -26 
L 333 979 
L 435 979 
Q 538 512 730 294 
Q 922 77 1248 77 
Q 1485 77 1632 211 
Q 1779 346 1779 550 
Q 1779 845 1440 1030 
L 1094 1222 
Q 326 1651 326 2150 
Q 326 2522 566 2730 
Q 806 2938 1210 2938 
Q 1491 2938 1638 2867 
Q 1754 2816 1818 2816 
Q 1862 2816 1920 2880 
L 1990 2880 
L 2022 2010 
L 1926 2010 
Q 1818 2445 1654 2621 
Q 1491 2797 1203 2797 
Q 986 2797 854 2688 
Q 723 2579 723 2362 
Q 723 2253 796 2128 
Q 870 2003 998 1926 
z
" transform="scale(0.015625)"/>
       <path id="STIXGeneral-Regular-65" d="M 2611 1050 
L 2714 1005 
Q 2330 -64 1376 -64 
Q 813 -64 486 329 
Q 160 723 160 1389 
Q 160 2074 525 2509 
Q 890 2944 1485 2944 
Q 2061 2944 2374 2502 
Q 2560 2246 2592 1773 
L 621 1773 
Q 646 1370 700 1158 
Q 755 947 915 730 
Q 1184 378 1626 378 
Q 1939 378 2153 531 
Q 2368 685 2611 1050 
z
M 634 1978 
L 1939 1978 
Q 1882 2381 1750 2547 
Q 1619 2714 1312 2714 
Q 1043 2714 864 2525 
Q 685 2336 634 1978 
z
" transform="scale(0.015625)"/>
       <path id="STIXGeneral-Regular-74" d="M 1702 493 
L 1786 422 
Q 1478 -64 1011 -64 
Q 448 -64 448 749 
L 448 2675 
L 109 2675 
Q 83 2694 83 2720 
Q 83 2771 192 2842 
Q 435 2982 813 3526 
Q 826 3546 874 3606 
Q 922 3667 941 3706 
Q 986 3706 986 3622 
L 986 2880 
L 1632 2880 
L 1632 2675 
L 986 2675 
L 986 845 
Q 986 538 1062 403 
Q 1139 269 1318 269 
Q 1510 269 1702 493 
z
" transform="scale(0.015625)"/>
       <path id="STIXGeneral-Regular-3d" d="M 4077 2048 
L 307 2048 
L 307 2470 
L 4077 2470 
L 4077 2048 
z
M 4077 768 
L 307 768 
L 307 1190 
L 4077 1190 
L 4077 768 
z
" transform="scale(0.015625)"/>
       <path id="STIXGeneral-Regular-30" d="M 3046 2112 
Q 3046 1683 2963 1302 
Q 2880 922 2717 602 
Q 2554 282 2266 96 
Q 1978 -90 1600 -90 
Q 1210 -90 915 108 
Q 621 307 461 640 
Q 301 973 227 1350 
Q 154 1728 154 2150 
Q 154 2746 301 3222 
Q 448 3699 790 4012 
Q 1133 4326 1626 4326 
Q 2253 4326 2649 3712 
Q 3046 3098 3046 2112 
z
M 2432 2080 
Q 2432 3091 2217 3625 
Q 2003 4160 1587 4160 
Q 1190 4160 979 3622 
Q 768 3085 768 2106 
Q 768 1120 979 598 
Q 1190 77 1600 77 
Q 2003 77 2217 598 
Q 2432 1120 2432 2080 
z
" transform="scale(0.015625)"/>
       <path id="STIXGeneral-Regular-2e" d="M 1158 275 
Q 1158 134 1052 32 
Q 947 -70 800 -70 
Q 653 -70 550 32 
Q 448 134 448 281 
Q 448 429 553 534 
Q 659 640 806 640 
Q 947 640 1052 531 
Q 1158 422 1158 275 
z
" transform="scale(0.015625)"/>
       <path id="TimesNewRomanPSMT-2c" d="M 344 -1066 
L 344 -928 
Q 666 -822 842 -598 
Q 1019 -375 1019 -125 
Q 1019 -66 991 -25 
Q 969 3 947 3 
Q 913 3 797 -59 
Q 741 -88 678 -88 
Q 525 -88 434 3 
Q 344 94 344 253 
Q 344 406 461 515 
Q 578 625 747 625 
Q 953 625 1114 445 
Q 1275 266 1275 -31 
Q 1275 -353 1051 -629 
Q 828 -906 344 -1066 
z
" transform="scale(0.015625)"/>
       <path id="TimesNewRomanPSMT-71" d="M 2734 2947 
L 2734 -734 
Q 2734 -1009 2771 -1087 
Q 2809 -1166 2889 -1209 
Q 2969 -1253 3200 -1253 
L 3200 -1369 
L 1756 -1369 
L 1756 -1253 
L 1816 -1253 
Q 1991 -1253 2081 -1203 
Q 2144 -1169 2181 -1080 
Q 2219 -991 2219 -734 
L 2219 497 
Q 1934 159 1721 35 
Q 1509 -88 1281 -88 
Q 866 -88 539 290 
Q 213 669 213 1303 
Q 213 2031 644 2489 
Q 1075 2947 1684 2947 
Q 1863 2947 2013 2897 
Q 2163 2847 2281 2747 
Q 2463 2834 2628 2947 
L 2734 2947 
z
M 2219 694 
L 2219 2038 
Q 2219 2272 2158 2406 
Q 2097 2541 1940 2634 
Q 1784 2728 1588 2728 
Q 1238 2728 988 2431 
Q 738 2134 738 1531 
Q 738 953 992 653 
Q 1247 353 1606 353 
Q 1791 353 1934 433 
Q 2078 513 2219 694 
z
" transform="scale(0.015625)"/>
       <path id="TimesNewRomanPSMT-6c" d="M 1184 4444 
L 1184 647 
Q 1184 378 1223 290 
Q 1263 203 1344 158 
Q 1425 113 1647 113 
L 1647 0 
L 244 0 
L 244 113 
Q 441 113 512 153 
Q 584 194 625 287 
Q 666 381 666 647 
L 666 3247 
Q 666 3731 644 3842 
Q 622 3953 573 3993 
Q 525 4034 450 4034 
Q 369 4034 244 3984 
L 191 4094 
L 1044 4444 
L 1184 4444 
z
" transform="scale(0.015625)"/>
       <path id="TimesNewRomanPSMT-62" d="M 984 2369 
Q 1400 2947 1881 2947 
Q 2322 2947 2650 2570 
Q 2978 2194 2978 1541 
Q 2978 778 2472 313 
Q 2038 -88 1503 -88 
Q 1253 -88 995 3 
Q 738 94 469 275 
L 469 3241 
Q 469 3728 445 3840 
Q 422 3953 372 3993 
Q 322 4034 247 4034 
Q 159 4034 28 3984 
L -16 4094 
L 844 4444 
L 984 4444 
L 984 2369 
z
M 984 2169 
L 984 456 
Q 1144 300 1314 220 
Q 1484 141 1663 141 
Q 1947 141 2192 453 
Q 2438 766 2438 1363 
Q 2438 1913 2192 2208 
Q 1947 2503 1634 2503 
Q 1469 2503 1303 2419 
Q 1178 2356 984 2169 
z
" transform="scale(0.015625)"/>
      </defs>
      <use xlink:href="#STIXGeneral-Italic-71" transform="translate(0 0.5625)"/>
      <use xlink:href="#STIXGeneral-Regular-6f" transform="translate(49.999985 -12.665625) scale(0.7)"/>
      <use xlink:href="#STIXGeneral-Regular-6e" transform="translate(84.999974 -12.665625) scale(0.7)"/>
      <use xlink:href="#STIXGeneral-Regular-73" transform="translate(119.999963 -12.665625) scale(0.7)"/>
      <use xlink:href="#STIXGeneral-Regular-65" transform="translate(147.229959 -12.665625) scale(0.7)"/>
      <use xlink:href="#STIXGeneral-Regular-74" transform="translate(178.309955 -12.665625) scale(0.7)"/>
      <use xlink:href="#STIXGeneral-Regular-3d" transform="translate(216.619318 0.5625)"/>
      <use xlink:href="#STIXGeneral-Regular-30" transform="translate(299.559299 0.5625)"/>
      <use xlink:href="#STIXGeneral-Regular-2e" transform="translate(349.559283 0.5625)"/>
      <use xlink:href="#STIXGeneral-Regular-30" transform="translate(374.559268 0.5625)"/>
      <use xlink:href="#STIXGeneral-Regular-30" transform="translate(424.559253 0.5625)"/>
      <use xlink:href="#TimesNewRomanPSMT-2c" transform="translate(474.559238 0.5625)"/>
      <use xlink:href="#TimesNewRomanPSMT-20" transform="translate(499.559238 0.5625)"/>
      <use xlink:href="#TimesNewRomanPSMT-65" transform="translate(524.559238 0.5625)"/>
      <use xlink:href="#TimesNewRomanPSMT-71" transform="translate(568.944003 0.5625)"/>
      <use xlink:href="#TimesNewRomanPSMT-75" transform="translate(618.944003 0.5625)"/>
      <use xlink:href="#TimesNewRomanPSMT-69" transform="translate(668.944003 0.5625)"/>
      <use xlink:href="#TimesNewRomanPSMT-6c" transform="translate(696.727206 0.5625)"/>
      <use xlink:href="#TimesNewRomanPSMT-69" transform="translate(724.51041 0.5625)"/>
      <use xlink:href="#TimesNewRomanPSMT-62" transform="translate(752.293613 0.5625)"/>
      <use xlink:href="#TimesNewRomanPSMT-72" transform="translate(802.293613 0.5625)"/>
      <use xlink:href="#TimesNewRomanPSMT-69" transform="translate(835.594394 0.5625)"/>
      <use xlink:href="#TimesNewRomanPSMT-75" transform="translate(863.377597 0.5625)"/>
      <use xlink:href="#TimesNewRomanPSMT-6d" transform="translate(913.377597 0.5625)"/>
     </g>
    </g>
    <g id="line2d_162">
     <path d="M 265.032235 233.16 
L 271.907235 233.16 
L 278.782235 233.16 
" style="fill: none; stroke: #fb694a; stroke-width: 1.25; stroke-linecap: square"/>
    </g>
    <g id="text_18">
     <!-- $q_\text{onset}=0.00$, blending -->
     <g transform="translate(287.582235 237.01) scale(0.11 -0.11)">
      <defs>
       <path id="TimesNewRomanPSMT-64" d="M 2222 322 
Q 2013 103 1813 7 
Q 1613 -88 1381 -88 
Q 913 -88 563 304 
Q 213 697 213 1313 
Q 213 1928 600 2439 
Q 988 2950 1597 2950 
Q 1975 2950 2222 2709 
L 2222 3238 
Q 2222 3728 2198 3840 
Q 2175 3953 2125 3993 
Q 2075 4034 2000 4034 
Q 1919 4034 1784 3984 
L 1744 4094 
L 2597 4444 
L 2738 4444 
L 2738 1134 
Q 2738 631 2761 520 
Q 2784 409 2836 365 
Q 2888 322 2956 322 
Q 3041 322 3181 375 
L 3216 266 
L 2366 -88 
L 2222 -88 
L 2222 322 
z
M 2222 541 
L 2222 2016 
Q 2203 2228 2109 2403 
Q 2016 2578 1861 2667 
Q 1706 2756 1559 2756 
Q 1284 2756 1069 2509 
Q 784 2184 784 1559 
Q 784 928 1059 592 
Q 1334 256 1672 256 
Q 1956 256 2222 541 
z
" transform="scale(0.015625)"/>
      </defs>
      <use xlink:href="#STIXGeneral-Italic-71" transform="translate(0 0.5625)"/>
      <use xlink:href="#STIXGeneral-Regular-6f" transform="translate(49.999985 -12.665625) scale(0.7)"/>
      <use xlink:href="#STIXGeneral-Regular-6e" transform="translate(84.999974 -12.665625) scale(0.7)"/>
      <use xlink:href="#STIXGeneral-Regular-73" transform="translate(119.999963 -12.665625) scale(0.7)"/>
      <use xlink:href="#STIXGeneral-Regular-65" transform="translate(147.229959 -12.665625) scale(0.7)"/>
      <use xlink:href="#STIXGeneral-Regular-74" transform="translate(178.309955 -12.665625) scale(0.7)"/>
      <use xlink:href="#STIXGeneral-Regular-3d" transform="translate(216.619318 0.5625)"/>
      <use xlink:href="#STIXGeneral-Regular-30" transform="translate(299.559299 0.5625)"/>
      <use xlink:href="#STIXGeneral-Regular-2e" transform="translate(349.559283 0.5625)"/>
      <use xlink:href="#STIXGeneral-Regular-30" transform="translate(374.559268 0.5625)"/>
      <use xlink:href="#STIXGeneral-Regular-30" transform="translate(424.559253 0.5625)"/>
      <use xlink:href="#TimesNewRomanPSMT-2c" transform="translate(474.559238 0.5625)"/>
      <use xlink:href="#TimesNewRomanPSMT-20" transform="translate(499.559238 0.5625)"/>
      <use xlink:href="#TimesNewRomanPSMT-62" transform="translate(524.559238 0.5625)"/>
      <use xlink:href="#TimesNewRomanPSMT-6c" transform="translate(574.559238 0.5625)"/>
      <use xlink:href="#TimesNewRomanPSMT-65" transform="translate(602.342441 0.5625)"/>
      <use xlink:href="#TimesNewRomanPSMT-6e" transform="translate(646.727206 0.5625)"/>
      <use xlink:href="#TimesNewRomanPSMT-64" transform="translate(696.727206 0.5625)"/>
      <use xlink:href="#TimesNewRomanPSMT-69" transform="translate(746.727206 0.5625)"/>
      <use xlink:href="#TimesNewRomanPSMT-6e" transform="translate(774.51041 0.5625)"/>
      <use xlink:href="#TimesNewRomanPSMT-67" transform="translate(824.51041 0.5625)"/>
     </g>
    </g>
    <g id="line2d_163">
     <path d="M 265.032235 246.58 
L 271.907235 246.58 
L 278.782235 246.58 
" style="fill: none; stroke: #f14432; stroke-width: 1.25; stroke-linecap: square"/>
    </g>
    <g id="text_19">
     <!-- $q_\text{onset}=0.02$, blending -->
     <g transform="translate(287.582235 250.43) scale(0.11 -0.11)">
      <defs>
       <path id="STIXGeneral-Regular-32" d="M 3034 877 
L 2688 0 
L 186 0 
L 186 77 
L 1325 1286 
Q 1773 1754 1965 2144 
Q 2157 2534 2157 2950 
Q 2157 3379 1920 3616 
Q 1683 3853 1267 3853 
Q 922 3853 720 3673 
Q 518 3494 326 3021 
L 192 3053 
Q 301 3648 630 3987 
Q 960 4326 1523 4326 
Q 2054 4326 2380 4006 
Q 2707 3686 2707 3200 
Q 2707 2477 1888 1613 
L 832 486 
L 2330 486 
Q 2541 486 2665 569 
Q 2790 653 2944 915 
L 3034 877 
z
" transform="scale(0.015625)"/>
      </defs>
      <use xlink:href="#STIXGeneral-Italic-71" transform="translate(0 0.5625)"/>
      <use xlink:href="#STIXGeneral-Regular-6f" transform="translate(49.999985 -12.665625) scale(0.7)"/>
      <use xlink:href="#STIXGeneral-Regular-6e" transform="translate(84.999974 -12.665625) scale(0.7)"/>
      <use xlink:href="#STIXGeneral-Regular-73" transform="translate(119.999963 -12.665625) scale(0.7)"/>
      <use xlink:href="#STIXGeneral-Regular-65" transform="translate(147.229959 -12.665625) scale(0.7)"/>
      <use xlink:href="#STIXGeneral-Regular-74" transform="translate(178.309955 -12.665625) scale(0.7)"/>
      <use xlink:href="#STIXGeneral-Regular-3d" transform="translate(216.619318 0.5625)"/>
      <use xlink:href="#STIXGeneral-Regular-30" transform="translate(299.559299 0.5625)"/>
      <use xlink:href="#STIXGeneral-Regular-2e" transform="translate(349.559283 0.5625)"/>
      <use xlink:href="#STIXGeneral-Regular-30" transform="translate(374.559268 0.5625)"/>
      <use xlink:href="#STIXGeneral-Regular-32" transform="translate(424.559253 0.5625)"/>
      <use xlink:href="#TimesNewRomanPSMT-2c" transform="translate(474.559238 0.5625)"/>
      <use xlink:href="#TimesNewRomanPSMT-20" transform="translate(499.559238 0.5625)"/>
      <use xlink:href="#TimesNewRomanPSMT-62" transform="translate(524.559238 0.5625)"/>
      <use xlink:href="#TimesNewRomanPSMT-6c" transform="translate(574.559238 0.5625)"/>
      <use xlink:href="#TimesNewRomanPSMT-65" transform="translate(602.342441 0.5625)"/>
      <use xlink:href="#TimesNewRomanPSMT-6e" transform="translate(646.727206 0.5625)"/>
      <use xlink:href="#TimesNewRomanPSMT-64" transform="translate(696.727206 0.5625)"/>
      <use xlink:href="#TimesNewRomanPSMT-69" transform="translate(746.727206 0.5625)"/>
      <use xlink:href="#TimesNewRomanPSMT-6e" transform="translate(774.51041 0.5625)"/>
      <use xlink:href="#TimesNewRomanPSMT-67" transform="translate(824.51041 0.5625)"/>
     </g>
    </g>
    <g id="line2d_164">
     <path d="M 265.032235 260 
L 271.907235 260 
L 278.782235 260 
" style="fill: none; stroke: #d92523; stroke-width: 1.25; stroke-linecap: square"/>
    </g>
    <g id="text_20">
     <!-- $q_\text{onset}=0.04$, blending -->
     <g transform="translate(287.582235 263.85) scale(0.11 -0.11)">
      <defs>
       <path id="STIXGeneral-Regular-34" d="M 3027 1069 
L 2368 1069 
L 2368 0 
L 1869 0 
L 1869 1069 
L 77 1069 
L 77 1478 
L 2086 4326 
L 2368 4326 
L 2368 1478 
L 3027 1478 
L 3027 1069 
z
M 1869 1478 
L 1869 3674 
L 333 1478 
L 1869 1478 
z
" transform="scale(0.015625)"/>
      </defs>
      <use xlink:href="#STIXGeneral-Italic-71" transform="translate(0 0.5625)"/>
      <use xlink:href="#STIXGeneral-Regular-6f" transform="translate(49.999985 -12.665625) scale(0.7)"/>
      <use xlink:href="#STIXGeneral-Regular-6e" transform="translate(84.999974 -12.665625) scale(0.7)"/>
      <use xlink:href="#STIXGeneral-Regular-73" transform="translate(119.999963 -12.665625) scale(0.7)"/>
      <use xlink:href="#STIXGeneral-Regular-65" transform="translate(147.229959 -12.665625) scale(0.7)"/>
      <use xlink:href="#STIXGeneral-Regular-74" transform="translate(178.309955 -12.665625) scale(0.7)"/>
      <use xlink:href="#STIXGeneral-Regular-3d" transform="translate(216.619318 0.5625)"/>
      <use xlink:href="#STIXGeneral-Regular-30" transform="translate(299.559299 0.5625)"/>
      <use xlink:href="#STIXGeneral-Regular-2e" transform="translate(349.559283 0.5625)"/>
      <use xlink:href="#STIXGeneral-Regular-30" transform="translate(374.559268 0.5625)"/>
      <use xlink:href="#STIXGeneral-Regular-34" transform="translate(424.559253 0.5625)"/>
      <use xlink:href="#TimesNewRomanPSMT-2c" transform="translate(474.559238 0.5625)"/>
      <use xlink:href="#TimesNewRomanPSMT-20" transform="translate(499.559238 0.5625)"/>
      <use xlink:href="#TimesNewRomanPSMT-62" transform="translate(524.559238 0.5625)"/>
      <use xlink:href="#TimesNewRomanPSMT-6c" transform="translate(574.559238 0.5625)"/>
      <use xlink:href="#TimesNewRomanPSMT-65" transform="translate(602.342441 0.5625)"/>
      <use xlink:href="#TimesNewRomanPSMT-6e" transform="translate(646.727206 0.5625)"/>
      <use xlink:href="#TimesNewRomanPSMT-64" transform="translate(696.727206 0.5625)"/>
      <use xlink:href="#TimesNewRomanPSMT-69" transform="translate(746.727206 0.5625)"/>
      <use xlink:href="#TimesNewRomanPSMT-6e" transform="translate(774.51041 0.5625)"/>
      <use xlink:href="#TimesNewRomanPSMT-67" transform="translate(824.51041 0.5625)"/>
     </g>
    </g>
    <g id="line2d_165">
     <path d="M 265.032235 273.42 
L 271.907235 273.42 
L 278.782235 273.42 
" style="fill: none; stroke: #bc141a; stroke-width: 1.25; stroke-linecap: square"/>
    </g>
    <g id="text_21">
     <!-- $q_\text{onset}=0.06$, blending -->
     <g transform="translate(287.582235 277.27) scale(0.11 -0.11)">
      <defs>
       <path id="STIXGeneral-Regular-36" d="M 2854 4378 
L 2867 4275 
Q 2112 4154 1606 3664 
Q 1101 3174 973 2451 
Q 1344 2739 1786 2739 
Q 2349 2739 2672 2380 
Q 2995 2022 2995 1402 
Q 2995 774 2669 378 
Q 2291 -90 1651 -90 
Q 870 -90 518 557 
Q 218 1107 218 1786 
Q 218 2835 915 3552 
Q 1312 3962 1731 4131 
Q 2150 4301 2854 4378 
z
M 2419 1203 
Q 2419 2445 1555 2445 
Q 1235 2445 1024 2275 
Q 813 2106 813 1702 
Q 813 954 1046 522 
Q 1280 90 1722 90 
Q 2061 90 2240 394 
Q 2419 698 2419 1203 
z
" transform="scale(0.015625)"/>
      </defs>
      <use xlink:href="#STIXGeneral-Italic-71" transform="translate(0 0.5625)"/>
      <use xlink:href="#STIXGeneral-Regular-6f" transform="translate(49.999985 -12.665625) scale(0.7)"/>
      <use xlink:href="#STIXGeneral-Regular-6e" transform="translate(84.999974 -12.665625) scale(0.7)"/>
      <use xlink:href="#STIXGeneral-Regular-73" transform="translate(119.999963 -12.665625) scale(0.7)"/>
      <use xlink:href="#STIXGeneral-Regular-65" transform="translate(147.229959 -12.665625) scale(0.7)"/>
      <use xlink:href="#STIXGeneral-Regular-74" transform="translate(178.309955 -12.665625) scale(0.7)"/>
      <use xlink:href="#STIXGeneral-Regular-3d" transform="translate(216.619318 0.5625)"/>
      <use xlink:href="#STIXGeneral-Regular-30" transform="translate(299.559299 0.5625)"/>
      <use xlink:href="#STIXGeneral-Regular-2e" transform="translate(349.559283 0.5625)"/>
      <use xlink:href="#STIXGeneral-Regular-30" transform="translate(374.559268 0.5625)"/>
      <use xlink:href="#STIXGeneral-Regular-36" transform="translate(424.559253 0.5625)"/>
      <use xlink:href="#TimesNewRomanPSMT-2c" transform="translate(474.559238 0.5625)"/>
      <use xlink:href="#TimesNewRomanPSMT-20" transform="translate(499.559238 0.5625)"/>
      <use xlink:href="#TimesNewRomanPSMT-62" transform="translate(524.559238 0.5625)"/>
      <use xlink:href="#TimesNewRomanPSMT-6c" transform="translate(574.559238 0.5625)"/>
      <use xlink:href="#TimesNewRomanPSMT-65" transform="translate(602.342441 0.5625)"/>
      <use xlink:href="#TimesNewRomanPSMT-6e" transform="translate(646.727206 0.5625)"/>
      <use xlink:href="#TimesNewRomanPSMT-64" transform="translate(696.727206 0.5625)"/>
      <use xlink:href="#TimesNewRomanPSMT-69" transform="translate(746.727206 0.5625)"/>
      <use xlink:href="#TimesNewRomanPSMT-6e" transform="translate(774.51041 0.5625)"/>
      <use xlink:href="#TimesNewRomanPSMT-67" transform="translate(824.51041 0.5625)"/>
     </g>
    </g>
    <g id="line2d_166">
     <path d="M 265.032235 286.84 
L 271.907235 286.84 
L 278.782235 286.84 
" style="fill: none; stroke: #980c13; stroke-width: 1.25; stroke-linecap: square"/>
    </g>
    <g id="text_22">
     <!-- $q_\text{onset}=0.08$, blending -->
     <g transform="translate(287.582235 290.69) scale(0.11 -0.11)">
      <defs>
       <path id="STIXGeneral-Regular-38" d="M 2848 992 
Q 2848 499 2505 204 
Q 2163 -90 1587 -90 
Q 1050 -90 704 204 
Q 358 499 358 954 
Q 358 1293 524 1533 
Q 691 1773 1190 2125 
Q 710 2522 553 2765 
Q 397 3008 397 3328 
Q 397 3782 745 4054 
Q 1094 4326 1638 4326 
Q 2106 4326 2410 4060 
Q 2714 3795 2714 3411 
Q 2714 3059 2531 2848 
Q 2349 2637 1856 2374 
Q 2432 1990 2640 1689 
Q 2848 1389 2848 992 
z
M 2272 3411 
Q 2272 3744 2086 3945 
Q 1901 4147 1574 4147 
Q 1248 4147 1059 3977 
Q 870 3808 870 3513 
Q 870 3219 1059 2979 
Q 1248 2739 1670 2490 
Q 1997 2682 2134 2896 
Q 2272 3110 2272 3411 
z
M 1734 1741 
L 1357 1997 
Q 1075 1766 960 1545 
Q 845 1325 845 1011 
Q 845 576 1065 333 
Q 1286 90 1658 90 
Q 1971 90 2166 285 
Q 2362 480 2362 794 
Q 2362 1082 2214 1299 
Q 2067 1517 1734 1741 
z
" transform="scale(0.015625)"/>
      </defs>
      <use xlink:href="#STIXGeneral-Italic-71" transform="translate(0 0.5625)"/>
      <use xlink:href="#STIXGeneral-Regular-6f" transform="translate(49.999985 -12.665625) scale(0.7)"/>
      <use xlink:href="#STIXGeneral-Regular-6e" transform="translate(84.999974 -12.665625) scale(0.7)"/>
      <use xlink:href="#STIXGeneral-Regular-73" transform="translate(119.999963 -12.665625) scale(0.7)"/>
      <use xlink:href="#STIXGeneral-Regular-65" transform="translate(147.229959 -12.665625) scale(0.7)"/>
      <use xlink:href="#STIXGeneral-Regular-74" transform="translate(178.309955 -12.665625) scale(0.7)"/>
      <use xlink:href="#STIXGeneral-Regular-3d" transform="translate(216.619318 0.5625)"/>
      <use xlink:href="#STIXGeneral-Regular-30" transform="translate(299.559299 0.5625)"/>
      <use xlink:href="#STIXGeneral-Regular-2e" transform="translate(349.559283 0.5625)"/>
      <use xlink:href="#STIXGeneral-Regular-30" transform="translate(374.559268 0.5625)"/>
      <use xlink:href="#STIXGeneral-Regular-38" transform="translate(424.559253 0.5625)"/>
      <use xlink:href="#TimesNewRomanPSMT-2c" transform="translate(474.559238 0.5625)"/>
      <use xlink:href="#TimesNewRomanPSMT-20" transform="translate(499.559238 0.5625)"/>
      <use xlink:href="#TimesNewRomanPSMT-62" transform="translate(524.559238 0.5625)"/>
      <use xlink:href="#TimesNewRomanPSMT-6c" transform="translate(574.559238 0.5625)"/>
      <use xlink:href="#TimesNewRomanPSMT-65" transform="translate(602.342441 0.5625)"/>
      <use xlink:href="#TimesNewRomanPSMT-6e" transform="translate(646.727206 0.5625)"/>
      <use xlink:href="#TimesNewRomanPSMT-64" transform="translate(696.727206 0.5625)"/>
      <use xlink:href="#TimesNewRomanPSMT-69" transform="translate(746.727206 0.5625)"/>
      <use xlink:href="#TimesNewRomanPSMT-6e" transform="translate(774.51041 0.5625)"/>
      <use xlink:href="#TimesNewRomanPSMT-67" transform="translate(824.51041 0.5625)"/>
     </g>
    </g>
   </g>
  </g>
 </g>
 <defs>
  <clipPath id="p3bbff2db3b">
   <rect x="61.62" y="13" width="352.682235" height="297.71"/>
  </clipPath>
 </defs>
</svg>
