<?xml version="1.0" encoding="UTF-8" standalone="no"?>
<!-- Created with Inkscape (http://www.inkscape.org/) -->

<svg
   width="210mm"
   height="297mm"
   viewBox="0 0 210 297"
   version="1.1"
   id="svg1"
   sodipodi:docname="rotor2.svg"
   inkscape:version="1.3.2 (091e20e, 2023-11-25, custom)"
   xmlns:inkscape="http://www.inkscape.org/namespaces/inkscape"
   xmlns:sodipodi="http://sodipodi.sourceforge.net/DTD/sodipodi-0.dtd"
   xmlns="http://www.w3.org/2000/svg"
   xmlns:svg="http://www.w3.org/2000/svg">
  <sodipodi:namedview
     id="namedview1"
     pagecolor="#ffffff"
     bordercolor="#999999"
     borderopacity="1"
     inkscape:showpageshadow="2"
     inkscape:pageopacity="0"
     inkscape:pagecheckerboard="0"
     inkscape:deskcolor="#d1d1d1"
     inkscape:document-units="mm"
     inkscape:zoom="0.43829966"
     inkscape:cx="396.98867"
     inkscape:cy="560.11907"
     inkscape:window-width="725"
     inkscape:window-height="723"
     inkscape:window-x="543"
     inkscape:window-y="0"
     inkscape:window-maximized="0"
     inkscape:current-layer="layer1" />
  <defs
     id="defs1">
    <inkscape:path-effect
       effect="bspline"
       id="path-effect1"
       is_visible="true"
       lpeversion="1.3"
       weight="33.333333"
       steps="2"
       helper_size="0"
       apply_no_weight="true"
       apply_with_weight="true"
       only_selected="false"
       uniform="false" />
  </defs>
  <g
     inkscape:label="Layer 1"
     inkscape:groupmode="layer"
     id="layer1">
    <path
       style="fill:none;stroke:#000000;stroke-width:0.440602;stroke-linejoin:bevel;stroke-opacity:1;paint-order:markers fill stroke"
       d="m 86.557895,157.58357 c 0.43457,0.39677 1.173936,0.60698 2.132311,0.26295 0.958376,-0.34403 2.135678,-1.24227 3.530187,-2.36639 1.394509,-1.12411 3.0061,-2.47399 5.017342,-3.65891 2.011242,-1.18492 4.421945,-2.20475 7.202015,-2.82382 2.78007,-0.61906 5.92934,-0.83733 8.86042,-0.50992 2.93108,0.32742 5.64381,1.20048 8.49805,2.60634 2.85425,1.40586 5.84976,3.34439 8.3911,5.49595 2.54134,2.15156 4.62824,4.51595 6.15279,6.43163 1.52455,1.91567 2.48664,3.38248 3.13104,4.05255 0.6444,0.67006 0.97101,0.54329 1.19523,0.34269 0.22421,-0.2006 0.34602,-0.47501 0.16936,-1.02035 -0.17667,-0.54533 -0.65178,-1.36154 -1.85599,-3.2508 -1.20421,-1.88927 -3.13744,-4.85148 -5.50725,-8.3906 -2.36981,-3.53912 -5.17602,-7.65489 -7.8569,-10.91186 -2.68088,-3.25696 -5.21758,-5.63734 -7.88724,-7.25485 -2.66967,-1.6175 -5.40521,-2.42839 -8.04424,-2.70154 -2.63902,-0.27316 -5.18131,-0.009 -7.52564,0.6508 -2.34433,0.65939 -4.490411,1.71351 -6.283841,3.10425 -1.79343,1.39074 -3.234027,3.11797 -4.475597,4.87513 -1.241569,1.75717 -2.265072,3.51164 -3.107699,5.21668 -0.842628,1.70504 -1.466247,3.29527 -1.83467,4.65726 -0.368422,1.362 -0.481632,2.49567 -0.473364,3.35421 0.0083,0.85853 0.138016,1.44183 0.572586,1.8386 z"
       id="path1"
       inkscape:path-effect="#path-effect1"
       inkscape:original-d="m 86.253077,157.77012 c 0.739387,0.21022 1.478754,0.42043 2.218153,0.63065 1.177352,-0.89828 2.354656,-1.79652 3.531987,-2.69479 1.611685,-1.34996 3.223277,-2.69984 4.83496,-4.0498 2.410798,-1.01988 4.821503,-2.03971 7.232263,-3.05957 3.14938,-0.21827 6.29865,-0.43654 9.44797,-0.65481 2.71284,0.8731 5.42557,1.74616 8.13836,2.61924 2.9957,1.93864 5.99121,3.87717 8.98691,5.81581 2.08698,2.36448 4.17388,4.72887 6.26082,7.09331 0.96216,1.46691 1.92425,2.93372 2.88641,4.40064 0.32664,-0.12678 0.65325,-0.25356 0.97987,-0.38034 0.12181,-0.27442 0.24362,-0.54883 0.36543,-0.82325 -0.47514,-0.81625 -0.95025,-1.63246 -1.42538,-2.44869 -1.93329,-2.9623 -3.86652,-5.92451 -5.79975,-8.88671 -2.80639,-4.11604 -5.6126,-8.23181 -8.41899,-12.34785 -2.55537,-2.39789 -5.09207,-4.77827 -7.66593,-7.19352 -2.76547,-0.81976 -5.50101,-1.63065 -8.23661,-2.44155 -2.54245,0.26459 -5.08474,0.52916 -7.62719,0.79375 -2.146208,1.05419 -4.292292,2.10831 -6.438505,3.1625 -1.440643,1.72729 -2.881241,3.45452 -4.321842,5.18175 -1.042543,1.7871 -2.066043,3.54157 -3.127658,5.36137 -0.623641,1.59028 -1.247258,3.18051 -1.870887,4.77076 -0.113217,1.13374 -0.226427,2.26741 -0.339644,3.40115 0.129754,0.58333 0.259502,1.16663 0.389253,1.74995 z"
       sodipodi:nodetypes="cccccccccccccccccccccccc"
       transform="matrix(0.8241907,0,0,1,-4.1160395,-40.081986)" />
  </g>
</svg>
