<?xml version="1.0" encoding="utf-8" standalone="no"?>
<!DOCTYPE svg PUBLIC "-//W3C//DTD SVG 1.1//EN"
  "http://www.w3.org/Graphics/SVG/1.1/DTD/svg11.dtd">
<svg xmlns:xlink="http://www.w3.org/1999/xlink" width="418.125937pt" height="342.030281pt" viewBox="0 0 418.125937 342.030281" xmlns="http://www.w3.org/2000/svg" version="1.1">
 <metadata>
  <rdf:RDF xmlns:dc="http://purl.org/dc/elements/1.1/" xmlns:cc="http://creativecommons.org/ns#" xmlns:rdf="http://www.w3.org/1999/02/22-rdf-syntax-ns#">
   <cc:Work>
    <dc:type rdf:resource="http://purl.org/dc/dcmitype/StillImage"/>
    <dc:date>2024-11-05T14:34:35.113043</dc:date>
    <dc:format>image/svg+xml</dc:format>
    <dc:creator>
     <cc:Agent>
      <dc:title>Matplotlib v3.9.2, https://matplotlib.org/</dc:title>
     </cc:Agent>
    </dc:creator>
   </cc:Work>
  </rdf:RDF>
 </metadata>
 <defs>
  <style type="text/css">*{stroke-linejoin: round; stroke-linecap: butt}</style>
 </defs>
 <g id="figure_1">
  <g id="patch_1">
   <path d="M -0 342.030281 
L 418.125937 342.030281 
L 418.125937 0 
L -0 0 
z
" style="fill: #ffffff"/>
  </g>
  <g id="axes_1">
   <g id="patch_2">
    <path d="M 56.915938 278.12025 
L 410.925938 278.12025 
L 410.925938 30.16 
L 56.915938 30.16 
z
" style="fill: #ffffff"/>
   </g>
   <g id="matplotlib.axis_1">
    <g id="xtick_1">
     <g id="line2d_1">
      <path d="M 81.117636 278.12025 
L 81.117636 30.16 
" clip-path="url(#p4de84f5831)" style="fill: none; stroke: #808080; stroke-width: 0.5; stroke-linecap: square"/>
     </g>
     <g id="line2d_2">
      <defs>
       <path id="m0cbe9a816a" d="M 0 0 
L 0 -6 
" style="stroke: #000000; stroke-width: 1.25"/>
      </defs>
      <g>
       <use xlink:href="#m0cbe9a816a" x="81.117636" y="278.12025" style="fill: #ffffff; stroke: #000000; stroke-width: 1.25"/>
      </g>
     </g>
     <g id="line2d_3">
      <defs>
       <path id="m2a0979eca0" d="M 0 0 
L 0 6 
" style="stroke: #000000; stroke-width: 1.25"/>
      </defs>
      <g>
       <use xlink:href="#m2a0979eca0" x="81.117636" y="30.16" style="fill: #ffffff; stroke: #000000; stroke-width: 1.25"/>
      </g>
     </g>
     <g id="text_1">
      <!-- 2500 -->
      <g transform="translate(68.117636 290.647125) scale(0.13 -0.13)">
       <defs>
        <path id="TimesNewRomanPSMT-32" d="M 2934 816 
L 2638 0 
L 138 0 
L 138 116 
Q 1241 1122 1691 1759 
Q 2141 2397 2141 2925 
Q 2141 3328 1894 3587 
Q 1647 3847 1303 3847 
Q 991 3847 742 3664 
Q 494 3481 375 3128 
L 259 3128 
Q 338 3706 661 4015 
Q 984 4325 1469 4325 
Q 1984 4325 2329 3994 
Q 2675 3663 2675 3213 
Q 2675 2891 2525 2569 
Q 2294 2063 1775 1497 
Q 997 647 803 472 
L 1909 472 
Q 2247 472 2383 497 
Q 2519 522 2628 598 
Q 2738 675 2819 816 
L 2934 816 
z
" transform="scale(0.015625)"/>
        <path id="TimesNewRomanPSMT-35" d="M 2778 4238 
L 2534 3706 
L 1259 3706 
L 981 3138 
Q 1809 3016 2294 2522 
Q 2709 2097 2709 1522 
Q 2709 1188 2573 903 
Q 2438 619 2231 419 
Q 2025 219 1772 97 
Q 1413 -75 1034 -75 
Q 653 -75 479 54 
Q 306 184 306 341 
Q 306 428 378 495 
Q 450 563 559 563 
Q 641 563 702 538 
Q 763 513 909 409 
Q 1144 247 1384 247 
Q 1750 247 2026 523 
Q 2303 800 2303 1197 
Q 2303 1581 2056 1914 
Q 1809 2247 1375 2428 
Q 1034 2569 447 2591 
L 1259 4238 
L 2778 4238 
z
" transform="scale(0.015625)"/>
        <path id="TimesNewRomanPSMT-30" d="M 231 2094 
Q 231 2819 450 3342 
Q 669 3866 1031 4122 
Q 1313 4325 1613 4325 
Q 2100 4325 2488 3828 
Q 2972 3213 2972 2159 
Q 2972 1422 2759 906 
Q 2547 391 2217 158 
Q 1888 -75 1581 -75 
Q 975 -75 572 641 
Q 231 1244 231 2094 
z
M 844 2016 
Q 844 1141 1059 588 
Q 1238 122 1591 122 
Q 1759 122 1940 273 
Q 2122 425 2216 781 
Q 2359 1319 2359 2297 
Q 2359 3022 2209 3506 
Q 2097 3866 1919 4016 
Q 1791 4119 1609 4119 
Q 1397 4119 1231 3928 
Q 1006 3669 925 3112 
Q 844 2556 844 2016 
z
" transform="scale(0.015625)"/>
       </defs>
       <use xlink:href="#TimesNewRomanPSMT-32"/>
       <use xlink:href="#TimesNewRomanPSMT-35" x="50"/>
       <use xlink:href="#TimesNewRomanPSMT-30" x="100"/>
       <use xlink:href="#TimesNewRomanPSMT-30" x="150"/>
      </g>
     </g>
    </g>
    <g id="xtick_2">
     <g id="line2d_4">
      <path d="M 130.51479 278.12025 
L 130.51479 30.16 
" clip-path="url(#p4de84f5831)" style="fill: none; stroke: #808080; stroke-width: 0.5; stroke-linecap: square"/>
     </g>
     <g id="line2d_5">
      <g>
       <use xlink:href="#m0cbe9a816a" x="130.51479" y="278.12025" style="fill: #ffffff; stroke: #000000; stroke-width: 1.25"/>
      </g>
     </g>
     <g id="line2d_6">
      <g>
       <use xlink:href="#m2a0979eca0" x="130.51479" y="30.16" style="fill: #ffffff; stroke: #000000; stroke-width: 1.25"/>
      </g>
     </g>
     <g id="text_2">
      <!-- 3000 -->
      <g transform="translate(117.51479 290.647125) scale(0.13 -0.13)">
       <defs>
        <path id="TimesNewRomanPSMT-33" d="M 325 3431 
Q 506 3859 782 4092 
Q 1059 4325 1472 4325 
Q 1981 4325 2253 3994 
Q 2459 3747 2459 3466 
Q 2459 3003 1878 2509 
Q 2269 2356 2469 2072 
Q 2669 1788 2669 1403 
Q 2669 853 2319 450 
Q 1863 -75 997 -75 
Q 569 -75 414 31 
Q 259 138 259 259 
Q 259 350 332 419 
Q 406 488 509 488 
Q 588 488 669 463 
Q 722 447 909 348 
Q 1097 250 1169 231 
Q 1284 197 1416 197 
Q 1734 197 1970 444 
Q 2206 691 2206 1028 
Q 2206 1275 2097 1509 
Q 2016 1684 1919 1775 
Q 1784 1900 1550 2001 
Q 1316 2103 1072 2103 
L 972 2103 
L 972 2197 
Q 1219 2228 1467 2375 
Q 1716 2522 1828 2728 
Q 1941 2934 1941 3181 
Q 1941 3503 1739 3701 
Q 1538 3900 1238 3900 
Q 753 3900 428 3381 
L 325 3431 
z
" transform="scale(0.015625)"/>
       </defs>
       <use xlink:href="#TimesNewRomanPSMT-33"/>
       <use xlink:href="#TimesNewRomanPSMT-30" x="50"/>
       <use xlink:href="#TimesNewRomanPSMT-30" x="100"/>
       <use xlink:href="#TimesNewRomanPSMT-30" x="150"/>
      </g>
     </g>
    </g>
    <g id="xtick_3">
     <g id="line2d_7">
      <path d="M 179.911944 278.12025 
L 179.911944 30.16 
" clip-path="url(#p4de84f5831)" style="fill: none; stroke: #808080; stroke-width: 0.5; stroke-linecap: square"/>
     </g>
     <g id="line2d_8">
      <g>
       <use xlink:href="#m0cbe9a816a" x="179.911944" y="278.12025" style="fill: #ffffff; stroke: #000000; stroke-width: 1.25"/>
      </g>
     </g>
     <g id="line2d_9">
      <g>
       <use xlink:href="#m2a0979eca0" x="179.911944" y="30.16" style="fill: #ffffff; stroke: #000000; stroke-width: 1.25"/>
      </g>
     </g>
     <g id="text_3">
      <!-- 3500 -->
      <g transform="translate(166.911944 290.647125) scale(0.13 -0.13)">
       <use xlink:href="#TimesNewRomanPSMT-33"/>
       <use xlink:href="#TimesNewRomanPSMT-35" x="50"/>
       <use xlink:href="#TimesNewRomanPSMT-30" x="100"/>
       <use xlink:href="#TimesNewRomanPSMT-30" x="150"/>
      </g>
     </g>
    </g>
    <g id="xtick_4">
     <g id="line2d_10">
      <path d="M 229.309098 278.12025 
L 229.309098 30.16 
" clip-path="url(#p4de84f5831)" style="fill: none; stroke: #808080; stroke-width: 0.5; stroke-linecap: square"/>
     </g>
     <g id="line2d_11">
      <g>
       <use xlink:href="#m0cbe9a816a" x="229.309098" y="278.12025" style="fill: #ffffff; stroke: #000000; stroke-width: 1.25"/>
      </g>
     </g>
     <g id="line2d_12">
      <g>
       <use xlink:href="#m2a0979eca0" x="229.309098" y="30.16" style="fill: #ffffff; stroke: #000000; stroke-width: 1.25"/>
      </g>
     </g>
     <g id="text_4">
      <!-- 4000 -->
      <g transform="translate(216.309098 290.647125) scale(0.13 -0.13)">
       <defs>
        <path id="TimesNewRomanPSMT-34" d="M 2978 1563 
L 2978 1119 
L 2409 1119 
L 2409 0 
L 1894 0 
L 1894 1119 
L 100 1119 
L 100 1519 
L 2066 4325 
L 2409 4325 
L 2409 1563 
L 2978 1563 
z
M 1894 1563 
L 1894 3666 
L 406 1563 
L 1894 1563 
z
" transform="scale(0.015625)"/>
       </defs>
       <use xlink:href="#TimesNewRomanPSMT-34"/>
       <use xlink:href="#TimesNewRomanPSMT-30" x="50"/>
       <use xlink:href="#TimesNewRomanPSMT-30" x="100"/>
       <use xlink:href="#TimesNewRomanPSMT-30" x="150"/>
      </g>
     </g>
    </g>
    <g id="xtick_5">
     <g id="line2d_13">
      <path d="M 278.706252 278.12025 
L 278.706252 30.16 
" clip-path="url(#p4de84f5831)" style="fill: none; stroke: #808080; stroke-width: 0.5; stroke-linecap: square"/>
     </g>
     <g id="line2d_14">
      <g>
       <use xlink:href="#m0cbe9a816a" x="278.706252" y="278.12025" style="fill: #ffffff; stroke: #000000; stroke-width: 1.25"/>
      </g>
     </g>
     <g id="line2d_15">
      <g>
       <use xlink:href="#m2a0979eca0" x="278.706252" y="30.16" style="fill: #ffffff; stroke: #000000; stroke-width: 1.25"/>
      </g>
     </g>
     <g id="text_5">
      <!-- 4500 -->
      <g transform="translate(265.706252 290.647125) scale(0.13 -0.13)">
       <use xlink:href="#TimesNewRomanPSMT-34"/>
       <use xlink:href="#TimesNewRomanPSMT-35" x="50"/>
       <use xlink:href="#TimesNewRomanPSMT-30" x="100"/>
       <use xlink:href="#TimesNewRomanPSMT-30" x="150"/>
      </g>
     </g>
    </g>
    <g id="xtick_6">
     <g id="line2d_16">
      <path d="M 328.103406 278.12025 
L 328.103406 30.16 
" clip-path="url(#p4de84f5831)" style="fill: none; stroke: #808080; stroke-width: 0.5; stroke-linecap: square"/>
     </g>
     <g id="line2d_17">
      <g>
       <use xlink:href="#m0cbe9a816a" x="328.103406" y="278.12025" style="fill: #ffffff; stroke: #000000; stroke-width: 1.25"/>
      </g>
     </g>
     <g id="line2d_18">
      <g>
       <use xlink:href="#m2a0979eca0" x="328.103406" y="30.16" style="fill: #ffffff; stroke: #000000; stroke-width: 1.25"/>
      </g>
     </g>
     <g id="text_6">
      <!-- 5000 -->
      <g transform="translate(315.103406 290.647125) scale(0.13 -0.13)">
       <use xlink:href="#TimesNewRomanPSMT-35"/>
       <use xlink:href="#TimesNewRomanPSMT-30" x="50"/>
       <use xlink:href="#TimesNewRomanPSMT-30" x="100"/>
       <use xlink:href="#TimesNewRomanPSMT-30" x="150"/>
      </g>
     </g>
    </g>
    <g id="xtick_7">
     <g id="line2d_19">
      <path d="M 377.50056 278.12025 
L 377.50056 30.16 
" clip-path="url(#p4de84f5831)" style="fill: none; stroke: #808080; stroke-width: 0.5; stroke-linecap: square"/>
     </g>
     <g id="line2d_20">
      <g>
       <use xlink:href="#m0cbe9a816a" x="377.50056" y="278.12025" style="fill: #ffffff; stroke: #000000; stroke-width: 1.25"/>
      </g>
     </g>
     <g id="line2d_21">
      <g>
       <use xlink:href="#m2a0979eca0" x="377.50056" y="30.16" style="fill: #ffffff; stroke: #000000; stroke-width: 1.25"/>
      </g>
     </g>
     <g id="text_7">
      <!-- 5500 -->
      <g transform="translate(364.50056 290.647125) scale(0.13 -0.13)">
       <use xlink:href="#TimesNewRomanPSMT-35"/>
       <use xlink:href="#TimesNewRomanPSMT-35" x="50"/>
       <use xlink:href="#TimesNewRomanPSMT-30" x="100"/>
       <use xlink:href="#TimesNewRomanPSMT-30" x="150"/>
      </g>
     </g>
    </g>
    <g id="xtick_8">
     <g id="line2d_22">
      <defs>
       <path id="m2cccbecbba" d="M 0 0 
L 0 -3 
" style="stroke: #000000; stroke-width: 0.75"/>
      </defs>
      <g>
       <use xlink:href="#m2cccbecbba" x="61.358774" y="278.12025" style="fill: #ffffff; stroke: #000000; stroke-width: 0.75"/>
      </g>
     </g>
     <g id="line2d_23">
      <defs>
       <path id="m2cd51721f3" d="M 0 0 
L 0 3 
" style="stroke: #000000; stroke-width: 0.75"/>
      </defs>
      <g>
       <use xlink:href="#m2cd51721f3" x="61.358774" y="30.16" style="fill: #ffffff; stroke: #000000; stroke-width: 0.75"/>
      </g>
     </g>
    </g>
    <g id="xtick_9">
     <g id="line2d_24">
      <g>
       <use xlink:href="#m2cccbecbba" x="71.238205" y="278.12025" style="fill: #ffffff; stroke: #000000; stroke-width: 0.75"/>
      </g>
     </g>
     <g id="line2d_25">
      <g>
       <use xlink:href="#m2cd51721f3" x="71.238205" y="30.16" style="fill: #ffffff; stroke: #000000; stroke-width: 0.75"/>
      </g>
     </g>
    </g>
    <g id="xtick_10">
     <g id="line2d_26">
      <g>
       <use xlink:href="#m2cccbecbba" x="90.997067" y="278.12025" style="fill: #ffffff; stroke: #000000; stroke-width: 0.75"/>
      </g>
     </g>
     <g id="line2d_27">
      <g>
       <use xlink:href="#m2cd51721f3" x="90.997067" y="30.16" style="fill: #ffffff; stroke: #000000; stroke-width: 0.75"/>
      </g>
     </g>
    </g>
    <g id="xtick_11">
     <g id="line2d_28">
      <g>
       <use xlink:href="#m2cccbecbba" x="100.876497" y="278.12025" style="fill: #ffffff; stroke: #000000; stroke-width: 0.75"/>
      </g>
     </g>
     <g id="line2d_29">
      <g>
       <use xlink:href="#m2cd51721f3" x="100.876497" y="30.16" style="fill: #ffffff; stroke: #000000; stroke-width: 0.75"/>
      </g>
     </g>
    </g>
    <g id="xtick_12">
     <g id="line2d_30">
      <g>
       <use xlink:href="#m2cccbecbba" x="110.755928" y="278.12025" style="fill: #ffffff; stroke: #000000; stroke-width: 0.75"/>
      </g>
     </g>
     <g id="line2d_31">
      <g>
       <use xlink:href="#m2cd51721f3" x="110.755928" y="30.16" style="fill: #ffffff; stroke: #000000; stroke-width: 0.75"/>
      </g>
     </g>
    </g>
    <g id="xtick_13">
     <g id="line2d_32">
      <g>
       <use xlink:href="#m2cccbecbba" x="120.635359" y="278.12025" style="fill: #ffffff; stroke: #000000; stroke-width: 0.75"/>
      </g>
     </g>
     <g id="line2d_33">
      <g>
       <use xlink:href="#m2cd51721f3" x="120.635359" y="30.16" style="fill: #ffffff; stroke: #000000; stroke-width: 0.75"/>
      </g>
     </g>
    </g>
    <g id="xtick_14">
     <g id="line2d_34">
      <g>
       <use xlink:href="#m2cccbecbba" x="140.394221" y="278.12025" style="fill: #ffffff; stroke: #000000; stroke-width: 0.75"/>
      </g>
     </g>
     <g id="line2d_35">
      <g>
       <use xlink:href="#m2cd51721f3" x="140.394221" y="30.16" style="fill: #ffffff; stroke: #000000; stroke-width: 0.75"/>
      </g>
     </g>
    </g>
    <g id="xtick_15">
     <g id="line2d_36">
      <g>
       <use xlink:href="#m2cccbecbba" x="150.273651" y="278.12025" style="fill: #ffffff; stroke: #000000; stroke-width: 0.75"/>
      </g>
     </g>
     <g id="line2d_37">
      <g>
       <use xlink:href="#m2cd51721f3" x="150.273651" y="30.16" style="fill: #ffffff; stroke: #000000; stroke-width: 0.75"/>
      </g>
     </g>
    </g>
    <g id="xtick_16">
     <g id="line2d_38">
      <g>
       <use xlink:href="#m2cccbecbba" x="160.153082" y="278.12025" style="fill: #ffffff; stroke: #000000; stroke-width: 0.75"/>
      </g>
     </g>
     <g id="line2d_39">
      <g>
       <use xlink:href="#m2cd51721f3" x="160.153082" y="30.16" style="fill: #ffffff; stroke: #000000; stroke-width: 0.75"/>
      </g>
     </g>
    </g>
    <g id="xtick_17">
     <g id="line2d_40">
      <g>
       <use xlink:href="#m2cccbecbba" x="170.032513" y="278.12025" style="fill: #ffffff; stroke: #000000; stroke-width: 0.75"/>
      </g>
     </g>
     <g id="line2d_41">
      <g>
       <use xlink:href="#m2cd51721f3" x="170.032513" y="30.16" style="fill: #ffffff; stroke: #000000; stroke-width: 0.75"/>
      </g>
     </g>
    </g>
    <g id="xtick_18">
     <g id="line2d_42">
      <g>
       <use xlink:href="#m2cccbecbba" x="189.791375" y="278.12025" style="fill: #ffffff; stroke: #000000; stroke-width: 0.75"/>
      </g>
     </g>
     <g id="line2d_43">
      <g>
       <use xlink:href="#m2cd51721f3" x="189.791375" y="30.16" style="fill: #ffffff; stroke: #000000; stroke-width: 0.75"/>
      </g>
     </g>
    </g>
    <g id="xtick_19">
     <g id="line2d_44">
      <g>
       <use xlink:href="#m2cccbecbba" x="199.670805" y="278.12025" style="fill: #ffffff; stroke: #000000; stroke-width: 0.75"/>
      </g>
     </g>
     <g id="line2d_45">
      <g>
       <use xlink:href="#m2cd51721f3" x="199.670805" y="30.16" style="fill: #ffffff; stroke: #000000; stroke-width: 0.75"/>
      </g>
     </g>
    </g>
    <g id="xtick_20">
     <g id="line2d_46">
      <g>
       <use xlink:href="#m2cccbecbba" x="209.550236" y="278.12025" style="fill: #ffffff; stroke: #000000; stroke-width: 0.75"/>
      </g>
     </g>
     <g id="line2d_47">
      <g>
       <use xlink:href="#m2cd51721f3" x="209.550236" y="30.16" style="fill: #ffffff; stroke: #000000; stroke-width: 0.75"/>
      </g>
     </g>
    </g>
    <g id="xtick_21">
     <g id="line2d_48">
      <g>
       <use xlink:href="#m2cccbecbba" x="219.429667" y="278.12025" style="fill: #ffffff; stroke: #000000; stroke-width: 0.75"/>
      </g>
     </g>
     <g id="line2d_49">
      <g>
       <use xlink:href="#m2cd51721f3" x="219.429667" y="30.16" style="fill: #ffffff; stroke: #000000; stroke-width: 0.75"/>
      </g>
     </g>
    </g>
    <g id="xtick_22">
     <g id="line2d_50">
      <g>
       <use xlink:href="#m2cccbecbba" x="239.188529" y="278.12025" style="fill: #ffffff; stroke: #000000; stroke-width: 0.75"/>
      </g>
     </g>
     <g id="line2d_51">
      <g>
       <use xlink:href="#m2cd51721f3" x="239.188529" y="30.16" style="fill: #ffffff; stroke: #000000; stroke-width: 0.75"/>
      </g>
     </g>
    </g>
    <g id="xtick_23">
     <g id="line2d_52">
      <g>
       <use xlink:href="#m2cccbecbba" x="249.067959" y="278.12025" style="fill: #ffffff; stroke: #000000; stroke-width: 0.75"/>
      </g>
     </g>
     <g id="line2d_53">
      <g>
       <use xlink:href="#m2cd51721f3" x="249.067959" y="30.16" style="fill: #ffffff; stroke: #000000; stroke-width: 0.75"/>
      </g>
     </g>
    </g>
    <g id="xtick_24">
     <g id="line2d_54">
      <g>
       <use xlink:href="#m2cccbecbba" x="258.94739" y="278.12025" style="fill: #ffffff; stroke: #000000; stroke-width: 0.75"/>
      </g>
     </g>
     <g id="line2d_55">
      <g>
       <use xlink:href="#m2cd51721f3" x="258.94739" y="30.16" style="fill: #ffffff; stroke: #000000; stroke-width: 0.75"/>
      </g>
     </g>
    </g>
    <g id="xtick_25">
     <g id="line2d_56">
      <g>
       <use xlink:href="#m2cccbecbba" x="268.826821" y="278.12025" style="fill: #ffffff; stroke: #000000; stroke-width: 0.75"/>
      </g>
     </g>
     <g id="line2d_57">
      <g>
       <use xlink:href="#m2cd51721f3" x="268.826821" y="30.16" style="fill: #ffffff; stroke: #000000; stroke-width: 0.75"/>
      </g>
     </g>
    </g>
    <g id="xtick_26">
     <g id="line2d_58">
      <g>
       <use xlink:href="#m2cccbecbba" x="288.585683" y="278.12025" style="fill: #ffffff; stroke: #000000; stroke-width: 0.75"/>
      </g>
     </g>
     <g id="line2d_59">
      <g>
       <use xlink:href="#m2cd51721f3" x="288.585683" y="30.16" style="fill: #ffffff; stroke: #000000; stroke-width: 0.75"/>
      </g>
     </g>
    </g>
    <g id="xtick_27">
     <g id="line2d_60">
      <g>
       <use xlink:href="#m2cccbecbba" x="298.465113" y="278.12025" style="fill: #ffffff; stroke: #000000; stroke-width: 0.75"/>
      </g>
     </g>
     <g id="line2d_61">
      <g>
       <use xlink:href="#m2cd51721f3" x="298.465113" y="30.16" style="fill: #ffffff; stroke: #000000; stroke-width: 0.75"/>
      </g>
     </g>
    </g>
    <g id="xtick_28">
     <g id="line2d_62">
      <g>
       <use xlink:href="#m2cccbecbba" x="308.344544" y="278.12025" style="fill: #ffffff; stroke: #000000; stroke-width: 0.75"/>
      </g>
     </g>
     <g id="line2d_63">
      <g>
       <use xlink:href="#m2cd51721f3" x="308.344544" y="30.16" style="fill: #ffffff; stroke: #000000; stroke-width: 0.75"/>
      </g>
     </g>
    </g>
    <g id="xtick_29">
     <g id="line2d_64">
      <g>
       <use xlink:href="#m2cccbecbba" x="318.223975" y="278.12025" style="fill: #ffffff; stroke: #000000; stroke-width: 0.75"/>
      </g>
     </g>
     <g id="line2d_65">
      <g>
       <use xlink:href="#m2cd51721f3" x="318.223975" y="30.16" style="fill: #ffffff; stroke: #000000; stroke-width: 0.75"/>
      </g>
     </g>
    </g>
    <g id="xtick_30">
     <g id="line2d_66">
      <g>
       <use xlink:href="#m2cccbecbba" x="337.982837" y="278.12025" style="fill: #ffffff; stroke: #000000; stroke-width: 0.75"/>
      </g>
     </g>
     <g id="line2d_67">
      <g>
       <use xlink:href="#m2cd51721f3" x="337.982837" y="30.16" style="fill: #ffffff; stroke: #000000; stroke-width: 0.75"/>
      </g>
     </g>
    </g>
    <g id="xtick_31">
     <g id="line2d_68">
      <g>
       <use xlink:href="#m2cccbecbba" x="347.862267" y="278.12025" style="fill: #ffffff; stroke: #000000; stroke-width: 0.75"/>
      </g>
     </g>
     <g id="line2d_69">
      <g>
       <use xlink:href="#m2cd51721f3" x="347.862267" y="30.16" style="fill: #ffffff; stroke: #000000; stroke-width: 0.75"/>
      </g>
     </g>
    </g>
    <g id="xtick_32">
     <g id="line2d_70">
      <g>
       <use xlink:href="#m2cccbecbba" x="357.741698" y="278.12025" style="fill: #ffffff; stroke: #000000; stroke-width: 0.75"/>
      </g>
     </g>
     <g id="line2d_71">
      <g>
       <use xlink:href="#m2cd51721f3" x="357.741698" y="30.16" style="fill: #ffffff; stroke: #000000; stroke-width: 0.75"/>
      </g>
     </g>
    </g>
    <g id="xtick_33">
     <g id="line2d_72">
      <g>
       <use xlink:href="#m2cccbecbba" x="367.621129" y="278.12025" style="fill: #ffffff; stroke: #000000; stroke-width: 0.75"/>
      </g>
     </g>
     <g id="line2d_73">
      <g>
       <use xlink:href="#m2cd51721f3" x="367.621129" y="30.16" style="fill: #ffffff; stroke: #000000; stroke-width: 0.75"/>
      </g>
     </g>
    </g>
    <g id="xtick_34">
     <g id="line2d_74">
      <g>
       <use xlink:href="#m2cccbecbba" x="387.379991" y="278.12025" style="fill: #ffffff; stroke: #000000; stroke-width: 0.75"/>
      </g>
     </g>
     <g id="line2d_75">
      <g>
       <use xlink:href="#m2cd51721f3" x="387.379991" y="30.16" style="fill: #ffffff; stroke: #000000; stroke-width: 0.75"/>
      </g>
     </g>
    </g>
    <g id="xtick_35">
     <g id="line2d_76">
      <g>
       <use xlink:href="#m2cccbecbba" x="397.259421" y="278.12025" style="fill: #ffffff; stroke: #000000; stroke-width: 0.75"/>
      </g>
     </g>
     <g id="line2d_77">
      <g>
       <use xlink:href="#m2cd51721f3" x="397.259421" y="30.16" style="fill: #ffffff; stroke: #000000; stroke-width: 0.75"/>
      </g>
     </g>
    </g>
    <g id="xtick_36">
     <g id="line2d_78">
      <g>
       <use xlink:href="#m2cccbecbba" x="407.138852" y="278.12025" style="fill: #ffffff; stroke: #000000; stroke-width: 0.75"/>
      </g>
     </g>
     <g id="line2d_79">
      <g>
       <use xlink:href="#m2cd51721f3" x="407.138852" y="30.16" style="fill: #ffffff; stroke: #000000; stroke-width: 0.75"/>
      </g>
     </g>
    </g>
    <g id="text_8">
     <!-- Entropy (J/kg/K) -->
     <g transform="translate(186.289219 317.149156) scale(0.14 -0.14)">
      <defs>
       <path id="TimesNewRomanPSMT-45" d="M 1338 4006 
L 1338 2331 
L 2269 2331 
Q 2631 2331 2753 2441 
Q 2916 2584 2934 2947 
L 3050 2947 
L 3050 1472 
L 2934 1472 
Q 2891 1781 2847 1869 
Q 2791 1978 2662 2040 
Q 2534 2103 2269 2103 
L 1338 2103 
L 1338 706 
Q 1338 425 1363 364 
Q 1388 303 1450 267 
Q 1513 231 1688 231 
L 2406 231 
Q 2766 231 2928 281 
Q 3091 331 3241 478 
Q 3434 672 3638 1063 
L 3763 1063 
L 3397 0 
L 131 0 
L 131 116 
L 281 116 
Q 431 116 566 188 
Q 666 238 702 338 
Q 738 438 738 747 
L 738 3500 
Q 738 3903 656 3997 
Q 544 4122 281 4122 
L 131 4122 
L 131 4238 
L 3397 4238 
L 3444 3309 
L 3322 3309 
Q 3256 3644 3176 3769 
Q 3097 3894 2941 3959 
Q 2816 4006 2500 4006 
L 1338 4006 
z
" transform="scale(0.015625)"/>
       <path id="TimesNewRomanPSMT-6e" d="M 1034 2341 
Q 1538 2947 1994 2947 
Q 2228 2947 2397 2830 
Q 2566 2713 2666 2444 
Q 2734 2256 2734 1869 
L 2734 647 
Q 2734 375 2778 278 
Q 2813 200 2889 156 
Q 2966 113 3172 113 
L 3172 0 
L 1756 0 
L 1756 113 
L 1816 113 
Q 2016 113 2095 173 
Q 2175 234 2206 353 
Q 2219 400 2219 647 
L 2219 1819 
Q 2219 2209 2117 2386 
Q 2016 2563 1775 2563 
Q 1403 2563 1034 2156 
L 1034 647 
Q 1034 356 1069 288 
Q 1113 197 1189 155 
Q 1266 113 1500 113 
L 1500 0 
L 84 0 
L 84 113 
L 147 113 
Q 366 113 442 223 
Q 519 334 519 647 
L 519 1709 
Q 519 2225 495 2337 
Q 472 2450 423 2490 
Q 375 2531 294 2531 
Q 206 2531 84 2484 
L 38 2597 
L 900 2947 
L 1034 2947 
L 1034 2341 
z
" transform="scale(0.015625)"/>
       <path id="TimesNewRomanPSMT-74" d="M 1031 3803 
L 1031 2863 
L 1700 2863 
L 1700 2644 
L 1031 2644 
L 1031 788 
Q 1031 509 1111 412 
Q 1191 316 1316 316 
Q 1419 316 1516 380 
Q 1613 444 1666 569 
L 1788 569 
Q 1678 263 1478 108 
Q 1278 -47 1066 -47 
Q 922 -47 784 33 
Q 647 113 581 261 
Q 516 409 516 719 
L 516 2644 
L 63 2644 
L 63 2747 
Q 234 2816 414 2980 
Q 594 3144 734 3369 
Q 806 3488 934 3803 
L 1031 3803 
z
" transform="scale(0.015625)"/>
       <path id="TimesNewRomanPSMT-72" d="M 1038 2947 
L 1038 2303 
Q 1397 2947 1775 2947 
Q 1947 2947 2059 2842 
Q 2172 2738 2172 2600 
Q 2172 2478 2090 2393 
Q 2009 2309 1897 2309 
Q 1788 2309 1652 2417 
Q 1516 2525 1450 2525 
Q 1394 2525 1328 2463 
Q 1188 2334 1038 2041 
L 1038 669 
Q 1038 431 1097 309 
Q 1138 225 1241 169 
Q 1344 113 1538 113 
L 1538 0 
L 72 0 
L 72 113 
Q 291 113 397 181 
Q 475 231 506 341 
Q 522 394 522 644 
L 522 1753 
Q 522 2253 501 2348 
Q 481 2444 426 2487 
Q 372 2531 291 2531 
Q 194 2531 72 2484 
L 41 2597 
L 906 2947 
L 1038 2947 
z
" transform="scale(0.015625)"/>
       <path id="TimesNewRomanPSMT-6f" d="M 1600 2947 
Q 2250 2947 2644 2453 
Q 2978 2031 2978 1484 
Q 2978 1100 2793 706 
Q 2609 313 2286 112 
Q 1963 -88 1566 -88 
Q 919 -88 538 428 
Q 216 863 216 1403 
Q 216 1797 411 2186 
Q 606 2575 925 2761 
Q 1244 2947 1600 2947 
z
M 1503 2744 
Q 1338 2744 1170 2645 
Q 1003 2547 900 2300 
Q 797 2053 797 1666 
Q 797 1041 1045 587 
Q 1294 134 1700 134 
Q 2003 134 2200 384 
Q 2397 634 2397 1244 
Q 2397 2006 2069 2444 
Q 1847 2744 1503 2744 
z
" transform="scale(0.015625)"/>
       <path id="TimesNewRomanPSMT-70" d="M -6 2578 
L 875 2934 
L 994 2934 
L 994 2266 
Q 1216 2644 1439 2795 
Q 1663 2947 1909 2947 
Q 2341 2947 2628 2609 
Q 2981 2197 2981 1534 
Q 2981 794 2556 309 
Q 2206 -88 1675 -88 
Q 1444 -88 1275 -22 
Q 1150 25 994 166 
L 994 -706 
Q 994 -1000 1030 -1079 
Q 1066 -1159 1155 -1206 
Q 1244 -1253 1478 -1253 
L 1478 -1369 
L -22 -1369 
L -22 -1253 
L 56 -1253 
Q 228 -1256 350 -1188 
Q 409 -1153 442 -1076 
Q 475 -1000 475 -688 
L 475 2019 
Q 475 2297 450 2372 
Q 425 2447 370 2484 
Q 316 2522 222 2522 
Q 147 2522 31 2478 
L -6 2578 
z
M 994 2081 
L 994 1013 
Q 994 666 1022 556 
Q 1066 375 1236 237 
Q 1406 100 1666 100 
Q 1978 100 2172 344 
Q 2425 663 2425 1241 
Q 2425 1897 2138 2250 
Q 1938 2494 1663 2494 
Q 1513 2494 1366 2419 
Q 1253 2363 994 2081 
z
" transform="scale(0.015625)"/>
       <path id="TimesNewRomanPSMT-79" d="M 38 2863 
L 1372 2863 
L 1372 2747 
L 1306 2747 
Q 1166 2747 1095 2686 
Q 1025 2625 1025 2534 
Q 1025 2413 1128 2197 
L 1825 753 
L 2466 2334 
Q 2519 2463 2519 2588 
Q 2519 2644 2497 2672 
Q 2472 2706 2419 2726 
Q 2366 2747 2231 2747 
L 2231 2863 
L 3163 2863 
L 3163 2747 
Q 3047 2734 2984 2696 
Q 2922 2659 2847 2556 
Q 2819 2513 2741 2316 
L 1575 -541 
Q 1406 -956 1132 -1168 
Q 859 -1381 606 -1381 
Q 422 -1381 303 -1275 
Q 184 -1169 184 -1031 
Q 184 -900 270 -820 
Q 356 -741 506 -741 
Q 609 -741 788 -809 
Q 913 -856 944 -856 
Q 1038 -856 1148 -759 
Q 1259 -663 1372 -384 
L 1575 113 
L 547 2272 
Q 500 2369 397 2513 
Q 319 2622 269 2659 
Q 197 2709 38 2747 
L 38 2863 
z
" transform="scale(0.015625)"/>
       <path id="TimesNewRomanPSMT-20" transform="scale(0.015625)"/>
       <path id="TimesNewRomanPSMT-28" d="M 1988 -1253 
L 1988 -1369 
Q 1516 -1131 1200 -813 
Q 750 -359 506 256 
Q 263 872 263 1534 
Q 263 2503 741 3301 
Q 1219 4100 1988 4444 
L 1988 4313 
Q 1603 4100 1356 3731 
Q 1109 3363 987 2797 
Q 866 2231 866 1616 
Q 866 947 969 400 
Q 1050 -31 1165 -292 
Q 1281 -553 1476 -793 
Q 1672 -1034 1988 -1253 
z
" transform="scale(0.015625)"/>
       <path id="TimesNewRomanPSMT-4a" d="M 638 4122 
L 638 4238 
L 2453 4238 
L 2453 4122 
L 2300 4122 
Q 2041 4122 1922 3969 
Q 1847 3869 1847 3488 
L 1847 1416 
Q 1847 938 1742 641 
Q 1638 344 1381 123 
Q 1125 -97 763 -97 
Q 469 -97 300 48 
Q 131 194 131 381 
Q 131 534 209 613 
Q 313 709 450 709 
Q 550 709 629 643 
Q 709 578 831 294 
Q 903 125 1016 125 
Q 1100 125 1173 228 
Q 1247 331 1247 594 
L 1247 3488 
Q 1247 3809 1206 3913 
Q 1175 3991 1075 4047 
Q 941 4122 791 4122 
L 638 4122 
z
" transform="scale(0.015625)"/>
       <path id="TimesNewRomanPSMT-2f" d="M 1794 4444 
L 259 -88 
L 9 -88 
L 1544 4444 
L 1794 4444 
z
" transform="scale(0.015625)"/>
       <path id="TimesNewRomanPSMT-6b" d="M 1047 4444 
L 1047 1597 
L 1775 2259 
Q 2006 2472 2044 2528 
Q 2069 2566 2069 2603 
Q 2069 2666 2017 2711 
Q 1966 2756 1847 2763 
L 1847 2863 
L 3091 2863 
L 3091 2763 
Q 2834 2756 2664 2684 
Q 2494 2613 2291 2428 
L 1556 1750 
L 2291 822 
Q 2597 438 2703 334 
Q 2853 188 2966 144 
Q 3044 113 3238 113 
L 3238 0 
L 1847 0 
L 1847 113 
Q 1966 116 2008 148 
Q 2050 181 2050 241 
Q 2050 313 1925 472 
L 1047 1594 
L 1047 644 
Q 1047 366 1086 278 
Q 1125 191 1197 153 
Q 1269 116 1509 113 
L 1509 0 
L 53 0 
L 53 113 
Q 272 113 381 166 
Q 447 200 481 272 
Q 528 375 528 628 
L 528 3234 
Q 528 3731 506 3842 
Q 484 3953 434 3995 
Q 384 4038 303 4038 
Q 238 4038 106 3984 
L 53 4094 
L 903 4444 
L 1047 4444 
z
" transform="scale(0.015625)"/>
       <path id="TimesNewRomanPSMT-67" d="M 966 1044 
Q 703 1172 562 1401 
Q 422 1631 422 1909 
Q 422 2334 742 2640 
Q 1063 2947 1563 2947 
Q 1972 2947 2272 2747 
L 2878 2747 
Q 3013 2747 3034 2739 
Q 3056 2731 3066 2713 
Q 3084 2684 3084 2613 
Q 3084 2531 3069 2500 
Q 3059 2484 3036 2475 
Q 3013 2466 2878 2466 
L 2506 2466 
Q 2681 2241 2681 1891 
Q 2681 1491 2375 1206 
Q 2069 922 1553 922 
Q 1341 922 1119 984 
Q 981 866 932 777 
Q 884 688 884 625 
Q 884 572 936 522 
Q 988 472 1138 450 
Q 1225 438 1575 428 
Q 2219 413 2409 384 
Q 2700 344 2873 169 
Q 3047 -6 3047 -263 
Q 3047 -616 2716 -925 
Q 2228 -1381 1444 -1381 
Q 841 -1381 425 -1109 
Q 191 -953 191 -784 
Q 191 -709 225 -634 
Q 278 -519 444 -313 
Q 466 -284 763 25 
Q 600 122 533 198 
Q 466 275 466 372 
Q 466 481 555 628 
Q 644 775 966 1044 
z
M 1509 2797 
Q 1278 2797 1122 2612 
Q 966 2428 966 2047 
Q 966 1553 1178 1281 
Q 1341 1075 1591 1075 
Q 1828 1075 1981 1253 
Q 2134 1431 2134 1813 
Q 2134 2309 1919 2591 
Q 1759 2797 1509 2797 
z
M 934 0 
Q 788 -159 713 -296 
Q 638 -434 638 -550 
Q 638 -700 819 -813 
Q 1131 -1006 1722 -1006 
Q 2284 -1006 2551 -807 
Q 2819 -609 2819 -384 
Q 2819 -222 2659 -153 
Q 2497 -84 2016 -72 
Q 1313 -53 934 0 
z
" transform="scale(0.015625)"/>
       <path id="TimesNewRomanPSMT-4b" d="M 1913 2350 
L 3475 797 
Q 3859 413 4131 273 
Q 4403 134 4675 116 
L 4675 0 
L 2659 0 
L 2659 116 
Q 2841 116 2920 177 
Q 3000 238 3000 313 
Q 3000 388 2970 447 
Q 2941 506 2775 669 
L 1313 2116 
L 1313 750 
Q 1313 428 1353 325 
Q 1384 247 1484 191 
Q 1619 116 1769 116 
L 1913 116 
L 1913 0 
L 106 0 
L 106 116 
L 256 116 
Q 519 116 638 269 
Q 713 369 713 750 
L 713 3488 
Q 713 3809 672 3916 
Q 641 3991 544 4047 
Q 406 4122 256 4122 
L 106 4122 
L 106 4238 
L 1913 4238 
L 1913 4122 
L 1769 4122 
Q 1622 4122 1484 4050 
Q 1388 4000 1350 3900 
Q 1313 3800 1313 3488 
L 1313 2191 
Q 1375 2250 1741 2588 
Q 2669 3438 2863 3722 
Q 2947 3847 2947 3941 
Q 2947 4013 2881 4067 
Q 2816 4122 2659 4122 
L 2563 4122 
L 2563 4238 
L 4119 4238 
L 4119 4122 
Q 3981 4119 3868 4084 
Q 3756 4050 3593 3951 
Q 3431 3853 3194 3634 
Q 3125 3572 2559 2994 
L 1913 2350 
z
" transform="scale(0.015625)"/>
       <path id="TimesNewRomanPSMT-29" d="M 144 4313 
L 144 4444 
Q 619 4209 934 3891 
Q 1381 3434 1625 2820 
Q 1869 2206 1869 1541 
Q 1869 572 1392 -226 
Q 916 -1025 144 -1369 
L 144 -1253 
Q 528 -1038 776 -670 
Q 1025 -303 1145 264 
Q 1266 831 1266 1447 
Q 1266 2113 1163 2663 
Q 1084 3094 967 3353 
Q 850 3613 656 3853 
Q 463 4094 144 4313 
z
" transform="scale(0.015625)"/>
      </defs>
      <use xlink:href="#TimesNewRomanPSMT-45"/>
      <use xlink:href="#TimesNewRomanPSMT-6e" x="61.083984"/>
      <use xlink:href="#TimesNewRomanPSMT-74" x="111.083984"/>
      <use xlink:href="#TimesNewRomanPSMT-72" x="138.867188"/>
      <use xlink:href="#TimesNewRomanPSMT-6f" x="172.167969"/>
      <use xlink:href="#TimesNewRomanPSMT-70" x="222.167969"/>
      <use xlink:href="#TimesNewRomanPSMT-79" x="272.167969"/>
      <use xlink:href="#TimesNewRomanPSMT-20" x="322.167969"/>
      <use xlink:href="#TimesNewRomanPSMT-28" x="347.167969"/>
      <use xlink:href="#TimesNewRomanPSMT-4a" x="380.46875"/>
      <use xlink:href="#TimesNewRomanPSMT-2f" x="419.384766"/>
      <use xlink:href="#TimesNewRomanPSMT-6b" x="447.167969"/>
      <use xlink:href="#TimesNewRomanPSMT-67" x="497.167969"/>
      <use xlink:href="#TimesNewRomanPSMT-2f" x="547.167969"/>
      <use xlink:href="#TimesNewRomanPSMT-4b" x="574.951172"/>
      <use xlink:href="#TimesNewRomanPSMT-29" x="647.167969"/>
     </g>
     <!--  -->
     <g transform="translate(233.920938 331.835594) scale(0.14 -0.14)"/>
    </g>
   </g>
   <g id="matplotlib.axis_2">
    <g id="ytick_1">
     <g id="line2d_80">
      <path d="M 56.915938 252.463784 
L 410.925938 252.463784 
" clip-path="url(#p4de84f5831)" style="fill: none; stroke: #808080; stroke-width: 0.5; stroke-linecap: square"/>
     </g>
     <g id="line2d_81">
      <defs>
       <path id="md7dd666c6d" d="M 0 0 
L 6 0 
" style="stroke: #000000; stroke-width: 1.25"/>
      </defs>
      <g>
       <use xlink:href="#md7dd666c6d" x="56.915938" y="252.463784" style="fill: #ffffff; stroke: #000000; stroke-width: 1.25"/>
      </g>
     </g>
     <g id="line2d_82">
      <defs>
       <path id="m70bd52597b" d="M 0 0 
L -6 0 
" style="stroke: #000000; stroke-width: 1.25"/>
      </defs>
      <g>
       <use xlink:href="#m70bd52597b" x="410.925938" y="252.463784" style="fill: #ffffff; stroke: #000000; stroke-width: 1.25"/>
      </g>
     </g>
     <g id="text_9">
      <!-- 70 -->
      <g transform="translate(40.415938 256.977221) scale(0.13 -0.13)">
       <defs>
        <path id="TimesNewRomanPSMT-37" d="M 644 4238 
L 2916 4238 
L 2916 4119 
L 1503 -88 
L 1153 -88 
L 2419 3728 
L 1253 3728 
Q 900 3728 750 3644 
Q 488 3500 328 3200 
L 238 3234 
L 644 4238 
z
" transform="scale(0.015625)"/>
       </defs>
       <use xlink:href="#TimesNewRomanPSMT-37"/>
       <use xlink:href="#TimesNewRomanPSMT-30" x="50"/>
      </g>
     </g>
    </g>
    <g id="ytick_2">
     <g id="line2d_83">
      <path d="M 56.915938 215.00362 
L 410.925938 215.00362 
" clip-path="url(#p4de84f5831)" style="fill: none; stroke: #808080; stroke-width: 0.5; stroke-linecap: square"/>
     </g>
     <g id="line2d_84">
      <g>
       <use xlink:href="#md7dd666c6d" x="56.915938" y="215.00362" style="fill: #ffffff; stroke: #000000; stroke-width: 1.25"/>
      </g>
     </g>
     <g id="line2d_85">
      <g>
       <use xlink:href="#m70bd52597b" x="410.925938" y="215.00362" style="fill: #ffffff; stroke: #000000; stroke-width: 1.25"/>
      </g>
     </g>
     <g id="text_10">
      <!-- 80 -->
      <g transform="translate(40.415938 219.517057) scale(0.13 -0.13)">
       <defs>
        <path id="TimesNewRomanPSMT-38" d="M 1228 2134 
Q 725 2547 579 2797 
Q 434 3047 434 3316 
Q 434 3728 753 4026 
Q 1072 4325 1600 4325 
Q 2113 4325 2425 4047 
Q 2738 3769 2738 3413 
Q 2738 3175 2569 2928 
Q 2400 2681 1866 2347 
Q 2416 1922 2594 1678 
Q 2831 1359 2831 1006 
Q 2831 559 2490 242 
Q 2150 -75 1597 -75 
Q 994 -75 656 303 
Q 388 606 388 966 
Q 388 1247 577 1523 
Q 766 1800 1228 2134 
z
M 1719 2469 
Q 2094 2806 2194 3001 
Q 2294 3197 2294 3444 
Q 2294 3772 2109 3958 
Q 1925 4144 1606 4144 
Q 1288 4144 1088 3959 
Q 888 3775 888 3528 
Q 888 3366 970 3203 
Q 1053 3041 1206 2894 
L 1719 2469 
z
M 1375 2016 
Q 1116 1797 991 1539 
Q 866 1281 866 981 
Q 866 578 1086 336 
Q 1306 94 1647 94 
Q 1984 94 2187 284 
Q 2391 475 2391 747 
Q 2391 972 2272 1150 
Q 2050 1481 1375 2016 
z
" transform="scale(0.015625)"/>
       </defs>
       <use xlink:href="#TimesNewRomanPSMT-38"/>
       <use xlink:href="#TimesNewRomanPSMT-30" x="50"/>
      </g>
     </g>
    </g>
    <g id="ytick_3">
     <g id="line2d_86">
      <path d="M 56.915938 177.543456 
L 410.925938 177.543456 
" clip-path="url(#p4de84f5831)" style="fill: none; stroke: #808080; stroke-width: 0.5; stroke-linecap: square"/>
     </g>
     <g id="line2d_87">
      <g>
       <use xlink:href="#md7dd666c6d" x="56.915938" y="177.543456" style="fill: #ffffff; stroke: #000000; stroke-width: 1.25"/>
      </g>
     </g>
     <g id="line2d_88">
      <g>
       <use xlink:href="#m70bd52597b" x="410.925938" y="177.543456" style="fill: #ffffff; stroke: #000000; stroke-width: 1.25"/>
      </g>
     </g>
     <g id="text_11">
      <!-- 90 -->
      <g transform="translate(40.415938 182.056894) scale(0.13 -0.13)">
       <defs>
        <path id="TimesNewRomanPSMT-39" d="M 338 -88 
L 338 28 
Q 744 34 1094 217 
Q 1444 400 1770 856 
Q 2097 1313 2225 1859 
Q 1734 1544 1338 1544 
Q 891 1544 572 1889 
Q 253 2234 253 2806 
Q 253 3363 572 3797 
Q 956 4325 1575 4325 
Q 2097 4325 2469 3894 
Q 2925 3359 2925 2575 
Q 2925 1869 2578 1258 
Q 2231 647 1613 244 
Q 1109 -88 516 -88 
L 338 -88 
z
M 2275 2091 
Q 2331 2497 2331 2741 
Q 2331 3044 2228 3395 
Q 2125 3747 1936 3934 
Q 1747 4122 1506 4122 
Q 1228 4122 1018 3872 
Q 809 3622 809 3128 
Q 809 2469 1088 2097 
Q 1291 1828 1588 1828 
Q 1731 1828 1928 1897 
Q 2125 1966 2275 2091 
z
" transform="scale(0.015625)"/>
       </defs>
       <use xlink:href="#TimesNewRomanPSMT-39"/>
       <use xlink:href="#TimesNewRomanPSMT-30" x="50"/>
      </g>
     </g>
    </g>
    <g id="ytick_4">
     <g id="line2d_89">
      <path d="M 56.915938 140.083292 
L 410.925938 140.083292 
" clip-path="url(#p4de84f5831)" style="fill: none; stroke: #808080; stroke-width: 0.5; stroke-linecap: square"/>
     </g>
     <g id="line2d_90">
      <g>
       <use xlink:href="#md7dd666c6d" x="56.915938" y="140.083292" style="fill: #ffffff; stroke: #000000; stroke-width: 1.25"/>
      </g>
     </g>
     <g id="line2d_91">
      <g>
       <use xlink:href="#m70bd52597b" x="410.925938" y="140.083292" style="fill: #ffffff; stroke: #000000; stroke-width: 1.25"/>
      </g>
     </g>
     <g id="text_12">
      <!-- 100 -->
      <g transform="translate(33.915938 144.59673) scale(0.13 -0.13)">
       <defs>
        <path id="TimesNewRomanPSMT-31" d="M 750 3822 
L 1781 4325 
L 1884 4325 
L 1884 747 
Q 1884 391 1914 303 
Q 1944 216 2037 169 
Q 2131 122 2419 116 
L 2419 0 
L 825 0 
L 825 116 
Q 1125 122 1212 167 
Q 1300 213 1334 289 
Q 1369 366 1369 747 
L 1369 3034 
Q 1369 3497 1338 3628 
Q 1316 3728 1258 3775 
Q 1200 3822 1119 3822 
Q 1003 3822 797 3725 
L 750 3822 
z
" transform="scale(0.015625)"/>
       </defs>
       <use xlink:href="#TimesNewRomanPSMT-31"/>
       <use xlink:href="#TimesNewRomanPSMT-30" x="50"/>
       <use xlink:href="#TimesNewRomanPSMT-30" x="100"/>
      </g>
     </g>
    </g>
    <g id="ytick_5">
     <g id="line2d_92">
      <path d="M 56.915938 102.623128 
L 410.925938 102.623128 
" clip-path="url(#p4de84f5831)" style="fill: none; stroke: #808080; stroke-width: 0.5; stroke-linecap: square"/>
     </g>
     <g id="line2d_93">
      <g>
       <use xlink:href="#md7dd666c6d" x="56.915938" y="102.623128" style="fill: #ffffff; stroke: #000000; stroke-width: 1.25"/>
      </g>
     </g>
     <g id="line2d_94">
      <g>
       <use xlink:href="#m70bd52597b" x="410.925938" y="102.623128" style="fill: #ffffff; stroke: #000000; stroke-width: 1.25"/>
      </g>
     </g>
     <g id="text_13">
      <!-- 110 -->
      <g transform="translate(34.403438 107.136566) scale(0.13 -0.13)">
       <use xlink:href="#TimesNewRomanPSMT-31"/>
       <use xlink:href="#TimesNewRomanPSMT-31" x="46.25"/>
       <use xlink:href="#TimesNewRomanPSMT-30" x="96.25"/>
      </g>
     </g>
    </g>
    <g id="ytick_6">
     <g id="line2d_95">
      <path d="M 56.915938 65.162964 
L 410.925938 65.162964 
" clip-path="url(#p4de84f5831)" style="fill: none; stroke: #808080; stroke-width: 0.5; stroke-linecap: square"/>
     </g>
     <g id="line2d_96">
      <g>
       <use xlink:href="#md7dd666c6d" x="56.915938" y="65.162964" style="fill: #ffffff; stroke: #000000; stroke-width: 1.25"/>
      </g>
     </g>
     <g id="line2d_97">
      <g>
       <use xlink:href="#m70bd52597b" x="410.925938" y="65.162964" style="fill: #ffffff; stroke: #000000; stroke-width: 1.25"/>
      </g>
     </g>
     <g id="text_14">
      <!-- 120 -->
      <g transform="translate(33.915938 69.676402) scale(0.13 -0.13)">
       <use xlink:href="#TimesNewRomanPSMT-31"/>
       <use xlink:href="#TimesNewRomanPSMT-32" x="50"/>
       <use xlink:href="#TimesNewRomanPSMT-30" x="100"/>
      </g>
     </g>
    </g>
    <g id="ytick_7">
     <g id="line2d_98">
      <defs>
       <path id="ma6427e6152" d="M 0 0 
L 3 0 
" style="stroke: #000000; stroke-width: 0.75"/>
      </defs>
      <g>
       <use xlink:href="#ma6427e6152" x="56.915938" y="274.939882" style="fill: #ffffff; stroke: #000000; stroke-width: 0.75"/>
      </g>
     </g>
     <g id="line2d_99">
      <defs>
       <path id="ma3a1544b26" d="M 0 0 
L -3 0 
" style="stroke: #000000; stroke-width: 0.75"/>
      </defs>
      <g>
       <use xlink:href="#ma3a1544b26" x="410.925938" y="274.939882" style="fill: #ffffff; stroke: #000000; stroke-width: 0.75"/>
      </g>
     </g>
    </g>
    <g id="ytick_8">
     <g id="line2d_100">
      <g>
       <use xlink:href="#ma6427e6152" x="56.915938" y="267.447849" style="fill: #ffffff; stroke: #000000; stroke-width: 0.75"/>
      </g>
     </g>
     <g id="line2d_101">
      <g>
       <use xlink:href="#ma3a1544b26" x="410.925938" y="267.447849" style="fill: #ffffff; stroke: #000000; stroke-width: 0.75"/>
      </g>
     </g>
    </g>
    <g id="ytick_9">
     <g id="line2d_102">
      <g>
       <use xlink:href="#ma6427e6152" x="56.915938" y="259.955817" style="fill: #ffffff; stroke: #000000; stroke-width: 0.75"/>
      </g>
     </g>
     <g id="line2d_103">
      <g>
       <use xlink:href="#ma3a1544b26" x="410.925938" y="259.955817" style="fill: #ffffff; stroke: #000000; stroke-width: 0.75"/>
      </g>
     </g>
    </g>
    <g id="ytick_10">
     <g id="line2d_104">
      <g>
       <use xlink:href="#ma6427e6152" x="56.915938" y="244.971751" style="fill: #ffffff; stroke: #000000; stroke-width: 0.75"/>
      </g>
     </g>
     <g id="line2d_105">
      <g>
       <use xlink:href="#ma3a1544b26" x="410.925938" y="244.971751" style="fill: #ffffff; stroke: #000000; stroke-width: 0.75"/>
      </g>
     </g>
    </g>
    <g id="ytick_11">
     <g id="line2d_106">
      <g>
       <use xlink:href="#ma6427e6152" x="56.915938" y="237.479718" style="fill: #ffffff; stroke: #000000; stroke-width: 0.75"/>
      </g>
     </g>
     <g id="line2d_107">
      <g>
       <use xlink:href="#ma3a1544b26" x="410.925938" y="237.479718" style="fill: #ffffff; stroke: #000000; stroke-width: 0.75"/>
      </g>
     </g>
    </g>
    <g id="ytick_12">
     <g id="line2d_108">
      <g>
       <use xlink:href="#ma6427e6152" x="56.915938" y="229.987685" style="fill: #ffffff; stroke: #000000; stroke-width: 0.75"/>
      </g>
     </g>
     <g id="line2d_109">
      <g>
       <use xlink:href="#ma3a1544b26" x="410.925938" y="229.987685" style="fill: #ffffff; stroke: #000000; stroke-width: 0.75"/>
      </g>
     </g>
    </g>
    <g id="ytick_13">
     <g id="line2d_110">
      <g>
       <use xlink:href="#ma6427e6152" x="56.915938" y="222.495653" style="fill: #ffffff; stroke: #000000; stroke-width: 0.75"/>
      </g>
     </g>
     <g id="line2d_111">
      <g>
       <use xlink:href="#ma3a1544b26" x="410.925938" y="222.495653" style="fill: #ffffff; stroke: #000000; stroke-width: 0.75"/>
      </g>
     </g>
    </g>
    <g id="ytick_14">
     <g id="line2d_112">
      <g>
       <use xlink:href="#ma6427e6152" x="56.915938" y="207.511587" style="fill: #ffffff; stroke: #000000; stroke-width: 0.75"/>
      </g>
     </g>
     <g id="line2d_113">
      <g>
       <use xlink:href="#ma3a1544b26" x="410.925938" y="207.511587" style="fill: #ffffff; stroke: #000000; stroke-width: 0.75"/>
      </g>
     </g>
    </g>
    <g id="ytick_15">
     <g id="line2d_114">
      <g>
       <use xlink:href="#ma6427e6152" x="56.915938" y="200.019554" style="fill: #ffffff; stroke: #000000; stroke-width: 0.75"/>
      </g>
     </g>
     <g id="line2d_115">
      <g>
       <use xlink:href="#ma3a1544b26" x="410.925938" y="200.019554" style="fill: #ffffff; stroke: #000000; stroke-width: 0.75"/>
      </g>
     </g>
    </g>
    <g id="ytick_16">
     <g id="line2d_116">
      <g>
       <use xlink:href="#ma6427e6152" x="56.915938" y="192.527522" style="fill: #ffffff; stroke: #000000; stroke-width: 0.75"/>
      </g>
     </g>
     <g id="line2d_117">
      <g>
       <use xlink:href="#ma3a1544b26" x="410.925938" y="192.527522" style="fill: #ffffff; stroke: #000000; stroke-width: 0.75"/>
      </g>
     </g>
    </g>
    <g id="ytick_17">
     <g id="line2d_118">
      <g>
       <use xlink:href="#ma6427e6152" x="56.915938" y="185.035489" style="fill: #ffffff; stroke: #000000; stroke-width: 0.75"/>
      </g>
     </g>
     <g id="line2d_119">
      <g>
       <use xlink:href="#ma3a1544b26" x="410.925938" y="185.035489" style="fill: #ffffff; stroke: #000000; stroke-width: 0.75"/>
      </g>
     </g>
    </g>
    <g id="ytick_18">
     <g id="line2d_120">
      <g>
       <use xlink:href="#ma6427e6152" x="56.915938" y="170.051423" style="fill: #ffffff; stroke: #000000; stroke-width: 0.75"/>
      </g>
     </g>
     <g id="line2d_121">
      <g>
       <use xlink:href="#ma3a1544b26" x="410.925938" y="170.051423" style="fill: #ffffff; stroke: #000000; stroke-width: 0.75"/>
      </g>
     </g>
    </g>
    <g id="ytick_19">
     <g id="line2d_122">
      <g>
       <use xlink:href="#ma6427e6152" x="56.915938" y="162.55939" style="fill: #ffffff; stroke: #000000; stroke-width: 0.75"/>
      </g>
     </g>
     <g id="line2d_123">
      <g>
       <use xlink:href="#ma3a1544b26" x="410.925938" y="162.55939" style="fill: #ffffff; stroke: #000000; stroke-width: 0.75"/>
      </g>
     </g>
    </g>
    <g id="ytick_20">
     <g id="line2d_124">
      <g>
       <use xlink:href="#ma6427e6152" x="56.915938" y="155.067358" style="fill: #ffffff; stroke: #000000; stroke-width: 0.75"/>
      </g>
     </g>
     <g id="line2d_125">
      <g>
       <use xlink:href="#ma3a1544b26" x="410.925938" y="155.067358" style="fill: #ffffff; stroke: #000000; stroke-width: 0.75"/>
      </g>
     </g>
    </g>
    <g id="ytick_21">
     <g id="line2d_126">
      <g>
       <use xlink:href="#ma6427e6152" x="56.915938" y="147.575325" style="fill: #ffffff; stroke: #000000; stroke-width: 0.75"/>
      </g>
     </g>
     <g id="line2d_127">
      <g>
       <use xlink:href="#ma3a1544b26" x="410.925938" y="147.575325" style="fill: #ffffff; stroke: #000000; stroke-width: 0.75"/>
      </g>
     </g>
    </g>
    <g id="ytick_22">
     <g id="line2d_128">
      <g>
       <use xlink:href="#ma6427e6152" x="56.915938" y="132.591259" style="fill: #ffffff; stroke: #000000; stroke-width: 0.75"/>
      </g>
     </g>
     <g id="line2d_129">
      <g>
       <use xlink:href="#ma3a1544b26" x="410.925938" y="132.591259" style="fill: #ffffff; stroke: #000000; stroke-width: 0.75"/>
      </g>
     </g>
    </g>
    <g id="ytick_23">
     <g id="line2d_130">
      <g>
       <use xlink:href="#ma6427e6152" x="56.915938" y="125.099227" style="fill: #ffffff; stroke: #000000; stroke-width: 0.75"/>
      </g>
     </g>
     <g id="line2d_131">
      <g>
       <use xlink:href="#ma3a1544b26" x="410.925938" y="125.099227" style="fill: #ffffff; stroke: #000000; stroke-width: 0.75"/>
      </g>
     </g>
    </g>
    <g id="ytick_24">
     <g id="line2d_132">
      <g>
       <use xlink:href="#ma6427e6152" x="56.915938" y="117.607194" style="fill: #ffffff; stroke: #000000; stroke-width: 0.75"/>
      </g>
     </g>
     <g id="line2d_133">
      <g>
       <use xlink:href="#ma3a1544b26" x="410.925938" y="117.607194" style="fill: #ffffff; stroke: #000000; stroke-width: 0.75"/>
      </g>
     </g>
    </g>
    <g id="ytick_25">
     <g id="line2d_134">
      <g>
       <use xlink:href="#ma6427e6152" x="56.915938" y="110.115161" style="fill: #ffffff; stroke: #000000; stroke-width: 0.75"/>
      </g>
     </g>
     <g id="line2d_135">
      <g>
       <use xlink:href="#ma3a1544b26" x="410.925938" y="110.115161" style="fill: #ffffff; stroke: #000000; stroke-width: 0.75"/>
      </g>
     </g>
    </g>
    <g id="ytick_26">
     <g id="line2d_136">
      <g>
       <use xlink:href="#ma6427e6152" x="56.915938" y="95.131096" style="fill: #ffffff; stroke: #000000; stroke-width: 0.75"/>
      </g>
     </g>
     <g id="line2d_137">
      <g>
       <use xlink:href="#ma3a1544b26" x="410.925938" y="95.131096" style="fill: #ffffff; stroke: #000000; stroke-width: 0.75"/>
      </g>
     </g>
    </g>
    <g id="ytick_27">
     <g id="line2d_138">
      <g>
       <use xlink:href="#ma6427e6152" x="56.915938" y="87.639063" style="fill: #ffffff; stroke: #000000; stroke-width: 0.75"/>
      </g>
     </g>
     <g id="line2d_139">
      <g>
       <use xlink:href="#ma3a1544b26" x="410.925938" y="87.639063" style="fill: #ffffff; stroke: #000000; stroke-width: 0.75"/>
      </g>
     </g>
    </g>
    <g id="ytick_28">
     <g id="line2d_140">
      <g>
       <use xlink:href="#ma6427e6152" x="56.915938" y="80.14703" style="fill: #ffffff; stroke: #000000; stroke-width: 0.75"/>
      </g>
     </g>
     <g id="line2d_141">
      <g>
       <use xlink:href="#ma3a1544b26" x="410.925938" y="80.14703" style="fill: #ffffff; stroke: #000000; stroke-width: 0.75"/>
      </g>
     </g>
    </g>
    <g id="ytick_29">
     <g id="line2d_142">
      <g>
       <use xlink:href="#ma6427e6152" x="56.915938" y="72.654997" style="fill: #ffffff; stroke: #000000; stroke-width: 0.75"/>
      </g>
     </g>
     <g id="line2d_143">
      <g>
       <use xlink:href="#ma3a1544b26" x="410.925938" y="72.654997" style="fill: #ffffff; stroke: #000000; stroke-width: 0.75"/>
      </g>
     </g>
    </g>
    <g id="ytick_30">
     <g id="line2d_144">
      <g>
       <use xlink:href="#ma6427e6152" x="56.915938" y="57.670932" style="fill: #ffffff; stroke: #000000; stroke-width: 0.75"/>
      </g>
     </g>
     <g id="line2d_145">
      <g>
       <use xlink:href="#ma3a1544b26" x="410.925938" y="57.670932" style="fill: #ffffff; stroke: #000000; stroke-width: 0.75"/>
      </g>
     </g>
    </g>
    <g id="ytick_31">
     <g id="line2d_146">
      <g>
       <use xlink:href="#ma6427e6152" x="56.915938" y="50.178899" style="fill: #ffffff; stroke: #000000; stroke-width: 0.75"/>
      </g>
     </g>
     <g id="line2d_147">
      <g>
       <use xlink:href="#ma3a1544b26" x="410.925938" y="50.178899" style="fill: #ffffff; stroke: #000000; stroke-width: 0.75"/>
      </g>
     </g>
    </g>
    <g id="ytick_32">
     <g id="line2d_148">
      <g>
       <use xlink:href="#ma6427e6152" x="56.915938" y="42.686866" style="fill: #ffffff; stroke: #000000; stroke-width: 0.75"/>
      </g>
     </g>
     <g id="line2d_149">
      <g>
       <use xlink:href="#ma3a1544b26" x="410.925938" y="42.686866" style="fill: #ffffff; stroke: #000000; stroke-width: 0.75"/>
      </g>
     </g>
    </g>
    <g id="ytick_33">
     <g id="line2d_150">
      <g>
       <use xlink:href="#ma6427e6152" x="56.915938" y="35.194833" style="fill: #ffffff; stroke: #000000; stroke-width: 0.75"/>
      </g>
     </g>
     <g id="line2d_151">
      <g>
       <use xlink:href="#ma3a1544b26" x="410.925938" y="35.194833" style="fill: #ffffff; stroke: #000000; stroke-width: 0.75"/>
      </g>
     </g>
    </g>
    <g id="text_15">
     <!-- Temperature (K) -->
     <g transform="translate(16.92125 200.872781) rotate(-90) scale(0.14 -0.14)">
      <defs>
       <path id="TimesNewRomanPSMT-54" d="M 3703 4238 
L 3750 3244 
L 3631 3244 
Q 3597 3506 3538 3619 
Q 3441 3800 3280 3886 
Q 3119 3972 2856 3972 
L 2259 3972 
L 2259 734 
Q 2259 344 2344 247 
Q 2463 116 2709 116 
L 2856 116 
L 2856 0 
L 1059 0 
L 1059 116 
L 1209 116 
Q 1478 116 1591 278 
Q 1659 378 1659 734 
L 1659 3972 
L 1150 3972 
Q 853 3972 728 3928 
Q 566 3869 450 3700 
Q 334 3531 313 3244 
L 194 3244 
L 244 4238 
L 3703 4238 
z
" transform="scale(0.015625)"/>
       <path id="TimesNewRomanPSMT-65" d="M 681 1784 
Q 678 1147 991 784 
Q 1303 422 1725 422 
Q 2006 422 2214 576 
Q 2422 731 2563 1106 
L 2659 1044 
Q 2594 616 2278 264 
Q 1963 -88 1488 -88 
Q 972 -88 605 314 
Q 238 716 238 1394 
Q 238 2128 614 2539 
Q 991 2950 1559 2950 
Q 2041 2950 2350 2633 
Q 2659 2316 2659 1784 
L 681 1784 
z
M 681 1966 
L 2006 1966 
Q 1991 2241 1941 2353 
Q 1863 2528 1708 2628 
Q 1553 2728 1384 2728 
Q 1125 2728 920 2526 
Q 716 2325 681 1966 
z
" transform="scale(0.015625)"/>
       <path id="TimesNewRomanPSMT-6d" d="M 1050 2338 
Q 1363 2650 1419 2697 
Q 1559 2816 1721 2881 
Q 1884 2947 2044 2947 
Q 2313 2947 2506 2790 
Q 2700 2634 2766 2338 
Q 3088 2713 3309 2830 
Q 3531 2947 3766 2947 
Q 3994 2947 4170 2830 
Q 4347 2713 4450 2447 
Q 4519 2266 4519 1878 
L 4519 647 
Q 4519 378 4559 278 
Q 4591 209 4675 161 
Q 4759 113 4950 113 
L 4950 0 
L 3538 0 
L 3538 113 
L 3597 113 
Q 3781 113 3884 184 
Q 3956 234 3988 344 
Q 4000 397 4000 647 
L 4000 1878 
Q 4000 2228 3916 2372 
Q 3794 2572 3525 2572 
Q 3359 2572 3192 2489 
Q 3025 2406 2788 2181 
L 2781 2147 
L 2788 2013 
L 2788 647 
Q 2788 353 2820 281 
Q 2853 209 2943 161 
Q 3034 113 3253 113 
L 3253 0 
L 1806 0 
L 1806 113 
Q 2044 113 2133 169 
Q 2222 225 2256 338 
Q 2272 391 2272 647 
L 2272 1878 
Q 2272 2228 2169 2381 
Q 2031 2581 1784 2581 
Q 1616 2581 1450 2491 
Q 1191 2353 1050 2181 
L 1050 647 
Q 1050 366 1089 281 
Q 1128 197 1204 155 
Q 1281 113 1516 113 
L 1516 0 
L 100 0 
L 100 113 
Q 297 113 375 155 
Q 453 197 493 289 
Q 534 381 534 647 
L 534 1741 
Q 534 2213 506 2350 
Q 484 2453 437 2492 
Q 391 2531 309 2531 
Q 222 2531 100 2484 
L 53 2597 
L 916 2947 
L 1050 2947 
L 1050 2338 
z
" transform="scale(0.015625)"/>
       <path id="TimesNewRomanPSMT-61" d="M 1822 413 
Q 1381 72 1269 19 
Q 1100 -59 909 -59 
Q 613 -59 420 144 
Q 228 347 228 678 
Q 228 888 322 1041 
Q 450 1253 767 1440 
Q 1084 1628 1822 1897 
L 1822 2009 
Q 1822 2438 1686 2597 
Q 1550 2756 1291 2756 
Q 1094 2756 978 2650 
Q 859 2544 859 2406 
L 866 2225 
Q 866 2081 792 2003 
Q 719 1925 600 1925 
Q 484 1925 411 2006 
Q 338 2088 338 2228 
Q 338 2497 613 2722 
Q 888 2947 1384 2947 
Q 1766 2947 2009 2819 
Q 2194 2722 2281 2516 
Q 2338 2381 2338 1966 
L 2338 994 
Q 2338 584 2353 492 
Q 2369 400 2405 369 
Q 2441 338 2488 338 
Q 2538 338 2575 359 
Q 2641 400 2828 588 
L 2828 413 
Q 2478 -56 2159 -56 
Q 2006 -56 1915 50 
Q 1825 156 1822 413 
z
M 1822 616 
L 1822 1706 
Q 1350 1519 1213 1441 
Q 966 1303 859 1153 
Q 753 1003 753 825 
Q 753 600 887 451 
Q 1022 303 1197 303 
Q 1434 303 1822 616 
z
" transform="scale(0.015625)"/>
       <path id="TimesNewRomanPSMT-75" d="M 2709 2863 
L 2709 1128 
Q 2709 631 2732 520 
Q 2756 409 2807 365 
Q 2859 322 2928 322 
Q 3025 322 3147 375 
L 3191 266 
L 2334 -88 
L 2194 -88 
L 2194 519 
Q 1825 119 1631 15 
Q 1438 -88 1222 -88 
Q 981 -88 804 51 
Q 628 191 559 409 
Q 491 628 491 1028 
L 491 2306 
Q 491 2509 447 2587 
Q 403 2666 317 2708 
Q 231 2750 6 2747 
L 6 2863 
L 1009 2863 
L 1009 947 
Q 1009 547 1148 422 
Q 1288 297 1484 297 
Q 1619 297 1789 381 
Q 1959 466 2194 703 
L 2194 2325 
Q 2194 2569 2105 2655 
Q 2016 2741 1734 2747 
L 1734 2863 
L 2709 2863 
z
" transform="scale(0.015625)"/>
      </defs>
      <use xlink:href="#TimesNewRomanPSMT-54"/>
      <use xlink:href="#TimesNewRomanPSMT-65" x="54.083984"/>
      <use xlink:href="#TimesNewRomanPSMT-6d" x="98.46875"/>
      <use xlink:href="#TimesNewRomanPSMT-70" x="176.251953"/>
      <use xlink:href="#TimesNewRomanPSMT-65" x="226.251953"/>
      <use xlink:href="#TimesNewRomanPSMT-72" x="270.636719"/>
      <use xlink:href="#TimesNewRomanPSMT-61" x="303.9375"/>
      <use xlink:href="#TimesNewRomanPSMT-74" x="348.322266"/>
      <use xlink:href="#TimesNewRomanPSMT-75" x="376.105469"/>
      <use xlink:href="#TimesNewRomanPSMT-72" x="426.105469"/>
      <use xlink:href="#TimesNewRomanPSMT-65" x="459.40625"/>
      <use xlink:href="#TimesNewRomanPSMT-20" x="503.791016"/>
      <use xlink:href="#TimesNewRomanPSMT-28" x="528.791016"/>
      <use xlink:href="#TimesNewRomanPSMT-4b" x="562.091797"/>
      <use xlink:href="#TimesNewRomanPSMT-29" x="634.308594"/>
     </g>
    </g>
   </g>
   <g id="line2d_152">
    <path d="M 73.773557 278.12025 
L 81.039585 269.264527 
L 88.062026 260.408804 
L 94.860074 251.55308 
L 101.451608 242.697357 
L 107.853324 233.841634 
L 114.08088 224.985911 
L 120.149063 216.130187 
L 126.071954 207.274464 
L 131.8631 198.418741 
L 137.535693 189.563018 
L 143.102766 180.707295 
L 148.577411 171.851571 
L 153.973027 162.995848 
L 159.303631 154.140125 
L 164.584241 145.284402 
L 169.831396 136.428679 
L 175.063861 127.572955 
L 180.303664 118.717232 
L 185.577658 109.861509 
L 190.920007 101.005786 
L 196.376465 92.150062 
L 202.01249 83.294339 
L 207.930465 74.438616 
L 214.311851 65.582893 
L 214.311851 65.582893 
L 218.568448 60.196153 
L 222.172509 56.038151 
L 225.250948 52.828607 
L 227.901348 50.351173 
L 230.199401 48.438852 
L 232.204442 46.96274 
L 233.963604 45.823335 
L 235.514897 44.943833 
L 236.889422 44.264949 
L 238.112949 43.740921 
L 239.207029 43.336426 
L 240.189798 43.024198 
L 241.076568 42.783191 
L 241.880289 42.597158 
L 242.61191 42.45356 
L 243.280681 42.342718 
L 243.894397 42.257159 
L 244.459604 42.191116 
L 244.981768 42.140138 
L 245.465426 42.100789 
L 245.914302 42.070415 
L 246.331417 42.046969 
L 246.719188 42.028872 
L 247.07952 42.014903 
L 250.536917 41.967631 
L 250.536917 41.967631 
L 254.311268 42.014903 
L 254.732593 42.028872 
L 255.190178 42.046969 
L 255.68681 42.070415 
L 256.225874 42.100789 
L 256.811437 42.140138 
L 257.44834 42.191116 
L 258.142285 42.257159 
L 258.89993 42.342718 
L 259.728989 42.45356 
L 260.638333 42.597158 
L 261.638111 42.783191 
L 262.739864 43.024198 
L 263.956647 43.336426 
L 265.30315 43.740921 
L 266.795814 44.264949 
L 268.452956 44.943833 
L 270.29491 45.823335 
L 272.344241 46.96274 
L 274.626077 48.438852 
L 277.168703 50.351173 
L 280.00455 52.828607 
L 283.171841 56.038151 
L 286.717243 60.196153 
L 290.700118 65.582893 
L 290.700118 65.582893 
L 296.318064 74.438616 
L 301.221681 83.294339 
L 305.678008 92.150062 
L 309.838966 101.005786 
L 313.803704 109.861509 
L 317.643702 118.717232 
L 321.413678 127.572955 
L 325.157371 136.428679 
L 328.91173 145.284402 
L 332.709966 154.140125 
L 336.583516 162.995848 
L 340.563277 171.851571 
L 344.680552 180.707295 
L 348.967891 189.563018 
L 353.459892 198.418741 
L 358.193981 207.274464 
L 363.211211 216.130187 
L 368.557136 224.985911 
L 374.282762 233.841634 
L 380.445638 242.697357 
L 387.111105 251.55308 
L 394.353758 260.408804 
L 402.259168 269.264527 
L 410.925938 278.12025 
" clip-path="url(#p4de84f5831)" style="fill: none; stroke: #000000; stroke-width: 1.25; stroke-linecap: square"/>
   </g>
   <g id="line2d_153">
    <path d="M 99.18428 278.12025 
L 115.5154 256.687783 
L 129.027757 237.21601 
L 140.388194 219.525563 
L 150.072077 203.45348 
L 158.42701 188.85171 
L 165.712031 175.585746 
L 172.123573 163.533384 
L 177.828102 152.583602 
L 183.254066 142.635532 
L 187.03268 133.597536 
L 189.807133 125.386357 
L 192.602268 117.926357 
L 195.39219 111.148816 
L 198.149236 104.991301 
L 200.854024 99.39709 
L 203.494622 94.314651 
L 206.064482 89.697166 
L 208.560327 85.5021 
L 210.980491 81.690809 
L 213.323506 78.228183 
L 215.587336 75.082327 
L 217.769213 72.224262 
L 219.866667 69.627659 
L 221.878643 67.2686 
L 221.878643 67.2686 
L 225.05182 61.927594 
L 227.276155 57.804207 
L 229.52602 54.620852 
L 231.514714 52.163225 
L 233.226556 50.265878 
L 234.682897 48.801079 
L 235.912157 47.670219 
L 236.942626 46.797168 
L 237.80055 46.123151 
L 238.509756 45.602794 
L 239.091721 45.201065 
L 239.565723 44.890921 
L 239.948973 44.651482 
L 240.256694 44.46663 
L 240.502188 44.323919 
L 240.696917 44.213743 
L 240.850606 44.128684 
L 240.971389 44.063017 
L 241.065973 44.01232 
L 241.139824 43.973181 
L 241.197349 43.942965 
L 241.242072 43.919637 
L 241.276789 43.901627 
L 241.303706 43.887724 
L 260.301485 43.887724 
L 260.327736 43.901627 
L 260.361566 43.919637 
L 260.405099 43.942965 
L 260.461016 43.973181 
L 260.532675 44.01232 
L 260.624244 44.063017 
L 260.740837 44.128684 
L 260.888648 44.213743 
L 261.075053 44.323919 
L 261.308672 44.46663 
L 261.599354 44.651482 
L 261.958085 44.890921 
L 262.396805 45.201065 
L 262.928154 45.602794 
L 263.56519 46.123151 
L 264.321114 46.797168 
L 265.209043 47.670219 
L 266.24182 48.801079 
L 267.43178 50.265878 
L 268.790232 52.163225 
L 270.326041 54.620852 
L 272.041681 57.804207 
L 273.922012 61.927594 
L 275.898688 67.2686 
L 275.898688 67.2686 
L 276.616336 69.627659 
L 277.284291 72.224262 
L 277.831605 75.082327 
L 278.026417 78.228183 
L 277.995951 81.690809 
L 280.932414 85.5021 
L 283.771186 89.697166 
L 286.440931 94.314651 
L 288.862781 99.39709 
L 290.934841 104.991301 
L 292.505647 111.148816 
L 293.333402 117.926357 
L 293.019866 125.386357 
L 290.881391 133.597536 
L 285.604691 142.635532 
L 285.126609 152.583602 
L 286.983073 163.533384 
L 288.014195 175.585746 
L 289.057335 188.85171 
L 290.192096 203.45348 
L 291.464944 219.525563 
L 292.944386 237.21601 
L 294.732899 256.687783 
L 296.984201 278.12025 
" clip-path="url(#p4de84f5831)" style="fill: none; stroke: #808080; stroke-width: 1.25; stroke-linecap: square"/>
   </g>
   <g id="QuadContourSet_1">
    <path d="M 247.802695 42.014903 
L 247.487728 42.030669 
L 247.146539 42.051693 
L 246.777066 42.07973 
L 246.37661 42.117117 
L 245.941707 42.166974 
L 245.467984 42.233459 
L 244.950003 42.322119 
L 244.381067 42.440348 
L 243.752991 42.59801 
L 243.055812 42.808254 
L 242.277438 43.08862 
L 241.403205 43.462494 
L 240.415318 43.961063 
L 239.292115 44.625916 
L 238.007063 45.512511 
L 236.527339 46.694804 
L 234.811753 48.271417 
L 232.807725 50.373865 
L 230.446957 53.177525 
L 227.639415 56.916265 
L 224.26515 61.901954 
L 220.162934 68.550478 
L 215.113184 77.416428 
L 208.809775 89.239361 
L 208.809775 89.239361 
L 207.11854 92.51627 
L 205.329355 96.020336 
L 203.434574 99.767307 
L 201.425753 103.77402 
L 199.293546 108.058482 
L 197.027569 112.639945 
L 194.616246 117.538999 
L 192.046625 122.777658 
L 189.304159 128.379465 
L 186.372451 134.369593 
L 183.232949 140.77496 
L 179.864592 147.624353 
L 176.243385 154.948549 
L 172.341866 162.780465 
L 168.128472 171.155293 
L 163.566741 180.110671 
L 158.614342 189.686842 
L 153.221853 199.926839 
L 147.331252 210.876681 
L 140.874007 222.585572 
L 133.768675 235.106133 
L 125.917912 248.494627 
L 117.204816 262.81122 
L 107.488795 278.12025 
" clip-path="url(#p4de84f5831)" style="fill: none; stroke-dasharray: 0.75,1.2375; stroke-dashoffset: 0; stroke: #000000; stroke-width: 0.75"/>
    <path d="M 248.52587 42.014903 
L 248.298187 42.030669 
L 248.052214 42.051693 
L 247.786561 42.07973 
L 247.499372 42.117117 
L 247.188233 42.166974 
L 246.850063 42.233459 
L 246.480984 42.322119 
L 246.076178 42.440348 
L 245.629693 42.59801 
L 245.134213 42.808254 
L 244.580765 43.08862 
L 243.95835 43.462494 
L 243.253467 43.961063 
L 242.449482 44.625916 
L 241.525763 45.512511 
L 240.456442 46.694804 
L 239.208633 48.271417 
L 237.739837 50.373865 
L 235.994269 53.177525 
L 233.897817 56.916265 
L 231.351291 61.901954 
L 228.221209 68.550478 
L 224.326148 77.416428 
L 219.414453 89.239361 
L 219.414453 89.239361 
L 218.08927 92.51627 
L 216.684555 96.020336 
L 215.19415 99.767307 
L 213.611294 103.77402 
L 211.928556 108.058482 
L 210.137735 112.639945 
L 208.229763 117.538999 
L 206.194569 122.777658 
L 204.020932 128.379465 
L 201.696315 134.369593 
L 199.206678 140.77496 
L 196.536278 147.624353 
L 193.667451 154.948549 
L 190.580344 162.780465 
L 187.252619 171.155293 
L 183.659125 180.110671 
L 179.771549 189.686842 
L 175.558081 199.926839 
L 170.983135 210.876681 
L 166.007213 222.585572 
L 160.587107 235.106133 
L 154.676793 248.494627 
L 148.229724 262.81122 
L 141.204033 278.12025 
" clip-path="url(#p4de84f5831)" style="fill: none; stroke-dasharray: 0.75,1.2375; stroke-dashoffset: 0; stroke: #000000; stroke-width: 0.75"/>
    <path d="M 249.249044 42.014903 
L 249.108645 42.030669 
L 248.95789 42.051693 
L 248.796056 42.07973 
L 248.622134 42.117117 
L 248.43476 42.166974 
L 248.232141 42.233459 
L 248.011965 42.322119 
L 247.771289 42.440348 
L 247.506395 42.59801 
L 247.212613 42.808254 
L 246.884091 43.08862 
L 246.513494 43.462494 
L 246.091616 43.961063 
L 245.60685 44.625916 
L 245.044462 45.512511 
L 244.385545 46.694804 
L 243.605513 48.271417 
L 242.671949 50.373865 
L 241.541581 53.177525 
L 240.156218 56.916265 
L 238.437431 61.901954 
L 236.279484 68.550478 
L 233.539113 77.416428 
L 230.01913 89.239361 
L 230.01913 89.239361 
L 229.060001 92.51627 
L 228.039756 96.020336 
L 226.953725 99.767307 
L 225.796835 103.77402 
L 224.563565 108.058482 
L 223.247901 112.639945 
L 221.84328 117.538999 
L 220.342512 122.777658 
L 218.737706 128.379465 
L 217.02018 134.369593 
L 215.180407 140.77496 
L 213.207965 147.624353 
L 211.091518 154.948549 
L 208.818822 162.780465 
L 206.376767 171.155293 
L 203.751509 180.110671 
L 200.928756 189.686842 
L 197.894309 199.926839 
L 194.635018 210.876681 
L 191.140418 222.585572 
L 187.405538 235.106133 
L 183.435673 248.494627 
L 179.254631 262.81122 
L 174.919271 278.12025 
" clip-path="url(#p4de84f5831)" style="fill: none; stroke-dasharray: 0.75,1.2375; stroke-dashoffset: 0; stroke: #000000; stroke-width: 0.75"/>
    <path d="M 249.972219 42.014903 
L 249.919104 42.030669 
L 249.863566 42.051693 
L 249.805551 42.07973 
L 249.744896 42.117117 
L 249.681286 42.166974 
L 249.61422 42.233459 
L 249.542947 42.322119 
L 249.4664 42.440348 
L 249.383097 42.59801 
L 249.291014 42.808254 
L 249.187418 43.08862 
L 249.068639 43.462494 
L 248.929764 43.961063 
L 248.764218 44.625916 
L 248.563162 45.512511 
L 248.314647 46.694804 
L 248.002394 48.271417 
L 247.604062 50.373865 
L 247.088893 53.177525 
L 246.414619 56.916265 
L 245.523571 61.901954 
L 244.337759 68.550478 
L 242.752077 77.416428 
L 240.623808 89.239361 
L 240.623808 89.239361 
L 240.030732 92.51627 
L 239.394956 96.020336 
L 238.713301 99.767307 
L 237.982376 103.77402 
L 237.198574 108.058482 
L 236.358067 112.639945 
L 235.456796 117.538999 
L 234.490456 122.777658 
L 233.454479 128.379465 
L 232.344044 134.369593 
L 231.154136 140.77496 
L 229.879651 147.624353 
L 228.515585 154.948549 
L 227.057301 162.780465 
L 225.500915 171.155293 
L 223.843893 180.110671 
L 222.085963 189.686842 
L 220.230537 199.926839 
L 218.2869 210.876681 
L 216.273624 222.585572 
L 214.22397 235.106133 
L 212.194553 248.494627 
L 210.279539 262.81122 
L 208.634509 278.12025 
" clip-path="url(#p4de84f5831)" style="fill: none; stroke-dasharray: 0.75,1.2375; stroke-dashoffset: 0; stroke: #000000; stroke-width: 0.75"/>
    <path d="M 250.695394 42.014903 
L 250.729562 42.030669 
L 250.769241 42.051693 
L 250.815046 42.07973 
L 250.867658 42.117117 
L 250.927813 42.166974 
L 250.996298 42.233459 
L 251.073928 42.322119 
L 251.161511 42.440348 
L 251.259799 42.59801 
L 251.369415 42.808254 
L 251.490745 43.08862 
L 251.623783 43.462494 
L 251.767913 43.961063 
L 251.921585 44.625916 
L 252.081861 45.512511 
L 252.24375 46.694804 
L 252.399274 48.271417 
L 252.536174 50.373865 
L 252.636205 53.177525 
L 252.67302 56.916265 
L 252.609711 61.901954 
L 252.396034 68.550478 
L 251.965041 77.416428 
L 251.228485 89.239361 
L 251.228485 89.239361 
L 251.001463 92.51627 
L 250.750157 96.020336 
L 250.472877 99.767307 
L 250.167917 103.77402 
L 249.833583 108.058482 
L 249.468233 112.639945 
L 249.070313 117.538999 
L 248.6384 122.777658 
L 248.171252 128.379465 
L 247.667909 134.369593 
L 247.127865 140.77496 
L 246.551337 147.624353 
L 245.939652 154.948549 
L 245.295779 162.780465 
L 244.625063 171.155293 
L 243.936276 180.110671 
L 243.24317 189.686842 
L 242.566766 199.926839 
L 241.938783 210.876681 
L 241.40683 222.585572 
L 241.042402 235.106133 
L 240.953433 248.494627 
L 241.304446 262.81122 
L 242.349747 278.12025 
" clip-path="url(#p4de84f5831)" style="fill: none; stroke-dasharray: 0.75,1.2375; stroke-dashoffset: 0; stroke: #000000; stroke-width: 0.75"/>
    <path d="M 251.418569 42.014903 
L 251.540021 42.030669 
L 251.674917 42.051693 
L 251.824542 42.07973 
L 251.99042 42.117117 
L 252.174339 42.166974 
L 252.378377 42.233459 
L 252.604909 42.322119 
L 252.856622 42.440348 
L 253.136501 42.59801 
L 253.447815 42.808254 
L 253.794071 43.08862 
L 254.178928 43.462494 
L 254.606062 43.961063 
L 255.078953 44.625916 
L 255.600561 45.512511 
L 256.172853 46.694804 
L 256.796154 48.271417 
L 257.468286 50.373865 
L 258.183517 53.177525 
L 258.931422 56.916265 
L 259.695852 61.901954 
L 260.454309 68.550478 
L 261.178006 77.416428 
L 261.833162 89.239361 
L 261.833162 89.239361 
L 261.972194 92.51627 
L 262.105357 96.020336 
L 262.232453 99.767307 
L 262.353458 103.77402 
L 262.468592 108.058482 
L 262.578399 112.639945 
L 262.68383 117.538999 
L 262.786344 122.777658 
L 262.888025 128.379465 
L 262.991774 134.369593 
L 263.101594 140.77496 
L 263.223023 147.624353 
L 263.363718 154.948549 
L 263.534258 162.780465 
L 263.749211 171.155293 
L 264.02866 180.110671 
L 264.400377 189.686842 
L 264.902994 199.926839 
L 265.590666 210.876681 
L 266.540036 222.585572 
L 267.860833 235.106133 
L 269.712314 248.494627 
L 272.329354 262.81122 
L 276.064985 278.12025 
" clip-path="url(#p4de84f5831)" style="fill: none; stroke-dasharray: 0.75,1.2375; stroke-dashoffset: 0; stroke: #000000; stroke-width: 0.75"/>
    <path d="M 252.141744 42.014903 
L 252.35048 42.030669 
L 252.580593 42.051693 
L 252.834037 42.07973 
L 253.113181 42.117117 
L 253.420866 42.166974 
L 253.760455 42.233459 
L 254.135891 42.322119 
L 254.551732 42.440348 
L 255.013202 42.59801 
L 255.526216 42.808254 
L 256.097398 43.08862 
L 256.734072 43.462494 
L 257.444211 43.961063 
L 258.236321 44.625916 
L 259.11926 45.512511 
L 260.101955 46.694804 
L 261.193035 48.271417 
L 262.400399 50.373865 
L 263.730829 53.177525 
L 265.189823 56.916265 
L 266.781992 61.901954 
L 268.512584 68.550478 
L 270.39097 77.416428 
L 272.43784 89.239361 
L 272.43784 89.239361 
L 272.942925 92.51627 
L 273.460557 96.020336 
L 273.992029 99.767307 
L 274.538999 103.77402 
L 275.103601 108.058482 
L 275.688565 112.639945 
L 276.297347 117.538999 
L 276.934288 122.777658 
L 277.604798 128.379465 
L 278.315638 134.369593 
L 279.075323 140.77496 
L 279.894709 147.624353 
L 280.787785 154.948549 
L 281.772736 162.780465 
L 282.873359 171.155293 
L 284.121044 180.110671 
L 285.557584 189.686842 
L 287.239222 199.926839 
L 289.242548 210.876681 
L 291.673242 222.585572 
L 294.679265 235.106133 
L 298.471194 248.494627 
L 303.354262 262.81122 
L 309.780223 278.12025 
" clip-path="url(#p4de84f5831)" style="fill: none; stroke-dasharray: 0.75,1.2375; stroke-dashoffset: 0; stroke: #000000; stroke-width: 0.75"/>
    <path d="M 252.864918 42.014903 
L 253.160938 42.030669 
L 253.486268 42.051693 
L 253.843532 42.07973 
L 254.235943 42.117117 
L 254.667392 42.166974 
L 255.142534 42.233459 
L 255.666872 42.322119 
L 256.246843 42.440348 
L 256.889904 42.59801 
L 257.604616 42.808254 
L 258.400724 43.08862 
L 259.289217 43.462494 
L 260.282359 43.961063 
L 261.393688 44.625916 
L 262.637959 45.512511 
L 264.031058 46.694804 
L 265.589915 48.271417 
L 267.332511 50.373865 
L 269.278141 53.177525 
L 271.448224 56.916265 
L 273.868132 61.901954 
L 276.570859 68.550478 
L 279.603934 77.416428 
L 283.042517 89.239361 
L 283.042517 89.239361 
L 283.913656 92.51627 
L 284.815758 96.020336 
L 285.751605 99.767307 
L 286.72454 103.77402 
L 287.73861 108.058482 
L 288.798731 112.639945 
L 289.910864 117.538999 
L 291.082232 122.777658 
L 292.321571 128.379465 
L 293.639503 134.369593 
L 295.049052 140.77496 
L 296.566395 147.624353 
L 298.211852 154.948549 
L 300.011214 162.780465 
L 301.997507 171.155293 
L 304.213428 180.110671 
L 306.714791 189.686842 
L 309.57545 199.926839 
L 312.894431 210.876681 
L 316.806448 222.585572 
L 321.497697 235.106133 
L 327.230074 248.494627 
L 334.379169 262.81122 
L 343.495461 278.12025 
" clip-path="url(#p4de84f5831)" style="fill: none; stroke-dasharray: 0.75,1.2375; stroke-dashoffset: 0; stroke: #000000; stroke-width: 0.75"/>
    <path d="M 253.588093 42.014903 
L 253.971397 42.030669 
L 254.391944 42.051693 
L 254.853027 42.07973 
L 255.358705 42.117117 
L 255.913919 42.166974 
L 256.524612 42.233459 
L 257.197853 42.322119 
L 257.941954 42.440348 
L 258.766606 42.59801 
L 259.683017 42.808254 
L 260.704051 43.08862 
L 261.844361 43.462494 
L 263.120508 43.961063 
L 264.551056 44.625916 
L 266.156659 45.512511 
L 267.960161 46.694804 
L 269.986795 48.271417 
L 272.264623 50.373865 
L 274.825453 53.177525 
L 277.706625 56.916265 
L 280.954273 61.901954 
L 284.629134 68.550478 
L 288.816898 77.416428 
L 293.647195 89.239361 
L 293.647195 89.239361 
L 294.884387 92.51627 
L 296.170958 96.020336 
L 297.51118 99.767307 
L 298.910081 103.77402 
L 300.37362 108.058482 
L 301.908896 112.639945 
L 303.524381 117.538999 
L 305.230175 122.777658 
L 307.038344 128.379465 
L 308.963367 134.369593 
L 311.022782 140.77496 
L 313.238081 147.624353 
L 315.635919 154.948549 
L 318.249693 162.780465 
L 321.121655 171.155293 
L 324.305811 180.110671 
L 327.871998 189.686842 
L 331.911679 199.926839 
L 336.546314 210.876681 
L 341.939653 222.585572 
L 348.316128 235.106133 
L 355.988954 248.494627 
L 365.404077 262.81122 
L 377.210699 278.12025 
" clip-path="url(#p4de84f5831)" style="fill: none; stroke-dasharray: 0.75,1.2375; stroke-dashoffset: 0; stroke: #000000; stroke-width: 0.75"/>
    <path clip-path="url(#p4de84f5831)" style="fill: none; stroke-dasharray: 0.75,1.2375; stroke-dashoffset: 0; stroke: #000000; stroke-width: 0.75"/>
   </g>
   <g id="line2d_154">
    <path d="M 250.536917 41.967631 
" clip-path="url(#p4de84f5831)" style="fill: none; stroke: #000000; stroke-width: 1.25; stroke-linecap: square"/>
    <defs>
     <path id="m689a739d2b" d="M 0 2.25 
C 0.596707 2.25 1.169055 2.012926 1.59099 1.59099 
C 2.012926 1.169055 2.25 0.596707 2.25 0 
C 2.25 -0.596707 2.012926 -1.169055 1.59099 -1.59099 
C 1.169055 -2.012926 0.596707 -2.25 0 -2.25 
C -0.596707 -2.25 -1.169055 -2.012926 -1.59099 -1.59099 
C -2.012926 -1.169055 -2.25 -0.596707 -2.25 0 
C -2.25 0.596707 -2.012926 1.169055 -1.59099 1.59099 
C -1.169055 2.012926 -0.596707 2.25 0 2.25 
z
" style="stroke: #000000; stroke-width: 1.25"/>
    </defs>
    <g clip-path="url(#p4de84f5831)">
     <use xlink:href="#m689a739d2b" x="250.536917" y="41.967631" style="fill: #ffffff; stroke: #000000; stroke-width: 1.25"/>
    </g>
   </g>
   <g id="line2d_155">
    <path d="M 150.707748 167.953654 
L 150.707751 167.953685 
L 150.707754 167.953715 
L 150.727831 168.145989 
L 150.728577 168.153149 
L 150.729324 168.16031 
L 150.730817 168.174635 
L 150.732311 168.188964 
L 150.733805 168.203296 
L 150.73455 168.210454 
L 150.735296 168.217612 
L 150.736788 168.231931 
L 150.73828 168.246253 
L 150.739772 168.260579 
L 150.743502 168.296412 
L 150.744247 168.303575 
L 150.7447 168.30792 
L 150.744885 168.309739 
L 150.74507 168.312214 
L 150.745342 168.319131 
L 150.745537 168.327893 
L 150.745734 168.341004 
L 150.745935 168.359407 
L 150.746224 168.395332 
L 150.746528 168.445243 
L 150.746855 168.511005 
L 150.747209 168.594219 
L 150.747922 168.786724 
L 150.748781 169.042283 
L 150.749821 169.3633 
L 150.751071 169.74934 
L 150.752549 170.197039 
L 150.75534 171.012748 
L 150.757446 171.60738 
L 150.759684 172.227703 
L 150.761372 172.692761 
L 150.763024 173.151097 
L 150.764578 173.591779 
L 150.765964 174.002647 
L 150.767105 174.370276 
L 150.768114 174.75849 
L 150.768228 174.805365 
L 150.768343 174.852276 
L 150.768459 174.899224 
L 150.768575 174.946207 
L 150.768808 175.040284 
L 150.769042 175.134507 
L 150.769279 175.228876 
L 150.769518 175.323392 
L 150.772008 176.276775 
L 150.774695 177.245504 
L 150.77759 178.23019 
L 150.780704 179.231478 
L 150.784051 180.250059 
L 150.78943 181.782594 
L 150.795391 183.356761 
L 150.801987 184.975381 
L 150.809279 186.641593 
L 150.817339 188.358897 
L 150.826244 190.131215 
L 150.836086 191.962966 
L 150.846972 193.859155 
L 150.859023 195.825483 
L 150.869702 197.468752 
L 150.881321 199.1659 
L 150.893982 200.921344 
L 150.907801 202.740096 
L 150.920281 204.305912 
L 150.933746 205.923258 
L 150.948301 207.596357 
L 150.964065 209.330003 
L 150.981178 211.12967 
L 150.995865 212.612948 
L 151.011604 214.145598 
L 151.028503 215.731696 
L 151.046689 217.375873 
L 151.062899 218.791306 
L 151.070993 219.481639 
" clip-path="url(#p4de84f5831)" style="fill: none; stroke: #0072bd; stroke-width: 1.25; stroke-linecap: square"/>
   </g>
   <g id="patch_3">
    <path d="M 56.915938 278.12025 
L 56.915938 30.16 
" style="fill: none; stroke: #000000; stroke-width: 1.25; stroke-linejoin: miter; stroke-linecap: square"/>
   </g>
   <g id="patch_4">
    <path d="M 410.925938 278.12025 
L 410.925938 30.16 
" style="fill: none; stroke: #000000; stroke-width: 1.25; stroke-linejoin: miter; stroke-linecap: square"/>
   </g>
   <g id="patch_5">
    <path d="M 56.915938 278.12025 
L 410.925938 278.12025 
" style="fill: none; stroke: #000000; stroke-width: 1.25; stroke-linejoin: miter; stroke-linecap: square"/>
   </g>
   <g id="patch_6">
    <path d="M 56.915938 30.16 
L 410.925938 30.16 
" style="fill: none; stroke: #000000; stroke-width: 1.25; stroke-linejoin: miter; stroke-linecap: square"/>
   </g>
  </g>
  <g id="text_16">
   <!-- Barotropic process for nitrogen -->
   <g transform="translate(121.2575 16.92125) scale(0.14 -0.14)">
    <defs>
     <path id="TimesNewRomanPSMT-42" d="M 2956 2163 
Q 3397 2069 3616 1863 
Q 3919 1575 3919 1159 
Q 3919 844 3719 555 
Q 3519 266 3170 133 
Q 2822 0 2106 0 
L 106 0 
L 106 116 
L 266 116 
Q 531 116 647 284 
Q 719 394 719 750 
L 719 3488 
Q 719 3881 628 3984 
Q 506 4122 266 4122 
L 106 4122 
L 106 4238 
L 1938 4238 
Q 2450 4238 2759 4163 
Q 3228 4050 3475 3764 
Q 3722 3478 3722 3106 
Q 3722 2788 3528 2536 
Q 3334 2284 2956 2163 
z
M 1319 2331 
Q 1434 2309 1582 2298 
Q 1731 2288 1909 2288 
Q 2366 2288 2595 2386 
Q 2825 2484 2947 2687 
Q 3069 2891 3069 3131 
Q 3069 3503 2766 3765 
Q 2463 4028 1881 4028 
Q 1569 4028 1319 3959 
L 1319 2331 
z
M 1319 306 
Q 1681 222 2034 222 
Q 2600 222 2897 476 
Q 3194 731 3194 1106 
Q 3194 1353 3059 1581 
Q 2925 1809 2622 1940 
Q 2319 2072 1872 2072 
Q 1678 2072 1540 2065 
Q 1403 2059 1319 2044 
L 1319 306 
z
" transform="scale(0.015625)"/>
     <path id="TimesNewRomanPSMT-69" d="M 928 4444 
Q 1059 4444 1151 4351 
Q 1244 4259 1244 4128 
Q 1244 3997 1151 3903 
Q 1059 3809 928 3809 
Q 797 3809 703 3903 
Q 609 3997 609 4128 
Q 609 4259 701 4351 
Q 794 4444 928 4444 
z
M 1188 2947 
L 1188 647 
Q 1188 378 1227 289 
Q 1266 200 1342 156 
Q 1419 113 1622 113 
L 1622 0 
L 231 0 
L 231 113 
Q 441 113 512 153 
Q 584 194 626 287 
Q 669 381 669 647 
L 669 1750 
Q 669 2216 641 2353 
Q 619 2453 572 2492 
Q 525 2531 444 2531 
Q 356 2531 231 2484 
L 188 2597 
L 1050 2947 
L 1188 2947 
z
" transform="scale(0.015625)"/>
     <path id="TimesNewRomanPSMT-63" d="M 2631 1088 
Q 2516 522 2178 217 
Q 1841 -88 1431 -88 
Q 944 -88 581 321 
Q 219 731 219 1428 
Q 219 2103 620 2525 
Q 1022 2947 1584 2947 
Q 2006 2947 2278 2723 
Q 2550 2500 2550 2259 
Q 2550 2141 2473 2067 
Q 2397 1994 2259 1994 
Q 2075 1994 1981 2113 
Q 1928 2178 1911 2362 
Q 1894 2547 1784 2644 
Q 1675 2738 1481 2738 
Q 1169 2738 978 2506 
Q 725 2200 725 1697 
Q 725 1184 976 792 
Q 1228 400 1656 400 
Q 1963 400 2206 609 
Q 2378 753 2541 1131 
L 2631 1088 
z
" transform="scale(0.015625)"/>
     <path id="TimesNewRomanPSMT-73" d="M 2050 2947 
L 2050 1972 
L 1947 1972 
Q 1828 2431 1642 2597 
Q 1456 2763 1169 2763 
Q 950 2763 815 2647 
Q 681 2531 681 2391 
Q 681 2216 781 2091 
Q 878 1963 1175 1819 
L 1631 1597 
Q 2266 1288 2266 781 
Q 2266 391 1970 151 
Q 1675 -88 1309 -88 
Q 1047 -88 709 6 
Q 606 38 541 38 
Q 469 38 428 -44 
L 325 -44 
L 325 978 
L 428 978 
Q 516 541 762 319 
Q 1009 97 1316 97 
Q 1531 97 1667 223 
Q 1803 350 1803 528 
Q 1803 744 1651 891 
Q 1500 1038 1047 1263 
Q 594 1488 453 1669 
Q 313 1847 313 2119 
Q 313 2472 555 2709 
Q 797 2947 1181 2947 
Q 1350 2947 1591 2875 
Q 1750 2828 1803 2828 
Q 1853 2828 1881 2850 
Q 1909 2872 1947 2947 
L 2050 2947 
z
" transform="scale(0.015625)"/>
     <path id="TimesNewRomanPSMT-66" d="M 1319 2638 
L 1319 756 
Q 1319 356 1406 250 
Q 1522 113 1716 113 
L 1975 113 
L 1975 0 
L 266 0 
L 266 113 
L 394 113 
Q 519 113 622 175 
Q 725 238 764 344 
Q 803 450 803 756 
L 803 2638 
L 247 2638 
L 247 2863 
L 803 2863 
L 803 3050 
Q 803 3478 940 3775 
Q 1078 4072 1361 4255 
Q 1644 4438 1997 4438 
Q 2325 4438 2600 4225 
Q 2781 4084 2781 3909 
Q 2781 3816 2700 3733 
Q 2619 3650 2525 3650 
Q 2453 3650 2373 3701 
Q 2294 3753 2178 3923 
Q 2063 4094 1966 4153 
Q 1869 4213 1750 4213 
Q 1606 4213 1506 4136 
Q 1406 4059 1362 3898 
Q 1319 3738 1319 3069 
L 1319 2863 
L 2056 2863 
L 2056 2638 
L 1319 2638 
z
" transform="scale(0.015625)"/>
    </defs>
    <use xlink:href="#TimesNewRomanPSMT-42"/>
    <use xlink:href="#TimesNewRomanPSMT-61" x="66.699219"/>
    <use xlink:href="#TimesNewRomanPSMT-72" x="111.083984"/>
    <use xlink:href="#TimesNewRomanPSMT-6f" x="144.384766"/>
    <use xlink:href="#TimesNewRomanPSMT-74" x="194.384766"/>
    <use xlink:href="#TimesNewRomanPSMT-72" x="222.167969"/>
    <use xlink:href="#TimesNewRomanPSMT-6f" x="255.46875"/>
    <use xlink:href="#TimesNewRomanPSMT-70" x="305.46875"/>
    <use xlink:href="#TimesNewRomanPSMT-69" x="355.46875"/>
    <use xlink:href="#TimesNewRomanPSMT-63" x="383.251953"/>
    <use xlink:href="#TimesNewRomanPSMT-20" x="427.636719"/>
    <use xlink:href="#TimesNewRomanPSMT-70" x="452.636719"/>
    <use xlink:href="#TimesNewRomanPSMT-72" x="502.636719"/>
    <use xlink:href="#TimesNewRomanPSMT-6f" x="535.9375"/>
    <use xlink:href="#TimesNewRomanPSMT-63" x="585.9375"/>
    <use xlink:href="#TimesNewRomanPSMT-65" x="630.322266"/>
    <use xlink:href="#TimesNewRomanPSMT-73" x="674.707031"/>
    <use xlink:href="#TimesNewRomanPSMT-73" x="713.623047"/>
    <use xlink:href="#TimesNewRomanPSMT-20" x="752.539062"/>
    <use xlink:href="#TimesNewRomanPSMT-66" x="777.539062"/>
    <use xlink:href="#TimesNewRomanPSMT-6f" x="810.839844"/>
    <use xlink:href="#TimesNewRomanPSMT-72" x="860.839844"/>
    <use xlink:href="#TimesNewRomanPSMT-20" x="894.140625"/>
    <use xlink:href="#TimesNewRomanPSMT-6e" x="919.140625"/>
    <use xlink:href="#TimesNewRomanPSMT-69" x="969.140625"/>
    <use xlink:href="#TimesNewRomanPSMT-74" x="996.923828"/>
    <use xlink:href="#TimesNewRomanPSMT-72" x="1024.707031"/>
    <use xlink:href="#TimesNewRomanPSMT-6f" x="1058.007812"/>
    <use xlink:href="#TimesNewRomanPSMT-67" x="1108.007812"/>
    <use xlink:href="#TimesNewRomanPSMT-65" x="1158.007812"/>
    <use xlink:href="#TimesNewRomanPSMT-6e" x="1202.392578"/>
   </g>
  </g>
 </g>
 <defs>
  <clipPath id="p4de84f5831">
   <rect x="56.915938" y="30.16" width="354.01" height="247.96025"/>
  </clipPath>
 </defs>
</svg>
