<?xml version="1.0" encoding="UTF-8" standalone="no"?>
<!-- Created with Inkscape (http://www.inkscape.org/) -->

<svg
   width="210mm"
   height="297mm"
   viewBox="0 0 210 297"
   version="1.1"
   id="svg1"
   inkscape:version="1.3.2 (091e20e, 2023-11-25, custom)"
   sodipodi:docname="stator_1.svg"
   xmlns:inkscape="http://www.inkscape.org/namespaces/inkscape"
   xmlns:sodipodi="http://sodipodi.sourceforge.net/DTD/sodipodi-0.dtd"
   xmlns="http://www.w3.org/2000/svg"
   xmlns:svg="http://www.w3.org/2000/svg">
  <sodipodi:namedview
     id="namedview1"
     pagecolor="#ffffff"
     bordercolor="#999999"
     borderopacity="1"
     inkscape:showpageshadow="2"
     inkscape:pageopacity="0"
     inkscape:pagecheckerboard="0"
     inkscape:deskcolor="#d1d1d1"
     inkscape:document-units="mm"
     inkscape:zoom="0.43829966"
     inkscape:cx="396.98867"
     inkscape:cy="561.25984"
     inkscape:window-width="1280"
     inkscape:window-height="730"
     inkscape:window-x="-6"
     inkscape:window-y="-6"
     inkscape:window-maximized="1"
     inkscape:current-layer="layer1" />
  <defs
     id="defs1">
    <inkscape:path-effect
       effect="bspline"
       id="path-effect1"
       is_visible="true"
       lpeversion="1.3"
       weight="33.333333"
       steps="2"
       helper_size="0"
       apply_no_weight="true"
       apply_with_weight="true"
       only_selected="false"
       uniform="false" />
  </defs>
  <g
     inkscape:label="Layer 1"
     inkscape:groupmode="layer"
     id="layer1">
    <path
       style="fill:none;stroke:#000000;stroke-width:0.363679;stroke-linejoin:bevel;stroke-opacity:1;paint-order:markers fill stroke"
       d="m 52.164737,76.281048 c -1.405035,1.974976 -2.600567,4.22539 -3.266181,6.510064 -0.665613,2.284673 -0.771102,4.499948 -0.487086,6.866102 0.284016,2.366153 0.987086,4.962106 2.104811,6.927138 1.117724,1.965031 2.608888,3.263222 4.735541,4.573258 2.126653,1.31003 4.868034,2.6139 9.012129,3.53876 4.144095,0.92486 9.690574,1.47063 15.828079,1.81659 6.137505,0.34596 12.870476,0.49222 19.310313,0.99033 6.439837,0.49811 12.583537,1.34767 17.799307,2.38616 5.21576,1.03849 9.50187,2.26563 13.34361,3.34167 3.84174,1.07605 7.23862,2.00085 9.8976,2.74786 2.65899,0.747 4.57972,1.31611 5.64688,1.43172 1.06716,0.11561 1.28057,-0.22229 1.06715,-0.60469 -0.21342,-0.38239 -0.85368,-0.80923 -2.59669,-1.51177 -1.74301,-0.70254 -4.58866,-1.68073 -7.59437,-2.67671 -3.00571,-0.99597 -6.15952,-2.0059 -9.94526,-3.35496 -3.78573,-1.34906 -8.17908,-3.02945 -12.23425,-4.93254 -4.05517,-1.90308 -7.77173,-4.02866 -11.69347,-6.650525 -3.921732,-2.621863 -8.048319,-5.739774 -11.054121,-8.656647 -3.005801,-2.916873 -4.890499,-5.632415 -6.313084,-8.030683 -1.422585,-2.398269 -2.38296,-4.479083 -3.396752,-6.435523 -1.013791,-1.956441 -2.080875,-3.788268 -3.511632,-5.108997 -1.430757,-1.320729 -3.225014,-2.130197 -5.199237,-2.534954 -1.974223,-0.404758 -4.128185,-0.404758 -6.147877,-0.195644 -2.019692,0.209114 -3.904912,0.627326 -5.683475,1.387796 -1.778563,0.760471 -3.450363,1.863148 -5.059971,3.223356 -1.609608,1.360208 -3.15693,2.977863 -4.561964,4.952839 z"
       id="path1"
       inkscape:path-effect="#path-effect1"
       inkscape:original-d="m 51.969114,75.979485 c -1.209412,2.276539 -2.404945,4.526953 -3.628234,6.829616 -0.107937,2.266684 -0.213426,4.481959 -0.320138,6.722905 0.674744,2.491361 1.377815,5.087314 2.080899,7.683318 1.532364,1.334059 3.023528,2.63225 4.535293,3.948376 2.741542,1.30394 5.482921,2.60781 8.224464,3.91175 5.546648,0.54578 11.093128,1.09154 16.639609,1.63731 6.728528,0.14616 13.461499,0.29242 20.194603,0.43868 6.14657,0.84996 12.29027,1.69952 18.43541,2.54928 4.28639,1.22722 8.5725,2.45436 12.85889,3.68158 3.39709,0.92487 6.79397,1.84967 10.19107,2.77454 1.92087,0.56914 3.8416,1.13825 5.76249,1.7074 0.21343,-0.33793 0.42684,-0.67583 0.64028,-1.01377 -0.64028,-0.42685 -1.28054,-0.85369 -1.92083,-1.28055 -2.84573,-0.97822 -5.69138,-1.95641 -8.53702,-2.9346 -3.16578,-1.01376 -6.31959,-2.02369 -9.49744,-3.04131 -4.39362,-1.6805 -8.78697,-3.36089 -13.18059,-5.04139 -3.71672,-2.12567 -7.43328,-4.25125 -11.14992,-6.37688 -4.126832,-3.118098 -8.253419,-6.236009 -12.38025,-9.354106 -1.884772,-2.715649 -3.76947,-5.431191 -5.654206,-8.146787 -0.960434,-2.080941 -1.920809,-4.161755 -2.881243,-6.242696 -1.067149,-1.83194 -2.134233,-3.663767 -3.201382,-5.495708 -1.794365,-0.809517 -3.588622,-1.618985 -5.382983,-2.4285 -2.154085,0 -4.308047,0 -6.462135,0 -1.885296,0.418228 -3.770516,0.83644 -5.655776,1.25466 -1.671867,1.10272 -3.343666,2.205398 -5.015499,3.308096 -1.565151,1.600722 -3.130241,3.201382 -4.695362,4.908786 z"
       sodipodi:nodetypes="ccccccccccccccccccccccccccc"
       transform="matrix(0,1,1.2097118,0,-9.8027016,53.88255)" />
  </g>
</svg>
