<?xml version="1.0" encoding="utf-8" standalone="no"?>
<!DOCTYPE svg PUBLIC "-//W3C//DTD SVG 1.1//EN"
  "http://www.w3.org/Graphics/SVG/1.1/DTD/svg11.dtd">
<svg xmlns:xlink="http://www.w3.org/1999/xlink" width="448.999357pt" height="334.053906pt" viewBox="0 0 448.999357 334.053906" xmlns="http://www.w3.org/2000/svg" version="1.1">
 <metadata>
  <rdf:RDF xmlns:dc="http://purl.org/dc/elements/1.1/" xmlns:cc="http://creativecommons.org/ns#" xmlns:rdf="http://www.w3.org/1999/02/22-rdf-syntax-ns#">
   <cc:Work>
    <dc:type rdf:resource="http://purl.org/dc/dcmitype/StillImage"/>
    <dc:date>2023-10-03T10:18:56.780329</dc:date>
    <dc:format>image/svg+xml</dc:format>
    <dc:creator>
     <cc:Agent>
      <dc:title>Matplotlib v3.8.0, https://matplotlib.org/</dc:title>
     </cc:Agent>
    </dc:creator>
   </cc:Work>
  </rdf:RDF>
 </metadata>
 <defs>
  <style type="text/css">*{stroke-linejoin: round; stroke-linecap: butt}</style>
 </defs>
 <g id="figure_1">
  <g id="patch_1">
   <path d="M 0 334.053906 
L 448.999357 334.053906 
L 448.999357 0 
L 0 0 
z
" style="fill: #ffffff"/>
  </g>
  <g id="axes_1">
   <g id="patch_2">
    <path d="M 57.227656 287.646875 
L 441.799357 287.646875 
L 441.799357 34.426875 
L 57.227656 34.426875 
z
" style="fill: #ffffff"/>
   </g>
   <g id="matplotlib.axis_1">
    <g id="xtick_1">
     <g id="line2d_1">
      <defs>
       <path id="mfd3180b003" d="M 0 0 
L 0 -6 
" style="stroke: #000000; stroke-width: 1.25"/>
      </defs>
      <g>
       <use xlink:href="#mfd3180b003" x="74.270628" y="287.646875" style="fill: #ffffff; stroke: #000000; stroke-width: 1.25"/>
      </g>
     </g>
     <g id="line2d_2">
      <defs>
       <path id="m20f21c6327" d="M 0 0 
L 0 6 
" style="stroke: #000000; stroke-width: 1.25"/>
      </defs>
      <g>
       <use xlink:href="#m20f21c6327" x="74.270628" y="34.426875" style="fill: #ffffff; stroke: #000000; stroke-width: 1.25"/>
      </g>
     </g>
     <g id="text_1">
      <!-- 0 -->
      <g transform="translate(71.270628 299.479375) scale(0.12 -0.12)">
       <defs>
        <path id="TimesNewRomanPSMT-30" d="M 231 2094 
Q 231 2819 450 3342 
Q 669 3866 1031 4122 
Q 1313 4325 1613 4325 
Q 2100 4325 2488 3828 
Q 2972 3213 2972 2159 
Q 2972 1422 2759 906 
Q 2547 391 2217 158 
Q 1888 -75 1581 -75 
Q 975 -75 572 641 
Q 231 1244 231 2094 
z
M 844 2016 
Q 844 1141 1059 588 
Q 1238 122 1591 122 
Q 1759 122 1940 273 
Q 2122 425 2216 781 
Q 2359 1319 2359 2297 
Q 2359 3022 2209 3506 
Q 2097 3866 1919 4016 
Q 1791 4119 1609 4119 
Q 1397 4119 1231 3928 
Q 1006 3669 925 3112 
Q 844 2556 844 2016 
z
" transform="scale(0.015625)"/>
       </defs>
       <use xlink:href="#TimesNewRomanPSMT-30"/>
      </g>
     </g>
    </g>
    <g id="xtick_2">
     <g id="line2d_3">
      <g>
       <use xlink:href="#mfd3180b003" x="118.026653" y="287.646875" style="fill: #ffffff; stroke: #000000; stroke-width: 1.25"/>
      </g>
     </g>
     <g id="line2d_4">
      <g>
       <use xlink:href="#m20f21c6327" x="118.026653" y="34.426875" style="fill: #ffffff; stroke: #000000; stroke-width: 1.25"/>
      </g>
     </g>
     <g id="text_2">
      <!-- 100 -->
      <g transform="translate(109.026653 299.479375) scale(0.12 -0.12)">
       <defs>
        <path id="TimesNewRomanPSMT-31" d="M 750 3822 
L 1781 4325 
L 1884 4325 
L 1884 747 
Q 1884 391 1914 303 
Q 1944 216 2037 169 
Q 2131 122 2419 116 
L 2419 0 
L 825 0 
L 825 116 
Q 1125 122 1212 167 
Q 1300 213 1334 289 
Q 1369 366 1369 747 
L 1369 3034 
Q 1369 3497 1338 3628 
Q 1316 3728 1258 3775 
Q 1200 3822 1119 3822 
Q 1003 3822 797 3725 
L 750 3822 
z
" transform="scale(0.015625)"/>
       </defs>
       <use xlink:href="#TimesNewRomanPSMT-31"/>
       <use xlink:href="#TimesNewRomanPSMT-30" x="50"/>
       <use xlink:href="#TimesNewRomanPSMT-30" x="100"/>
      </g>
     </g>
    </g>
    <g id="xtick_3">
     <g id="line2d_5">
      <g>
       <use xlink:href="#mfd3180b003" x="161.782677" y="287.646875" style="fill: #ffffff; stroke: #000000; stroke-width: 1.25"/>
      </g>
     </g>
     <g id="line2d_6">
      <g>
       <use xlink:href="#m20f21c6327" x="161.782677" y="34.426875" style="fill: #ffffff; stroke: #000000; stroke-width: 1.25"/>
      </g>
     </g>
     <g id="text_3">
      <!-- 200 -->
      <g transform="translate(152.782677 299.479375) scale(0.12 -0.12)">
       <defs>
        <path id="TimesNewRomanPSMT-32" d="M 2934 816 
L 2638 0 
L 138 0 
L 138 116 
Q 1241 1122 1691 1759 
Q 2141 2397 2141 2925 
Q 2141 3328 1894 3587 
Q 1647 3847 1303 3847 
Q 991 3847 742 3664 
Q 494 3481 375 3128 
L 259 3128 
Q 338 3706 661 4015 
Q 984 4325 1469 4325 
Q 1984 4325 2329 3994 
Q 2675 3663 2675 3213 
Q 2675 2891 2525 2569 
Q 2294 2063 1775 1497 
Q 997 647 803 472 
L 1909 472 
Q 2247 472 2383 497 
Q 2519 522 2628 598 
Q 2738 675 2819 816 
L 2934 816 
z
" transform="scale(0.015625)"/>
       </defs>
       <use xlink:href="#TimesNewRomanPSMT-32"/>
       <use xlink:href="#TimesNewRomanPSMT-30" x="50"/>
       <use xlink:href="#TimesNewRomanPSMT-30" x="100"/>
      </g>
     </g>
    </g>
    <g id="xtick_4">
     <g id="line2d_7">
      <g>
       <use xlink:href="#mfd3180b003" x="205.538702" y="287.646875" style="fill: #ffffff; stroke: #000000; stroke-width: 1.25"/>
      </g>
     </g>
     <g id="line2d_8">
      <g>
       <use xlink:href="#m20f21c6327" x="205.538702" y="34.426875" style="fill: #ffffff; stroke: #000000; stroke-width: 1.25"/>
      </g>
     </g>
     <g id="text_4">
      <!-- 300 -->
      <g transform="translate(196.538702 299.479375) scale(0.12 -0.12)">
       <defs>
        <path id="TimesNewRomanPSMT-33" d="M 325 3431 
Q 506 3859 782 4092 
Q 1059 4325 1472 4325 
Q 1981 4325 2253 3994 
Q 2459 3747 2459 3466 
Q 2459 3003 1878 2509 
Q 2269 2356 2469 2072 
Q 2669 1788 2669 1403 
Q 2669 853 2319 450 
Q 1863 -75 997 -75 
Q 569 -75 414 31 
Q 259 138 259 259 
Q 259 350 332 419 
Q 406 488 509 488 
Q 588 488 669 463 
Q 722 447 909 348 
Q 1097 250 1169 231 
Q 1284 197 1416 197 
Q 1734 197 1970 444 
Q 2206 691 2206 1028 
Q 2206 1275 2097 1509 
Q 2016 1684 1919 1775 
Q 1784 1900 1550 2001 
Q 1316 2103 1072 2103 
L 972 2103 
L 972 2197 
Q 1219 2228 1467 2375 
Q 1716 2522 1828 2728 
Q 1941 2934 1941 3181 
Q 1941 3503 1739 3701 
Q 1538 3900 1238 3900 
Q 753 3900 428 3381 
L 325 3431 
z
" transform="scale(0.015625)"/>
       </defs>
       <use xlink:href="#TimesNewRomanPSMT-33"/>
       <use xlink:href="#TimesNewRomanPSMT-30" x="50"/>
       <use xlink:href="#TimesNewRomanPSMT-30" x="100"/>
      </g>
     </g>
    </g>
    <g id="xtick_5">
     <g id="line2d_9">
      <g>
       <use xlink:href="#mfd3180b003" x="249.294727" y="287.646875" style="fill: #ffffff; stroke: #000000; stroke-width: 1.25"/>
      </g>
     </g>
     <g id="line2d_10">
      <g>
       <use xlink:href="#m20f21c6327" x="249.294727" y="34.426875" style="fill: #ffffff; stroke: #000000; stroke-width: 1.25"/>
      </g>
     </g>
     <g id="text_5">
      <!-- 400 -->
      <g transform="translate(240.294727 299.479375) scale(0.12 -0.12)">
       <defs>
        <path id="TimesNewRomanPSMT-34" d="M 2978 1563 
L 2978 1119 
L 2409 1119 
L 2409 0 
L 1894 0 
L 1894 1119 
L 100 1119 
L 100 1519 
L 2066 4325 
L 2409 4325 
L 2409 1563 
L 2978 1563 
z
M 1894 1563 
L 1894 3666 
L 406 1563 
L 1894 1563 
z
" transform="scale(0.015625)"/>
       </defs>
       <use xlink:href="#TimesNewRomanPSMT-34"/>
       <use xlink:href="#TimesNewRomanPSMT-30" x="50"/>
       <use xlink:href="#TimesNewRomanPSMT-30" x="100"/>
      </g>
     </g>
    </g>
    <g id="xtick_6">
     <g id="line2d_11">
      <g>
       <use xlink:href="#mfd3180b003" x="293.050751" y="287.646875" style="fill: #ffffff; stroke: #000000; stroke-width: 1.25"/>
      </g>
     </g>
     <g id="line2d_12">
      <g>
       <use xlink:href="#m20f21c6327" x="293.050751" y="34.426875" style="fill: #ffffff; stroke: #000000; stroke-width: 1.25"/>
      </g>
     </g>
     <g id="text_6">
      <!-- 500 -->
      <g transform="translate(284.050751 299.479375) scale(0.12 -0.12)">
       <defs>
        <path id="TimesNewRomanPSMT-35" d="M 2778 4238 
L 2534 3706 
L 1259 3706 
L 981 3138 
Q 1809 3016 2294 2522 
Q 2709 2097 2709 1522 
Q 2709 1188 2573 903 
Q 2438 619 2231 419 
Q 2025 219 1772 97 
Q 1413 -75 1034 -75 
Q 653 -75 479 54 
Q 306 184 306 341 
Q 306 428 378 495 
Q 450 563 559 563 
Q 641 563 702 538 
Q 763 513 909 409 
Q 1144 247 1384 247 
Q 1750 247 2026 523 
Q 2303 800 2303 1197 
Q 2303 1581 2056 1914 
Q 1809 2247 1375 2428 
Q 1034 2569 447 2591 
L 1259 4238 
L 2778 4238 
z
" transform="scale(0.015625)"/>
       </defs>
       <use xlink:href="#TimesNewRomanPSMT-35"/>
       <use xlink:href="#TimesNewRomanPSMT-30" x="50"/>
       <use xlink:href="#TimesNewRomanPSMT-30" x="100"/>
      </g>
     </g>
    </g>
    <g id="xtick_7">
     <g id="line2d_13">
      <g>
       <use xlink:href="#mfd3180b003" x="336.806776" y="287.646875" style="fill: #ffffff; stroke: #000000; stroke-width: 1.25"/>
      </g>
     </g>
     <g id="line2d_14">
      <g>
       <use xlink:href="#m20f21c6327" x="336.806776" y="34.426875" style="fill: #ffffff; stroke: #000000; stroke-width: 1.25"/>
      </g>
     </g>
     <g id="text_7">
      <!-- 600 -->
      <g transform="translate(327.806776 299.479375) scale(0.12 -0.12)">
       <defs>
        <path id="TimesNewRomanPSMT-36" d="M 2869 4325 
L 2869 4209 
Q 2456 4169 2195 4045 
Q 1934 3922 1679 3669 
Q 1425 3416 1258 3105 
Q 1091 2794 978 2366 
Q 1428 2675 1881 2675 
Q 2316 2675 2634 2325 
Q 2953 1975 2953 1425 
Q 2953 894 2631 456 
Q 2244 -75 1606 -75 
Q 1172 -75 869 213 
Q 275 772 275 1663 
Q 275 2231 503 2743 
Q 731 3256 1154 3653 
Q 1578 4050 1965 4187 
Q 2353 4325 2688 4325 
L 2869 4325 
z
M 925 2138 
Q 869 1716 869 1456 
Q 869 1156 980 804 
Q 1091 453 1309 247 
Q 1469 100 1697 100 
Q 1969 100 2183 356 
Q 2397 613 2397 1088 
Q 2397 1622 2184 2012 
Q 1972 2403 1581 2403 
Q 1463 2403 1327 2353 
Q 1191 2303 925 2138 
z
" transform="scale(0.015625)"/>
       </defs>
       <use xlink:href="#TimesNewRomanPSMT-36"/>
       <use xlink:href="#TimesNewRomanPSMT-30" x="50"/>
       <use xlink:href="#TimesNewRomanPSMT-30" x="100"/>
      </g>
     </g>
    </g>
    <g id="xtick_8">
     <g id="line2d_15">
      <g>
       <use xlink:href="#mfd3180b003" x="380.562801" y="287.646875" style="fill: #ffffff; stroke: #000000; stroke-width: 1.25"/>
      </g>
     </g>
     <g id="line2d_16">
      <g>
       <use xlink:href="#m20f21c6327" x="380.562801" y="34.426875" style="fill: #ffffff; stroke: #000000; stroke-width: 1.25"/>
      </g>
     </g>
     <g id="text_8">
      <!-- 700 -->
      <g transform="translate(371.562801 299.479375) scale(0.12 -0.12)">
       <defs>
        <path id="TimesNewRomanPSMT-37" d="M 644 4238 
L 2916 4238 
L 2916 4119 
L 1503 -88 
L 1153 -88 
L 2419 3728 
L 1253 3728 
Q 900 3728 750 3644 
Q 488 3500 328 3200 
L 238 3234 
L 644 4238 
z
" transform="scale(0.015625)"/>
       </defs>
       <use xlink:href="#TimesNewRomanPSMT-37"/>
       <use xlink:href="#TimesNewRomanPSMT-30" x="50"/>
       <use xlink:href="#TimesNewRomanPSMT-30" x="100"/>
      </g>
     </g>
    </g>
    <g id="xtick_9">
     <g id="line2d_17">
      <g>
       <use xlink:href="#mfd3180b003" x="424.318825" y="287.646875" style="fill: #ffffff; stroke: #000000; stroke-width: 1.25"/>
      </g>
     </g>
     <g id="line2d_18">
      <g>
       <use xlink:href="#m20f21c6327" x="424.318825" y="34.426875" style="fill: #ffffff; stroke: #000000; stroke-width: 1.25"/>
      </g>
     </g>
     <g id="text_9">
      <!-- 800 -->
      <g transform="translate(415.318825 299.479375) scale(0.12 -0.12)">
       <defs>
        <path id="TimesNewRomanPSMT-38" d="M 1228 2134 
Q 725 2547 579 2797 
Q 434 3047 434 3316 
Q 434 3728 753 4026 
Q 1072 4325 1600 4325 
Q 2113 4325 2425 4047 
Q 2738 3769 2738 3413 
Q 2738 3175 2569 2928 
Q 2400 2681 1866 2347 
Q 2416 1922 2594 1678 
Q 2831 1359 2831 1006 
Q 2831 559 2490 242 
Q 2150 -75 1597 -75 
Q 994 -75 656 303 
Q 388 606 388 966 
Q 388 1247 577 1523 
Q 766 1800 1228 2134 
z
M 1719 2469 
Q 2094 2806 2194 3001 
Q 2294 3197 2294 3444 
Q 2294 3772 2109 3958 
Q 1925 4144 1606 4144 
Q 1288 4144 1088 3959 
Q 888 3775 888 3528 
Q 888 3366 970 3203 
Q 1053 3041 1206 2894 
L 1719 2469 
z
M 1375 2016 
Q 1116 1797 991 1539 
Q 866 1281 866 981 
Q 866 578 1086 336 
Q 1306 94 1647 94 
Q 1984 94 2187 284 
Q 2391 475 2391 747 
Q 2391 972 2272 1150 
Q 2050 1481 1375 2016 
z
" transform="scale(0.015625)"/>
       </defs>
       <use xlink:href="#TimesNewRomanPSMT-38"/>
       <use xlink:href="#TimesNewRomanPSMT-30" x="50"/>
       <use xlink:href="#TimesNewRomanPSMT-30" x="100"/>
      </g>
     </g>
    </g>
    <g id="xtick_10">
     <g id="line2d_19">
      <defs>
       <path id="m8b53c1fc7b" d="M 0 0 
L 0 -3 
" style="stroke: #000000; stroke-width: 0.75"/>
      </defs>
      <g>
       <use xlink:href="#m8b53c1fc7b" x="65.519423" y="287.646875" style="fill: #ffffff; stroke: #000000; stroke-width: 0.75"/>
      </g>
     </g>
     <g id="line2d_20">
      <defs>
       <path id="m573a6eec09" d="M 0 0 
L 0 3 
" style="stroke: #000000; stroke-width: 0.75"/>
      </defs>
      <g>
       <use xlink:href="#m573a6eec09" x="65.519423" y="34.426875" style="fill: #ffffff; stroke: #000000; stroke-width: 0.75"/>
      </g>
     </g>
    </g>
    <g id="xtick_11">
     <g id="line2d_21">
      <g>
       <use xlink:href="#m8b53c1fc7b" x="83.021833" y="287.646875" style="fill: #ffffff; stroke: #000000; stroke-width: 0.75"/>
      </g>
     </g>
     <g id="line2d_22">
      <g>
       <use xlink:href="#m573a6eec09" x="83.021833" y="34.426875" style="fill: #ffffff; stroke: #000000; stroke-width: 0.75"/>
      </g>
     </g>
    </g>
    <g id="xtick_12">
     <g id="line2d_23">
      <g>
       <use xlink:href="#m8b53c1fc7b" x="91.773038" y="287.646875" style="fill: #ffffff; stroke: #000000; stroke-width: 0.75"/>
      </g>
     </g>
     <g id="line2d_24">
      <g>
       <use xlink:href="#m573a6eec09" x="91.773038" y="34.426875" style="fill: #ffffff; stroke: #000000; stroke-width: 0.75"/>
      </g>
     </g>
    </g>
    <g id="xtick_13">
     <g id="line2d_25">
      <g>
       <use xlink:href="#m8b53c1fc7b" x="100.524243" y="287.646875" style="fill: #ffffff; stroke: #000000; stroke-width: 0.75"/>
      </g>
     </g>
     <g id="line2d_26">
      <g>
       <use xlink:href="#m573a6eec09" x="100.524243" y="34.426875" style="fill: #ffffff; stroke: #000000; stroke-width: 0.75"/>
      </g>
     </g>
    </g>
    <g id="xtick_14">
     <g id="line2d_27">
      <g>
       <use xlink:href="#m8b53c1fc7b" x="109.275448" y="287.646875" style="fill: #ffffff; stroke: #000000; stroke-width: 0.75"/>
      </g>
     </g>
     <g id="line2d_28">
      <g>
       <use xlink:href="#m573a6eec09" x="109.275448" y="34.426875" style="fill: #ffffff; stroke: #000000; stroke-width: 0.75"/>
      </g>
     </g>
    </g>
    <g id="xtick_15">
     <g id="line2d_29">
      <g>
       <use xlink:href="#m8b53c1fc7b" x="126.777858" y="287.646875" style="fill: #ffffff; stroke: #000000; stroke-width: 0.75"/>
      </g>
     </g>
     <g id="line2d_30">
      <g>
       <use xlink:href="#m573a6eec09" x="126.777858" y="34.426875" style="fill: #ffffff; stroke: #000000; stroke-width: 0.75"/>
      </g>
     </g>
    </g>
    <g id="xtick_16">
     <g id="line2d_31">
      <g>
       <use xlink:href="#m8b53c1fc7b" x="135.529062" y="287.646875" style="fill: #ffffff; stroke: #000000; stroke-width: 0.75"/>
      </g>
     </g>
     <g id="line2d_32">
      <g>
       <use xlink:href="#m573a6eec09" x="135.529062" y="34.426875" style="fill: #ffffff; stroke: #000000; stroke-width: 0.75"/>
      </g>
     </g>
    </g>
    <g id="xtick_17">
     <g id="line2d_33">
      <g>
       <use xlink:href="#m8b53c1fc7b" x="144.280267" y="287.646875" style="fill: #ffffff; stroke: #000000; stroke-width: 0.75"/>
      </g>
     </g>
     <g id="line2d_34">
      <g>
       <use xlink:href="#m573a6eec09" x="144.280267" y="34.426875" style="fill: #ffffff; stroke: #000000; stroke-width: 0.75"/>
      </g>
     </g>
    </g>
    <g id="xtick_18">
     <g id="line2d_35">
      <g>
       <use xlink:href="#m8b53c1fc7b" x="153.031472" y="287.646875" style="fill: #ffffff; stroke: #000000; stroke-width: 0.75"/>
      </g>
     </g>
     <g id="line2d_36">
      <g>
       <use xlink:href="#m573a6eec09" x="153.031472" y="34.426875" style="fill: #ffffff; stroke: #000000; stroke-width: 0.75"/>
      </g>
     </g>
    </g>
    <g id="xtick_19">
     <g id="line2d_37">
      <g>
       <use xlink:href="#m8b53c1fc7b" x="170.533882" y="287.646875" style="fill: #ffffff; stroke: #000000; stroke-width: 0.75"/>
      </g>
     </g>
     <g id="line2d_38">
      <g>
       <use xlink:href="#m573a6eec09" x="170.533882" y="34.426875" style="fill: #ffffff; stroke: #000000; stroke-width: 0.75"/>
      </g>
     </g>
    </g>
    <g id="xtick_20">
     <g id="line2d_39">
      <g>
       <use xlink:href="#m8b53c1fc7b" x="179.285087" y="287.646875" style="fill: #ffffff; stroke: #000000; stroke-width: 0.75"/>
      </g>
     </g>
     <g id="line2d_40">
      <g>
       <use xlink:href="#m573a6eec09" x="179.285087" y="34.426875" style="fill: #ffffff; stroke: #000000; stroke-width: 0.75"/>
      </g>
     </g>
    </g>
    <g id="xtick_21">
     <g id="line2d_41">
      <g>
       <use xlink:href="#m8b53c1fc7b" x="188.036292" y="287.646875" style="fill: #ffffff; stroke: #000000; stroke-width: 0.75"/>
      </g>
     </g>
     <g id="line2d_42">
      <g>
       <use xlink:href="#m573a6eec09" x="188.036292" y="34.426875" style="fill: #ffffff; stroke: #000000; stroke-width: 0.75"/>
      </g>
     </g>
    </g>
    <g id="xtick_22">
     <g id="line2d_43">
      <g>
       <use xlink:href="#m8b53c1fc7b" x="196.787497" y="287.646875" style="fill: #ffffff; stroke: #000000; stroke-width: 0.75"/>
      </g>
     </g>
     <g id="line2d_44">
      <g>
       <use xlink:href="#m573a6eec09" x="196.787497" y="34.426875" style="fill: #ffffff; stroke: #000000; stroke-width: 0.75"/>
      </g>
     </g>
    </g>
    <g id="xtick_23">
     <g id="line2d_45">
      <g>
       <use xlink:href="#m8b53c1fc7b" x="214.289907" y="287.646875" style="fill: #ffffff; stroke: #000000; stroke-width: 0.75"/>
      </g>
     </g>
     <g id="line2d_46">
      <g>
       <use xlink:href="#m573a6eec09" x="214.289907" y="34.426875" style="fill: #ffffff; stroke: #000000; stroke-width: 0.75"/>
      </g>
     </g>
    </g>
    <g id="xtick_24">
     <g id="line2d_47">
      <g>
       <use xlink:href="#m8b53c1fc7b" x="223.041112" y="287.646875" style="fill: #ffffff; stroke: #000000; stroke-width: 0.75"/>
      </g>
     </g>
     <g id="line2d_48">
      <g>
       <use xlink:href="#m573a6eec09" x="223.041112" y="34.426875" style="fill: #ffffff; stroke: #000000; stroke-width: 0.75"/>
      </g>
     </g>
    </g>
    <g id="xtick_25">
     <g id="line2d_49">
      <g>
       <use xlink:href="#m8b53c1fc7b" x="231.792317" y="287.646875" style="fill: #ffffff; stroke: #000000; stroke-width: 0.75"/>
      </g>
     </g>
     <g id="line2d_50">
      <g>
       <use xlink:href="#m573a6eec09" x="231.792317" y="34.426875" style="fill: #ffffff; stroke: #000000; stroke-width: 0.75"/>
      </g>
     </g>
    </g>
    <g id="xtick_26">
     <g id="line2d_51">
      <g>
       <use xlink:href="#m8b53c1fc7b" x="240.543522" y="287.646875" style="fill: #ffffff; stroke: #000000; stroke-width: 0.75"/>
      </g>
     </g>
     <g id="line2d_52">
      <g>
       <use xlink:href="#m573a6eec09" x="240.543522" y="34.426875" style="fill: #ffffff; stroke: #000000; stroke-width: 0.75"/>
      </g>
     </g>
    </g>
    <g id="xtick_27">
     <g id="line2d_53">
      <g>
       <use xlink:href="#m8b53c1fc7b" x="258.045932" y="287.646875" style="fill: #ffffff; stroke: #000000; stroke-width: 0.75"/>
      </g>
     </g>
     <g id="line2d_54">
      <g>
       <use xlink:href="#m573a6eec09" x="258.045932" y="34.426875" style="fill: #ffffff; stroke: #000000; stroke-width: 0.75"/>
      </g>
     </g>
    </g>
    <g id="xtick_28">
     <g id="line2d_55">
      <g>
       <use xlink:href="#m8b53c1fc7b" x="266.797137" y="287.646875" style="fill: #ffffff; stroke: #000000; stroke-width: 0.75"/>
      </g>
     </g>
     <g id="line2d_56">
      <g>
       <use xlink:href="#m573a6eec09" x="266.797137" y="34.426875" style="fill: #ffffff; stroke: #000000; stroke-width: 0.75"/>
      </g>
     </g>
    </g>
    <g id="xtick_29">
     <g id="line2d_57">
      <g>
       <use xlink:href="#m8b53c1fc7b" x="275.548341" y="287.646875" style="fill: #ffffff; stroke: #000000; stroke-width: 0.75"/>
      </g>
     </g>
     <g id="line2d_58">
      <g>
       <use xlink:href="#m573a6eec09" x="275.548341" y="34.426875" style="fill: #ffffff; stroke: #000000; stroke-width: 0.75"/>
      </g>
     </g>
    </g>
    <g id="xtick_30">
     <g id="line2d_59">
      <g>
       <use xlink:href="#m8b53c1fc7b" x="284.299546" y="287.646875" style="fill: #ffffff; stroke: #000000; stroke-width: 0.75"/>
      </g>
     </g>
     <g id="line2d_60">
      <g>
       <use xlink:href="#m573a6eec09" x="284.299546" y="34.426875" style="fill: #ffffff; stroke: #000000; stroke-width: 0.75"/>
      </g>
     </g>
    </g>
    <g id="xtick_31">
     <g id="line2d_61">
      <g>
       <use xlink:href="#m8b53c1fc7b" x="301.801956" y="287.646875" style="fill: #ffffff; stroke: #000000; stroke-width: 0.75"/>
      </g>
     </g>
     <g id="line2d_62">
      <g>
       <use xlink:href="#m573a6eec09" x="301.801956" y="34.426875" style="fill: #ffffff; stroke: #000000; stroke-width: 0.75"/>
      </g>
     </g>
    </g>
    <g id="xtick_32">
     <g id="line2d_63">
      <g>
       <use xlink:href="#m8b53c1fc7b" x="310.553161" y="287.646875" style="fill: #ffffff; stroke: #000000; stroke-width: 0.75"/>
      </g>
     </g>
     <g id="line2d_64">
      <g>
       <use xlink:href="#m573a6eec09" x="310.553161" y="34.426875" style="fill: #ffffff; stroke: #000000; stroke-width: 0.75"/>
      </g>
     </g>
    </g>
    <g id="xtick_33">
     <g id="line2d_65">
      <g>
       <use xlink:href="#m8b53c1fc7b" x="319.304366" y="287.646875" style="fill: #ffffff; stroke: #000000; stroke-width: 0.75"/>
      </g>
     </g>
     <g id="line2d_66">
      <g>
       <use xlink:href="#m573a6eec09" x="319.304366" y="34.426875" style="fill: #ffffff; stroke: #000000; stroke-width: 0.75"/>
      </g>
     </g>
    </g>
    <g id="xtick_34">
     <g id="line2d_67">
      <g>
       <use xlink:href="#m8b53c1fc7b" x="328.055571" y="287.646875" style="fill: #ffffff; stroke: #000000; stroke-width: 0.75"/>
      </g>
     </g>
     <g id="line2d_68">
      <g>
       <use xlink:href="#m573a6eec09" x="328.055571" y="34.426875" style="fill: #ffffff; stroke: #000000; stroke-width: 0.75"/>
      </g>
     </g>
    </g>
    <g id="xtick_35">
     <g id="line2d_69">
      <g>
       <use xlink:href="#m8b53c1fc7b" x="345.557981" y="287.646875" style="fill: #ffffff; stroke: #000000; stroke-width: 0.75"/>
      </g>
     </g>
     <g id="line2d_70">
      <g>
       <use xlink:href="#m573a6eec09" x="345.557981" y="34.426875" style="fill: #ffffff; stroke: #000000; stroke-width: 0.75"/>
      </g>
     </g>
    </g>
    <g id="xtick_36">
     <g id="line2d_71">
      <g>
       <use xlink:href="#m8b53c1fc7b" x="354.309186" y="287.646875" style="fill: #ffffff; stroke: #000000; stroke-width: 0.75"/>
      </g>
     </g>
     <g id="line2d_72">
      <g>
       <use xlink:href="#m573a6eec09" x="354.309186" y="34.426875" style="fill: #ffffff; stroke: #000000; stroke-width: 0.75"/>
      </g>
     </g>
    </g>
    <g id="xtick_37">
     <g id="line2d_73">
      <g>
       <use xlink:href="#m8b53c1fc7b" x="363.060391" y="287.646875" style="fill: #ffffff; stroke: #000000; stroke-width: 0.75"/>
      </g>
     </g>
     <g id="line2d_74">
      <g>
       <use xlink:href="#m573a6eec09" x="363.060391" y="34.426875" style="fill: #ffffff; stroke: #000000; stroke-width: 0.75"/>
      </g>
     </g>
    </g>
    <g id="xtick_38">
     <g id="line2d_75">
      <g>
       <use xlink:href="#m8b53c1fc7b" x="371.811596" y="287.646875" style="fill: #ffffff; stroke: #000000; stroke-width: 0.75"/>
      </g>
     </g>
     <g id="line2d_76">
      <g>
       <use xlink:href="#m573a6eec09" x="371.811596" y="34.426875" style="fill: #ffffff; stroke: #000000; stroke-width: 0.75"/>
      </g>
     </g>
    </g>
    <g id="xtick_39">
     <g id="line2d_77">
      <g>
       <use xlink:href="#m8b53c1fc7b" x="389.314006" y="287.646875" style="fill: #ffffff; stroke: #000000; stroke-width: 0.75"/>
      </g>
     </g>
     <g id="line2d_78">
      <g>
       <use xlink:href="#m573a6eec09" x="389.314006" y="34.426875" style="fill: #ffffff; stroke: #000000; stroke-width: 0.75"/>
      </g>
     </g>
    </g>
    <g id="xtick_40">
     <g id="line2d_79">
      <g>
       <use xlink:href="#m8b53c1fc7b" x="398.065211" y="287.646875" style="fill: #ffffff; stroke: #000000; stroke-width: 0.75"/>
      </g>
     </g>
     <g id="line2d_80">
      <g>
       <use xlink:href="#m573a6eec09" x="398.065211" y="34.426875" style="fill: #ffffff; stroke: #000000; stroke-width: 0.75"/>
      </g>
     </g>
    </g>
    <g id="xtick_41">
     <g id="line2d_81">
      <g>
       <use xlink:href="#m8b53c1fc7b" x="406.816416" y="287.646875" style="fill: #ffffff; stroke: #000000; stroke-width: 0.75"/>
      </g>
     </g>
     <g id="line2d_82">
      <g>
       <use xlink:href="#m573a6eec09" x="406.816416" y="34.426875" style="fill: #ffffff; stroke: #000000; stroke-width: 0.75"/>
      </g>
     </g>
    </g>
    <g id="xtick_42">
     <g id="line2d_83">
      <g>
       <use xlink:href="#m8b53c1fc7b" x="415.567621" y="287.646875" style="fill: #ffffff; stroke: #000000; stroke-width: 0.75"/>
      </g>
     </g>
     <g id="line2d_84">
      <g>
       <use xlink:href="#m573a6eec09" x="415.567621" y="34.426875" style="fill: #ffffff; stroke: #000000; stroke-width: 0.75"/>
      </g>
     </g>
    </g>
    <g id="xtick_43">
     <g id="line2d_85">
      <g>
       <use xlink:href="#m8b53c1fc7b" x="433.07003" y="287.646875" style="fill: #ffffff; stroke: #000000; stroke-width: 0.75"/>
      </g>
     </g>
     <g id="line2d_86">
      <g>
       <use xlink:href="#m573a6eec09" x="433.07003" y="34.426875" style="fill: #ffffff; stroke: #000000; stroke-width: 0.75"/>
      </g>
     </g>
    </g>
    <g id="text_10">
     <!-- Iteration number -->
     <g transform="translate(206.016319 324.073125) scale(0.13 -0.13)">
      <defs>
       <path id="TimesNewRomanPSMT-49" d="M 1975 116 
L 1975 0 
L 159 0 
L 159 116 
L 309 116 
Q 572 116 691 269 
Q 766 369 766 750 
L 766 3488 
Q 766 3809 725 3913 
Q 694 3991 597 4047 
Q 459 4122 309 4122 
L 159 4122 
L 159 4238 
L 1975 4238 
L 1975 4122 
L 1822 4122 
Q 1563 4122 1444 3969 
Q 1366 3869 1366 3488 
L 1366 750 
Q 1366 428 1406 325 
Q 1438 247 1538 191 
Q 1672 116 1822 116 
L 1975 116 
z
" transform="scale(0.015625)"/>
       <path id="TimesNewRomanPSMT-74" d="M 1031 3803 
L 1031 2863 
L 1700 2863 
L 1700 2644 
L 1031 2644 
L 1031 788 
Q 1031 509 1111 412 
Q 1191 316 1316 316 
Q 1419 316 1516 380 
Q 1613 444 1666 569 
L 1788 569 
Q 1678 263 1478 108 
Q 1278 -47 1066 -47 
Q 922 -47 784 33 
Q 647 113 581 261 
Q 516 409 516 719 
L 516 2644 
L 63 2644 
L 63 2747 
Q 234 2816 414 2980 
Q 594 3144 734 3369 
Q 806 3488 934 3803 
L 1031 3803 
z
" transform="scale(0.015625)"/>
       <path id="TimesNewRomanPSMT-65" d="M 681 1784 
Q 678 1147 991 784 
Q 1303 422 1725 422 
Q 2006 422 2214 576 
Q 2422 731 2563 1106 
L 2659 1044 
Q 2594 616 2278 264 
Q 1963 -88 1488 -88 
Q 972 -88 605 314 
Q 238 716 238 1394 
Q 238 2128 614 2539 
Q 991 2950 1559 2950 
Q 2041 2950 2350 2633 
Q 2659 2316 2659 1784 
L 681 1784 
z
M 681 1966 
L 2006 1966 
Q 1991 2241 1941 2353 
Q 1863 2528 1708 2628 
Q 1553 2728 1384 2728 
Q 1125 2728 920 2526 
Q 716 2325 681 1966 
z
" transform="scale(0.015625)"/>
       <path id="TimesNewRomanPSMT-72" d="M 1038 2947 
L 1038 2303 
Q 1397 2947 1775 2947 
Q 1947 2947 2059 2842 
Q 2172 2738 2172 2600 
Q 2172 2478 2090 2393 
Q 2009 2309 1897 2309 
Q 1788 2309 1652 2417 
Q 1516 2525 1450 2525 
Q 1394 2525 1328 2463 
Q 1188 2334 1038 2041 
L 1038 669 
Q 1038 431 1097 309 
Q 1138 225 1241 169 
Q 1344 113 1538 113 
L 1538 0 
L 72 0 
L 72 113 
Q 291 113 397 181 
Q 475 231 506 341 
Q 522 394 522 644 
L 522 1753 
Q 522 2253 501 2348 
Q 481 2444 426 2487 
Q 372 2531 291 2531 
Q 194 2531 72 2484 
L 41 2597 
L 906 2947 
L 1038 2947 
z
" transform="scale(0.015625)"/>
       <path id="TimesNewRomanPSMT-61" d="M 1822 413 
Q 1381 72 1269 19 
Q 1100 -59 909 -59 
Q 613 -59 420 144 
Q 228 347 228 678 
Q 228 888 322 1041 
Q 450 1253 767 1440 
Q 1084 1628 1822 1897 
L 1822 2009 
Q 1822 2438 1686 2597 
Q 1550 2756 1291 2756 
Q 1094 2756 978 2650 
Q 859 2544 859 2406 
L 866 2225 
Q 866 2081 792 2003 
Q 719 1925 600 1925 
Q 484 1925 411 2006 
Q 338 2088 338 2228 
Q 338 2497 613 2722 
Q 888 2947 1384 2947 
Q 1766 2947 2009 2819 
Q 2194 2722 2281 2516 
Q 2338 2381 2338 1966 
L 2338 994 
Q 2338 584 2353 492 
Q 2369 400 2405 369 
Q 2441 338 2488 338 
Q 2538 338 2575 359 
Q 2641 400 2828 588 
L 2828 413 
Q 2478 -56 2159 -56 
Q 2006 -56 1915 50 
Q 1825 156 1822 413 
z
M 1822 616 
L 1822 1706 
Q 1350 1519 1213 1441 
Q 966 1303 859 1153 
Q 753 1003 753 825 
Q 753 600 887 451 
Q 1022 303 1197 303 
Q 1434 303 1822 616 
z
" transform="scale(0.015625)"/>
       <path id="TimesNewRomanPSMT-69" d="M 928 4444 
Q 1059 4444 1151 4351 
Q 1244 4259 1244 4128 
Q 1244 3997 1151 3903 
Q 1059 3809 928 3809 
Q 797 3809 703 3903 
Q 609 3997 609 4128 
Q 609 4259 701 4351 
Q 794 4444 928 4444 
z
M 1188 2947 
L 1188 647 
Q 1188 378 1227 289 
Q 1266 200 1342 156 
Q 1419 113 1622 113 
L 1622 0 
L 231 0 
L 231 113 
Q 441 113 512 153 
Q 584 194 626 287 
Q 669 381 669 647 
L 669 1750 
Q 669 2216 641 2353 
Q 619 2453 572 2492 
Q 525 2531 444 2531 
Q 356 2531 231 2484 
L 188 2597 
L 1050 2947 
L 1188 2947 
z
" transform="scale(0.015625)"/>
       <path id="TimesNewRomanPSMT-6f" d="M 1600 2947 
Q 2250 2947 2644 2453 
Q 2978 2031 2978 1484 
Q 2978 1100 2793 706 
Q 2609 313 2286 112 
Q 1963 -88 1566 -88 
Q 919 -88 538 428 
Q 216 863 216 1403 
Q 216 1797 411 2186 
Q 606 2575 925 2761 
Q 1244 2947 1600 2947 
z
M 1503 2744 
Q 1338 2744 1170 2645 
Q 1003 2547 900 2300 
Q 797 2053 797 1666 
Q 797 1041 1045 587 
Q 1294 134 1700 134 
Q 2003 134 2200 384 
Q 2397 634 2397 1244 
Q 2397 2006 2069 2444 
Q 1847 2744 1503 2744 
z
" transform="scale(0.015625)"/>
       <path id="TimesNewRomanPSMT-6e" d="M 1034 2341 
Q 1538 2947 1994 2947 
Q 2228 2947 2397 2830 
Q 2566 2713 2666 2444 
Q 2734 2256 2734 1869 
L 2734 647 
Q 2734 375 2778 278 
Q 2813 200 2889 156 
Q 2966 113 3172 113 
L 3172 0 
L 1756 0 
L 1756 113 
L 1816 113 
Q 2016 113 2095 173 
Q 2175 234 2206 353 
Q 2219 400 2219 647 
L 2219 1819 
Q 2219 2209 2117 2386 
Q 2016 2563 1775 2563 
Q 1403 2563 1034 2156 
L 1034 647 
Q 1034 356 1069 288 
Q 1113 197 1189 155 
Q 1266 113 1500 113 
L 1500 0 
L 84 0 
L 84 113 
L 147 113 
Q 366 113 442 223 
Q 519 334 519 647 
L 519 1709 
Q 519 2225 495 2337 
Q 472 2450 423 2490 
Q 375 2531 294 2531 
Q 206 2531 84 2484 
L 38 2597 
L 900 2947 
L 1034 2947 
L 1034 2341 
z
" transform="scale(0.015625)"/>
       <path id="TimesNewRomanPSMT-20" transform="scale(0.015625)"/>
       <path id="TimesNewRomanPSMT-75" d="M 2709 2863 
L 2709 1128 
Q 2709 631 2732 520 
Q 2756 409 2807 365 
Q 2859 322 2928 322 
Q 3025 322 3147 375 
L 3191 266 
L 2334 -88 
L 2194 -88 
L 2194 519 
Q 1825 119 1631 15 
Q 1438 -88 1222 -88 
Q 981 -88 804 51 
Q 628 191 559 409 
Q 491 628 491 1028 
L 491 2306 
Q 491 2509 447 2587 
Q 403 2666 317 2708 
Q 231 2750 6 2747 
L 6 2863 
L 1009 2863 
L 1009 947 
Q 1009 547 1148 422 
Q 1288 297 1484 297 
Q 1619 297 1789 381 
Q 1959 466 2194 703 
L 2194 2325 
Q 2194 2569 2105 2655 
Q 2016 2741 1734 2747 
L 1734 2863 
L 2709 2863 
z
" transform="scale(0.015625)"/>
       <path id="TimesNewRomanPSMT-6d" d="M 1050 2338 
Q 1363 2650 1419 2697 
Q 1559 2816 1721 2881 
Q 1884 2947 2044 2947 
Q 2313 2947 2506 2790 
Q 2700 2634 2766 2338 
Q 3088 2713 3309 2830 
Q 3531 2947 3766 2947 
Q 3994 2947 4170 2830 
Q 4347 2713 4450 2447 
Q 4519 2266 4519 1878 
L 4519 647 
Q 4519 378 4559 278 
Q 4591 209 4675 161 
Q 4759 113 4950 113 
L 4950 0 
L 3538 0 
L 3538 113 
L 3597 113 
Q 3781 113 3884 184 
Q 3956 234 3988 344 
Q 4000 397 4000 647 
L 4000 1878 
Q 4000 2228 3916 2372 
Q 3794 2572 3525 2572 
Q 3359 2572 3192 2489 
Q 3025 2406 2788 2181 
L 2781 2147 
L 2788 2013 
L 2788 647 
Q 2788 353 2820 281 
Q 2853 209 2943 161 
Q 3034 113 3253 113 
L 3253 0 
L 1806 0 
L 1806 113 
Q 2044 113 2133 169 
Q 2222 225 2256 338 
Q 2272 391 2272 647 
L 2272 1878 
Q 2272 2228 2169 2381 
Q 2031 2581 1784 2581 
Q 1616 2581 1450 2491 
Q 1191 2353 1050 2181 
L 1050 647 
Q 1050 366 1089 281 
Q 1128 197 1204 155 
Q 1281 113 1516 113 
L 1516 0 
L 100 0 
L 100 113 
Q 297 113 375 155 
Q 453 197 493 289 
Q 534 381 534 647 
L 534 1741 
Q 534 2213 506 2350 
Q 484 2453 437 2492 
Q 391 2531 309 2531 
Q 222 2531 100 2484 
L 53 2597 
L 916 2947 
L 1050 2947 
L 1050 2338 
z
" transform="scale(0.015625)"/>
       <path id="TimesNewRomanPSMT-62" d="M 984 2369 
Q 1400 2947 1881 2947 
Q 2322 2947 2650 2570 
Q 2978 2194 2978 1541 
Q 2978 778 2472 313 
Q 2038 -88 1503 -88 
Q 1253 -88 995 3 
Q 738 94 469 275 
L 469 3241 
Q 469 3728 445 3840 
Q 422 3953 372 3993 
Q 322 4034 247 4034 
Q 159 4034 28 3984 
L -16 4094 
L 844 4444 
L 984 4444 
L 984 2369 
z
M 984 2169 
L 984 456 
Q 1144 300 1314 220 
Q 1484 141 1663 141 
Q 1947 141 2192 453 
Q 2438 766 2438 1363 
Q 2438 1913 2192 2208 
Q 1947 2503 1634 2503 
Q 1469 2503 1303 2419 
Q 1178 2356 984 2169 
z
" transform="scale(0.015625)"/>
      </defs>
      <use xlink:href="#TimesNewRomanPSMT-49"/>
      <use xlink:href="#TimesNewRomanPSMT-74" x="33.300781"/>
      <use xlink:href="#TimesNewRomanPSMT-65" x="61.083984"/>
      <use xlink:href="#TimesNewRomanPSMT-72" x="105.46875"/>
      <use xlink:href="#TimesNewRomanPSMT-61" x="138.769531"/>
      <use xlink:href="#TimesNewRomanPSMT-74" x="183.154297"/>
      <use xlink:href="#TimesNewRomanPSMT-69" x="210.9375"/>
      <use xlink:href="#TimesNewRomanPSMT-6f" x="238.720703"/>
      <use xlink:href="#TimesNewRomanPSMT-6e" x="288.720703"/>
      <use xlink:href="#TimesNewRomanPSMT-20" x="338.720703"/>
      <use xlink:href="#TimesNewRomanPSMT-6e" x="363.720703"/>
      <use xlink:href="#TimesNewRomanPSMT-75" x="413.720703"/>
      <use xlink:href="#TimesNewRomanPSMT-6d" x="463.720703"/>
      <use xlink:href="#TimesNewRomanPSMT-62" x="541.503906"/>
      <use xlink:href="#TimesNewRomanPSMT-65" x="591.503906"/>
      <use xlink:href="#TimesNewRomanPSMT-72" x="635.888672"/>
     </g>
    </g>
   </g>
   <g id="matplotlib.axis_2">
    <g id="ytick_1">
     <g id="line2d_87">
      <defs>
       <path id="mf430e0d149" d="M 0 0 
L 6 0 
" style="stroke: #000000; stroke-width: 1.25"/>
      </defs>
      <g>
       <use xlink:href="#mf430e0d149" x="57.227656" y="240.097413" style="fill: #ffffff; stroke: #000000; stroke-width: 1.25"/>
      </g>
     </g>
     <g id="line2d_88">
      <defs>
       <path id="m8afc7ae241" d="M 0 0 
L -6 0 
" style="stroke: #000000; stroke-width: 1.25"/>
      </defs>
      <g>
       <use xlink:href="#m8afc7ae241" x="441.799357" y="240.097413" style="fill: #ffffff; stroke: #000000; stroke-width: 1.25"/>
      </g>
     </g>
     <g id="text_11">
      <!-- $\mathdefault{10^{-8}}$ -->
      <g transform="translate(32.007656 245.413975) scale(0.12 -0.12)">
       <defs>
        <path id="TimesNewRomanPSMT-2212" d="M 3484 2000 
L 116 2000 
L 116 2256 
L 3484 2256 
L 3484 2000 
z
" transform="scale(0.015625)"/>
       </defs>
       <use xlink:href="#TimesNewRomanPSMT-31" transform="translate(0 0.582813)"/>
       <use xlink:href="#TimesNewRomanPSMT-30" transform="translate(50 0.582813)"/>
       <use xlink:href="#TimesNewRomanPSMT-2212" transform="translate(101.502813 60.695312) scale(0.7)"/>
       <use xlink:href="#TimesNewRomanPSMT-38" transform="translate(140.980352 60.695312) scale(0.7)"/>
      </g>
     </g>
    </g>
    <g id="ytick_2">
     <g id="line2d_89">
      <g>
       <use xlink:href="#mf430e0d149" x="57.227656" y="191.557278" style="fill: #ffffff; stroke: #000000; stroke-width: 1.25"/>
      </g>
     </g>
     <g id="line2d_90">
      <g>
       <use xlink:href="#m8afc7ae241" x="441.799357" y="191.557278" style="fill: #ffffff; stroke: #000000; stroke-width: 1.25"/>
      </g>
     </g>
     <g id="text_12">
      <!-- $\mathdefault{10^{-6}}$ -->
      <g transform="translate(32.007656 196.873841) scale(0.12 -0.12)">
       <use xlink:href="#TimesNewRomanPSMT-31" transform="translate(0 0.582813)"/>
       <use xlink:href="#TimesNewRomanPSMT-30" transform="translate(50 0.582813)"/>
       <use xlink:href="#TimesNewRomanPSMT-2212" transform="translate(101.502813 60.695312) scale(0.7)"/>
       <use xlink:href="#TimesNewRomanPSMT-36" transform="translate(140.980352 60.695312) scale(0.7)"/>
      </g>
     </g>
    </g>
    <g id="ytick_3">
     <g id="line2d_91">
      <g>
       <use xlink:href="#mf430e0d149" x="57.227656" y="143.017144" style="fill: #ffffff; stroke: #000000; stroke-width: 1.25"/>
      </g>
     </g>
     <g id="line2d_92">
      <g>
       <use xlink:href="#m8afc7ae241" x="441.799357" y="143.017144" style="fill: #ffffff; stroke: #000000; stroke-width: 1.25"/>
      </g>
     </g>
     <g id="text_13">
      <!-- $\mathdefault{10^{-4}}$ -->
      <g transform="translate(32.007656 148.333706) scale(0.12 -0.12)">
       <use xlink:href="#TimesNewRomanPSMT-31" transform="translate(0 0.582813)"/>
       <use xlink:href="#TimesNewRomanPSMT-30" transform="translate(50 0.582813)"/>
       <use xlink:href="#TimesNewRomanPSMT-2212" transform="translate(101.502813 60.695312) scale(0.7)"/>
       <use xlink:href="#TimesNewRomanPSMT-34" transform="translate(140.980352 60.695312) scale(0.7)"/>
      </g>
     </g>
    </g>
    <g id="ytick_4">
     <g id="line2d_93">
      <g>
       <use xlink:href="#mf430e0d149" x="57.227656" y="94.477009" style="fill: #ffffff; stroke: #000000; stroke-width: 1.25"/>
      </g>
     </g>
     <g id="line2d_94">
      <g>
       <use xlink:href="#m8afc7ae241" x="441.799357" y="94.477009" style="fill: #ffffff; stroke: #000000; stroke-width: 1.25"/>
      </g>
     </g>
     <g id="text_14">
      <!-- $\mathdefault{10^{-2}}$ -->
      <g transform="translate(32.007656 99.793572) scale(0.12 -0.12)">
       <use xlink:href="#TimesNewRomanPSMT-31" transform="translate(0 0.582813)"/>
       <use xlink:href="#TimesNewRomanPSMT-30" transform="translate(50 0.582813)"/>
       <use xlink:href="#TimesNewRomanPSMT-2212" transform="translate(101.502813 60.695312) scale(0.7)"/>
       <use xlink:href="#TimesNewRomanPSMT-32" transform="translate(140.980352 60.695312) scale(0.7)"/>
      </g>
     </g>
    </g>
    <g id="ytick_5">
     <g id="line2d_95">
      <g>
       <use xlink:href="#mf430e0d149" x="57.227656" y="45.936875" style="fill: #ffffff; stroke: #000000; stroke-width: 1.25"/>
      </g>
     </g>
     <g id="line2d_96">
      <g>
       <use xlink:href="#m8afc7ae241" x="441.799357" y="45.936875" style="fill: #ffffff; stroke: #000000; stroke-width: 1.25"/>
      </g>
     </g>
     <g id="text_15">
      <!-- $\mathdefault{10^{0}}$ -->
      <g transform="translate(36.807656 51.253437) scale(0.12 -0.12)">
       <use xlink:href="#TimesNewRomanPSMT-31" transform="translate(0 0.582813)"/>
       <use xlink:href="#TimesNewRomanPSMT-30" transform="translate(50 0.582813)"/>
       <use xlink:href="#TimesNewRomanPSMT-30" transform="translate(101.502813 60.695312) scale(0.7)"/>
      </g>
     </g>
    </g>
    <g id="text_16">
     <!-- Normalized RMS residual -->
     <g transform="translate(16.226875 229.275703) rotate(-90) scale(0.13 -0.13)">
      <defs>
       <path id="TimesNewRomanPSMT-4e" d="M -84 4238 
L 1066 4238 
L 3656 1059 
L 3656 3503 
Q 3656 3894 3569 3991 
Q 3453 4122 3203 4122 
L 3056 4122 
L 3056 4238 
L 4531 4238 
L 4531 4122 
L 4381 4122 
Q 4113 4122 4000 3959 
Q 3931 3859 3931 3503 
L 3931 -69 
L 3819 -69 
L 1025 3344 
L 1025 734 
Q 1025 344 1109 247 
Q 1228 116 1475 116 
L 1625 116 
L 1625 0 
L 150 0 
L 150 116 
L 297 116 
Q 569 116 681 278 
Q 750 378 750 734 
L 750 3681 
Q 566 3897 470 3965 
Q 375 4034 191 4094 
Q 100 4122 -84 4122 
L -84 4238 
z
" transform="scale(0.015625)"/>
       <path id="TimesNewRomanPSMT-6c" d="M 1184 4444 
L 1184 647 
Q 1184 378 1223 290 
Q 1263 203 1344 158 
Q 1425 113 1647 113 
L 1647 0 
L 244 0 
L 244 113 
Q 441 113 512 153 
Q 584 194 625 287 
Q 666 381 666 647 
L 666 3247 
Q 666 3731 644 3842 
Q 622 3953 573 3993 
Q 525 4034 450 4034 
Q 369 4034 244 3984 
L 191 4094 
L 1044 4444 
L 1184 4444 
z
" transform="scale(0.015625)"/>
       <path id="TimesNewRomanPSMT-7a" d="M 2688 878 
L 2653 0 
L 128 0 
L 128 113 
L 2028 2644 
L 1091 2644 
Q 788 2644 694 2605 
Q 600 2566 541 2456 
Q 456 2300 444 2069 
L 319 2069 
L 338 2863 
L 2738 2863 
L 2738 2747 
L 819 209 
L 1863 209 
Q 2191 209 2308 264 
Q 2425 319 2497 456 
Q 2547 556 2581 878 
L 2688 878 
z
" transform="scale(0.015625)"/>
       <path id="TimesNewRomanPSMT-64" d="M 2222 322 
Q 2013 103 1813 7 
Q 1613 -88 1381 -88 
Q 913 -88 563 304 
Q 213 697 213 1313 
Q 213 1928 600 2439 
Q 988 2950 1597 2950 
Q 1975 2950 2222 2709 
L 2222 3238 
Q 2222 3728 2198 3840 
Q 2175 3953 2125 3993 
Q 2075 4034 2000 4034 
Q 1919 4034 1784 3984 
L 1744 4094 
L 2597 4444 
L 2738 4444 
L 2738 1134 
Q 2738 631 2761 520 
Q 2784 409 2836 365 
Q 2888 322 2956 322 
Q 3041 322 3181 375 
L 3216 266 
L 2366 -88 
L 2222 -88 
L 2222 322 
z
M 2222 541 
L 2222 2016 
Q 2203 2228 2109 2403 
Q 2016 2578 1861 2667 
Q 1706 2756 1559 2756 
Q 1284 2756 1069 2509 
Q 784 2184 784 1559 
Q 784 928 1059 592 
Q 1334 256 1672 256 
Q 1956 256 2222 541 
z
" transform="scale(0.015625)"/>
       <path id="TimesNewRomanPSMT-52" d="M 4325 0 
L 3194 0 
L 1759 1981 
Q 1600 1975 1500 1975 
Q 1459 1975 1412 1976 
Q 1366 1978 1316 1981 
L 1316 750 
Q 1316 350 1403 253 
Q 1522 116 1759 116 
L 1925 116 
L 1925 0 
L 109 0 
L 109 116 
L 269 116 
Q 538 116 653 291 
Q 719 388 719 750 
L 719 3488 
Q 719 3888 631 3984 
Q 509 4122 269 4122 
L 109 4122 
L 109 4238 
L 1653 4238 
Q 2328 4238 2648 4139 
Q 2969 4041 3192 3777 
Q 3416 3513 3416 3147 
Q 3416 2756 3161 2468 
Q 2906 2181 2372 2063 
L 3247 847 
Q 3547 428 3762 290 
Q 3978 153 4325 116 
L 4325 0 
z
M 1316 2178 
Q 1375 2178 1419 2176 
Q 1463 2175 1491 2175 
Q 2097 2175 2405 2437 
Q 2713 2700 2713 3106 
Q 2713 3503 2464 3751 
Q 2216 4000 1806 4000 
Q 1625 4000 1316 3941 
L 1316 2178 
z
" transform="scale(0.015625)"/>
       <path id="TimesNewRomanPSMT-4d" d="M 2619 0 
L 981 3566 
L 981 734 
Q 981 344 1066 247 
Q 1181 116 1431 116 
L 1581 116 
L 1581 0 
L 106 0 
L 106 116 
L 256 116 
Q 525 116 638 278 
Q 706 378 706 734 
L 706 3503 
Q 706 3784 644 3909 
Q 600 4000 483 4061 
Q 366 4122 106 4122 
L 106 4238 
L 1306 4238 
L 2844 922 
L 4356 4238 
L 5556 4238 
L 5556 4122 
L 5409 4122 
Q 5138 4122 5025 3959 
Q 4956 3859 4956 3503 
L 4956 734 
Q 4956 344 5044 247 
Q 5159 116 5409 116 
L 5556 116 
L 5556 0 
L 3756 0 
L 3756 116 
L 3906 116 
Q 4178 116 4288 278 
Q 4356 378 4356 734 
L 4356 3566 
L 2722 0 
L 2619 0 
z
" transform="scale(0.015625)"/>
       <path id="TimesNewRomanPSMT-53" d="M 2934 4334 
L 2934 2869 
L 2819 2869 
Q 2763 3291 2617 3541 
Q 2472 3791 2203 3937 
Q 1934 4084 1647 4084 
Q 1322 4084 1109 3886 
Q 897 3688 897 3434 
Q 897 3241 1031 3081 
Q 1225 2847 1953 2456 
Q 2547 2138 2764 1967 
Q 2981 1797 3098 1565 
Q 3216 1334 3216 1081 
Q 3216 600 2842 251 
Q 2469 -97 1881 -97 
Q 1697 -97 1534 -69 
Q 1438 -53 1133 45 
Q 828 144 747 144 
Q 669 144 623 97 
Q 578 50 556 -97 
L 441 -97 
L 441 1356 
L 556 1356 
Q 638 900 775 673 
Q 913 447 1195 297 
Q 1478 147 1816 147 
Q 2206 147 2432 353 
Q 2659 559 2659 841 
Q 2659 997 2573 1156 
Q 2488 1316 2306 1453 
Q 2184 1547 1640 1851 
Q 1097 2156 867 2337 
Q 638 2519 519 2737 
Q 400 2956 400 3219 
Q 400 3675 750 4004 
Q 1100 4334 1641 4334 
Q 1978 4334 2356 4169 
Q 2531 4091 2603 4091 
Q 2684 4091 2736 4139 
Q 2788 4188 2819 4334 
L 2934 4334 
z
" transform="scale(0.015625)"/>
       <path id="TimesNewRomanPSMT-73" d="M 2050 2947 
L 2050 1972 
L 1947 1972 
Q 1828 2431 1642 2597 
Q 1456 2763 1169 2763 
Q 950 2763 815 2647 
Q 681 2531 681 2391 
Q 681 2216 781 2091 
Q 878 1963 1175 1819 
L 1631 1597 
Q 2266 1288 2266 781 
Q 2266 391 1970 151 
Q 1675 -88 1309 -88 
Q 1047 -88 709 6 
Q 606 38 541 38 
Q 469 38 428 -44 
L 325 -44 
L 325 978 
L 428 978 
Q 516 541 762 319 
Q 1009 97 1316 97 
Q 1531 97 1667 223 
Q 1803 350 1803 528 
Q 1803 744 1651 891 
Q 1500 1038 1047 1263 
Q 594 1488 453 1669 
Q 313 1847 313 2119 
Q 313 2472 555 2709 
Q 797 2947 1181 2947 
Q 1350 2947 1591 2875 
Q 1750 2828 1803 2828 
Q 1853 2828 1881 2850 
Q 1909 2872 1947 2947 
L 2050 2947 
z
" transform="scale(0.015625)"/>
      </defs>
      <use xlink:href="#TimesNewRomanPSMT-4e"/>
      <use xlink:href="#TimesNewRomanPSMT-6f" x="72.216797"/>
      <use xlink:href="#TimesNewRomanPSMT-72" x="122.216797"/>
      <use xlink:href="#TimesNewRomanPSMT-6d" x="155.517578"/>
      <use xlink:href="#TimesNewRomanPSMT-61" x="233.300781"/>
      <use xlink:href="#TimesNewRomanPSMT-6c" x="277.685547"/>
      <use xlink:href="#TimesNewRomanPSMT-69" x="305.46875"/>
      <use xlink:href="#TimesNewRomanPSMT-7a" x="333.251953"/>
      <use xlink:href="#TimesNewRomanPSMT-65" x="377.636719"/>
      <use xlink:href="#TimesNewRomanPSMT-64" x="422.021484"/>
      <use xlink:href="#TimesNewRomanPSMT-20" x="472.021484"/>
      <use xlink:href="#TimesNewRomanPSMT-52" x="497.021484"/>
      <use xlink:href="#TimesNewRomanPSMT-4d" x="563.720703"/>
      <use xlink:href="#TimesNewRomanPSMT-53" x="652.636719"/>
      <use xlink:href="#TimesNewRomanPSMT-20" x="708.251953"/>
      <use xlink:href="#TimesNewRomanPSMT-72" x="733.251953"/>
      <use xlink:href="#TimesNewRomanPSMT-65" x="766.552734"/>
      <use xlink:href="#TimesNewRomanPSMT-73" x="810.9375"/>
      <use xlink:href="#TimesNewRomanPSMT-69" x="849.853516"/>
      <use xlink:href="#TimesNewRomanPSMT-64" x="877.636719"/>
      <use xlink:href="#TimesNewRomanPSMT-75" x="927.636719"/>
      <use xlink:href="#TimesNewRomanPSMT-61" x="977.636719"/>
      <use xlink:href="#TimesNewRomanPSMT-6c" x="1022.021484"/>
     </g>
    </g>
   </g>
   <g id="line2d_97">
    <path d="M 74.708188 45.936875 
L 75.145748 50.541566 
L 75.583309 50.012596 
L 76.458429 49.259093 
L 78.64623 47.221707 
L 79.521351 46.719718 
L 80.834032 46.278048 
L 81.709152 46.140788 
L 83.021833 46.200599 
L 84.334514 46.570914 
L 85.209634 47.033953 
L 87.834996 48.733999 
L 89.147676 49.018591 
L 90.022797 49.12089 
L 91.773038 49.048285 
L 93.085718 48.884044 
L 93.523279 48.92455 
L 94.835959 49.437409 
L 96.14864 50.237957 
L 98.336441 52.108961 
L 100.086682 54.100019 
L 101.399363 55.91813 
L 102.712044 58.061174 
L 104.462285 61.128688 
L 105.337405 62.056597 
L 107.525207 63.887466 
L 107.962767 64.152351 
L 108.400327 64.644356 
L 108.837887 64.839536 
L 109.275448 65.502243 
L 109.713008 65.494825 
L 110.150568 66.467929 
L 110.588128 66.00653 
L 111.025689 67.413998 
L 111.463249 66.722323 
L 111.900809 68.116168 
L 112.338369 66.934988 
L 112.77593 69.008654 
L 113.21349 68.527771 
L 113.65105 69.730892 
L 114.08861 69.435836 
L 114.526171 70.479208 
L 114.963731 70.370312 
L 115.401291 71.356316 
L 115.838851 71.394706 
L 116.276412 72.020749 
L 116.713972 72.262884 
L 117.151532 72.952926 
L 117.589092 73.217453 
L 118.026653 73.883482 
L 118.464213 74.250284 
L 118.901773 74.948915 
L 119.339333 74.737499 
L 119.776894 76.415058 
L 120.214454 76.551373 
L 120.652014 77.915388 
L 121.527135 78.776858 
L 121.964695 78.960014 
L 122.402255 80.858462 
L 122.839815 81.449799 
L 123.277376 82.865671 
L 123.714936 83.497979 
L 124.152496 82.144769 
L 124.590056 81.926873 
L 125.027617 80.747569 
L 125.465177 80.542984 
L 125.902737 79.604704 
L 126.340297 79.539351 
L 126.777858 78.751695 
L 127.215418 78.807561 
L 127.652978 78.138943 
L 128.090538 78.303527 
L 128.528098 77.735373 
L 128.965659 78.001812 
L 129.403219 77.531317 
L 129.840779 77.899412 
L 130.278339 77.514647 
L 130.7159 77.966101 
L 131.15346 77.665845 
L 131.59102 78.201768 
L 132.02858 78.228807 
L 132.466141 78.764744 
L 132.903701 78.692587 
L 133.341261 79.096561 
L 133.778821 78.998778 
L 134.216382 79.862075 
L 134.653942 79.826308 
L 136.404183 81.573021 
L 136.841743 82.297664 
L 137.279303 82.610273 
L 137.716864 83.412037 
L 138.154424 83.800969 
L 138.591984 84.663709 
L 139.029544 84.516018 
L 139.467105 86.136725 
L 139.904665 86.034504 
L 140.342225 87.674538 
L 140.779785 87.784565 
L 141.654906 91.341945 
L 142.092466 91.208147 
L 142.530026 91.333337 
L 142.967587 91.747332 
L 143.842707 91.369381 
L 144.280267 90.779477 
L 144.717828 90.498989 
L 145.155388 90.391856 
L 145.592948 89.969077 
L 146.468069 89.784459 
L 147.343189 89.514443 
L 148.21831 89.421385 
L 148.65587 89.48552 
L 149.09343 89.305239 
L 149.968551 89.483551 
L 150.406111 90.099774 
L 150.843671 90.079615 
L 151.281231 90.637202 
L 151.718792 90.686375 
L 152.156352 91.3263 
L 152.593912 91.467952 
L 153.469033 92.285584 
L 153.906593 92.898081 
L 154.344153 92.862752 
L 154.781713 94.035269 
L 155.219274 94.086945 
L 155.656834 95.246805 
L 156.094394 95.38261 
L 156.531954 95.79189 
L 158.282195 98.972631 
L 158.719756 98.752601 
L 159.157316 100.778424 
L 159.594876 102.236388 
L 160.032436 102.784743 
L 160.469997 103.038135 
L 160.907557 103.827318 
L 161.345117 103.505464 
L 161.782677 102.886306 
L 162.220238 102.571549 
L 162.657798 101.963754 
L 163.095358 101.790619 
L 163.532918 101.252713 
L 163.970479 101.254918 
L 164.408039 100.798566 
L 164.845599 100.946292 
L 165.283159 100.5483 
L 165.720719 100.81413 
L 166.15828 100.468353 
L 166.59584 100.847257 
L 167.908521 101.085063 
L 168.346081 101.42348 
L 168.783641 101.1349 
L 170.533882 102.212867 
L 170.971442 102.818877 
L 171.409003 103.031963 
L 171.846563 103.734063 
L 172.284123 103.978109 
L 172.721683 104.714873 
L 173.159244 104.996169 
L 173.596804 105.80597 
L 174.034364 106.159834 
L 174.471924 107.039845 
L 174.909485 107.47714 
L 175.347045 108.418541 
L 175.784605 108.954985 
L 176.222165 109.946858 
L 176.659726 110.605491 
L 177.534846 112.42355 
L 177.972406 115.13599 
L 178.409967 115.312559 
L 178.847527 116.235226 
L 179.285087 115.744359 
L 179.722647 115.947665 
L 180.160208 115.193013 
L 180.597768 115.13599 
L 181.035328 114.848125 
L 181.472888 114.423557 
L 181.910449 114.231587 
L 182.348009 113.835317 
L 182.785569 113.776614 
L 183.223129 113.433014 
L 183.66069 113.503279 
L 184.09825 113.227483 
L 184.53581 113.415838 
L 184.97337 113.211886 
L 185.410931 113.516105 
L 185.848491 113.380938 
L 186.286051 113.79373 
L 186.723611 113.730018 
L 187.161172 114.248082 
L 187.598732 114.246707 
L 188.036292 114.865614 
L 188.473852 114.92559 
L 188.911413 115.645729 
L 189.348973 115.764991 
L 189.786533 116.584802 
L 190.224093 116.738741 
L 190.661654 117.629058 
L 191.099214 117.81748 
L 191.536774 118.802665 
L 191.974334 119.047068 
L 192.411895 120.145153 
L 192.849455 120.451903 
L 193.287015 121.670434 
L 194.599696 124.274447 
L 195.037256 125.980616 
L 195.474816 126.801482 
L 195.912377 128.178312 
L 196.787497 128.774352 
L 198.100178 127.721555 
L 200.287979 126.19871 
L 201.163099 125.780904 
L 202.03822 125.584704 
L 202.91334 125.573619 
L 203.788461 125.746038 
L 205.101142 126.37958 
L 206.413822 127.378249 
L 208.164063 129.349487 
L 209.476744 131.144255 
L 210.789425 133.337212 
L 213.852347 139.097824 
L 214.289907 139.672033 
L 215.165027 139.619214 
L 216.477708 138.727248 
L 218.665509 137.500673 
L 219.54063 137.267813 
L 220.41575 137.239749 
L 221.290871 137.406787 
L 222.165991 137.737516 
L 223.041112 138.234487 
L 224.353793 139.291446 
L 225.666473 140.716694 
L 226.979154 142.382108 
L 228.729395 145.167278 
L 231.354757 149.677215 
L 231.792317 150.154399 
L 232.229877 150.420582 
L 232.667437 150.5129 
L 233.542558 150.383202 
L 235.292799 149.816729 
L 237.04304 149.216336 
L 237.91816 149.165216 
L 238.793281 149.293101 
L 239.668401 149.590923 
L 240.981082 150.329488 
L 242.293763 151.433465 
L 244.044004 153.363025 
L 245.794245 155.644393 
L 249.294727 160.621614 
L 250.169847 161.284378 
L 250.607407 161.296909 
L 251.044968 161.457549 
L 253.232769 160.921538 
L 254.54545 160.542388 
L 255.42057 160.455481 
L 256.733251 160.626096 
L 258.045932 161.057238 
L 259.358612 161.755138 
L 260.671293 162.714191 
L 264.171775 165.644956 
L 264.609335 166.135121 
L 265.046896 166.425386 
L 265.922016 167.295119 
L 266.797137 167.919459 
L 267.672257 168.223409 
L 268.547378 168.255135 
L 272.04786 167.948038 
L 273.36054 168.123891 
L 274.673221 168.484654 
L 275.985902 169.081381 
L 277.298582 169.912435 
L 279.486384 171.630383 
L 281.236625 173.296434 
L 285.174667 177.231307 
L 286.487348 177.952639 
L 288.675149 178.771075 
L 291.738071 179.654021 
L 295.238553 180.709241 
L 297.426354 181.597516 
L 300.926836 183.322146 
L 302.677077 184.128133 
L 304.427318 184.452917 
L 308.36536 185.260397 
L 310.115601 186.03394 
L 311.865842 187.041102 
L 314.053643 188.577576 
L 316.679005 190.747057 
L 319.304366 192.981142 
L 320.617047 193.792025 
L 323.242408 195.084586 
L 335.056535 200.376091 
L 335.494095 200.688503 
L 335.931656 200.801402 
L 336.369216 201.151208 
L 336.806776 201.250678 
L 338.994577 202.410508 
L 346.870662 206.867803 
L 349.496023 208.705271 
L 355.184306 212.830179 
L 366.123313 220.174497 
L 369.186234 222.624721 
L 372.249156 225.363291 
L 377.937439 230.583287 
L 378.375 230.946799 
L 378.81256 231.465467 
L 379.25012 231.720405 
L 379.68768 232.248558 
L 380.125241 232.495195 
L 380.562801 233.038812 
L 381.000361 233.290519 
L 381.437921 233.852858 
L 382.313042 234.71608 
L 383.625722 236.071084 
L 387.126204 240.33976 
L 389.751566 243.707531 
L 391.064247 245.019592 
L 391.939367 245.719587 
L 392.814488 246.164392 
L 393.689608 246.362478 
L 395.439849 246.357514 
L 397.19009 246.44627 
L 398.940331 246.816936 
L 400.690572 247.466227 
L 402.440813 248.387311 
L 404.191054 249.555504 
L 406.378855 251.316408 
L 409.441777 254.143512 
L 411.192018 255.756933 
L 415.13006 258.500297 
L 419.505663 261.655716 
L 424.318825 265.237419 
L 424.318825 265.237419 
" clip-path="url(#p2d2c185ce6)" style="fill: none; stroke: #0072bd; stroke-linecap: square"/>
   </g>
   <g id="line2d_98">
    <path d="M 74.708188 45.936875 
L 76.020869 47.41214 
L 77.33355 48.416003 
L 79.083791 49.337536 
L 82.584273 50.980304 
L 84.334514 52.115968 
L 85.647194 53.227095 
L 86.959875 54.595814 
L 88.710116 56.819365 
L 90.897917 59.990969 
L 93.960839 64.907533 
L 95.27352 67.471572 
L 95.71108 67.624731 
L 98.336441 65.410902 
L 99.649122 64.621995 
L 100.961803 64.100847 
L 102.274484 63.879367 
L 103.587164 63.94608 
L 104.462285 64.163039 
L 105.337405 64.551495 
L 106.212526 65.128507 
L 107.525207 66.316003 
L 108.400327 67.459382 
L 109.713008 69.668612 
L 111.025689 72.490271 
L 112.338369 76.389066 
L 112.77593 77.827711 
L 114.08861 83.816675 
L 114.526171 83.070468 
L 115.838851 78.765219 
L 116.713972 76.815982 
L 117.589092 75.389391 
L 118.464213 74.399368 
L 119.339333 73.712032 
L 119.776894 73.43797 
L 121.089574 73.202597 
L 121.964695 73.22545 
L 122.839815 73.523095 
L 123.714936 74.000206 
L 124.590056 74.600686 
L 125.902737 75.824625 
L 127.215418 77.470463 
L 128.528098 79.591344 
L 129.840779 82.280087 
L 130.7159 84.502917 
L 131.59102 87.198432 
L 133.341261 94.331507 
L 133.778821 94.996821 
L 136.404183 88.37623 
L 137.279303 87.070286 
L 137.716864 86.493862 
L 139.029544 85.47341 
L 139.467105 85.201495 
L 140.779785 84.990702 
L 141.217346 84.992845 
L 142.530026 85.386735 
L 143.842707 86.21874 
L 144.717828 86.923584 
L 146.030508 88.325538 
L 147.343189 90.233522 
L 148.21831 91.801164 
L 149.53099 94.632354 
L 151.281231 99.154552 
L 151.718792 100.044701 
L 152.156352 100.498542 
L 152.593912 100.699381 
L 153.031472 100.487164 
L 153.906593 99.611484 
L 155.656834 97.865743 
L 156.969515 97.203999 
L 157.844635 97.038471 
L 158.719756 97.005862 
L 159.157316 97.055957 
L 161.345117 98.304772 
L 162.220238 99.004002 
L 163.095358 99.819391 
L 164.408039 101.273782 
L 166.15828 103.808907 
L 169.221201 108.695935 
L 169.658762 109.274492 
L 170.533882 109.786633 
L 172.284123 109.300699 
L 172.721683 109.028927 
L 173.159244 108.910122 
L 173.596804 108.651754 
L 174.034364 108.571167 
L 174.471924 108.36566 
L 174.909485 108.342853 
L 175.347045 108.203936 
L 177.534846 108.441116 
L 177.972406 108.560736 
L 182.348009 111.132057 
L 184.53581 112.948987 
L 186.723611 114.832845 
L 187.598732 115.405803 
L 188.473852 115.606534 
L 193.724575 115.550348 
L 195.037256 115.762608 
L 197.662618 116.553083 
L 201.163099 117.92515 
L 205.976262 120.060643 
L 207.288943 120.200904 
L 210.351865 120.426038 
L 212.977226 120.865591 
L 216.040148 121.646814 
L 219.97819 122.916465 
L 223.478672 124.104167 
L 225.666473 124.436848 
L 229.604516 125.103637 
L 233.104998 125.92903 
L 237.4806 127.194126 
L 241.856202 128.475435 
L 248.419606 129.796326 
L 252.357648 130.845767 
L 256.733251 132.248112 
L 268.984938 136.561394 
L 274.235661 138.888442 
L 289.550269 145.984127 
L 295.676113 149.263891 
L 304.864878 154.462224 
L 314.491203 160.227531 
L 319.741926 163.618663 
L 324.992649 167.266151 
L 331.118493 171.808213 
L 377.499879 206.95511 
L 384.500843 211.786639 
L 403.315934 224.571715 
L 424.318825 238.947213 
L 424.318825 238.947213 
" clip-path="url(#p2d2c185ce6)" style="fill: none; stroke: #d95319; stroke-linecap: square"/>
   </g>
   <g id="line2d_99">
    <path d="M 74.708188 45.936875 
L 75.145748 50.812583 
L 75.583309 54.179667 
L 76.020869 55.651978 
L 76.895989 56.003248 
L 79.083791 56.594187 
L 81.709152 57.100098 
L 83.021833 57.626727 
L 84.334514 58.424997 
L 86.084755 59.781921 
L 87.834996 61.414044 
L 89.585237 63.310362 
L 91.335478 65.650328 
L 93.523279 69.652599 
L 94.398399 73.110566 
L 94.835959 74.44465 
L 95.27352 74.672573 
L 95.71108 74.231738 
L 97.023761 72.454597 
L 100.961803 67.676006 
L 101.836923 67.077359 
L 102.712044 66.761017 
L 103.587164 66.734447 
L 104.462285 66.977576 
L 105.337405 67.448829 
L 106.650086 68.523278 
L 108.400327 70.487864 
L 109.713008 72.364705 
L 110.588128 73.959348 
L 111.025689 74.90932 
L 111.463249 76.416958 
L 112.338369 78.544391 
L 113.65105 83.459737 
L 114.08861 84.435214 
L 114.963731 83.250218 
L 115.401291 81.649525 
L 116.276412 80.467381 
L 116.713972 79.229689 
L 117.151532 78.731088 
L 117.589092 77.799513 
L 118.026653 77.348762 
L 118.464213 76.674277 
L 120.652014 75.154036 
L 121.089574 75.086836 
L 121.527135 75.153025 
L 122.402255 75.059742 
L 123.277376 75.27438 
L 125.902737 77.181158 
L 126.340297 77.799946 
L 126.777858 78.186476 
L 127.215418 78.955662 
L 127.652978 79.422728 
L 128.090538 80.346154 
L 128.528098 80.897334 
L 128.965659 81.99664 
L 129.403219 82.644176 
L 129.840779 83.931931 
L 130.278339 84.675348 
L 130.7159 86.175974 
L 131.15346 87.036931 
L 132.02858 90.239866 
L 132.466141 91.235236 
L 133.341261 92.027633 
L 133.778821 92.047704 
L 134.216382 91.853628 
L 135.091502 91.176502 
L 135.966623 89.917659 
L 136.841743 88.827727 
L 137.716864 87.990455 
L 138.591984 87.422726 
L 139.029544 87.40978 
L 139.904665 86.972086 
L 140.779785 86.79414 
L 141.217346 86.817557 
L 142.092466 87.145725 
L 142.967587 87.44542 
L 144.717828 88.279772 
L 147.780749 90.696679 
L 148.21831 91.201193 
L 149.09343 91.904703 
L 149.53099 92.24798 
L 150.406111 93.446566 
L 150.843671 93.804329 
L 151.281231 94.32735 
L 151.718792 94.602125 
L 152.156352 95.041763 
L 153.031472 95.486842 
L 153.469033 95.7647 
L 155.656834 95.908115 
L 156.094394 95.832687 
L 156.531954 95.922371 
L 158.282195 95.760056 
L 159.157316 95.957853 
L 159.594876 96.081945 
L 160.469997 96.198328 
L 161.345117 96.511835 
L 162.220238 96.767017 
L 163.095358 97.090072 
L 164.408039 97.590827 
L 165.720719 98.17703 
L 166.59584 98.493778 
L 167.47096 98.806345 
L 169.221201 99.118964 
L 171.409003 99.12011 
L 175.347045 99.123877 
L 178.409967 99.58989 
L 183.223129 100.810477 
L 184.53581 101.318671 
L 185.848491 101.74116 
L 187.161172 102.276297 
L 188.473852 102.665796 
L 189.786533 103.114399 
L 191.099214 103.433968 
L 192.411895 103.81683 
L 193.287015 104.033813 
L 195.037256 104.494192 
L 202.03822 106.104737 
L 203.350901 106.360345 
L 205.538702 106.86838 
L 207.288943 107.220146 
L 212.539666 108.377082 
L 216.915268 109.621267 
L 221.290871 111.091193 
L 233.104998 115.174972 
L 246.231805 119.830128 
L 252.357648 122.187544 
L 257.608371 124.468724 
L 265.922016 128.33577 
L 271.610299 131.247614 
L 276.861022 134.200473 
L 282.111745 137.385144 
L 286.924908 140.558582 
L 292.613191 144.605278 
L 300.051715 150.211605 
L 309.678041 157.755149 
L 325.43021 170.140835 
L 335.494095 177.90231 
L 338.994577 180.49083 
L 344.2453 184.269194 
L 353.434065 190.536398 
L 362.622831 196.879033 
L 397.62765 221.671227 
L 420.818343 238.681252 
L 424.318825 241.238562 
L 424.318825 241.238562 
" clip-path="url(#p2d2c185ce6)" style="fill: none; stroke: #edb120; stroke-linecap: square"/>
   </g>
   <g id="line2d_100">
    <path d="M 74.708188 45.936875 
L 75.145748 62.539848 
L 75.583309 61.716756 
L 76.020869 62.998344 
L 77.77111 73.198116 
L 79.521351 79.729612 
L 80.396471 82.576478 
L 81.271592 84.572292 
L 84.772074 91.263949 
L 86.084755 93.383667 
L 88.710116 97.107779 
L 91.335478 100.349373 
L 93.523279 102.776169 
L 95.27352 104.231662 
L 96.5862 105.513337 
L 98.336441 107.626543 
L 101.836923 111.963417 
L 102.712044 112.492036 
L 103.149604 112.523526 
L 103.587164 112.396395 
L 105.337405 111.315327 
L 106.212526 111.43579 
L 107.962767 112.853346 
L 108.400327 113.660181 
L 108.837887 113.975808 
L 109.275448 114.81033 
L 109.713008 115.308755 
L 110.588128 116.860536 
L 111.025689 117.02485 
L 111.463249 117.959329 
L 111.900809 118.575617 
L 112.338369 118.924373 
L 112.77593 119.074106 
L 113.21349 120.518029 
L 114.526171 122.679322 
L 114.963731 123.121489 
L 115.838851 124.284067 
L 117.589092 126.257868 
L 118.026653 126.609289 
L 118.464213 127.145144 
L 118.901773 127.481544 
L 119.339333 127.381357 
L 121.089574 130.025212 
L 121.527135 130.26798 
L 121.964695 130.227807 
L 122.839815 131.908727 
L 123.277376 132.453091 
L 123.714936 133.760883 
L 124.152496 134.221957 
L 124.590056 134.879941 
L 125.027617 135.281016 
L 125.465177 135.870964 
L 125.902737 136.205831 
L 126.340297 136.864497 
L 126.777858 137.162654 
L 127.215418 137.779116 
L 127.652978 138.007946 
L 128.090538 138.560191 
L 128.528098 138.641996 
L 128.965659 139.087655 
L 129.403219 139.037678 
L 129.840779 139.388113 
L 130.278339 139.255977 
L 130.7159 139.509074 
L 131.15346 139.32555 
L 132.466141 139.613871 
L 133.341261 139.486429 
L 133.778821 139.222832 
L 134.216382 139.3419 
L 135.966623 138.882744 
L 136.404183 138.926984 
L 136.841743 138.845783 
L 137.279303 138.922694 
L 137.716864 138.842236 
L 138.154424 138.94201 
L 138.591984 138.889867 
L 139.029544 138.652441 
L 139.467105 138.75113 
L 139.904665 138.683837 
L 140.342225 138.992973 
L 140.779785 139.060827 
L 142.092466 140.36258 
L 142.530026 140.540233 
L 142.967587 140.873774 
L 143.405147 141.014908 
L 143.842707 141.343367 
L 144.280267 141.348764 
L 147.780749 142.825999 
L 148.21831 143.187475 
L 150.843671 144.466616 
L 158.282195 149.735271 
L 158.719756 149.804882 
L 161.345117 152.882742 
L 161.782677 153.081326 
L 162.220238 153.436979 
L 162.657798 153.578421 
L 163.095358 153.912072 
L 163.532918 153.992981 
L 163.970479 154.305117 
L 164.408039 154.332219 
L 164.845599 154.621708 
L 165.283159 154.615371 
L 165.720719 154.897551 
L 166.15828 154.898201 
L 168.346081 155.821546 
L 169.221201 155.877813 
L 173.596804 157.889555 
L 177.097286 159.997015 
L 177.534846 160.316924 
L 178.409967 161.27782 
L 179.722647 162.223761 
L 181.035328 162.804738 
L 181.472888 162.836475 
L 181.910449 163.05571 
L 182.348009 163.052889 
L 182.785569 163.260882 
L 183.223129 163.233581 
L 183.66069 163.421076 
L 184.09825 163.382436 
L 184.53581 163.526044 
L 184.97337 163.506881 
L 185.848491 163.606019 
L 187.161172 163.764039 
L 189.348973 163.949009 
L 192.849455 164.313866 
L 195.037256 164.485375 
L 197.225057 164.506404 
L 199.850419 164.233091 
L 203.788461 163.697847 
L 209.476744 163.718863 
L 212.977226 164.145104 
L 217.790389 164.974905 
L 221.290871 165.793925 
L 224.353793 166.743874 
L 227.416714 167.918788 
L 230.479636 169.301473 
L 234.417678 171.324985 
L 237.4806 173.119905 
L 240.981082 175.462711 
L 244.919124 178.410994 
L 257.170811 187.916302 
L 259.358612 189.267002 
L 261.546414 190.344888 
L 263.734215 191.124639 
L 265.484456 191.519401 
L 267.234697 191.695415 
L 270.297619 191.710911 
L 274.235661 191.472245 
L 283.424426 190.788131 
L 286.487348 190.843147 
L 289.550269 191.135773 
L 292.613191 191.663425 
L 295.676113 192.402406 
L 299.176595 193.481079 
L 302.677077 194.786587 
L 306.615119 196.510272 
L 310.553161 198.483801 
L 314.491203 200.712845 
L 318.429246 203.191678 
L 322.367288 205.916041 
L 326.74289 209.224096 
L 331.118493 212.813536 
L 343.80774 223.471815 
L 347.745782 226.408162 
L 362.622831 236.877361 
L 372.249156 243.451315 
L 381.000361 249.134062 
L 388.876445 254.177931 
L 400.690572 261.685094 
L 424.318825 276.136875 
L 424.318825 276.136875 
" clip-path="url(#p2d2c185ce6)" style="fill: none; stroke: #7e2f8e; stroke-linecap: square"/>
   </g>
   <g id="line2d_101">
    <path d="M 74.708188 45.936875 
L 75.583309 49.920214 
L 78.20867 64.602777 
L 79.083791 68.245756 
L 79.958911 71.147633 
L 81.271592 74.621976 
L 83.021833 78.517458 
L 84.334514 81.053091 
L 86.084755 83.899037 
L 88.272556 87.061938 
L 90.022797 89.210804 
L 91.773038 91.001482 
L 93.085718 92.171477 
L 93.960839 92.626664 
L 96.5862 94.56975 
L 97.461321 95.296587 
L 99.211562 96.440355 
L 101.399363 97.699162 
L 107.087646 100.671078 
L 110.588128 103.201343 
L 111.463249 103.758443 
L 111.900809 104.105831 
L 112.338369 104.189728 
L 112.77593 104.555716 
L 113.21349 105.361572 
L 115.401291 107.285674 
L 115.838851 107.433089 
L 117.589092 108.471689 
L 118.901773 109.015939 
L 119.339333 108.823431 
L 120.214454 109.554077 
L 120.652014 109.854874 
L 121.527135 109.996829 
L 121.964695 109.963794 
L 123.277376 111.101904 
L 123.714936 111.768631 
L 124.152496 111.823684 
L 124.590056 112.107273 
L 125.902737 112.573284 
L 127.215418 113.130531 
L 128.528098 113.57208 
L 129.840779 114.096479 
L 131.15346 114.536763 
L 132.466141 115.339988 
L 133.778821 115.609664 
L 134.216382 115.892851 
L 135.529062 116.28017 
L 136.841743 116.837647 
L 138.154424 117.429053 
L 139.029544 117.4953 
L 139.467105 117.767416 
L 139.904665 117.874573 
L 140.342225 118.174748 
L 140.779785 118.305337 
L 141.654906 119.163859 
L 142.092466 119.257148 
L 142.530026 119.525607 
L 142.967587 119.941922 
L 145.155388 120.963078 
L 146.030508 121.232074 
L 146.468069 121.482398 
L 147.343189 121.80693 
L 148.21831 122.142354 
L 149.09343 122.372349 
L 149.968551 122.730108 
L 150.406111 123.039443 
L 150.843671 123.194368 
L 152.156352 123.937801 
L 153.031472 124.300121 
L 153.906593 124.765437 
L 154.344153 124.848035 
L 154.781713 125.204293 
L 155.219274 125.40021 
L 155.656834 125.720475 
L 156.531954 125.999895 
L 157.844635 126.791754 
L 158.719756 126.965474 
L 159.594876 127.853765 
L 160.032436 128.014535 
L 161.345117 129.091271 
L 162.657798 129.591751 
L 163.970479 130.169391 
L 164.845599 130.509713 
L 166.15828 130.97208 
L 167.47096 131.618463 
L 168.346081 131.954755 
L 169.221201 132.109771 
L 172.284123 133.465473 
L 176.659726 135.229032 
L 177.534846 135.654361 
L 178.409967 136.305724 
L 179.722647 136.991672 
L 180.597768 137.279426 
L 181.910449 137.765018 
L 183.223129 138.15976 
L 184.53581 138.647566 
L 185.848491 139.0833 
L 187.161172 139.617687 
L 188.473852 140.109188 
L 189.786533 140.675255 
L 191.099214 141.158842 
L 192.411895 141.713081 
L 193.287015 142.048054 
L 195.474816 142.959331 
L 197.662618 143.792384 
L 207.726503 147.215377 
L 218.665509 151.250724 
L 247.106925 161.15752 
L 266.359576 166.859631 
L 284.737107 172.095507 
L 289.98783 173.815267 
L 294.363432 175.476226 
L 299.176595 177.542629 
L 303.989758 179.846576 
L 309.240481 182.609005 
L 314.928764 185.842826 
L 321.492167 189.836843 
L 329.805812 195.189243 
L 350.808704 208.885933 
L 384.500843 229.948431 
L 400.690572 240.322194 
L 415.13006 249.452073 
L 424.318825 255.241226 
L 424.318825 255.241226 
" clip-path="url(#p2d2c185ce6)" style="fill: none; stroke: #77ac30; stroke-linecap: square"/>
   </g>
   <g id="patch_3">
    <path d="M 57.227656 287.646875 
L 57.227656 34.426875 
" style="fill: none; stroke: #000000; stroke-width: 1.25; stroke-linejoin: miter; stroke-linecap: square"/>
   </g>
   <g id="patch_4">
    <path d="M 441.799357 287.646875 
L 441.799357 34.426875 
" style="fill: none; stroke: #000000; stroke-width: 1.25; stroke-linejoin: miter; stroke-linecap: square"/>
   </g>
   <g id="patch_5">
    <path d="M 57.227656 287.646875 
L 441.799357 287.646875 
" style="fill: none; stroke: #000000; stroke-width: 1.25; stroke-linejoin: miter; stroke-linecap: square"/>
   </g>
   <g id="patch_6">
    <path d="M 57.227656 34.426875 
L 441.799357 34.426875 
" style="fill: none; stroke: #000000; stroke-width: 1.25; stroke-linejoin: miter; stroke-linecap: square"/>
   </g>
   <g id="text_17">
    <!-- Convergence history from file case_008_a.trn -->
    <g transform="translate(130.317726 16.226875) scale(0.13 -0.13)">
     <defs>
      <path id="TimesNewRomanPSMT-43" d="M 3853 4334 
L 3950 2894 
L 3853 2894 
Q 3659 3541 3300 3825 
Q 2941 4109 2438 4109 
Q 2016 4109 1675 3895 
Q 1334 3681 1139 3212 
Q 944 2744 944 2047 
Q 944 1472 1128 1050 
Q 1313 628 1683 403 
Q 2053 178 2528 178 
Q 2941 178 3256 354 
Q 3572 531 3950 1056 
L 4047 994 
Q 3728 428 3303 165 
Q 2878 -97 2294 -97 
Q 1241 -97 663 684 
Q 231 1266 231 2053 
Q 231 2688 515 3219 
Q 800 3750 1298 4042 
Q 1797 4334 2388 4334 
Q 2847 4334 3294 4109 
Q 3425 4041 3481 4041 
Q 3566 4041 3628 4100 
Q 3709 4184 3744 4334 
L 3853 4334 
z
" transform="scale(0.015625)"/>
      <path id="TimesNewRomanPSMT-76" d="M 53 2863 
L 1400 2863 
L 1400 2747 
L 1313 2747 
Q 1191 2747 1127 2687 
Q 1063 2628 1063 2528 
Q 1063 2419 1128 2269 
L 1794 688 
L 2463 2328 
Q 2534 2503 2534 2594 
Q 2534 2638 2509 2666 
Q 2475 2713 2422 2730 
Q 2369 2747 2206 2747 
L 2206 2863 
L 3141 2863 
L 3141 2747 
Q 2978 2734 2916 2681 
Q 2806 2588 2719 2369 
L 1703 -88 
L 1575 -88 
L 553 2328 
Q 484 2497 421 2570 
Q 359 2644 263 2694 
Q 209 2722 53 2747 
L 53 2863 
z
" transform="scale(0.015625)"/>
      <path id="TimesNewRomanPSMT-67" d="M 966 1044 
Q 703 1172 562 1401 
Q 422 1631 422 1909 
Q 422 2334 742 2640 
Q 1063 2947 1563 2947 
Q 1972 2947 2272 2747 
L 2878 2747 
Q 3013 2747 3034 2739 
Q 3056 2731 3066 2713 
Q 3084 2684 3084 2613 
Q 3084 2531 3069 2500 
Q 3059 2484 3036 2475 
Q 3013 2466 2878 2466 
L 2506 2466 
Q 2681 2241 2681 1891 
Q 2681 1491 2375 1206 
Q 2069 922 1553 922 
Q 1341 922 1119 984 
Q 981 866 932 777 
Q 884 688 884 625 
Q 884 572 936 522 
Q 988 472 1138 450 
Q 1225 438 1575 428 
Q 2219 413 2409 384 
Q 2700 344 2873 169 
Q 3047 -6 3047 -263 
Q 3047 -616 2716 -925 
Q 2228 -1381 1444 -1381 
Q 841 -1381 425 -1109 
Q 191 -953 191 -784 
Q 191 -709 225 -634 
Q 278 -519 444 -313 
Q 466 -284 763 25 
Q 600 122 533 198 
Q 466 275 466 372 
Q 466 481 555 628 
Q 644 775 966 1044 
z
M 1509 2797 
Q 1278 2797 1122 2612 
Q 966 2428 966 2047 
Q 966 1553 1178 1281 
Q 1341 1075 1591 1075 
Q 1828 1075 1981 1253 
Q 2134 1431 2134 1813 
Q 2134 2309 1919 2591 
Q 1759 2797 1509 2797 
z
M 934 0 
Q 788 -159 713 -296 
Q 638 -434 638 -550 
Q 638 -700 819 -813 
Q 1131 -1006 1722 -1006 
Q 2284 -1006 2551 -807 
Q 2819 -609 2819 -384 
Q 2819 -222 2659 -153 
Q 2497 -84 2016 -72 
Q 1313 -53 934 0 
z
" transform="scale(0.015625)"/>
      <path id="TimesNewRomanPSMT-63" d="M 2631 1088 
Q 2516 522 2178 217 
Q 1841 -88 1431 -88 
Q 944 -88 581 321 
Q 219 731 219 1428 
Q 219 2103 620 2525 
Q 1022 2947 1584 2947 
Q 2006 2947 2278 2723 
Q 2550 2500 2550 2259 
Q 2550 2141 2473 2067 
Q 2397 1994 2259 1994 
Q 2075 1994 1981 2113 
Q 1928 2178 1911 2362 
Q 1894 2547 1784 2644 
Q 1675 2738 1481 2738 
Q 1169 2738 978 2506 
Q 725 2200 725 1697 
Q 725 1184 976 792 
Q 1228 400 1656 400 
Q 1963 400 2206 609 
Q 2378 753 2541 1131 
L 2631 1088 
z
" transform="scale(0.015625)"/>
      <path id="TimesNewRomanPSMT-68" d="M 1041 4444 
L 1041 2350 
Q 1388 2731 1591 2839 
Q 1794 2947 1997 2947 
Q 2241 2947 2416 2812 
Q 2591 2678 2675 2391 
Q 2734 2191 2734 1659 
L 2734 647 
Q 2734 375 2778 275 
Q 2809 200 2884 156 
Q 2959 113 3159 113 
L 3159 0 
L 1753 0 
L 1753 113 
L 1819 113 
Q 2019 113 2097 173 
Q 2175 234 2206 353 
Q 2216 403 2216 647 
L 2216 1659 
Q 2216 2128 2167 2275 
Q 2119 2422 2012 2495 
Q 1906 2569 1756 2569 
Q 1603 2569 1437 2487 
Q 1272 2406 1041 2159 
L 1041 647 
Q 1041 353 1073 281 
Q 1106 209 1195 161 
Q 1284 113 1503 113 
L 1503 0 
L 84 0 
L 84 113 
Q 275 113 384 172 
Q 447 203 484 290 
Q 522 378 522 647 
L 522 3238 
Q 522 3728 498 3840 
Q 475 3953 426 3993 
Q 378 4034 297 4034 
Q 231 4034 84 3984 
L 41 4094 
L 897 4444 
L 1041 4444 
z
" transform="scale(0.015625)"/>
      <path id="TimesNewRomanPSMT-79" d="M 38 2863 
L 1372 2863 
L 1372 2747 
L 1306 2747 
Q 1166 2747 1095 2686 
Q 1025 2625 1025 2534 
Q 1025 2413 1128 2197 
L 1825 753 
L 2466 2334 
Q 2519 2463 2519 2588 
Q 2519 2644 2497 2672 
Q 2472 2706 2419 2726 
Q 2366 2747 2231 2747 
L 2231 2863 
L 3163 2863 
L 3163 2747 
Q 3047 2734 2984 2696 
Q 2922 2659 2847 2556 
Q 2819 2513 2741 2316 
L 1575 -541 
Q 1406 -956 1132 -1168 
Q 859 -1381 606 -1381 
Q 422 -1381 303 -1275 
Q 184 -1169 184 -1031 
Q 184 -900 270 -820 
Q 356 -741 506 -741 
Q 609 -741 788 -809 
Q 913 -856 944 -856 
Q 1038 -856 1148 -759 
Q 1259 -663 1372 -384 
L 1575 113 
L 547 2272 
Q 500 2369 397 2513 
Q 319 2622 269 2659 
Q 197 2709 38 2747 
L 38 2863 
z
" transform="scale(0.015625)"/>
      <path id="TimesNewRomanPSMT-66" d="M 1319 2638 
L 1319 756 
Q 1319 356 1406 250 
Q 1522 113 1716 113 
L 1975 113 
L 1975 0 
L 266 0 
L 266 113 
L 394 113 
Q 519 113 622 175 
Q 725 238 764 344 
Q 803 450 803 756 
L 803 2638 
L 247 2638 
L 247 2863 
L 803 2863 
L 803 3050 
Q 803 3478 940 3775 
Q 1078 4072 1361 4255 
Q 1644 4438 1997 4438 
Q 2325 4438 2600 4225 
Q 2781 4084 2781 3909 
Q 2781 3816 2700 3733 
Q 2619 3650 2525 3650 
Q 2453 3650 2373 3701 
Q 2294 3753 2178 3923 
Q 2063 4094 1966 4153 
Q 1869 4213 1750 4213 
Q 1606 4213 1506 4136 
Q 1406 4059 1362 3898 
Q 1319 3738 1319 3069 
L 1319 2863 
L 2056 2863 
L 2056 2638 
L 1319 2638 
z
" transform="scale(0.015625)"/>
      <path id="TimesNewRomanPSMT-5f" d="M 3256 -1381 
L -53 -1381 
L -53 -1119 
L 3256 -1119 
L 3256 -1381 
z
" transform="scale(0.015625)"/>
      <path id="TimesNewRomanPSMT-2e" d="M 800 606 
Q 947 606 1047 504 
Q 1147 403 1147 259 
Q 1147 116 1045 14 
Q 944 -88 800 -88 
Q 656 -88 554 14 
Q 453 116 453 259 
Q 453 406 554 506 
Q 656 606 800 606 
z
" transform="scale(0.015625)"/>
     </defs>
     <use xlink:href="#TimesNewRomanPSMT-43"/>
     <use xlink:href="#TimesNewRomanPSMT-6f" x="66.699219"/>
     <use xlink:href="#TimesNewRomanPSMT-6e" x="116.699219"/>
     <use xlink:href="#TimesNewRomanPSMT-76" x="166.699219"/>
     <use xlink:href="#TimesNewRomanPSMT-65" x="216.699219"/>
     <use xlink:href="#TimesNewRomanPSMT-72" x="261.083984"/>
     <use xlink:href="#TimesNewRomanPSMT-67" x="292.634766"/>
     <use xlink:href="#TimesNewRomanPSMT-65" x="342.634766"/>
     <use xlink:href="#TimesNewRomanPSMT-6e" x="387.019531"/>
     <use xlink:href="#TimesNewRomanPSMT-63" x="437.019531"/>
     <use xlink:href="#TimesNewRomanPSMT-65" x="481.404297"/>
     <use xlink:href="#TimesNewRomanPSMT-20" x="525.789062"/>
     <use xlink:href="#TimesNewRomanPSMT-68" x="550.789062"/>
     <use xlink:href="#TimesNewRomanPSMT-69" x="600.789062"/>
     <use xlink:href="#TimesNewRomanPSMT-73" x="628.572266"/>
     <use xlink:href="#TimesNewRomanPSMT-74" x="667.488281"/>
     <use xlink:href="#TimesNewRomanPSMT-6f" x="695.271484"/>
     <use xlink:href="#TimesNewRomanPSMT-72" x="745.271484"/>
     <use xlink:href="#TimesNewRomanPSMT-79" x="778.572266"/>
     <use xlink:href="#TimesNewRomanPSMT-20" x="828.572266"/>
     <use xlink:href="#TimesNewRomanPSMT-66" x="853.572266"/>
     <use xlink:href="#TimesNewRomanPSMT-72" x="886.873047"/>
     <use xlink:href="#TimesNewRomanPSMT-6f" x="920.173828"/>
     <use xlink:href="#TimesNewRomanPSMT-6d" x="970.173828"/>
     <use xlink:href="#TimesNewRomanPSMT-20" x="1047.957031"/>
     <use xlink:href="#TimesNewRomanPSMT-66" x="1072.957031"/>
     <use xlink:href="#TimesNewRomanPSMT-69" x="1106.257812"/>
     <use xlink:href="#TimesNewRomanPSMT-6c" x="1134.041016"/>
     <use xlink:href="#TimesNewRomanPSMT-65" x="1161.824219"/>
     <use xlink:href="#TimesNewRomanPSMT-20" x="1206.208984"/>
     <use xlink:href="#TimesNewRomanPSMT-63" x="1231.208984"/>
     <use xlink:href="#TimesNewRomanPSMT-61" x="1275.59375"/>
     <use xlink:href="#TimesNewRomanPSMT-73" x="1319.978516"/>
     <use xlink:href="#TimesNewRomanPSMT-65" x="1358.894531"/>
     <use xlink:href="#TimesNewRomanPSMT-5f" x="1403.279297"/>
     <use xlink:href="#TimesNewRomanPSMT-30" x="1453.279297"/>
     <use xlink:href="#TimesNewRomanPSMT-30" x="1503.279297"/>
     <use xlink:href="#TimesNewRomanPSMT-38" x="1553.279297"/>
     <use xlink:href="#TimesNewRomanPSMT-5f" x="1603.279297"/>
     <use xlink:href="#TimesNewRomanPSMT-61" x="1653.279297"/>
     <use xlink:href="#TimesNewRomanPSMT-2e" x="1697.664062"/>
     <use xlink:href="#TimesNewRomanPSMT-74" x="1722.664062"/>
     <use xlink:href="#TimesNewRomanPSMT-72" x="1750.447266"/>
     <use xlink:href="#TimesNewRomanPSMT-6e" x="1783.748047"/>
    </g>
   </g>
   <g id="legend_1">
    <g id="patch_7">
     <path d="M 329.159357 122.885781 
L 428.599357 122.885781 
Q 430.799357 122.885781 430.799357 120.685781 
L 430.799357 47.626875 
Q 430.799357 45.426875 428.599357 45.426875 
L 329.159357 45.426875 
Q 326.959357 45.426875 326.959357 47.626875 
L 326.959357 120.685781 
Q 326.959357 122.885781 329.159357 122.885781 
z
" style="fill: #ffffff; stroke: #000000; stroke-linejoin: miter"/>
    </g>
    <g id="line2d_102">
     <path d="M 333.559357 55.876875 
L 340.434357 55.876875 
L 347.309357 55.876875 
" style="fill: none; stroke: #0072bd; stroke-linecap: square"/>
    </g>
    <g id="text_18">
     <!-- $p$ - continuity -->
     <g transform="translate(356.109357 59.726875) scale(0.11 -0.11)">
      <defs>
       <path id="STIXGeneral-Italic-70" d="M 1376 2739 
L 1190 2099 
Q 1670 2822 2285 2822 
Q 2637 2822 2829 2611 
Q 3021 2400 3021 2022 
Q 3021 1235 2422 582 
Q 1824 -70 1120 -70 
Q 890 -70 678 38 
Q 422 -1018 422 -1024 
Q 422 -1126 508 -1168 
Q 595 -1210 819 -1210 
L 819 -1312 
L -480 -1312 
L -480 -1210 
Q -275 -1203 -188 -1120 
Q -102 -1037 -45 -806 
L 691 1958 
Q 794 2330 794 2413 
Q 794 2586 512 2586 
L 371 2586 
L 358 2682 
L 1357 2822 
Q 1389 2822 1389 2797 
Q 1382 2765 1376 2739 
z
M 2445 2003 
Q 2445 2285 2352 2416 
Q 2259 2547 2048 2547 
Q 1798 2547 1548 2329 
Q 1299 2112 1184 1818 
Q 1043 1453 905 953 
Q 768 454 768 294 
Q 768 186 854 118 
Q 941 51 1075 51 
Q 1574 51 2003 659 
Q 2445 1274 2445 2003 
z
" transform="scale(0.015625)"/>
       <path id="TimesNewRomanPSMT-2d" d="M 259 1672 
L 1875 1672 
L 1875 1200 
L 259 1200 
L 259 1672 
z
" transform="scale(0.015625)"/>
      </defs>
      <use xlink:href="#STIXGeneral-Italic-70" transform="translate(0 0.5625)"/>
      <use xlink:href="#TimesNewRomanPSMT-20" transform="translate(50.399994 0.5625)"/>
      <use xlink:href="#TimesNewRomanPSMT-2d" transform="translate(75.399994 0.5625)"/>
      <use xlink:href="#TimesNewRomanPSMT-20" transform="translate(108.700775 0.5625)"/>
      <use xlink:href="#TimesNewRomanPSMT-63" transform="translate(133.700775 0.5625)"/>
      <use xlink:href="#TimesNewRomanPSMT-6f" transform="translate(178.085541 0.5625)"/>
      <use xlink:href="#TimesNewRomanPSMT-6e" transform="translate(228.085541 0.5625)"/>
      <use xlink:href="#TimesNewRomanPSMT-74" transform="translate(278.085541 0.5625)"/>
      <use xlink:href="#TimesNewRomanPSMT-69" transform="translate(305.868744 0.5625)"/>
      <use xlink:href="#TimesNewRomanPSMT-6e" transform="translate(333.651947 0.5625)"/>
      <use xlink:href="#TimesNewRomanPSMT-75" transform="translate(383.651947 0.5625)"/>
      <use xlink:href="#TimesNewRomanPSMT-69" transform="translate(433.651947 0.5625)"/>
      <use xlink:href="#TimesNewRomanPSMT-74" transform="translate(461.43515 0.5625)"/>
      <use xlink:href="#TimesNewRomanPSMT-79" transform="translate(489.218353 0.5625)"/>
     </g>
    </g>
    <g id="line2d_103">
     <path d="M 333.559357 69.296875 
L 340.434357 69.296875 
L 347.309357 69.296875 
" style="fill: none; stroke: #d95319; stroke-linecap: square"/>
    </g>
    <g id="text_19">
     <!-- $v_x$ - momentum -->
     <g transform="translate(356.109357 73.146875) scale(0.11 -0.11)">
      <defs>
       <path id="STIXGeneral-Italic-76" d="M 1325 448 
L 1523 653 
Q 1869 1005 2134 1456 
Q 2400 1907 2400 2131 
Q 2400 2208 2285 2317 
Q 2125 2458 2125 2605 
Q 2125 2701 2195 2761 
Q 2266 2822 2368 2822 
Q 2522 2822 2624 2704 
Q 2726 2586 2726 2445 
Q 2726 2074 2323 1453 
Q 1971 909 1562 474 
Q 1504 416 1421 326 
Q 1338 237 1299 192 
Q 1261 147 1200 86 
Q 1139 26 1110 -3 
Q 1082 -32 1043 -64 
Q 1005 -96 979 -105 
Q 954 -115 928 -115 
Q 870 -115 870 58 
L 870 211 
Q 870 1094 717 1990 
Q 653 2355 579 2470 
Q 506 2586 326 2586 
Q 198 2586 128 2579 
L 128 2662 
Q 480 2720 845 2797 
Q 915 2822 973 2822 
Q 1011 2822 1033 2739 
Q 1056 2656 1165 2093 
Q 1280 1510 1325 448 
z
" transform="scale(0.015625)"/>
       <path id="STIXGeneral-Italic-78" d="M 1555 2272 
L 1632 1907 
Q 1971 2426 2179 2624 
Q 2387 2822 2598 2822 
Q 2714 2822 2787 2755 
Q 2861 2688 2861 2585 
Q 2861 2483 2800 2419 
Q 2739 2355 2643 2355 
Q 2586 2355 2490 2409 
Q 2394 2464 2310 2464 
Q 2125 2464 1683 1690 
Q 1683 1606 1734 1402 
L 1939 544 
Q 2003 282 2131 282 
Q 2234 282 2432 538 
Q 2451 563 2476 598 
Q 2502 634 2521 662 
Q 2541 691 2566 717 
L 2662 659 
Q 2387 230 2227 80 
Q 2067 -70 1882 -70 
Q 1728 -70 1645 26 
Q 1562 122 1504 365 
L 1318 1126 
L 755 365 
Q 557 96 432 13 
Q 307 -70 147 -70 
Q 0 -70 -86 0 
Q -173 70 -173 198 
Q -173 294 -112 361 
Q -51 429 45 429 
Q 122 429 250 358 
Q 346 301 416 301 
Q 525 301 742 614 
L 1267 1357 
L 1088 2150 
Q 1024 2432 969 2509 
Q 915 2586 794 2586 
Q 717 2586 544 2541 
L 429 2509 
L 410 2611 
L 480 2637 
Q 992 2822 1229 2822 
Q 1350 2822 1420 2707 
Q 1491 2592 1555 2272 
z
" transform="scale(0.015625)"/>
      </defs>
      <use xlink:href="#STIXGeneral-Italic-76" transform="translate(0 0.578125)"/>
      <use xlink:href="#STIXGeneral-Italic-78" transform="translate(44.399994 -12.65) scale(0.7)"/>
      <use xlink:href="#TimesNewRomanPSMT-20" transform="translate(79.889365 0.578125)"/>
      <use xlink:href="#TimesNewRomanPSMT-2d" transform="translate(104.889365 0.578125)"/>
      <use xlink:href="#TimesNewRomanPSMT-20" transform="translate(138.190146 0.578125)"/>
      <use xlink:href="#TimesNewRomanPSMT-6d" transform="translate(163.190146 0.578125)"/>
      <use xlink:href="#TimesNewRomanPSMT-6f" transform="translate(240.973349 0.578125)"/>
      <use xlink:href="#TimesNewRomanPSMT-6d" transform="translate(290.973349 0.578125)"/>
      <use xlink:href="#TimesNewRomanPSMT-65" transform="translate(368.756552 0.578125)"/>
      <use xlink:href="#TimesNewRomanPSMT-6e" transform="translate(413.141318 0.578125)"/>
      <use xlink:href="#TimesNewRomanPSMT-74" transform="translate(463.141318 0.578125)"/>
      <use xlink:href="#TimesNewRomanPSMT-75" transform="translate(490.924521 0.578125)"/>
      <use xlink:href="#TimesNewRomanPSMT-6d" transform="translate(540.924521 0.578125)"/>
     </g>
    </g>
    <g id="line2d_104">
     <path d="M 333.559357 82.649844 
L 340.434357 82.649844 
L 347.309357 82.649844 
" style="fill: none; stroke: #edb120; stroke-linecap: square"/>
    </g>
    <g id="text_20">
     <!-- $v_y$ - momentum -->
     <g transform="translate(356.109357 86.499844) scale(0.11 -0.11)">
      <defs>
       <path id="STIXGeneral-Italic-79" d="M 1555 1190 
L 1690 486 
Q 2118 1190 2294 1558 
Q 2470 1926 2470 2131 
Q 2470 2234 2304 2336 
Q 2138 2445 2138 2586 
Q 2138 2688 2211 2755 
Q 2285 2822 2394 2822 
Q 2534 2822 2630 2720 
Q 2726 2618 2726 2470 
Q 2726 1914 1888 518 
Q 1389 -307 918 -812 
Q 448 -1318 173 -1318 
Q 26 -1318 -64 -1241 
Q -154 -1165 -154 -1043 
Q -154 -934 -80 -860 
Q -6 -787 96 -787 
Q 218 -787 314 -876 
Q 410 -966 486 -966 
Q 602 -966 794 -755 
Q 877 -672 1040 -457 
Q 1203 -243 1248 -173 
Q 1312 -45 1312 51 
Q 1312 243 1113 1046 
Q 915 1850 787 2176 
Q 698 2413 592 2499 
Q 486 2586 294 2586 
Q 192 2586 96 2560 
L 96 2669 
Q 237 2694 301 2707 
Q 563 2758 986 2822 
L 1011 2822 
Q 1082 2822 1277 2227 
Q 1472 1632 1555 1190 
z
" transform="scale(0.015625)"/>
      </defs>
      <use xlink:href="#STIXGeneral-Italic-76" transform="translate(0 0.578125)"/>
      <use xlink:href="#STIXGeneral-Italic-79" transform="translate(44.399994 -12.65) scale(0.7)"/>
      <use xlink:href="#TimesNewRomanPSMT-20" transform="translate(79.889365 0.578125)"/>
      <use xlink:href="#TimesNewRomanPSMT-2d" transform="translate(104.889365 0.578125)"/>
      <use xlink:href="#TimesNewRomanPSMT-20" transform="translate(138.190146 0.578125)"/>
      <use xlink:href="#TimesNewRomanPSMT-6d" transform="translate(163.190146 0.578125)"/>
      <use xlink:href="#TimesNewRomanPSMT-6f" transform="translate(240.973349 0.578125)"/>
      <use xlink:href="#TimesNewRomanPSMT-6d" transform="translate(290.973349 0.578125)"/>
      <use xlink:href="#TimesNewRomanPSMT-65" transform="translate(368.756552 0.578125)"/>
      <use xlink:href="#TimesNewRomanPSMT-6e" transform="translate(413.141318 0.578125)"/>
      <use xlink:href="#TimesNewRomanPSMT-74" transform="translate(463.141318 0.578125)"/>
      <use xlink:href="#TimesNewRomanPSMT-75" transform="translate(490.924521 0.578125)"/>
      <use xlink:href="#TimesNewRomanPSMT-6d" transform="translate(540.924521 0.578125)"/>
     </g>
    </g>
    <g id="line2d_105">
     <path d="M 333.559357 96.729844 
L 340.434357 96.729844 
L 347.309357 96.729844 
" style="fill: none; stroke: #7e2f8e; stroke-linecap: square"/>
    </g>
    <g id="text_21">
     <!-- $k$ - turbulence -->
     <g transform="translate(356.109357 100.579844) scale(0.11 -0.11)">
      <defs>
       <path id="STIXGeneral-Italic-6b" d="M 2950 2739 
L 2950 2637 
Q 2720 2624 2464 2448 
Q 2208 2272 1510 1651 
L 1747 1088 
Q 2099 262 2266 262 
Q 2400 262 2554 531 
Q 2586 582 2650 698 
L 2746 627 
Q 2522 224 2374 77 
Q 2227 -70 2035 -70 
Q 1894 -70 1782 42 
Q 1670 154 1517 454 
Q 1325 826 1133 1357 
L 877 1152 
L 570 0 
L 90 0 
L 992 3379 
Q 1082 3699 1107 3942 
Q 1088 4096 781 4096 
L 666 4096 
L 666 4198 
Q 1146 4256 1670 4371 
L 1709 4333 
L 941 1414 
L 1216 1626 
Q 2131 2330 2131 2522 
Q 2131 2637 1894 2637 
L 1805 2637 
L 1805 2739 
L 2950 2739 
z
" transform="scale(0.015625)"/>
      </defs>
      <use xlink:href="#STIXGeneral-Italic-6b" transform="translate(0 0.5625)"/>
      <use xlink:href="#TimesNewRomanPSMT-20" transform="translate(44.399994 0.5625)"/>
      <use xlink:href="#TimesNewRomanPSMT-2d" transform="translate(69.399994 0.5625)"/>
      <use xlink:href="#TimesNewRomanPSMT-20" transform="translate(102.700775 0.5625)"/>
      <use xlink:href="#TimesNewRomanPSMT-74" transform="translate(127.700775 0.5625)"/>
      <use xlink:href="#TimesNewRomanPSMT-75" transform="translate(155.483978 0.5625)"/>
      <use xlink:href="#TimesNewRomanPSMT-72" transform="translate(205.483978 0.5625)"/>
      <use xlink:href="#TimesNewRomanPSMT-62" transform="translate(238.78476 0.5625)"/>
      <use xlink:href="#TimesNewRomanPSMT-75" transform="translate(288.78476 0.5625)"/>
      <use xlink:href="#TimesNewRomanPSMT-6c" transform="translate(338.78476 0.5625)"/>
      <use xlink:href="#TimesNewRomanPSMT-65" transform="translate(366.567963 0.5625)"/>
      <use xlink:href="#TimesNewRomanPSMT-6e" transform="translate(410.952728 0.5625)"/>
      <use xlink:href="#TimesNewRomanPSMT-63" transform="translate(460.952728 0.5625)"/>
      <use xlink:href="#TimesNewRomanPSMT-65" transform="translate(505.337494 0.5625)"/>
     </g>
    </g>
    <g id="line2d_106">
     <path d="M 333.559357 110.082812 
L 340.434357 110.082812 
L 347.309357 110.082812 
" style="fill: none; stroke: #77ac30; stroke-linecap: square"/>
    </g>
    <g id="text_22">
     <!-- $\omega$ - turbulence -->
     <g transform="translate(356.109357 113.932812) scale(0.11 -0.11)">
      <defs>
       <path id="STIXGeneral-Italic-3c9" d="M 3021 2810 
L 3136 2810 
Q 3648 2810 3898 2598 
Q 4186 2355 4186 1824 
Q 4186 1357 3910 838 
Q 3667 390 3334 160 
Q 3002 -70 2669 -70 
Q 2438 -70 2281 3 
Q 2125 77 2064 160 
Q 2003 243 1939 384 
Q 1741 147 1533 38 
Q 1325 -70 998 -70 
Q 659 -70 416 160 
Q 173 390 173 832 
Q 173 1101 237 1350 
Q 403 1965 883 2387 
Q 1363 2810 2010 2810 
L 2125 2810 
L 2125 2707 
Q 1606 2707 1267 2291 
Q 1024 1990 867 1526 
Q 710 1062 710 666 
Q 710 64 1075 64 
Q 1286 64 1523 285 
Q 1760 506 1856 774 
Q 1837 915 1837 1101 
Q 1837 1363 1914 1651 
Q 1984 1920 2125 2105 
Q 2266 2291 2432 2291 
Q 2656 2291 2656 1997 
Q 2656 1530 2387 1062 
Q 2272 864 2189 736 
Q 2176 691 2176 602 
Q 2176 384 2288 224 
Q 2400 64 2592 64 
Q 3040 64 3341 627 
Q 3482 896 3565 1270 
Q 3648 1645 3648 1971 
Q 3648 2240 3616 2362 
Q 3565 2566 3411 2636 
Q 3258 2707 3021 2707 
L 3021 2810 
z
" transform="scale(0.015625)"/>
      </defs>
      <use xlink:href="#STIXGeneral-Italic-3c9" transform="translate(0 0.5625)"/>
      <use xlink:href="#TimesNewRomanPSMT-20" transform="translate(68.599991 0.5625)"/>
      <use xlink:href="#TimesNewRomanPSMT-2d" transform="translate(93.599991 0.5625)"/>
      <use xlink:href="#TimesNewRomanPSMT-20" transform="translate(126.900772 0.5625)"/>
      <use xlink:href="#TimesNewRomanPSMT-74" transform="translate(151.900772 0.5625)"/>
      <use xlink:href="#TimesNewRomanPSMT-75" transform="translate(179.683975 0.5625)"/>
      <use xlink:href="#TimesNewRomanPSMT-72" transform="translate(229.683975 0.5625)"/>
      <use xlink:href="#TimesNewRomanPSMT-62" transform="translate(262.984756 0.5625)"/>
      <use xlink:href="#TimesNewRomanPSMT-75" transform="translate(312.984756 0.5625)"/>
      <use xlink:href="#TimesNewRomanPSMT-6c" transform="translate(362.984756 0.5625)"/>
      <use xlink:href="#TimesNewRomanPSMT-65" transform="translate(390.76796 0.5625)"/>
      <use xlink:href="#TimesNewRomanPSMT-6e" transform="translate(435.152725 0.5625)"/>
      <use xlink:href="#TimesNewRomanPSMT-63" transform="translate(485.152725 0.5625)"/>
      <use xlink:href="#TimesNewRomanPSMT-65" transform="translate(529.537491 0.5625)"/>
     </g>
    </g>
   </g>
  </g>
 </g>
 <defs>
  <clipPath id="p2d2c185ce6">
   <rect x="57.227656" y="34.426875" width="384.571701" height="253.22"/>
  </clipPath>
 </defs>
</svg>
