<?xml version="1.0" encoding="utf-8" standalone="no"?>
<!DOCTYPE svg PUBLIC "-//W3C//DTD SVG 1.1//EN"
  "http://www.w3.org/Graphics/SVG/1.1/DTD/svg11.dtd">
<svg xmlns:xlink="http://www.w3.org/1999/xlink" width="489.6pt" height="288pt" viewBox="0 0 489.6 288" xmlns="http://www.w3.org/2000/svg" version="1.1">
 <metadata>
  <rdf:RDF xmlns:dc="http://purl.org/dc/elements/1.1/" xmlns:cc="http://creativecommons.org/ns#" xmlns:rdf="http://www.w3.org/1999/02/22-rdf-syntax-ns#">
   <cc:Work>
    <dc:type rdf:resource="http://purl.org/dc/dcmitype/StillImage"/>
    <dc:date>2024-03-06T07:16:56.433097</dc:date>
    <dc:format>image/svg+xml</dc:format>
    <dc:creator>
     <cc:Agent>
      <dc:title>Matplotlib v3.8.0, https://matplotlib.org/</dc:title>
     </cc:Agent>
    </dc:creator>
   </cc:Work>
  </rdf:RDF>
 </metadata>
 <defs>
  <style type="text/css">*{stroke-linejoin: round; stroke-linecap: butt}</style>
 </defs>
 <g id="figure_1">
  <g id="patch_1">
   <path d="M 0 288 
L 489.6 288 
L 489.6 0 
L 0 0 
z
" style="fill: #ffffff"/>
  </g>
  <g id="axes_1">
   <g id="patch_2">
    <path d="M 52.71 238.71 
L 476.6 238.71 
L 476.6 17.32 
L 52.71 17.32 
z
" style="fill: #ffffff"/>
   </g>
   <g id="matplotlib.axis_1">
    <g id="xtick_1">
     <g id="line2d_1">
      <path d="M 67.36434 238.71 
L 67.36434 17.32 
" clip-path="url(#p4b17613b40)" style="fill: none; stroke: #000000; stroke-opacity: 0.5; stroke-width: 0.5; stroke-linecap: square"/>
     </g>
     <g id="line2d_2">
      <defs>
       <path id="m1944418780" d="M 0 0 
L 0 -6 
" style="stroke: #000000; stroke-width: 1.25"/>
      </defs>
      <g>
       <use xlink:href="#m1944418780" x="67.36434" y="238.71" style="fill: #ffffff; stroke: #000000; stroke-width: 1.25"/>
      </g>
     </g>
     <g id="line2d_3">
      <defs>
       <path id="m167e4f822b" d="M 0 0 
L 0 6 
" style="stroke: #000000; stroke-width: 1.25"/>
      </defs>
      <g>
       <use xlink:href="#m167e4f822b" x="67.36434" y="17.32" style="fill: #ffffff; stroke: #000000; stroke-width: 1.25"/>
      </g>
     </g>
     <g id="text_1">
      <!-- 1.1 -->
      <g transform="translate(59.86434 250.5425) scale(0.12 -0.12)">
       <defs>
        <path id="TimesNewRomanPSMT-31" d="M 750 3822 
L 1781 4325 
L 1884 4325 
L 1884 747 
Q 1884 391 1914 303 
Q 1944 216 2037 169 
Q 2131 122 2419 116 
L 2419 0 
L 825 0 
L 825 116 
Q 1125 122 1212 167 
Q 1300 213 1334 289 
Q 1369 366 1369 747 
L 1369 3034 
Q 1369 3497 1338 3628 
Q 1316 3728 1258 3775 
Q 1200 3822 1119 3822 
Q 1003 3822 797 3725 
L 750 3822 
z
" transform="scale(0.015625)"/>
        <path id="TimesNewRomanPSMT-2e" d="M 800 606 
Q 947 606 1047 504 
Q 1147 403 1147 259 
Q 1147 116 1045 14 
Q 944 -88 800 -88 
Q 656 -88 554 14 
Q 453 116 453 259 
Q 453 406 554 506 
Q 656 606 800 606 
z
" transform="scale(0.015625)"/>
       </defs>
       <use xlink:href="#TimesNewRomanPSMT-31"/>
       <use xlink:href="#TimesNewRomanPSMT-2e" x="50"/>
       <use xlink:href="#TimesNewRomanPSMT-31" x="75"/>
      </g>
     </g>
    </g>
    <g id="xtick_2">
     <g id="line2d_4">
      <path d="M 126.499735 238.71 
L 126.499735 17.32 
" clip-path="url(#p4b17613b40)" style="fill: none; stroke: #000000; stroke-opacity: 0.5; stroke-width: 0.5; stroke-linecap: square"/>
     </g>
     <g id="line2d_5">
      <g>
       <use xlink:href="#m1944418780" x="126.499735" y="238.71" style="fill: #ffffff; stroke: #000000; stroke-width: 1.25"/>
      </g>
     </g>
     <g id="line2d_6">
      <g>
       <use xlink:href="#m167e4f822b" x="126.499735" y="17.32" style="fill: #ffffff; stroke: #000000; stroke-width: 1.25"/>
      </g>
     </g>
     <g id="text_2">
      <!-- 1.2 -->
      <g transform="translate(118.999735 250.5425) scale(0.12 -0.12)">
       <defs>
        <path id="TimesNewRomanPSMT-32" d="M 2934 816 
L 2638 0 
L 138 0 
L 138 116 
Q 1241 1122 1691 1759 
Q 2141 2397 2141 2925 
Q 2141 3328 1894 3587 
Q 1647 3847 1303 3847 
Q 991 3847 742 3664 
Q 494 3481 375 3128 
L 259 3128 
Q 338 3706 661 4015 
Q 984 4325 1469 4325 
Q 1984 4325 2329 3994 
Q 2675 3663 2675 3213 
Q 2675 2891 2525 2569 
Q 2294 2063 1775 1497 
Q 997 647 803 472 
L 1909 472 
Q 2247 472 2383 497 
Q 2519 522 2628 598 
Q 2738 675 2819 816 
L 2934 816 
z
" transform="scale(0.015625)"/>
       </defs>
       <use xlink:href="#TimesNewRomanPSMT-31"/>
       <use xlink:href="#TimesNewRomanPSMT-2e" x="50"/>
       <use xlink:href="#TimesNewRomanPSMT-32" x="75"/>
      </g>
     </g>
    </g>
    <g id="xtick_3">
     <g id="line2d_7">
      <path d="M 185.635129 238.71 
L 185.635129 17.32 
" clip-path="url(#p4b17613b40)" style="fill: none; stroke: #000000; stroke-opacity: 0.5; stroke-width: 0.5; stroke-linecap: square"/>
     </g>
     <g id="line2d_8">
      <g>
       <use xlink:href="#m1944418780" x="185.635129" y="238.71" style="fill: #ffffff; stroke: #000000; stroke-width: 1.25"/>
      </g>
     </g>
     <g id="line2d_9">
      <g>
       <use xlink:href="#m167e4f822b" x="185.635129" y="17.32" style="fill: #ffffff; stroke: #000000; stroke-width: 1.25"/>
      </g>
     </g>
     <g id="text_3">
      <!-- 1.3 -->
      <g transform="translate(178.135129 250.5425) scale(0.12 -0.12)">
       <defs>
        <path id="TimesNewRomanPSMT-33" d="M 325 3431 
Q 506 3859 782 4092 
Q 1059 4325 1472 4325 
Q 1981 4325 2253 3994 
Q 2459 3747 2459 3466 
Q 2459 3003 1878 2509 
Q 2269 2356 2469 2072 
Q 2669 1788 2669 1403 
Q 2669 853 2319 450 
Q 1863 -75 997 -75 
Q 569 -75 414 31 
Q 259 138 259 259 
Q 259 350 332 419 
Q 406 488 509 488 
Q 588 488 669 463 
Q 722 447 909 348 
Q 1097 250 1169 231 
Q 1284 197 1416 197 
Q 1734 197 1970 444 
Q 2206 691 2206 1028 
Q 2206 1275 2097 1509 
Q 2016 1684 1919 1775 
Q 1784 1900 1550 2001 
Q 1316 2103 1072 2103 
L 972 2103 
L 972 2197 
Q 1219 2228 1467 2375 
Q 1716 2522 1828 2728 
Q 1941 2934 1941 3181 
Q 1941 3503 1739 3701 
Q 1538 3900 1238 3900 
Q 753 3900 428 3381 
L 325 3431 
z
" transform="scale(0.015625)"/>
       </defs>
       <use xlink:href="#TimesNewRomanPSMT-31"/>
       <use xlink:href="#TimesNewRomanPSMT-2e" x="50"/>
       <use xlink:href="#TimesNewRomanPSMT-33" x="75"/>
      </g>
     </g>
    </g>
    <g id="xtick_4">
     <g id="line2d_10">
      <path d="M 244.770524 238.71 
L 244.770524 17.32 
" clip-path="url(#p4b17613b40)" style="fill: none; stroke: #000000; stroke-opacity: 0.5; stroke-width: 0.5; stroke-linecap: square"/>
     </g>
     <g id="line2d_11">
      <g>
       <use xlink:href="#m1944418780" x="244.770524" y="238.71" style="fill: #ffffff; stroke: #000000; stroke-width: 1.25"/>
      </g>
     </g>
     <g id="line2d_12">
      <g>
       <use xlink:href="#m167e4f822b" x="244.770524" y="17.32" style="fill: #ffffff; stroke: #000000; stroke-width: 1.25"/>
      </g>
     </g>
     <g id="text_4">
      <!-- 1.4 -->
      <g transform="translate(237.270524 250.5425) scale(0.12 -0.12)">
       <defs>
        <path id="TimesNewRomanPSMT-34" d="M 2978 1563 
L 2978 1119 
L 2409 1119 
L 2409 0 
L 1894 0 
L 1894 1119 
L 100 1119 
L 100 1519 
L 2066 4325 
L 2409 4325 
L 2409 1563 
L 2978 1563 
z
M 1894 1563 
L 1894 3666 
L 406 1563 
L 1894 1563 
z
" transform="scale(0.015625)"/>
       </defs>
       <use xlink:href="#TimesNewRomanPSMT-31"/>
       <use xlink:href="#TimesNewRomanPSMT-2e" x="50"/>
       <use xlink:href="#TimesNewRomanPSMT-34" x="75"/>
      </g>
     </g>
    </g>
    <g id="xtick_5">
     <g id="line2d_13">
      <path d="M 303.905919 238.71 
L 303.905919 17.32 
" clip-path="url(#p4b17613b40)" style="fill: none; stroke: #000000; stroke-opacity: 0.5; stroke-width: 0.5; stroke-linecap: square"/>
     </g>
     <g id="line2d_14">
      <g>
       <use xlink:href="#m1944418780" x="303.905919" y="238.71" style="fill: #ffffff; stroke: #000000; stroke-width: 1.25"/>
      </g>
     </g>
     <g id="line2d_15">
      <g>
       <use xlink:href="#m167e4f822b" x="303.905919" y="17.32" style="fill: #ffffff; stroke: #000000; stroke-width: 1.25"/>
      </g>
     </g>
     <g id="text_5">
      <!-- 1.5 -->
      <g transform="translate(296.405919 250.5425) scale(0.12 -0.12)">
       <defs>
        <path id="TimesNewRomanPSMT-35" d="M 2778 4238 
L 2534 3706 
L 1259 3706 
L 981 3138 
Q 1809 3016 2294 2522 
Q 2709 2097 2709 1522 
Q 2709 1188 2573 903 
Q 2438 619 2231 419 
Q 2025 219 1772 97 
Q 1413 -75 1034 -75 
Q 653 -75 479 54 
Q 306 184 306 341 
Q 306 428 378 495 
Q 450 563 559 563 
Q 641 563 702 538 
Q 763 513 909 409 
Q 1144 247 1384 247 
Q 1750 247 2026 523 
Q 2303 800 2303 1197 
Q 2303 1581 2056 1914 
Q 1809 2247 1375 2428 
Q 1034 2569 447 2591 
L 1259 4238 
L 2778 4238 
z
" transform="scale(0.015625)"/>
       </defs>
       <use xlink:href="#TimesNewRomanPSMT-31"/>
       <use xlink:href="#TimesNewRomanPSMT-2e" x="50"/>
       <use xlink:href="#TimesNewRomanPSMT-35" x="75"/>
      </g>
     </g>
    </g>
    <g id="xtick_6">
     <g id="line2d_16">
      <path d="M 363.041313 238.71 
L 363.041313 17.32 
" clip-path="url(#p4b17613b40)" style="fill: none; stroke: #000000; stroke-opacity: 0.5; stroke-width: 0.5; stroke-linecap: square"/>
     </g>
     <g id="line2d_17">
      <g>
       <use xlink:href="#m1944418780" x="363.041313" y="238.71" style="fill: #ffffff; stroke: #000000; stroke-width: 1.25"/>
      </g>
     </g>
     <g id="line2d_18">
      <g>
       <use xlink:href="#m167e4f822b" x="363.041313" y="17.32" style="fill: #ffffff; stroke: #000000; stroke-width: 1.25"/>
      </g>
     </g>
     <g id="text_6">
      <!-- 1.6 -->
      <g transform="translate(355.541313 250.5425) scale(0.12 -0.12)">
       <defs>
        <path id="TimesNewRomanPSMT-36" d="M 2869 4325 
L 2869 4209 
Q 2456 4169 2195 4045 
Q 1934 3922 1679 3669 
Q 1425 3416 1258 3105 
Q 1091 2794 978 2366 
Q 1428 2675 1881 2675 
Q 2316 2675 2634 2325 
Q 2953 1975 2953 1425 
Q 2953 894 2631 456 
Q 2244 -75 1606 -75 
Q 1172 -75 869 213 
Q 275 772 275 1663 
Q 275 2231 503 2743 
Q 731 3256 1154 3653 
Q 1578 4050 1965 4187 
Q 2353 4325 2688 4325 
L 2869 4325 
z
M 925 2138 
Q 869 1716 869 1456 
Q 869 1156 980 804 
Q 1091 453 1309 247 
Q 1469 100 1697 100 
Q 1969 100 2183 356 
Q 2397 613 2397 1088 
Q 2397 1622 2184 2012 
Q 1972 2403 1581 2403 
Q 1463 2403 1327 2353 
Q 1191 2303 925 2138 
z
" transform="scale(0.015625)"/>
       </defs>
       <use xlink:href="#TimesNewRomanPSMT-31"/>
       <use xlink:href="#TimesNewRomanPSMT-2e" x="50"/>
       <use xlink:href="#TimesNewRomanPSMT-36" x="75"/>
      </g>
     </g>
    </g>
    <g id="xtick_7">
     <g id="line2d_19">
      <path d="M 422.176708 238.71 
L 422.176708 17.32 
" clip-path="url(#p4b17613b40)" style="fill: none; stroke: #000000; stroke-opacity: 0.5; stroke-width: 0.5; stroke-linecap: square"/>
     </g>
     <g id="line2d_20">
      <g>
       <use xlink:href="#m1944418780" x="422.176708" y="238.71" style="fill: #ffffff; stroke: #000000; stroke-width: 1.25"/>
      </g>
     </g>
     <g id="line2d_21">
      <g>
       <use xlink:href="#m167e4f822b" x="422.176708" y="17.32" style="fill: #ffffff; stroke: #000000; stroke-width: 1.25"/>
      </g>
     </g>
     <g id="text_7">
      <!-- 1.7 -->
      <g transform="translate(414.676708 250.5425) scale(0.12 -0.12)">
       <defs>
        <path id="TimesNewRomanPSMT-37" d="M 644 4238 
L 2916 4238 
L 2916 4119 
L 1503 -88 
L 1153 -88 
L 2419 3728 
L 1253 3728 
Q 900 3728 750 3644 
Q 488 3500 328 3200 
L 238 3234 
L 644 4238 
z
" transform="scale(0.015625)"/>
       </defs>
       <use xlink:href="#TimesNewRomanPSMT-31"/>
       <use xlink:href="#TimesNewRomanPSMT-2e" x="50"/>
       <use xlink:href="#TimesNewRomanPSMT-37" x="75"/>
      </g>
     </g>
    </g>
    <g id="text_8">
     <!-- Entropy [kJ/kg/K] -->
     <g transform="translate(217.175547 271.88625) scale(0.13 -0.13)">
      <defs>
       <path id="TimesNewRomanPSMT-45" d="M 1338 4006 
L 1338 2331 
L 2269 2331 
Q 2631 2331 2753 2441 
Q 2916 2584 2934 2947 
L 3050 2947 
L 3050 1472 
L 2934 1472 
Q 2891 1781 2847 1869 
Q 2791 1978 2662 2040 
Q 2534 2103 2269 2103 
L 1338 2103 
L 1338 706 
Q 1338 425 1363 364 
Q 1388 303 1450 267 
Q 1513 231 1688 231 
L 2406 231 
Q 2766 231 2928 281 
Q 3091 331 3241 478 
Q 3434 672 3638 1063 
L 3763 1063 
L 3397 0 
L 131 0 
L 131 116 
L 281 116 
Q 431 116 566 188 
Q 666 238 702 338 
Q 738 438 738 747 
L 738 3500 
Q 738 3903 656 3997 
Q 544 4122 281 4122 
L 131 4122 
L 131 4238 
L 3397 4238 
L 3444 3309 
L 3322 3309 
Q 3256 3644 3176 3769 
Q 3097 3894 2941 3959 
Q 2816 4006 2500 4006 
L 1338 4006 
z
" transform="scale(0.015625)"/>
       <path id="TimesNewRomanPSMT-6e" d="M 1034 2341 
Q 1538 2947 1994 2947 
Q 2228 2947 2397 2830 
Q 2566 2713 2666 2444 
Q 2734 2256 2734 1869 
L 2734 647 
Q 2734 375 2778 278 
Q 2813 200 2889 156 
Q 2966 113 3172 113 
L 3172 0 
L 1756 0 
L 1756 113 
L 1816 113 
Q 2016 113 2095 173 
Q 2175 234 2206 353 
Q 2219 400 2219 647 
L 2219 1819 
Q 2219 2209 2117 2386 
Q 2016 2563 1775 2563 
Q 1403 2563 1034 2156 
L 1034 647 
Q 1034 356 1069 288 
Q 1113 197 1189 155 
Q 1266 113 1500 113 
L 1500 0 
L 84 0 
L 84 113 
L 147 113 
Q 366 113 442 223 
Q 519 334 519 647 
L 519 1709 
Q 519 2225 495 2337 
Q 472 2450 423 2490 
Q 375 2531 294 2531 
Q 206 2531 84 2484 
L 38 2597 
L 900 2947 
L 1034 2947 
L 1034 2341 
z
" transform="scale(0.015625)"/>
       <path id="TimesNewRomanPSMT-74" d="M 1031 3803 
L 1031 2863 
L 1700 2863 
L 1700 2644 
L 1031 2644 
L 1031 788 
Q 1031 509 1111 412 
Q 1191 316 1316 316 
Q 1419 316 1516 380 
Q 1613 444 1666 569 
L 1788 569 
Q 1678 263 1478 108 
Q 1278 -47 1066 -47 
Q 922 -47 784 33 
Q 647 113 581 261 
Q 516 409 516 719 
L 516 2644 
L 63 2644 
L 63 2747 
Q 234 2816 414 2980 
Q 594 3144 734 3369 
Q 806 3488 934 3803 
L 1031 3803 
z
" transform="scale(0.015625)"/>
       <path id="TimesNewRomanPSMT-72" d="M 1038 2947 
L 1038 2303 
Q 1397 2947 1775 2947 
Q 1947 2947 2059 2842 
Q 2172 2738 2172 2600 
Q 2172 2478 2090 2393 
Q 2009 2309 1897 2309 
Q 1788 2309 1652 2417 
Q 1516 2525 1450 2525 
Q 1394 2525 1328 2463 
Q 1188 2334 1038 2041 
L 1038 669 
Q 1038 431 1097 309 
Q 1138 225 1241 169 
Q 1344 113 1538 113 
L 1538 0 
L 72 0 
L 72 113 
Q 291 113 397 181 
Q 475 231 506 341 
Q 522 394 522 644 
L 522 1753 
Q 522 2253 501 2348 
Q 481 2444 426 2487 
Q 372 2531 291 2531 
Q 194 2531 72 2484 
L 41 2597 
L 906 2947 
L 1038 2947 
z
" transform="scale(0.015625)"/>
       <path id="TimesNewRomanPSMT-6f" d="M 1600 2947 
Q 2250 2947 2644 2453 
Q 2978 2031 2978 1484 
Q 2978 1100 2793 706 
Q 2609 313 2286 112 
Q 1963 -88 1566 -88 
Q 919 -88 538 428 
Q 216 863 216 1403 
Q 216 1797 411 2186 
Q 606 2575 925 2761 
Q 1244 2947 1600 2947 
z
M 1503 2744 
Q 1338 2744 1170 2645 
Q 1003 2547 900 2300 
Q 797 2053 797 1666 
Q 797 1041 1045 587 
Q 1294 134 1700 134 
Q 2003 134 2200 384 
Q 2397 634 2397 1244 
Q 2397 2006 2069 2444 
Q 1847 2744 1503 2744 
z
" transform="scale(0.015625)"/>
       <path id="TimesNewRomanPSMT-70" d="M -6 2578 
L 875 2934 
L 994 2934 
L 994 2266 
Q 1216 2644 1439 2795 
Q 1663 2947 1909 2947 
Q 2341 2947 2628 2609 
Q 2981 2197 2981 1534 
Q 2981 794 2556 309 
Q 2206 -88 1675 -88 
Q 1444 -88 1275 -22 
Q 1150 25 994 166 
L 994 -706 
Q 994 -1000 1030 -1079 
Q 1066 -1159 1155 -1206 
Q 1244 -1253 1478 -1253 
L 1478 -1369 
L -22 -1369 
L -22 -1253 
L 56 -1253 
Q 228 -1256 350 -1188 
Q 409 -1153 442 -1076 
Q 475 -1000 475 -688 
L 475 2019 
Q 475 2297 450 2372 
Q 425 2447 370 2484 
Q 316 2522 222 2522 
Q 147 2522 31 2478 
L -6 2578 
z
M 994 2081 
L 994 1013 
Q 994 666 1022 556 
Q 1066 375 1236 237 
Q 1406 100 1666 100 
Q 1978 100 2172 344 
Q 2425 663 2425 1241 
Q 2425 1897 2138 2250 
Q 1938 2494 1663 2494 
Q 1513 2494 1366 2419 
Q 1253 2363 994 2081 
z
" transform="scale(0.015625)"/>
       <path id="TimesNewRomanPSMT-79" d="M 38 2863 
L 1372 2863 
L 1372 2747 
L 1306 2747 
Q 1166 2747 1095 2686 
Q 1025 2625 1025 2534 
Q 1025 2413 1128 2197 
L 1825 753 
L 2466 2334 
Q 2519 2463 2519 2588 
Q 2519 2644 2497 2672 
Q 2472 2706 2419 2726 
Q 2366 2747 2231 2747 
L 2231 2863 
L 3163 2863 
L 3163 2747 
Q 3047 2734 2984 2696 
Q 2922 2659 2847 2556 
Q 2819 2513 2741 2316 
L 1575 -541 
Q 1406 -956 1132 -1168 
Q 859 -1381 606 -1381 
Q 422 -1381 303 -1275 
Q 184 -1169 184 -1031 
Q 184 -900 270 -820 
Q 356 -741 506 -741 
Q 609 -741 788 -809 
Q 913 -856 944 -856 
Q 1038 -856 1148 -759 
Q 1259 -663 1372 -384 
L 1575 113 
L 547 2272 
Q 500 2369 397 2513 
Q 319 2622 269 2659 
Q 197 2709 38 2747 
L 38 2863 
z
" transform="scale(0.015625)"/>
       <path id="TimesNewRomanPSMT-20" transform="scale(0.015625)"/>
       <path id="TimesNewRomanPSMT-5b" d="M 1900 -1269 
L 525 -1269 
L 525 4334 
L 1900 4334 
L 1900 4088 
L 994 4088 
L 994 -1025 
L 1900 -1025 
L 1900 -1269 
z
" transform="scale(0.015625)"/>
       <path id="TimesNewRomanPSMT-6b" d="M 1047 4444 
L 1047 1597 
L 1775 2259 
Q 2006 2472 2044 2528 
Q 2069 2566 2069 2603 
Q 2069 2666 2017 2711 
Q 1966 2756 1847 2763 
L 1847 2863 
L 3091 2863 
L 3091 2763 
Q 2834 2756 2664 2684 
Q 2494 2613 2291 2428 
L 1556 1750 
L 2291 822 
Q 2597 438 2703 334 
Q 2853 188 2966 144 
Q 3044 113 3238 113 
L 3238 0 
L 1847 0 
L 1847 113 
Q 1966 116 2008 148 
Q 2050 181 2050 241 
Q 2050 313 1925 472 
L 1047 1594 
L 1047 644 
Q 1047 366 1086 278 
Q 1125 191 1197 153 
Q 1269 116 1509 113 
L 1509 0 
L 53 0 
L 53 113 
Q 272 113 381 166 
Q 447 200 481 272 
Q 528 375 528 628 
L 528 3234 
Q 528 3731 506 3842 
Q 484 3953 434 3995 
Q 384 4038 303 4038 
Q 238 4038 106 3984 
L 53 4094 
L 903 4444 
L 1047 4444 
z
" transform="scale(0.015625)"/>
       <path id="TimesNewRomanPSMT-4a" d="M 638 4122 
L 638 4238 
L 2453 4238 
L 2453 4122 
L 2300 4122 
Q 2041 4122 1922 3969 
Q 1847 3869 1847 3488 
L 1847 1416 
Q 1847 938 1742 641 
Q 1638 344 1381 123 
Q 1125 -97 763 -97 
Q 469 -97 300 48 
Q 131 194 131 381 
Q 131 534 209 613 
Q 313 709 450 709 
Q 550 709 629 643 
Q 709 578 831 294 
Q 903 125 1016 125 
Q 1100 125 1173 228 
Q 1247 331 1247 594 
L 1247 3488 
Q 1247 3809 1206 3913 
Q 1175 3991 1075 4047 
Q 941 4122 791 4122 
L 638 4122 
z
" transform="scale(0.015625)"/>
       <path id="TimesNewRomanPSMT-2f" d="M 1794 4444 
L 259 -88 
L 9 -88 
L 1544 4444 
L 1794 4444 
z
" transform="scale(0.015625)"/>
       <path id="TimesNewRomanPSMT-67" d="M 966 1044 
Q 703 1172 562 1401 
Q 422 1631 422 1909 
Q 422 2334 742 2640 
Q 1063 2947 1563 2947 
Q 1972 2947 2272 2747 
L 2878 2747 
Q 3013 2747 3034 2739 
Q 3056 2731 3066 2713 
Q 3084 2684 3084 2613 
Q 3084 2531 3069 2500 
Q 3059 2484 3036 2475 
Q 3013 2466 2878 2466 
L 2506 2466 
Q 2681 2241 2681 1891 
Q 2681 1491 2375 1206 
Q 2069 922 1553 922 
Q 1341 922 1119 984 
Q 981 866 932 777 
Q 884 688 884 625 
Q 884 572 936 522 
Q 988 472 1138 450 
Q 1225 438 1575 428 
Q 2219 413 2409 384 
Q 2700 344 2873 169 
Q 3047 -6 3047 -263 
Q 3047 -616 2716 -925 
Q 2228 -1381 1444 -1381 
Q 841 -1381 425 -1109 
Q 191 -953 191 -784 
Q 191 -709 225 -634 
Q 278 -519 444 -313 
Q 466 -284 763 25 
Q 600 122 533 198 
Q 466 275 466 372 
Q 466 481 555 628 
Q 644 775 966 1044 
z
M 1509 2797 
Q 1278 2797 1122 2612 
Q 966 2428 966 2047 
Q 966 1553 1178 1281 
Q 1341 1075 1591 1075 
Q 1828 1075 1981 1253 
Q 2134 1431 2134 1813 
Q 2134 2309 1919 2591 
Q 1759 2797 1509 2797 
z
M 934 0 
Q 788 -159 713 -296 
Q 638 -434 638 -550 
Q 638 -700 819 -813 
Q 1131 -1006 1722 -1006 
Q 2284 -1006 2551 -807 
Q 2819 -609 2819 -384 
Q 2819 -222 2659 -153 
Q 2497 -84 2016 -72 
Q 1313 -53 934 0 
z
" transform="scale(0.015625)"/>
       <path id="TimesNewRomanPSMT-4b" d="M 1913 2350 
L 3475 797 
Q 3859 413 4131 273 
Q 4403 134 4675 116 
L 4675 0 
L 2659 0 
L 2659 116 
Q 2841 116 2920 177 
Q 3000 238 3000 313 
Q 3000 388 2970 447 
Q 2941 506 2775 669 
L 1313 2116 
L 1313 750 
Q 1313 428 1353 325 
Q 1384 247 1484 191 
Q 1619 116 1769 116 
L 1913 116 
L 1913 0 
L 106 0 
L 106 116 
L 256 116 
Q 519 116 638 269 
Q 713 369 713 750 
L 713 3488 
Q 713 3809 672 3916 
Q 641 3991 544 4047 
Q 406 4122 256 4122 
L 106 4122 
L 106 4238 
L 1913 4238 
L 1913 4122 
L 1769 4122 
Q 1622 4122 1484 4050 
Q 1388 4000 1350 3900 
Q 1313 3800 1313 3488 
L 1313 2191 
Q 1375 2250 1741 2588 
Q 2669 3438 2863 3722 
Q 2947 3847 2947 3941 
Q 2947 4013 2881 4067 
Q 2816 4122 2659 4122 
L 2563 4122 
L 2563 4238 
L 4119 4238 
L 4119 4122 
Q 3981 4119 3868 4084 
Q 3756 4050 3593 3951 
Q 3431 3853 3194 3634 
Q 3125 3572 2559 2994 
L 1913 2350 
z
" transform="scale(0.015625)"/>
       <path id="TimesNewRomanPSMT-5d" d="M 234 4334 
L 1609 4334 
L 1609 -1272 
L 234 -1272 
L 234 -1025 
L 1141 -1025 
L 1141 4088 
L 234 4088 
L 234 4334 
z
" transform="scale(0.015625)"/>
      </defs>
      <use xlink:href="#TimesNewRomanPSMT-45"/>
      <use xlink:href="#TimesNewRomanPSMT-6e" x="61.083984"/>
      <use xlink:href="#TimesNewRomanPSMT-74" x="111.083984"/>
      <use xlink:href="#TimesNewRomanPSMT-72" x="138.867188"/>
      <use xlink:href="#TimesNewRomanPSMT-6f" x="172.167969"/>
      <use xlink:href="#TimesNewRomanPSMT-70" x="222.167969"/>
      <use xlink:href="#TimesNewRomanPSMT-79" x="272.167969"/>
      <use xlink:href="#TimesNewRomanPSMT-20" x="322.167969"/>
      <use xlink:href="#TimesNewRomanPSMT-5b" x="347.167969"/>
      <use xlink:href="#TimesNewRomanPSMT-6b" x="380.46875"/>
      <use xlink:href="#TimesNewRomanPSMT-4a" x="430.46875"/>
      <use xlink:href="#TimesNewRomanPSMT-2f" x="469.384766"/>
      <use xlink:href="#TimesNewRomanPSMT-6b" x="497.167969"/>
      <use xlink:href="#TimesNewRomanPSMT-67" x="547.167969"/>
      <use xlink:href="#TimesNewRomanPSMT-2f" x="597.167969"/>
      <use xlink:href="#TimesNewRomanPSMT-4b" x="624.951172"/>
      <use xlink:href="#TimesNewRomanPSMT-5d" x="697.167969"/>
     </g>
    </g>
   </g>
   <g id="matplotlib.axis_2">
    <g id="ytick_1">
     <g id="line2d_22">
      <path d="M 52.71 238.71 
L 476.6 238.71 
" clip-path="url(#p4b17613b40)" style="fill: none; stroke: #000000; stroke-opacity: 0.5; stroke-width: 0.5; stroke-linecap: square"/>
     </g>
     <g id="line2d_23">
      <defs>
       <path id="mbbdea6b2a6" d="M 0 0 
L 6 0 
" style="stroke: #000000; stroke-width: 1.25"/>
      </defs>
      <g>
       <use xlink:href="#mbbdea6b2a6" x="52.71" y="238.71" style="fill: #ffffff; stroke: #000000; stroke-width: 1.25"/>
      </g>
     </g>
     <g id="line2d_24">
      <defs>
       <path id="m15f6490e77" d="M 0 0 
L -6 0 
" style="stroke: #000000; stroke-width: 1.25"/>
      </defs>
      <g>
       <use xlink:href="#m15f6490e77" x="476.6" y="238.71" style="fill: #ffffff; stroke: #000000; stroke-width: 1.25"/>
      </g>
     </g>
     <g id="text_9">
      <!-- 0 -->
      <g transform="translate(43.21 242.87625) scale(0.12 -0.12)">
       <defs>
        <path id="TimesNewRomanPSMT-30" d="M 231 2094 
Q 231 2819 450 3342 
Q 669 3866 1031 4122 
Q 1313 4325 1613 4325 
Q 2100 4325 2488 3828 
Q 2972 3213 2972 2159 
Q 2972 1422 2759 906 
Q 2547 391 2217 158 
Q 1888 -75 1581 -75 
Q 975 -75 572 641 
Q 231 1244 231 2094 
z
M 844 2016 
Q 844 1141 1059 588 
Q 1238 122 1591 122 
Q 1759 122 1940 273 
Q 2122 425 2216 781 
Q 2359 1319 2359 2297 
Q 2359 3022 2209 3506 
Q 2097 3866 1919 4016 
Q 1791 4119 1609 4119 
Q 1397 4119 1231 3928 
Q 1006 3669 925 3112 
Q 844 2556 844 2016 
z
" transform="scale(0.015625)"/>
       </defs>
       <use xlink:href="#TimesNewRomanPSMT-30"/>
      </g>
     </g>
    </g>
    <g id="ytick_2">
     <g id="line2d_25">
      <path d="M 52.71 194.432 
L 476.6 194.432 
" clip-path="url(#p4b17613b40)" style="fill: none; stroke: #000000; stroke-opacity: 0.5; stroke-width: 0.5; stroke-linecap: square"/>
     </g>
     <g id="line2d_26">
      <g>
       <use xlink:href="#mbbdea6b2a6" x="52.71" y="194.432" style="fill: #ffffff; stroke: #000000; stroke-width: 1.25"/>
      </g>
     </g>
     <g id="line2d_27">
      <g>
       <use xlink:href="#m15f6490e77" x="476.6" y="194.432" style="fill: #ffffff; stroke: #000000; stroke-width: 1.25"/>
      </g>
     </g>
     <g id="text_10">
      <!-- 10 -->
      <g transform="translate(37.21 198.59825) scale(0.12 -0.12)">
       <use xlink:href="#TimesNewRomanPSMT-31"/>
       <use xlink:href="#TimesNewRomanPSMT-30" x="50"/>
      </g>
     </g>
    </g>
    <g id="ytick_3">
     <g id="line2d_28">
      <path d="M 52.71 150.154 
L 476.6 150.154 
" clip-path="url(#p4b17613b40)" style="fill: none; stroke: #000000; stroke-opacity: 0.5; stroke-width: 0.5; stroke-linecap: square"/>
     </g>
     <g id="line2d_29">
      <g>
       <use xlink:href="#mbbdea6b2a6" x="52.71" y="150.154" style="fill: #ffffff; stroke: #000000; stroke-width: 1.25"/>
      </g>
     </g>
     <g id="line2d_30">
      <g>
       <use xlink:href="#m15f6490e77" x="476.6" y="150.154" style="fill: #ffffff; stroke: #000000; stroke-width: 1.25"/>
      </g>
     </g>
     <g id="text_11">
      <!-- 20 -->
      <g transform="translate(37.21 154.32025) scale(0.12 -0.12)">
       <use xlink:href="#TimesNewRomanPSMT-32"/>
       <use xlink:href="#TimesNewRomanPSMT-30" x="50"/>
      </g>
     </g>
    </g>
    <g id="ytick_4">
     <g id="line2d_31">
      <path d="M 52.71 105.876 
L 476.6 105.876 
" clip-path="url(#p4b17613b40)" style="fill: none; stroke: #000000; stroke-opacity: 0.5; stroke-width: 0.5; stroke-linecap: square"/>
     </g>
     <g id="line2d_32">
      <g>
       <use xlink:href="#mbbdea6b2a6" x="52.71" y="105.876" style="fill: #ffffff; stroke: #000000; stroke-width: 1.25"/>
      </g>
     </g>
     <g id="line2d_33">
      <g>
       <use xlink:href="#m15f6490e77" x="476.6" y="105.876" style="fill: #ffffff; stroke: #000000; stroke-width: 1.25"/>
      </g>
     </g>
     <g id="text_12">
      <!-- 30 -->
      <g transform="translate(37.21 110.04225) scale(0.12 -0.12)">
       <use xlink:href="#TimesNewRomanPSMT-33"/>
       <use xlink:href="#TimesNewRomanPSMT-30" x="50"/>
      </g>
     </g>
    </g>
    <g id="ytick_5">
     <g id="line2d_34">
      <path d="M 52.71 61.598 
L 476.6 61.598 
" clip-path="url(#p4b17613b40)" style="fill: none; stroke: #000000; stroke-opacity: 0.5; stroke-width: 0.5; stroke-linecap: square"/>
     </g>
     <g id="line2d_35">
      <g>
       <use xlink:href="#mbbdea6b2a6" x="52.71" y="61.598" style="fill: #ffffff; stroke: #000000; stroke-width: 1.25"/>
      </g>
     </g>
     <g id="line2d_36">
      <g>
       <use xlink:href="#m15f6490e77" x="476.6" y="61.598" style="fill: #ffffff; stroke: #000000; stroke-width: 1.25"/>
      </g>
     </g>
     <g id="text_13">
      <!-- 40 -->
      <g transform="translate(37.21 65.76425) scale(0.12 -0.12)">
       <use xlink:href="#TimesNewRomanPSMT-34"/>
       <use xlink:href="#TimesNewRomanPSMT-30" x="50"/>
      </g>
     </g>
    </g>
    <g id="ytick_6">
     <g id="line2d_37">
      <path d="M 52.71 17.32 
L 476.6 17.32 
" clip-path="url(#p4b17613b40)" style="fill: none; stroke: #000000; stroke-opacity: 0.5; stroke-width: 0.5; stroke-linecap: square"/>
     </g>
     <g id="line2d_38">
      <g>
       <use xlink:href="#mbbdea6b2a6" x="52.71" y="17.32" style="fill: #ffffff; stroke: #000000; stroke-width: 1.25"/>
      </g>
     </g>
     <g id="line2d_39">
      <g>
       <use xlink:href="#m15f6490e77" x="476.6" y="17.32" style="fill: #ffffff; stroke: #000000; stroke-width: 1.25"/>
      </g>
     </g>
     <g id="text_14">
      <!-- 50 -->
      <g transform="translate(37.21 21.48625) scale(0.12 -0.12)">
       <use xlink:href="#TimesNewRomanPSMT-35"/>
       <use xlink:href="#TimesNewRomanPSMT-30" x="50"/>
      </g>
     </g>
    </g>
    <g id="text_15">
     <!-- Temperature [$^\circ$C] -->
     <g transform="translate(24.6 174.815) rotate(-90) scale(0.13 -0.13)">
      <defs>
       <path id="TimesNewRomanPSMT-54" d="M 3703 4238 
L 3750 3244 
L 3631 3244 
Q 3597 3506 3538 3619 
Q 3441 3800 3280 3886 
Q 3119 3972 2856 3972 
L 2259 3972 
L 2259 734 
Q 2259 344 2344 247 
Q 2463 116 2709 116 
L 2856 116 
L 2856 0 
L 1059 0 
L 1059 116 
L 1209 116 
Q 1478 116 1591 278 
Q 1659 378 1659 734 
L 1659 3972 
L 1150 3972 
Q 853 3972 728 3928 
Q 566 3869 450 3700 
Q 334 3531 313 3244 
L 194 3244 
L 244 4238 
L 3703 4238 
z
" transform="scale(0.015625)"/>
       <path id="TimesNewRomanPSMT-65" d="M 681 1784 
Q 678 1147 991 784 
Q 1303 422 1725 422 
Q 2006 422 2214 576 
Q 2422 731 2563 1106 
L 2659 1044 
Q 2594 616 2278 264 
Q 1963 -88 1488 -88 
Q 972 -88 605 314 
Q 238 716 238 1394 
Q 238 2128 614 2539 
Q 991 2950 1559 2950 
Q 2041 2950 2350 2633 
Q 2659 2316 2659 1784 
L 681 1784 
z
M 681 1966 
L 2006 1966 
Q 1991 2241 1941 2353 
Q 1863 2528 1708 2628 
Q 1553 2728 1384 2728 
Q 1125 2728 920 2526 
Q 716 2325 681 1966 
z
" transform="scale(0.015625)"/>
       <path id="TimesNewRomanPSMT-6d" d="M 1050 2338 
Q 1363 2650 1419 2697 
Q 1559 2816 1721 2881 
Q 1884 2947 2044 2947 
Q 2313 2947 2506 2790 
Q 2700 2634 2766 2338 
Q 3088 2713 3309 2830 
Q 3531 2947 3766 2947 
Q 3994 2947 4170 2830 
Q 4347 2713 4450 2447 
Q 4519 2266 4519 1878 
L 4519 647 
Q 4519 378 4559 278 
Q 4591 209 4675 161 
Q 4759 113 4950 113 
L 4950 0 
L 3538 0 
L 3538 113 
L 3597 113 
Q 3781 113 3884 184 
Q 3956 234 3988 344 
Q 4000 397 4000 647 
L 4000 1878 
Q 4000 2228 3916 2372 
Q 3794 2572 3525 2572 
Q 3359 2572 3192 2489 
Q 3025 2406 2788 2181 
L 2781 2147 
L 2788 2013 
L 2788 647 
Q 2788 353 2820 281 
Q 2853 209 2943 161 
Q 3034 113 3253 113 
L 3253 0 
L 1806 0 
L 1806 113 
Q 2044 113 2133 169 
Q 2222 225 2256 338 
Q 2272 391 2272 647 
L 2272 1878 
Q 2272 2228 2169 2381 
Q 2031 2581 1784 2581 
Q 1616 2581 1450 2491 
Q 1191 2353 1050 2181 
L 1050 647 
Q 1050 366 1089 281 
Q 1128 197 1204 155 
Q 1281 113 1516 113 
L 1516 0 
L 100 0 
L 100 113 
Q 297 113 375 155 
Q 453 197 493 289 
Q 534 381 534 647 
L 534 1741 
Q 534 2213 506 2350 
Q 484 2453 437 2492 
Q 391 2531 309 2531 
Q 222 2531 100 2484 
L 53 2597 
L 916 2947 
L 1050 2947 
L 1050 2338 
z
" transform="scale(0.015625)"/>
       <path id="TimesNewRomanPSMT-61" d="M 1822 413 
Q 1381 72 1269 19 
Q 1100 -59 909 -59 
Q 613 -59 420 144 
Q 228 347 228 678 
Q 228 888 322 1041 
Q 450 1253 767 1440 
Q 1084 1628 1822 1897 
L 1822 2009 
Q 1822 2438 1686 2597 
Q 1550 2756 1291 2756 
Q 1094 2756 978 2650 
Q 859 2544 859 2406 
L 866 2225 
Q 866 2081 792 2003 
Q 719 1925 600 1925 
Q 484 1925 411 2006 
Q 338 2088 338 2228 
Q 338 2497 613 2722 
Q 888 2947 1384 2947 
Q 1766 2947 2009 2819 
Q 2194 2722 2281 2516 
Q 2338 2381 2338 1966 
L 2338 994 
Q 2338 584 2353 492 
Q 2369 400 2405 369 
Q 2441 338 2488 338 
Q 2538 338 2575 359 
Q 2641 400 2828 588 
L 2828 413 
Q 2478 -56 2159 -56 
Q 2006 -56 1915 50 
Q 1825 156 1822 413 
z
M 1822 616 
L 1822 1706 
Q 1350 1519 1213 1441 
Q 966 1303 859 1153 
Q 753 1003 753 825 
Q 753 600 887 451 
Q 1022 303 1197 303 
Q 1434 303 1822 616 
z
" transform="scale(0.015625)"/>
       <path id="TimesNewRomanPSMT-75" d="M 2709 2863 
L 2709 1128 
Q 2709 631 2732 520 
Q 2756 409 2807 365 
Q 2859 322 2928 322 
Q 3025 322 3147 375 
L 3191 266 
L 2334 -88 
L 2194 -88 
L 2194 519 
Q 1825 119 1631 15 
Q 1438 -88 1222 -88 
Q 981 -88 804 51 
Q 628 191 559 409 
Q 491 628 491 1028 
L 491 2306 
Q 491 2509 447 2587 
Q 403 2666 317 2708 
Q 231 2750 6 2747 
L 6 2863 
L 1009 2863 
L 1009 947 
Q 1009 547 1148 422 
Q 1288 297 1484 297 
Q 1619 297 1789 381 
Q 1959 466 2194 703 
L 2194 2325 
Q 2194 2569 2105 2655 
Q 2016 2741 1734 2747 
L 1734 2863 
L 2709 2863 
z
" transform="scale(0.015625)"/>
       <path id="STIXGeneral-Regular-2218" d="M 1734 2224 
Q 1984 1971 1984 1612 
Q 1984 1254 1731 1001 
Q 1478 749 1120 749 
Q 755 749 505 1001 
Q 256 1254 256 1626 
Q 256 1984 509 2230 
Q 762 2477 1133 2477 
Q 1485 2477 1734 2224 
z
M 1434 1299 
Q 1562 1427 1562 1612 
Q 1562 1798 1434 1926 
Q 1306 2054 1133 2054 
Q 934 2054 806 1929 
Q 678 1805 678 1626 
Q 678 1427 803 1299 
Q 928 1171 1120 1171 
Q 1306 1171 1434 1299 
z
" transform="scale(0.015625)"/>
       <path id="TimesNewRomanPSMT-43" d="M 3853 4334 
L 3950 2894 
L 3853 2894 
Q 3659 3541 3300 3825 
Q 2941 4109 2438 4109 
Q 2016 4109 1675 3895 
Q 1334 3681 1139 3212 
Q 944 2744 944 2047 
Q 944 1472 1128 1050 
Q 1313 628 1683 403 
Q 2053 178 2528 178 
Q 2941 178 3256 354 
Q 3572 531 3950 1056 
L 4047 994 
Q 3728 428 3303 165 
Q 2878 -97 2294 -97 
Q 1241 -97 663 684 
Q 231 1266 231 2053 
Q 231 2688 515 3219 
Q 800 3750 1298 4042 
Q 1797 4334 2388 4334 
Q 2847 4334 3294 4109 
Q 3425 4041 3481 4041 
Q 3566 4041 3628 4100 
Q 3709 4184 3744 4334 
L 3853 4334 
z
" transform="scale(0.015625)"/>
      </defs>
      <use xlink:href="#TimesNewRomanPSMT-54" transform="translate(0 0.28125)"/>
      <use xlink:href="#TimesNewRomanPSMT-65" transform="translate(61.083984 0.28125)"/>
      <use xlink:href="#TimesNewRomanPSMT-6d" transform="translate(105.46875 0.28125)"/>
      <use xlink:href="#TimesNewRomanPSMT-70" transform="translate(183.251953 0.28125)"/>
      <use xlink:href="#TimesNewRomanPSMT-65" transform="translate(233.251953 0.28125)"/>
      <use xlink:href="#TimesNewRomanPSMT-72" transform="translate(277.636719 0.28125)"/>
      <use xlink:href="#TimesNewRomanPSMT-61" transform="translate(310.9375 0.28125)"/>
      <use xlink:href="#TimesNewRomanPSMT-74" transform="translate(355.322266 0.28125)"/>
      <use xlink:href="#TimesNewRomanPSMT-75" transform="translate(383.105469 0.28125)"/>
      <use xlink:href="#TimesNewRomanPSMT-72" transform="translate(433.105469 0.28125)"/>
      <use xlink:href="#TimesNewRomanPSMT-65" transform="translate(466.40625 0.28125)"/>
      <use xlink:href="#TimesNewRomanPSMT-20" transform="translate(510.791016 0.28125)"/>
      <use xlink:href="#TimesNewRomanPSMT-5b" transform="translate(535.791016 0.28125)"/>
      <use xlink:href="#STIXGeneral-Regular-2218" transform="translate(580.743076 35.55625) scale(0.7)"/>
      <use xlink:href="#TimesNewRomanPSMT-43" transform="translate(619.760437 0.28125)"/>
      <use xlink:href="#TimesNewRomanPSMT-5d" transform="translate(686.459656 0.28125)"/>
     </g>
    </g>
   </g>
   <g id="line2d_40">
    <path d="M -1 246.803828 
L 16.572057 231.450427 
L 33.180752 217.188741 
L 48.274131 204.492773 
L 62.029204 193.19063 
L 74.598956 183.129292 
L 86.115733 174.172538 
L 96.693428 166.1991 
L 106.429621 159.101025 
L 117.11958 151.604259 
L 126.842875 145.083955 
L 134.285899 140.304005 
L 134.285899 140.304005 
L 144.297403 134.192725 
L 153.292546 129.045027 
L 161.406921 124.70898 
L 168.753536 121.05661 
L 175.425924 117.980119 
L 181.502513 115.388706 
L 188.793062 112.557637 
L 195.280481 110.305517 
L 201.080314 108.513951 
L 207.507552 106.780561 
L 213.158161 105.478301 
L 219.073509 104.335657 
L 224.970122 103.414854 
L 231.244106 102.662397 
L 237.81656 102.107375 
L 244.625482 101.757521 
L 247.109953 101.679388 
L 264.655 101.544726 
L 264.655 101.544726 
L 288.551772 101.82797 
L 297.812089 102.252014 
L 306.409105 102.87161 
L 314.1285 103.641495 
L 322.088533 104.673892 
L 328.558382 105.709842 
L 335.759192 107.088757 
L 342.099943 108.513951 
L 349.008459 110.305517 
L 354.59604 111.945423 
L 360.561501 113.892297 
L 366.934598 116.203602 
L 373.74772 118.947552 
L 381.035666 122.205135 
L 386.176293 124.70898 
L 391.555935 127.516268 
L 397.186718 130.663773 
L 403.081485 134.192725 
L 409.254036 138.149352 
L 416.449011 143.10503 
L 421.963131 147.157108 
L 427.693386 151.604259 
L 433.651047 156.485002 
L 439.848758 161.841611 
L 446.30081 167.720483 
L 453.023469 174.172538 
L 460.035379 181.25366 
L 467.358065 189.025182 
L 475.016559 197.554419 
L 483.040203 206.915245 
L 490.6 216.118465 
L 490.6 216.118465 
" clip-path="url(#p4b17613b40)" style="fill: none; stroke: #000000; stroke-width: 1.25; stroke-linecap: square"/>
   </g>
   <g id="line2d_41">
    <defs>
     <path id="m6fa01411c4" d="M 0 2.25 
C 0.596707 2.25 1.169055 2.012926 1.59099 1.59099 
C 2.012926 1.169055 2.25 0.596707 2.25 0 
C 2.25 -0.596707 2.012926 -1.169055 1.59099 -1.59099 
C 1.169055 -2.012926 0.596707 -2.25 0 -2.25 
C -0.596707 -2.25 -1.169055 -2.012926 -1.59099 -1.59099 
C -2.012926 -1.169055 -2.25 -0.596707 -2.25 0 
C -2.25 0.596707 -2.012926 1.169055 -1.59099 1.59099 
C -1.169055 2.012926 -0.596707 2.25 0 2.25 
z
" style="stroke: #000000; stroke-width: 1.25"/>
    </defs>
    <g clip-path="url(#p4b17613b40)">
     <use xlink:href="#m6fa01411c4" x="264.655" y="101.544726" style="fill: #ffffff; stroke: #000000; stroke-width: 1.25"/>
    </g>
   </g>
   <g id="QuadContourSet_1">
    <path d="M 250.708954 101.679388 
L 245.044394 101.985683 
L 239.827791 102.494739 
L 234.889714 103.204901 
L 230.353538 104.068044 
L 225.899784 105.121464 
L 221.81012 106.272963 
L 217.165718 107.795177 
L 211.861442 109.807454 
L 207.369588 111.731404 
L 202.360003 114.103338 
L 196.749497 117.02757 
L 190.440395 120.6327 
L 183.315477 125.077273 
L 178.041818 128.601436 
L 172.289197 132.653368 
L 165.996532 137.312105 
L 159.09366 142.66852 
L 151.50121 148.827096 
L 143.129852 155.907961 
L 133.877875 164.049236 
L 123.626609 173.409724 
L 112.234476 184.17201 
L 99.531367 196.546023 
L 85.314251 210.773132 
L 69.342437 227.13085 
L 47.673873 249.791028 
L 25.181198 273.696493 
L 10.899778 289 
L 10.899778 289 
" clip-path="url(#p4b17613b40)" style="fill: none; stroke-dasharray: 0.75,1.2375; stroke-dashoffset: 0; stroke: #000000; stroke-width: 0.75"/>
    <path d="M 254.307954 101.679388 
L 250.330431 101.985683 
L 246.68917 102.494739 
L 243.237425 103.204901 
L 240.054241 104.068044 
L 236.913875 105.121464 
L 233.229162 106.61466 
L 229.803136 108.24688 
L 225.855575 110.404579 
L 222.483107 112.467567 
L 218.690936 115.010914 
L 214.407331 118.146473 
L 209.547195 122.012135 
L 204.006305 126.777905 
L 197.65257 132.653368 
L 192.883847 137.312105 
L 187.620631 142.66852 
L 181.79571 148.827096 
L 175.333543 155.907961 
L 168.148281 164.049236 
L 160.13991 173.409724 
L 151.189259 184.17201 
L 141.153393 196.546023 
L 129.862272 210.773132 
L 117.115353 227.13085 
L 96.067262 254.61714 
L 71.554232 287.058129 
L 70.092822 289 
L 70.092822 289 
" clip-path="url(#p4b17613b40)" style="fill: none; stroke-dasharray: 0.75,1.2375; stroke-dashoffset: 0; stroke: #000000; stroke-width: 0.75"/>
    <path d="M 257.906955 101.679388 
L 255.616468 101.985683 
L 253.550548 102.494739 
L 251.585135 103.204901 
L 249.413705 104.250397 
L 247.104604 105.657105 
L 244.766134 107.373918 
L 242.546168 109.250574 
L 239.93177 111.731404 
L 236.820774 115.010914 
L 233.084244 119.346235 
L 229.774072 123.491258 
L 225.930602 128.601436 
L 221.437708 134.901503 
L 216.147601 142.66852 
L 209.879822 152.244061 
L 202.418687 164.049236 
L 193.498345 178.603207 
L 182.775419 196.546023 
L 169.80492 218.666766 
L 147.125751 257.921519 
L 129.285866 289 
L 129.285866 289 
" clip-path="url(#p4b17613b40)" style="fill: none; stroke-dasharray: 0.75,1.2375; stroke-dashoffset: 0; stroke: #000000; stroke-width: 0.75"/>
    <path d="M 261.505956 101.679388 
L 260.941396 101.955964 
L 260.411927 102.494739 
L 259.710072 103.591467 
L 258.697531 105.657105 
L 256.968952 109.807454 
L 253.312466 119.346235 
L 221.777221 203.411503 
L 206.280478 243.592071 
L 190.023245 285.087633 
L 188.478911 289 
L 188.478911 289 
" clip-path="url(#p4b17613b40)" style="fill: none; stroke-dasharray: 0.75,1.2375; stroke-dashoffset: 0; stroke: #000000; stroke-width: 0.75"/>
    <path d="M 265.104957 101.679388 
L 266.361059 102.051719 
L 267.507531 102.63701 
L 268.561423 103.453523 
L 269.469382 104.445928 
L 270.290458 105.657105 
L 271.148174 107.373918 
L 271.836102 109.250574 
L 272.493952 111.731404 
L 273.080451 115.010914 
L 273.441123 118.146473 
L 273.701051 122.012135 
L 273.820077 126.777905 
L 273.742688 132.653368 
L 273.393928 139.896914 
L 272.679208 148.827096 
L 271.485966 159.836641 
L 269.679814 173.409724 
L 268.053608 184.17201 
L 266.019471 196.546023 
L 263.506334 210.773132 
L 260.434102 227.13085 
L 255.276707 252.991227 
L 249.757617 279.300839 
L 247.671955 289 
L 247.671955 289 
" clip-path="url(#p4b17613b40)" style="fill: none; stroke-dasharray: 0.75,1.2375; stroke-dashoffset: 0; stroke: #000000; stroke-width: 0.75"/>
    <path d="M 268.703958 101.679388 
L 271.684058 102.01755 
L 274.418584 102.563394 
L 276.628267 103.204901 
L 278.857056 104.068044 
L 280.97024 105.121464 
L 282.835988 106.272963 
L 284.860026 107.795177 
L 286.481069 109.250574 
L 288.18778 111.044856 
L 289.975925 113.25693 
L 291.839286 115.984079 
L 293.768909 119.346235 
L 295.08567 122.012135 
L 296.420019 125.077273 
L 297.763778 128.601436 
L 299.106061 132.653368 
L 300.433108 137.312105 
L 301.728514 142.66852 
L 302.973707 148.827096 
L 304.148308 155.907961 
L 305.229905 164.049236 
L 306.193115 173.409724 
L 307.008391 184.17201 
L 307.641497 196.546023 
L 308.054355 210.773132 
L 308.207018 227.13085 
L 308.023273 248.216378 
L 307.607911 266.497923 
L 306.865 289 
L 306.865 289 
" clip-path="url(#p4b17613b40)" style="fill: none; stroke-dasharray: 0.75,1.2375; stroke-dashoffset: 0; stroke: #000000; stroke-width: 0.75"/>
    <path d="M 272.302959 101.679388 
L 276.760616 101.985683 
L 280.996063 102.494739 
L 284.975978 103.204901 
L 288.55776 104.068044 
L 291.984331 105.121464 
L 295.041162 106.272963 
L 298.398887 107.795177 
L 301.126036 109.250574 
L 304.041204 111.044856 
L 307.152659 113.25693 
L 310.468718 115.984079 
L 312.796984 118.146473 
L 315.22153 120.6327 
L 317.74344 123.491258 
L 320.362592 126.777905 
L 323.07728 130.55675 
L 325.884041 134.901503 
L 328.777836 139.896914 
L 331.75255 145.640422 
L 334.801629 152.244061 
L 337.918502 159.836641 
L 341.096576 168.566263 
L 344.328921 178.603207 
L 347.608296 190.143254 
L 350.928295 203.411503 
L 354.285982 218.666766 
L 357.685831 236.20661 
L 357.685831 236.20661 
L 360.060087 249.791028 
L 362.744338 266.497923 
L 365.501673 285.087633 
L 366.058044 289 
L 366.058044 289 
" clip-path="url(#p4b17613b40)" style="fill: none; stroke-dasharray: 0.75,1.2375; stroke-dashoffset: 0; stroke: #000000; stroke-width: 0.75"/>
    <path d="M 275.90196 101.679388 
L 282.046653 101.985683 
L 287.857441 102.494739 
L 293.323689 103.204901 
L 298.258463 104.068044 
L 302.998422 105.121464 
L 307.246335 106.272963 
L 311.937749 107.795177 
L 315.771002 109.250574 
L 319.894628 111.044856 
L 324.329394 113.25693 
L 329.098149 115.984079 
L 332.474914 118.146473 
L 336.018385 120.6327 
L 339.735782 123.491258 
L 343.63385 126.777905 
L 347.718663 130.55675 
L 351.995624 134.901503 
L 356.46979 139.896914 
L 361.146481 145.640422 
L 366.03208 152.244061 
L 371.13477 159.836641 
L 373.770717 164.049236 
L 376.465106 168.566263 
L 379.219717 173.409724 
L 382.036565 178.603207 
L 384.917957 184.17201 
L 387.866568 190.143254 
L 390.885549 196.546023 
L 393.978653 203.411503 
L 397.150396 210.773132 
L 400.406247 218.666766 
L 403.75285 227.13085 
L 409.907649 243.592071 
L 414.962225 257.921519 
L 420.279234 273.696493 
L 425.251089 289 
L 425.251089 289 
" clip-path="url(#p4b17613b40)" style="fill: none; stroke-dasharray: 0.75,1.2375; stroke-dashoffset: 0; stroke: #000000; stroke-width: 0.75"/>
    <path d="M 279.500961 101.679388 
L 287.33269 101.985683 
L 294.71882 102.494739 
L 301.6714 103.204901 
L 307.959167 104.068044 
L 314.012514 105.121464 
L 319.451509 106.272963 
L 325.476611 107.795177 
L 330.415969 109.250574 
L 335.748052 111.044856 
L 341.506128 113.25693 
L 345.599806 115.010914 
L 349.911392 117.02757 
L 354.453574 119.346235 
L 359.239526 122.012135 
L 364.282743 125.077273 
L 369.596954 128.601436 
L 375.196179 132.653368 
L 381.095055 137.312105 
L 387.309426 142.66852 
L 393.857205 148.827096 
L 400.759381 155.907961 
L 404.351038 159.836641 
L 408.041122 164.049236 
L 411.833637 168.566263 
L 415.733019 173.409724 
L 419.744209 178.603207 
L 423.872739 184.17201 
L 428.12484 190.143254 
L 432.507575 196.546023 
L 437.029011 203.411503 
L 441.698417 210.773132 
L 446.526513 218.666766 
L 451.525766 227.13085 
L 460.814441 243.592071 
L 467.650006 256.260508 
L 474.85626 270.058774 
L 483.474234 287.058129 
L 484.444133 289 
L 484.444133 289 
" clip-path="url(#p4b17613b40)" style="fill: none; stroke-dasharray: 0.75,1.2375; stroke-dashoffset: 0; stroke: #000000; stroke-width: 0.75"/>
    <path clip-path="url(#p4b17613b40)" style="fill: none; stroke-dasharray: 0.75,1.2375; stroke-dashoffset: 0; stroke: #000000; stroke-width: 0.75"/>
   </g>
   <g id="line2d_42">
    <path d="M 307.044 102.922511 
L 307.044 100.708833 
L 307.044 98.495154 
L 307.044 96.281476 
L 307.044 94.067797 
L 307.044 91.854118 
L 307.044 89.64044 
L 307.044 87.426761 
L 307.044 85.213083 
L 307.044 82.999404 
L 307.044 80.785725 
L 307.044 78.572047 
L 307.044 76.358368 
L 307.044 74.14469 
L 307.044 71.931011 
L 307.044 69.717332 
L 307.044 67.503654 
L 307.044 65.289975 
L 307.044 63.076296 
L 307.044 60.862618 
L 307.044 58.648939 
" clip-path="url(#p4b17613b40)" style="fill: none; stroke: #0072bd; stroke-width: 1.25; stroke-linecap: square"/>
    <defs>
     <path id="m7697828bd0" d="M 0 1.5 
C 0.397805 1.5 0.77937 1.341951 1.06066 1.06066 
C 1.341951 0.77937 1.5 0.397805 1.5 0 
C 1.5 -0.397805 1.341951 -0.77937 1.06066 -1.06066 
C 0.77937 -1.341951 0.397805 -1.5 0 -1.5 
C -0.397805 -1.5 -0.77937 -1.341951 -1.06066 -1.06066 
C -1.341951 -0.77937 -1.5 -0.397805 -1.5 0 
C -1.5 0.397805 -1.341951 0.77937 -1.06066 1.06066 
C -0.77937 1.341951 -0.397805 1.5 0 1.5 
z
" style="stroke: #0072bd; stroke-width: 1.25"/>
    </defs>
    <g clip-path="url(#p4b17613b40)">
     <use xlink:href="#m7697828bd0" x="307.044" y="102.922511" style="fill: #ffffff; stroke: #0072bd; stroke-width: 1.25"/>
     <use xlink:href="#m7697828bd0" x="307.044" y="100.708833" style="fill: #ffffff; stroke: #0072bd; stroke-width: 1.25"/>
     <use xlink:href="#m7697828bd0" x="307.044" y="98.495154" style="fill: #ffffff; stroke: #0072bd; stroke-width: 1.25"/>
     <use xlink:href="#m7697828bd0" x="307.044" y="96.281476" style="fill: #ffffff; stroke: #0072bd; stroke-width: 1.25"/>
     <use xlink:href="#m7697828bd0" x="307.044" y="94.067797" style="fill: #ffffff; stroke: #0072bd; stroke-width: 1.25"/>
     <use xlink:href="#m7697828bd0" x="307.044" y="91.854118" style="fill: #ffffff; stroke: #0072bd; stroke-width: 1.25"/>
     <use xlink:href="#m7697828bd0" x="307.044" y="89.64044" style="fill: #ffffff; stroke: #0072bd; stroke-width: 1.25"/>
     <use xlink:href="#m7697828bd0" x="307.044" y="87.426761" style="fill: #ffffff; stroke: #0072bd; stroke-width: 1.25"/>
     <use xlink:href="#m7697828bd0" x="307.044" y="85.213083" style="fill: #ffffff; stroke: #0072bd; stroke-width: 1.25"/>
     <use xlink:href="#m7697828bd0" x="307.044" y="82.999404" style="fill: #ffffff; stroke: #0072bd; stroke-width: 1.25"/>
     <use xlink:href="#m7697828bd0" x="307.044" y="80.785725" style="fill: #ffffff; stroke: #0072bd; stroke-width: 1.25"/>
     <use xlink:href="#m7697828bd0" x="307.044" y="78.572047" style="fill: #ffffff; stroke: #0072bd; stroke-width: 1.25"/>
     <use xlink:href="#m7697828bd0" x="307.044" y="76.358368" style="fill: #ffffff; stroke: #0072bd; stroke-width: 1.25"/>
     <use xlink:href="#m7697828bd0" x="307.044" y="74.14469" style="fill: #ffffff; stroke: #0072bd; stroke-width: 1.25"/>
     <use xlink:href="#m7697828bd0" x="307.044" y="71.931011" style="fill: #ffffff; stroke: #0072bd; stroke-width: 1.25"/>
     <use xlink:href="#m7697828bd0" x="307.044" y="69.717332" style="fill: #ffffff; stroke: #0072bd; stroke-width: 1.25"/>
     <use xlink:href="#m7697828bd0" x="307.044" y="67.503654" style="fill: #ffffff; stroke: #0072bd; stroke-width: 1.25"/>
     <use xlink:href="#m7697828bd0" x="307.044" y="65.289975" style="fill: #ffffff; stroke: #0072bd; stroke-width: 1.25"/>
     <use xlink:href="#m7697828bd0" x="307.044" y="63.076296" style="fill: #ffffff; stroke: #0072bd; stroke-width: 1.25"/>
     <use xlink:href="#m7697828bd0" x="307.044" y="60.862618" style="fill: #ffffff; stroke: #0072bd; stroke-width: 1.25"/>
     <use xlink:href="#m7697828bd0" x="307.044" y="58.648939" style="fill: #ffffff; stroke: #0072bd; stroke-width: 1.25"/>
    </g>
   </g>
   <g id="line2d_43">
    <path d="M 349.433 110.419594 
L 349.433 108.205916 
L 349.433 105.992237 
L 349.433 103.778559 
L 349.433 101.56488 
L 349.433 99.351201 
L 349.433 97.137523 
L 349.433 94.923844 
L 349.433 92.710165 
L 349.433 90.496487 
L 349.433 88.282808 
L 349.433 86.06913 
L 349.433 83.855451 
L 349.433 81.641772 
L 349.433 79.428094 
L 349.433 77.214415 
L 349.433 75.000737 
L 349.433 72.787058 
L 349.433 70.573379 
L 349.433 68.359701 
L 349.433 66.146022 
" clip-path="url(#p4b17613b40)" style="fill: none; stroke: #d95319; stroke-width: 1.25; stroke-linecap: square"/>
    <defs>
     <path id="mbd7095c3ee" d="M 0 1.5 
C 0.397805 1.5 0.77937 1.341951 1.06066 1.06066 
C 1.341951 0.77937 1.5 0.397805 1.5 0 
C 1.5 -0.397805 1.341951 -0.77937 1.06066 -1.06066 
C 0.77937 -1.341951 0.397805 -1.5 0 -1.5 
C -0.397805 -1.5 -0.77937 -1.341951 -1.06066 -1.06066 
C -1.341951 -0.77937 -1.5 -0.397805 -1.5 0 
C -1.5 0.397805 -1.341951 0.77937 -1.06066 1.06066 
C -0.77937 1.341951 -0.397805 1.5 0 1.5 
z
" style="stroke: #d95319; stroke-width: 1.25"/>
    </defs>
    <g clip-path="url(#p4b17613b40)">
     <use xlink:href="#mbd7095c3ee" x="349.433" y="110.419594" style="fill: #ffffff; stroke: #d95319; stroke-width: 1.25"/>
     <use xlink:href="#mbd7095c3ee" x="349.433" y="108.205916" style="fill: #ffffff; stroke: #d95319; stroke-width: 1.25"/>
     <use xlink:href="#mbd7095c3ee" x="349.433" y="105.992237" style="fill: #ffffff; stroke: #d95319; stroke-width: 1.25"/>
     <use xlink:href="#mbd7095c3ee" x="349.433" y="103.778559" style="fill: #ffffff; stroke: #d95319; stroke-width: 1.25"/>
     <use xlink:href="#mbd7095c3ee" x="349.433" y="101.56488" style="fill: #ffffff; stroke: #d95319; stroke-width: 1.25"/>
     <use xlink:href="#mbd7095c3ee" x="349.433" y="99.351201" style="fill: #ffffff; stroke: #d95319; stroke-width: 1.25"/>
     <use xlink:href="#mbd7095c3ee" x="349.433" y="97.137523" style="fill: #ffffff; stroke: #d95319; stroke-width: 1.25"/>
     <use xlink:href="#mbd7095c3ee" x="349.433" y="94.923844" style="fill: #ffffff; stroke: #d95319; stroke-width: 1.25"/>
     <use xlink:href="#mbd7095c3ee" x="349.433" y="92.710165" style="fill: #ffffff; stroke: #d95319; stroke-width: 1.25"/>
     <use xlink:href="#mbd7095c3ee" x="349.433" y="90.496487" style="fill: #ffffff; stroke: #d95319; stroke-width: 1.25"/>
     <use xlink:href="#mbd7095c3ee" x="349.433" y="88.282808" style="fill: #ffffff; stroke: #d95319; stroke-width: 1.25"/>
     <use xlink:href="#mbd7095c3ee" x="349.433" y="86.06913" style="fill: #ffffff; stroke: #d95319; stroke-width: 1.25"/>
     <use xlink:href="#mbd7095c3ee" x="349.433" y="83.855451" style="fill: #ffffff; stroke: #d95319; stroke-width: 1.25"/>
     <use xlink:href="#mbd7095c3ee" x="349.433" y="81.641772" style="fill: #ffffff; stroke: #d95319; stroke-width: 1.25"/>
     <use xlink:href="#mbd7095c3ee" x="349.433" y="79.428094" style="fill: #ffffff; stroke: #d95319; stroke-width: 1.25"/>
     <use xlink:href="#mbd7095c3ee" x="349.433" y="77.214415" style="fill: #ffffff; stroke: #d95319; stroke-width: 1.25"/>
     <use xlink:href="#mbd7095c3ee" x="349.433" y="75.000737" style="fill: #ffffff; stroke: #d95319; stroke-width: 1.25"/>
     <use xlink:href="#mbd7095c3ee" x="349.433" y="72.787058" style="fill: #ffffff; stroke: #d95319; stroke-width: 1.25"/>
     <use xlink:href="#mbd7095c3ee" x="349.433" y="70.573379" style="fill: #ffffff; stroke: #d95319; stroke-width: 1.25"/>
     <use xlink:href="#mbd7095c3ee" x="349.433" y="68.359701" style="fill: #ffffff; stroke: #d95319; stroke-width: 1.25"/>
     <use xlink:href="#mbd7095c3ee" x="349.433" y="66.146022" style="fill: #ffffff; stroke: #d95319; stroke-width: 1.25"/>
    </g>
   </g>
   <g id="line2d_44">
    <path d="M 391.822 127.655716 
L 391.822 125.442038 
L 391.822 123.228359 
L 391.822 121.014681 
L 391.822 118.801002 
L 391.822 116.587323 
L 391.822 114.373645 
L 391.822 112.159966 
L 391.822 109.946287 
L 391.822 107.732609 
L 391.822 105.51893 
L 391.822 103.305252 
L 391.822 101.091573 
L 391.822 98.877894 
L 391.822 96.664216 
L 391.822 94.450537 
L 391.822 92.236859 
L 391.822 90.02318 
L 391.822 87.809501 
L 391.822 85.595823 
L 391.822 83.382144 
" clip-path="url(#p4b17613b40)" style="fill: none; stroke: #edb120; stroke-width: 1.25; stroke-linecap: square"/>
    <defs>
     <path id="mc61497b145" d="M 0 1.5 
C 0.397805 1.5 0.77937 1.341951 1.06066 1.06066 
C 1.341951 0.77937 1.5 0.397805 1.5 0 
C 1.5 -0.397805 1.341951 -0.77937 1.06066 -1.06066 
C 0.77937 -1.341951 0.397805 -1.5 0 -1.5 
C -0.397805 -1.5 -0.77937 -1.341951 -1.06066 -1.06066 
C -1.341951 -0.77937 -1.5 -0.397805 -1.5 0 
C -1.5 0.397805 -1.341951 0.77937 -1.06066 1.06066 
C -0.77937 1.341951 -0.397805 1.5 0 1.5 
z
" style="stroke: #edb120; stroke-width: 1.25"/>
    </defs>
    <g clip-path="url(#p4b17613b40)">
     <use xlink:href="#mc61497b145" x="391.822" y="127.655716" style="fill: #ffffff; stroke: #edb120; stroke-width: 1.25"/>
     <use xlink:href="#mc61497b145" x="391.822" y="125.442038" style="fill: #ffffff; stroke: #edb120; stroke-width: 1.25"/>
     <use xlink:href="#mc61497b145" x="391.822" y="123.228359" style="fill: #ffffff; stroke: #edb120; stroke-width: 1.25"/>
     <use xlink:href="#mc61497b145" x="391.822" y="121.014681" style="fill: #ffffff; stroke: #edb120; stroke-width: 1.25"/>
     <use xlink:href="#mc61497b145" x="391.822" y="118.801002" style="fill: #ffffff; stroke: #edb120; stroke-width: 1.25"/>
     <use xlink:href="#mc61497b145" x="391.822" y="116.587323" style="fill: #ffffff; stroke: #edb120; stroke-width: 1.25"/>
     <use xlink:href="#mc61497b145" x="391.822" y="114.373645" style="fill: #ffffff; stroke: #edb120; stroke-width: 1.25"/>
     <use xlink:href="#mc61497b145" x="391.822" y="112.159966" style="fill: #ffffff; stroke: #edb120; stroke-width: 1.25"/>
     <use xlink:href="#mc61497b145" x="391.822" y="109.946287" style="fill: #ffffff; stroke: #edb120; stroke-width: 1.25"/>
     <use xlink:href="#mc61497b145" x="391.822" y="107.732609" style="fill: #ffffff; stroke: #edb120; stroke-width: 1.25"/>
     <use xlink:href="#mc61497b145" x="391.822" y="105.51893" style="fill: #ffffff; stroke: #edb120; stroke-width: 1.25"/>
     <use xlink:href="#mc61497b145" x="391.822" y="103.305252" style="fill: #ffffff; stroke: #edb120; stroke-width: 1.25"/>
     <use xlink:href="#mc61497b145" x="391.822" y="101.091573" style="fill: #ffffff; stroke: #edb120; stroke-width: 1.25"/>
     <use xlink:href="#mc61497b145" x="391.822" y="98.877894" style="fill: #ffffff; stroke: #edb120; stroke-width: 1.25"/>
     <use xlink:href="#mc61497b145" x="391.822" y="96.664216" style="fill: #ffffff; stroke: #edb120; stroke-width: 1.25"/>
     <use xlink:href="#mc61497b145" x="391.822" y="94.450537" style="fill: #ffffff; stroke: #edb120; stroke-width: 1.25"/>
     <use xlink:href="#mc61497b145" x="391.822" y="92.236859" style="fill: #ffffff; stroke: #edb120; stroke-width: 1.25"/>
     <use xlink:href="#mc61497b145" x="391.822" y="90.02318" style="fill: #ffffff; stroke: #edb120; stroke-width: 1.25"/>
     <use xlink:href="#mc61497b145" x="391.822" y="87.809501" style="fill: #ffffff; stroke: #edb120; stroke-width: 1.25"/>
     <use xlink:href="#mc61497b145" x="391.822" y="85.595823" style="fill: #ffffff; stroke: #edb120; stroke-width: 1.25"/>
     <use xlink:href="#mc61497b145" x="391.822" y="83.382144" style="fill: #ffffff; stroke: #edb120; stroke-width: 1.25"/>
    </g>
   </g>
   <g id="patch_3">
    <path d="M 52.71 238.71 
L 52.71 17.32 
" style="fill: none; stroke: #000000; stroke-width: 1.25; stroke-linejoin: miter; stroke-linecap: square"/>
   </g>
   <g id="patch_4">
    <path d="M 476.6 238.71 
L 476.6 17.32 
" style="fill: none; stroke: #000000; stroke-width: 1.25; stroke-linejoin: miter; stroke-linecap: square"/>
   </g>
   <g id="patch_5">
    <path d="M 52.71 238.71 
L 476.6 238.71 
" style="fill: none; stroke: #000000; stroke-width: 1.25; stroke-linejoin: miter; stroke-linecap: square"/>
   </g>
   <g id="patch_6">
    <path d="M 52.71 17.32 
L 476.6 17.32 
" style="fill: none; stroke: #000000; stroke-width: 1.25; stroke-linejoin: miter; stroke-linecap: square"/>
   </g>
   <g id="legend_1">
    <g id="patch_7">
     <path d="M 64.71 72.737188 
L 140.81 72.737188 
Q 142.81 72.737188 142.81 70.737188 
L 142.81 29.32 
Q 142.81 27.32 140.81 27.32 
L 64.71 27.32 
Q 62.71 27.32 62.71 29.32 
L 62.71 70.737188 
Q 62.71 72.737188 64.71 72.737188 
z
" style="fill: #ffffff; stroke: #000000; stroke-linejoin: miter"/>
    </g>
    <g id="line2d_45">
     <path d="M 68.71 36.82 
L 74.96 36.82 
L 81.21 36.82 
" style="fill: none; stroke: #0072bd; stroke-width: 1.25; stroke-linecap: square"/>
     <g>
      <use xlink:href="#m7697828bd0" x="74.96" y="36.82" style="fill: #ffffff; stroke: #0072bd; stroke-width: 1.25"/>
     </g>
    </g>
    <g id="text_16">
     <!-- $s/s_\mathrm{crit}=1.05$ -->
     <g transform="translate(89.21 40.32) scale(0.1 -0.1)">
      <defs>
       <path id="STIXGeneral-Italic-73" d="M 2342 2829 
L 2214 1933 
L 2112 1933 
Q 2022 2675 1542 2675 
Q 1370 2675 1267 2579 
Q 1165 2483 1165 2310 
Q 1165 2067 1510 1658 
Q 1946 1152 1946 787 
Q 1946 397 1686 163 
Q 1427 -70 1024 -70 
Q 838 -70 672 -6 
Q 538 51 390 51 
Q 262 51 205 -83 
L 102 -83 
L 230 934 
L 333 934 
Q 461 64 973 64 
Q 1203 64 1331 192 
Q 1459 320 1459 557 
Q 1459 845 1101 1293 
Q 698 1798 698 2131 
Q 698 2451 909 2636 
Q 1120 2822 1472 2822 
Q 1600 2822 1830 2758 
Q 1971 2714 2061 2714 
Q 2189 2714 2253 2829 
L 2342 2829 
z
" transform="scale(0.015625)"/>
       <path id="STIXGeneral-Regular-2f" d="M 1837 4326 
L 378 -90 
L -58 -90 
L 1408 4326 
L 1837 4326 
z
" transform="scale(0.015625)"/>
       <path id="STIXGeneral-Regular-63" d="M 2547 998 
L 2637 941 
Q 2362 403 2112 205 
Q 1786 -64 1376 -64 
Q 845 -64 502 336 
Q 160 736 160 1357 
Q 160 2170 698 2618 
Q 1094 2944 1562 2944 
Q 1965 2944 2256 2749 
Q 2547 2554 2547 2285 
Q 2547 2176 2457 2096 
Q 2368 2016 2246 2016 
Q 2022 2016 1939 2310 
L 1901 2451 
Q 1850 2630 1773 2694 
Q 1696 2758 1523 2758 
Q 1133 2758 893 2451 
Q 653 2144 653 1645 
Q 653 1094 928 745 
Q 1203 397 1645 397 
Q 1920 397 2118 528 
Q 2317 659 2547 998 
z
" transform="scale(0.015625)"/>
       <path id="STIXGeneral-Regular-72" d="M 1024 2931 
L 1024 2342 
Q 1267 2688 1430 2816 
Q 1594 2944 1792 2944 
Q 1958 2944 2051 2854 
Q 2144 2765 2144 2605 
Q 2144 2470 2077 2393 
Q 2010 2317 1894 2317 
Q 1773 2317 1638 2445 
Q 1536 2541 1472 2541 
Q 1338 2541 1181 2355 
Q 1024 2170 1024 2016 
L 1024 576 
Q 1024 301 1133 205 
Q 1242 109 1568 96 
L 1568 0 
L 32 0 
L 32 96 
Q 339 154 412 224 
Q 486 294 486 538 
L 486 2138 
Q 486 2349 438 2435 
Q 390 2522 269 2522 
Q 166 2522 45 2496 
L 45 2598 
Q 448 2726 992 2944 
L 1024 2931 
z
" transform="scale(0.015625)"/>
       <path id="STIXGeneral-Regular-69" d="M 1152 4045 
Q 1152 3904 1056 3811 
Q 960 3718 819 3718 
Q 685 3718 592 3811 
Q 499 3904 499 4045 
Q 499 4179 595 4275 
Q 691 4371 826 4371 
Q 966 4371 1059 4275 
Q 1152 4179 1152 4045 
z
M 1619 0 
L 102 0 
L 102 96 
Q 435 115 521 211 
Q 608 307 608 666 
L 608 2118 
Q 608 2342 563 2432 
Q 518 2522 397 2522 
Q 243 2522 128 2490 
L 128 2592 
L 1120 2944 
L 1146 2918 
L 1146 672 
Q 1146 314 1226 218 
Q 1306 122 1619 96 
L 1619 0 
z
" transform="scale(0.015625)"/>
       <path id="STIXGeneral-Regular-74" d="M 1702 493 
L 1786 422 
Q 1478 -64 1011 -64 
Q 448 -64 448 749 
L 448 2675 
L 109 2675 
Q 83 2694 83 2720 
Q 83 2771 192 2842 
Q 435 2982 813 3526 
Q 826 3546 874 3606 
Q 922 3667 941 3706 
Q 986 3706 986 3622 
L 986 2880 
L 1632 2880 
L 1632 2675 
L 986 2675 
L 986 845 
Q 986 538 1062 403 
Q 1139 269 1318 269 
Q 1510 269 1702 493 
z
" transform="scale(0.015625)"/>
       <path id="STIXGeneral-Regular-3d" d="M 4077 2048 
L 307 2048 
L 307 2470 
L 4077 2470 
L 4077 2048 
z
M 4077 768 
L 307 768 
L 307 1190 
L 4077 1190 
L 4077 768 
z
" transform="scale(0.015625)"/>
       <path id="STIXGeneral-Regular-31" d="M 2522 0 
L 755 0 
L 755 96 
Q 1107 115 1235 227 
Q 1363 339 1363 608 
L 1363 3482 
Q 1363 3795 1171 3795 
Q 1082 3795 883 3718 
L 710 3654 
L 710 3744 
L 1856 4326 
L 1914 4307 
L 1914 486 
Q 1914 275 2042 185 
Q 2170 96 2522 96 
L 2522 0 
z
" transform="scale(0.015625)"/>
       <path id="STIXGeneral-Regular-2e" d="M 1158 275 
Q 1158 134 1052 32 
Q 947 -70 800 -70 
Q 653 -70 550 32 
Q 448 134 448 281 
Q 448 429 553 534 
Q 659 640 806 640 
Q 947 640 1052 531 
Q 1158 422 1158 275 
z
" transform="scale(0.015625)"/>
       <path id="STIXGeneral-Regular-30" d="M 3046 2112 
Q 3046 1683 2963 1302 
Q 2880 922 2717 602 
Q 2554 282 2266 96 
Q 1978 -90 1600 -90 
Q 1210 -90 915 108 
Q 621 307 461 640 
Q 301 973 227 1350 
Q 154 1728 154 2150 
Q 154 2746 301 3222 
Q 448 3699 790 4012 
Q 1133 4326 1626 4326 
Q 2253 4326 2649 3712 
Q 3046 3098 3046 2112 
z
M 2432 2080 
Q 2432 3091 2217 3625 
Q 2003 4160 1587 4160 
Q 1190 4160 979 3622 
Q 768 3085 768 2106 
Q 768 1120 979 598 
Q 1190 77 1600 77 
Q 2003 77 2217 598 
Q 2432 1120 2432 2080 
z
" transform="scale(0.015625)"/>
       <path id="STIXGeneral-Regular-35" d="M 2803 4358 
L 2573 3814 
Q 2534 3731 2400 3731 
L 1158 3731 
L 902 3187 
Q 1606 3053 1920 2896 
Q 2234 2739 2502 2368 
Q 2726 2061 2726 1555 
Q 2726 1094 2576 780 
Q 2426 467 2099 224 
Q 1664 -90 1011 -90 
Q 646 -90 422 19 
Q 198 128 198 307 
Q 198 550 486 550 
Q 717 550 960 352 
Q 1210 147 1414 147 
Q 1747 147 2012 480 
Q 2278 813 2278 1229 
Q 2278 1843 1850 2189 
Q 1293 2637 486 2637 
Q 410 2637 410 2688 
L 416 2720 
L 1114 4237 
L 2438 4237 
Q 2547 4237 2608 4269 
Q 2669 4301 2746 4403 
L 2803 4358 
z
" transform="scale(0.015625)"/>
      </defs>
      <use xlink:href="#STIXGeneral-Italic-73" transform="translate(0 0.203125)"/>
      <use xlink:href="#STIXGeneral-Regular-2f" transform="translate(38.899994 0.203125)"/>
      <use xlink:href="#STIXGeneral-Italic-73" transform="translate(66.699982 0.203125)"/>
      <use xlink:href="#STIXGeneral-Regular-63" transform="translate(105.599976 -13.025) scale(0.7)"/>
      <use xlink:href="#STIXGeneral-Regular-72" transform="translate(136.679971 -13.025) scale(0.7)"/>
      <use xlink:href="#STIXGeneral-Regular-69" transform="translate(159.989963 -13.025) scale(0.7)"/>
      <use xlink:href="#STIXGeneral-Regular-74" transform="translate(179.449954 -13.025) scale(0.7)"/>
      <use xlink:href="#STIXGeneral-Regular-3d" transform="translate(217.759317 0.203125)"/>
      <use xlink:href="#STIXGeneral-Regular-31" transform="translate(300.699298 0.203125)"/>
      <use xlink:href="#STIXGeneral-Regular-2e" transform="translate(350.699283 0.203125)"/>
      <use xlink:href="#STIXGeneral-Regular-30" transform="translate(375.699268 0.203125)"/>
      <use xlink:href="#STIXGeneral-Regular-35" transform="translate(425.699252 0.203125)"/>
     </g>
    </g>
    <g id="line2d_46">
     <path d="M 68.71 48.959062 
L 74.96 48.959062 
L 81.21 48.959062 
" style="fill: none; stroke: #d95319; stroke-width: 1.25; stroke-linecap: square"/>
     <g>
      <use xlink:href="#mbd7095c3ee" x="74.96" y="48.959062" style="fill: #ffffff; stroke: #d95319; stroke-width: 1.25"/>
     </g>
    </g>
    <g id="text_17">
     <!-- $s/s_\mathrm{crit}=1.10$ -->
     <g transform="translate(89.21 52.459062) scale(0.1 -0.1)">
      <use xlink:href="#STIXGeneral-Italic-73" transform="translate(0 0.40625)"/>
      <use xlink:href="#STIXGeneral-Regular-2f" transform="translate(38.899994 0.40625)"/>
      <use xlink:href="#STIXGeneral-Italic-73" transform="translate(66.699982 0.40625)"/>
      <use xlink:href="#STIXGeneral-Regular-63" transform="translate(105.599976 -12.821875) scale(0.7)"/>
      <use xlink:href="#STIXGeneral-Regular-72" transform="translate(136.679971 -12.821875) scale(0.7)"/>
      <use xlink:href="#STIXGeneral-Regular-69" transform="translate(159.989963 -12.821875) scale(0.7)"/>
      <use xlink:href="#STIXGeneral-Regular-74" transform="translate(179.449954 -12.821875) scale(0.7)"/>
      <use xlink:href="#STIXGeneral-Regular-3d" transform="translate(217.759317 0.40625)"/>
      <use xlink:href="#STIXGeneral-Regular-31" transform="translate(300.699298 0.40625)"/>
      <use xlink:href="#STIXGeneral-Regular-2e" transform="translate(350.699283 0.40625)"/>
      <use xlink:href="#STIXGeneral-Regular-31" transform="translate(375.699268 0.40625)"/>
      <use xlink:href="#STIXGeneral-Regular-30" transform="translate(425.699252 0.40625)"/>
     </g>
    </g>
    <g id="line2d_47">
     <path d="M 68.71 61.098125 
L 74.96 61.098125 
L 81.21 61.098125 
" style="fill: none; stroke: #edb120; stroke-width: 1.25; stroke-linecap: square"/>
     <g>
      <use xlink:href="#mc61497b145" x="74.96" y="61.098125" style="fill: #ffffff; stroke: #edb120; stroke-width: 1.25"/>
     </g>
    </g>
    <g id="text_18">
     <!-- $s/s_\mathrm{crit}=1.15$ -->
     <g transform="translate(89.21 64.598125) scale(0.1 -0.1)">
      <use xlink:href="#STIXGeneral-Italic-73" transform="translate(0 0.203125)"/>
      <use xlink:href="#STIXGeneral-Regular-2f" transform="translate(38.899994 0.203125)"/>
      <use xlink:href="#STIXGeneral-Italic-73" transform="translate(66.699982 0.203125)"/>
      <use xlink:href="#STIXGeneral-Regular-63" transform="translate(105.599976 -13.025) scale(0.7)"/>
      <use xlink:href="#STIXGeneral-Regular-72" transform="translate(136.679971 -13.025) scale(0.7)"/>
      <use xlink:href="#STIXGeneral-Regular-69" transform="translate(159.989963 -13.025) scale(0.7)"/>
      <use xlink:href="#STIXGeneral-Regular-74" transform="translate(179.449954 -13.025) scale(0.7)"/>
      <use xlink:href="#STIXGeneral-Regular-3d" transform="translate(217.759317 0.203125)"/>
      <use xlink:href="#STIXGeneral-Regular-31" transform="translate(300.699298 0.203125)"/>
      <use xlink:href="#STIXGeneral-Regular-2e" transform="translate(350.699283 0.203125)"/>
      <use xlink:href="#STIXGeneral-Regular-31" transform="translate(375.699268 0.203125)"/>
      <use xlink:href="#STIXGeneral-Regular-35" transform="translate(425.699252 0.203125)"/>
     </g>
    </g>
   </g>
  </g>
 </g>
 <defs>
  <clipPath id="p4b17613b40">
   <rect x="52.71" y="17.32" width="423.89" height="221.39"/>
  </clipPath>
 </defs>
</svg>
